<?xml version="1.0" encoding="utf-8"?>
<!-- Generator: Adobe Illustrator 27.6.1, SVG Export Plug-In . SVG Version: 6.00 Build 0)  -->
<svg version="1.1" id="Layer_1" xmlns="http://www.w3.org/2000/svg" xmlns:xlink="http://www.w3.org/1999/xlink" x="0px" y="0px"
	 viewBox="0 0 1771 539.9" style="enable-background:new 0 0 1771 539.9;" xml:space="preserve">
<style type="text/css">
	.st0{fill:#FFDA91;}
	.st1{fill:#152B04;}
	.st2{fill:#FFFFFF;}
</style>
<path class="st0" d="M2.4,131v126.4c0,62.5,58,113.2,129.6,113.2h125.1l186.2,136.5L421.4,371l1195.6-0.4
	c71.6,0,129.6-50.7,129.6-113.2V131c0-62.5-58-113.2-129.6-113.2H132C60.4,17.8,2.4,68.5,2.4,131z"/>
<g>
	<path class="st1" d="M-392.9,539.9h-1642.5c-35.5,0-64.3-28.7-64.3-64.2V64.3c0-35.5,28.8-64.3,64.3-64.3h1642.5
		c35.5,0,64.3,28.8,64.3,64.3v411.4C-328.7,511.2-357.4,539.9-392.9,539.9z"/>
</g>
<g>
	<path class="st2" d="M-411.2,19.2h-1602.2c-35.5,0-64.3,28.7-64.3,64.2v373.1c0,35.5,28.8,64.3,64.3,64.3h1602.2
		c35.5,0,64.3-28.8,64.3-64.3V83.4C-347,47.9-375.7,19.2-411.2,19.2z M-361.1,449.9c0,31.8-25.8,57.5-57.5,57.5H-2006
		c-31.8,0-57.5-25.8-57.5-57.5V88.6c0-31.8,25.8-57.5,57.5-57.5h1587.4c31.8,0,57.5,25.8,57.5,57.5L-361.1,449.9L-361.1,449.9z"/>
</g>
<g>
	<polygon class="st2" points="-1855.2,388.9 -1932.1,339.2 -1932.1,367.4 -1986.6,367.4 -1986.6,410.4 -1932.1,410.4 -1932.1,438.8 
			"/>
</g>
<g>
	<polygon class="st2" points="-1920.9,71.1 -1970.7,148 -1942.5,148 -1942.5,202.5 -1899.5,202.5 -1899.5,148 -1871.1,148 	"/>
</g>
<g>
	<rect x="-2063.6" y="261.2" class="st2" width="1702.5" height="16.1"/>
</g>
<g>
	<path class="st2" d="M-1792.2,115.7h9.8V142l12.5-26.3h9.8l-11.6,22.9l11.9,39.5h-10.3l-8.3-27.8l-3.9,7.9v19.9h-9.8L-1792.2,115.7
		C-1792.1,115.7-1792.2,115.7-1792.2,115.7z"/>
	<path class="st2" d="M-1755.2,115.7h26.8v8.9h-16.9v16.5h13.5v8.9h-13.5v19.2h16.9v8.9h-26.8V115.7z"/>
	<path class="st2" d="M-1715.2,124.6h-10.3v-8.9h30.3v8.9h-10.3v53.5h-9.8L-1715.2,124.6L-1715.2,124.6z"/>
	<path class="st2" d="M-1690.4,115.7h9.8v62.4h-9.8V115.7z"/>
	<path class="st2" d="M-1673.3,115.7h9.8V142l12.5-26.3h9.8l-11.7,22.9l11.9,39.5h-10.3l-8.3-27.8l-3.9,7.9v19.9h-9.8V115.7z"/>
	<path class="st2" d="M-1628.8,115.7h13.3l10.2,62.4h-9.8l-1.8-12.4v0.2h-11.1l-1.8,12.2h-9.1L-1628.8,115.7z M-1618.1,157.4
		l-4.4-30.9h-0.2l-4.3,30.9H-1618.1z"/>
	<path class="st2" d="M-1584.4,174.9c-2.4-2.7-3.7-6.6-3.7-11.6v-3.6h9.3v4.3c0,4,1.7,6.1,5.1,6.1c1.7,0,2.9-0.5,3.8-1.5
		s1.3-2.6,1.3-4.8c0-2.6-0.6-4.9-1.8-6.9c-1.2-2-3.4-4.4-6.6-7.2c-4-3.6-6.9-6.8-8.5-9.7s-2.4-6.1-2.4-9.8c0-4.9,1.2-8.8,3.7-11.5
		s6.1-4.1,10.9-4.1c4.7,0,8.2,1.4,10.7,4.1c2.4,2.7,3.6,6.6,3.6,11.6v2.6h-9.3v-3.2c0-2.1-0.4-3.7-1.2-4.7c-0.8-1-2.1-1.5-3.7-1.5
		c-3.3,0-4.9,2-4.9,6c0,2.3,0.6,4.4,1.8,6.3c1.2,2,3.4,4.3,6.6,7.1c4.1,3.6,6.9,6.8,8.5,9.7c1.5,2.9,2.3,6.3,2.3,10.3
		c0,5.1-1.3,9-3.8,11.8c-2.5,2.7-6.2,4.1-11,4.1C-1578.4,179-1582,177.6-1584.4,174.9z"/>
	<path class="st2" d="M-1553.2,115.7h15c4.9,0,8.5,1.3,11,3.9c2.4,2.6,3.7,6.5,3.7,11.5v31.6c0,5.1-1.2,8.9-3.7,11.5
		c-2.4,2.6-6.1,3.9-11,3.9h-15V115.7z M-1538.4,169.2c1.6,0,2.8-0.5,3.7-1.4c0.9-1,1.3-2.5,1.3-4.6v-32.5c0-2.1-0.4-3.7-1.3-4.6
		c-0.9-1-2.1-1.4-3.7-1.4h-5v44.6L-1538.4,169.2L-1538.4,169.2z"/>
	<path class="st2" d="M-1517,115.7h14l6.2,44.7h0.2l6.2-44.7h14v62.4h-9.3v-47.3h-0.2l-7.1,47.3h-8.2l-7.1-47.3h-0.2v47.3h-8.6
		L-1517,115.7L-1517,115.7z"/>
	<path class="st2" d="M-1454.7,115.7h14.8c5.1,0,8.7,1.2,11.1,3.5c2.3,2.3,3.5,6,3.5,10.8v2.5c0,3.2-0.5,5.8-1.6,7.8
		c-1,2-2.6,3.5-4.8,4.4v0.2c4.9,1.7,7.3,6,7.3,13v5.4c0,4.8-1.3,8.5-3.8,11s-6.2,3.8-11.1,3.8h-15.4V115.7z M-1441.1,141.1
		c2,0,3.4-0.5,4.4-1.5s1.5-2.7,1.5-5.1V131c0-2.3-0.4-3.9-1.2-4.9c-0.8-1-2.1-1.5-3.8-1.5h-4.7v16.5H-1441.1z M-1439.3,169.2
		c1.7,0,3-0.5,3.8-1.4s1.2-2.5,1.2-4.8v-5.4c0-2.9-0.5-4.8-1.5-5.9c-1-1.1-2.6-1.6-4.9-1.6h-4.4v19.2h5.8V169.2L-1439.3,169.2z"/>
	<path class="st2" d="M-1418.7,115.7h26.8v8.9h-16.9v16.5h13.5v8.9h-13.5v19.2h16.9v8.9h-26.8V115.7z"/>
	<path class="st2" d="M-1386.3,115.7h14.5c5.1,0,8.7,1.2,11.1,3.5c2.3,2.3,3.5,6,3.5,10.8v3.8c0,6.5-2.1,10.6-6.4,12.3v0.2
		c2.4,0.7,4.1,2.2,5,4.4c1,2.2,1.5,5.1,1.5,8.8v11c0,1.8,0.1,3.2,0.2,4.3s0.4,2.2,0.9,3.3h-10c-0.4-1-0.6-2-0.7-2.9
		s-0.2-2.5-0.2-4.8V159c0-2.9-0.5-4.8-1.4-6c-0.9-1.1-2.5-1.7-4.8-1.7h-3.4v26.8h-9.8L-1386.3,115.7L-1386.3,115.7z M-1373,142.4
		c2,0,3.4-0.5,4.4-1.5s1.5-2.7,1.5-5.1V131c0-2.3-0.4-3.9-1.2-4.9c-0.8-1-2.1-1.5-3.8-1.5h-4.5v17.8H-1373z"/>
	<path class="st2" d="M-1350.4,115.7h9.8V142l12.5-26.3h9.8l-11.7,22.9l11.9,39.5h-10.3l-8.3-27.8l-3.9,7.9v19.9h-9.8V115.7z"/>
	<path class="st2" d="M-1310.2,174.9c-2.5-2.7-3.7-6.6-3.7-11.6v-47.6h9.8V164c0,2.1,0.4,3.7,1.3,4.6c0.9,1,2.1,1.4,3.7,1.4
		s2.8-0.5,3.7-1.4c0.9-1,1.3-2.5,1.3-4.6v-48.3h9.5v47.6c0,5.1-1.2,8.9-3.7,11.6c-2.5,2.7-6.1,4.1-10.9,4.1
		C-1304.1,179-1307.7,177.6-1310.2,174.9z"/>
	<path class="st2" d="M-1270.3,115.7h13.3l10.2,62.4h-9.9l-1.8-12.4v0.2h-11.1l-1.8,12.2h-9.1L-1270.3,115.7z M-1259.6,157.4
		l-4.4-30.9h-0.2l-4.3,30.9H-1259.6z"/>
	<path class="st2" d="M-1242.2,115.7h9.8v53.5h16.1v8.9h-25.9V115.7L-1242.2,115.7z"/>
	<path class="st2" d="M-1211.5,115.7h9.8v62.4h-9.8V115.7z"/>
	<path class="st2" d="M-1186.7,124.6h-10.3v-8.9h30.3v8.9h-10.3v53.5h-9.7V124.6z"/>
	<path class="st2" d="M-1158.4,115.7h13.3l10.2,62.4h-9.8l-1.8-12.4v0.2h-11.2l-1.8,12.2h-9.1L-1158.4,115.7z M-1147.7,157.4
		l-4.4-30.9h-0.2l-4.3,30.9H-1147.7z"/>
	<path class="st2" d="M-1128.5,174.9c-2.4-2.7-3.7-6.6-3.7-11.6v-3.6h9.3v4.3c0,4,1.7,6.1,5.1,6.1c1.7,0,2.9-0.5,3.8-1.5
		s1.3-2.6,1.3-4.8c0-2.6-0.6-4.9-1.8-6.9c-1.2-2-3.4-4.4-6.6-7.2c-4-3.6-6.9-6.8-8.5-9.7s-2.4-6.1-2.4-9.8c0-4.9,1.2-8.8,3.7-11.5
		s6.1-4.1,10.9-4.1c4.7,0,8.2,1.4,10.7,4.1c2.4,2.7,3.6,6.6,3.6,11.6v2.6h-9.3v-3.2c0-2.1-0.4-3.7-1.2-4.7c-0.8-1-2.1-1.5-3.7-1.5
		c-3.3,0-4.9,2-4.9,6c0,2.3,0.6,4.4,1.8,6.3c1.2,2,3.4,4.3,6.6,7.1c4.1,3.6,6.9,6.8,8.5,9.7c1.5,2.9,2.3,6.3,2.3,10.3
		c0,5.1-1.3,9-3.8,11.8c-2.5,2.7-6.2,4.1-11,4.1C-1122.5,179-1126.1,177.6-1128.5,174.9z"/>
	<path class="st2" d="M-1083.1,115.7h14.8c5.1,0,8.7,1.2,11.1,3.5c2.3,2.3,3.5,6,3.5,10.8v2.5c0,3.2-0.5,5.8-1.6,7.8
		c-1,2-2.6,3.5-4.8,4.4v0.2c4.9,1.7,7.3,6,7.3,13v5.4c0,4.8-1.3,8.5-3.8,11s-6.2,3.8-11.1,3.8h-15.4V115.7z M-1069.4,141.1
		c2,0,3.4-0.5,4.4-1.5s1.5-2.7,1.5-5.1V131c0-2.3-0.4-3.9-1.2-4.9c-0.8-1-2.1-1.5-3.8-1.5h-4.7v16.5H-1069.4z M-1067.6,169.2
		c1.7,0,3-0.5,3.8-1.4s1.2-2.5,1.2-4.8v-5.4c0-2.9-0.5-4.8-1.5-5.9c-1-1.1-2.6-1.6-4.9-1.6h-4.4v19.2h5.8V169.2z"/>
	<path class="st2" d="M-1047,115.7h26.8v8.9h-16.9v16.5h13.5v8.9h-13.5v19.2h16.9v8.9h-26.8V115.7z"/>
	<path class="st2" d="M-1014.7,115.7h14.5c5.1,0,8.7,1.2,11.1,3.5c2.3,2.3,3.5,6,3.5,10.8v3.8c0,6.5-2.1,10.6-6.4,12.3v0.2
		c2.4,0.7,4.1,2.2,5,4.4c1,2.2,1.5,5.1,1.5,8.8v11c0,1.8,0.1,3.2,0.2,4.3s0.4,2.2,0.9,3.3h-10c-0.4-1-0.6-2-0.7-2.9
		s-0.2-2.5-0.2-4.8V159c0-2.9-0.5-4.8-1.4-6c-0.9-1.1-2.5-1.7-4.8-1.7h-3.4v26.8h-9.8L-1014.7,115.7L-1014.7,115.7z M-1001.3,142.4
		c2,0,3.4-0.5,4.4-1.5s1.5-2.7,1.5-5.1V131c0-2.3-0.4-3.9-1.2-4.9s-2.1-1.5-3.8-1.5h-4.5v17.8H-1001.3z"/>
	<path class="st2" d="M-971.2,115.7h13.3l10.2,62.4h-9.8l-1.8-12.4v0.2h-11.1l-1.8,12.2h-9.1L-971.2,115.7z M-960.5,157.4l-4.4-30.9
		h-0.2l-4.3,30.9H-960.5z"/>
	<path class="st2" d="M-943,115.7h15c4.9,0,8.5,1.3,11,3.9c2.4,2.6,3.7,6.5,3.7,11.5v31.6c0,5.1-1.2,8.9-3.7,11.5
		c-2.4,2.6-6.1,3.9-11,3.9h-15V115.7z M-928.2,169.2c1.6,0,2.8-0.5,3.7-1.4c0.9-1,1.3-2.5,1.3-4.6v-32.5c0-2.1-0.4-3.7-1.3-4.6
		c-0.9-1-2.1-1.4-3.7-1.4h-5v44.6L-928.2,169.2L-928.2,169.2z"/>
	<path class="st2" d="M-899.4,115.7h13.3l10.2,62.4h-9.8l-1.8-12.4v0.2h-11.2l-1.8,12.2h-9.1L-899.4,115.7z M-888.7,157.4l-4.4-30.9
		h-0.2l-4.3,30.9H-888.7z"/>
	<path class="st2" d="M-856.9,115.7h15c4.9,0,8.5,1.3,11,3.9c2.4,2.6,3.7,6.5,3.7,11.5v31.6c0,5.1-1.2,8.9-3.7,11.5
		c-2.4,2.6-6.1,3.9-11,3.9h-15V115.7z M-842.1,169.2c1.6,0,2.8-0.5,3.7-1.4c0.9-1,1.3-2.5,1.3-4.6v-32.5c0-2.1-0.4-3.7-1.3-4.6
		c-0.9-1-2.1-1.4-3.7-1.4h-5v44.6L-842.1,169.2L-842.1,169.2z"/>
	<path class="st2" d="M-820.7,115.7h9.8v62.4h-9.8V115.7z"/>
	<path class="st2" d="M-786.3,174.9c-2.5-2.7-3.7-6.6-3.7-11.6v-32.8c0-5.1,1.2-8.9,3.7-11.6s6.1-4.1,10.9-4.1s8.4,1.4,10.9,4.1
		s3.7,6.6,3.7,11.6v5.4h-9.3v-6c0-4.1-1.7-6.2-5.1-6.2s-5.1,2.1-5.1,6.2V164c0,4,1.7,6.1,5.1,6.1s5.1-2,5.1-6.1v-12.2h-4.9v-8.9
		h14.2v20.4c0,5.1-1.2,8.9-3.7,11.6c-2.5,2.7-6.1,4.1-10.9,4.1C-780.2,179-783.8,177.6-786.3,174.9z"/>
	<path class="st2" d="M-746.9,115.7h13.3l10.2,62.4h-9.8l-1.8-12.4v0.2h-11.1l-1.8,12.2h-9.1L-746.9,115.7z M-736.2,157.4l-4.4-30.9
		h-0.2l-4.3,30.9H-736.2z"/>
	<path class="st2" d="M-718.7,115.7h14.5c5.1,0,8.7,1.2,11.1,3.5c2.3,2.3,3.5,6,3.5,10.8v3.8c0,6.5-2.1,10.6-6.4,12.3v0.2
		c2.4,0.7,4.1,2.2,5,4.4c1,2.2,1.5,5.1,1.5,8.8v11c0,1.8,0.1,3.2,0.2,4.3s0.4,2.2,0.9,3.3h-10c-0.4-1-0.6-2-0.7-2.9
		s-0.2-2.5-0.2-4.8V159c0-2.9-0.5-4.8-1.4-6c-0.9-1.1-2.5-1.7-4.8-1.7h-3.4v26.8h-9.8L-718.7,115.7L-718.7,115.7z M-705.3,142.4
		c2,0,3.4-0.5,4.4-1.5s1.5-2.7,1.5-5.1V131c0-2.3-0.4-3.9-1.2-4.9s-2.1-1.5-3.8-1.5h-4.5v17.8H-705.3z"/>
	<path class="st2" d="M-682.8,115.7h9.8v62.4h-9.8V115.7z"/>
	<path class="st2" d="M-663.7,174.9c-2.4-2.7-3.7-6.6-3.7-11.6v-3.6h9.3v4.3c0,4,1.7,6.1,5.1,6.1c1.7,0,2.9-0.5,3.8-1.5
		s1.3-2.6,1.3-4.8c0-2.6-0.6-4.9-1.8-6.9s-3.4-4.4-6.6-7.2c-4-3.6-6.9-6.8-8.5-9.7s-2.4-6.1-2.4-9.8c0-4.9,1.2-8.8,3.7-11.5
		s6.1-4.1,10.9-4.1c4.7,0,8.2,1.4,10.7,4.1c2.4,2.7,3.6,6.6,3.6,11.6v2.6h-9.3v-3.2c0-2.1-0.4-3.7-1.2-4.7s-2.1-1.5-3.7-1.5
		c-3.3,0-4.9,2-4.9,6c0,2.3,0.6,4.4,1.8,6.3c1.2,2,3.4,4.3,6.6,7.1c4.1,3.6,6.9,6.8,8.5,9.7c1.5,2.9,2.3,6.3,2.3,10.3
		c0,5.1-1.3,9-3.8,11.8c-2.5,2.7-6.2,4.1-11,4.1C-657.7,179-661.3,177.6-663.7,174.9z"/>
	<path class="st2" d="M-616.3,174.9c-2.4-2.7-3.7-6.6-3.7-11.6v-3.6h9.3v4.3c0,4,1.7,6.1,5.1,6.1c1.7,0,2.9-0.5,3.8-1.5
		s1.3-2.6,1.3-4.8c0-2.6-0.6-4.9-1.8-6.9s-3.4-4.4-6.6-7.2c-4-3.6-6.9-6.8-8.5-9.7s-2.4-6.1-2.4-9.8c0-4.9,1.2-8.8,3.7-11.5
		s6.1-4.1,10.9-4.1c4.7,0,8.2,1.4,10.7,4.1c2.4,2.7,3.6,6.6,3.6,11.6v2.6h-9.3v-3.2c0-2.1-0.4-3.7-1.2-4.7s-2.1-1.5-3.7-1.5
		c-3.3,0-4.9,2-4.9,6c0,2.3,0.6,4.4,1.8,6.3c1.2,2,3.4,4.3,6.6,7.1c4.1,3.6,6.9,6.8,8.5,9.7c1.5,2.9,2.3,6.3,2.3,10.3
		c0,5.1-1.3,9-3.8,11.8c-2.5,2.7-6.2,4.1-11,4.1C-610.2,179-613.8,177.6-616.3,174.9z"/>
	<path class="st2" d="M-585.1,115.7h26.8v8.9h-16.9v16.5h13.5v8.9h-13.5v19.2h16.9v8.9h-26.8V115.7z"/>
	<path class="st2" d="M-552.7,115.7h14l6.2,44.7h0.2l6.2-44.7h14v62.4h-9.3v-47.3h-0.2l-7.1,47.3h-8.2l-7.1-47.3h-0.2v47.3h-8.6
		L-552.7,115.7L-552.7,115.7z"/>
	<path class="st2" d="M-504.7,115.7h14.4c4.9,0,8.5,1.3,11,3.9c2.4,2.6,3.7,6.5,3.7,11.5v6.2c0,5.1-1.2,8.9-3.7,11.5
		c-2.4,2.6-6.1,3.9-11,3.9h-4.6v25.4h-9.8V115.7z M-490.3,143.8c1.6,0,2.8-0.4,3.6-1.3c0.8-0.9,1.2-2.4,1.2-4.5v-7.4
		c0-2.1-0.4-3.7-1.2-4.5c-0.8-0.9-2-1.3-3.6-1.3h-4.6V144h4.6V143.8z"/>
	<path class="st2" d="M-470.3,115.7h9.8v62.4h-9.8V115.7z"/>
	<path class="st2" d="M-445.5,124.6h-10.3v-8.9h30.3v8.9h-10.2v53.5h-9.8V124.6z"/>
	<path class="st2" d="M-423.8,134.7h9.5v9.5h-9.5V134.7z M-423.8,168.6h9.5v9.5h-9.5V168.6z"/>
</g>
<g>
	<path class="st2" d="M-1792.2,354.6h14.5c4.9,0,8.5,1.3,11,3.9c2.4,2.6,3.7,6.5,3.7,11.5v6.2c0,5.1-1.2,8.9-3.7,11.5
		c-2.4,2.6-6.1,3.9-11,3.9h-4.6V417h-9.8L-1792.2,354.6L-1792.2,354.6z M-1777.7,382.7c1.6,0,2.8-0.4,3.6-1.3
		c0.8-0.9,1.2-2.4,1.2-4.5v-7.4c0-2.1-0.4-3.7-1.2-4.5c-0.8-0.9-2-1.3-3.6-1.3h-4.6v19.2h4.6V382.7z"/>
	<path class="st2" d="M-1757.7,354.6h26.8v8.9h-16.9V380h13.5v8.9h-13.5v19.2h16.9v8.9h-26.8V354.6z"/>
	<path class="st2" d="M-1725.4,354.6h12.3l9.5,37.4h0.2v-37.4h8.7V417h-10l-11.8-45.6h-0.2V417h-8.7V354.6z"/>
	<path class="st2" d="M-1684.3,413.9c-2.5-2.7-3.7-6.6-3.7-11.6v-32.8c0-5.1,1.2-8.9,3.7-11.6s6.1-4.1,10.9-4.1s8.4,1.4,10.9,4.1
		s3.7,6.6,3.7,11.6v5.4h-9.3v-6c0-4.1-1.7-6.2-5.1-6.2s-5.1,2.1-5.1,6.2V403c0,4,1.7,6.1,5.1,6.1s5.1-2,5.1-6.1v-12.2h-4.9v-8.9
		h14.2v20.4c0,5.1-1.2,8.9-3.7,11.6s-6.1,4.1-10.9,4.1C-1678.1,418-1681.8,416.6-1684.3,413.9z"/>
	<path class="st2" d="M-1644.9,354.6h13.3l10.2,62.4h-9.8l-1.8-12.4v0.2h-11.1l-1.8,12.2h-9.1L-1644.9,354.6z M-1634.2,396.4
		l-4.4-30.9h-0.1l-4.3,30.9H-1634.2z"/>
	<path class="st2" d="M-1616.7,354.6h12.3l9.5,37.4h0.2v-37.4h8.7V417h-10.1l-11.8-45.6h-0.2V417h-8.6V354.6z"/>
	<path class="st2" d="M-1575.6,413.9c-2.5-2.7-3.7-6.6-3.7-11.6v-32.8c0-5.1,1.2-8.9,3.7-11.6s6.1-4.1,10.9-4.1s8.4,1.4,10.9,4.1
		s3.7,6.6,3.7,11.6v5.4h-9.3v-6c0-4.1-1.7-6.2-5.1-6.2s-5.1,2.1-5.1,6.2V403c0,4,1.7,6.1,5.1,6.1s5.1-2,5.1-6.1v-12.2h-4.9v-8.9
		h14.2v20.4c0,5.1-1.2,8.9-3.7,11.6s-6.1,4.1-10.9,4.1C-1569.4,418-1573.1,416.6-1575.6,413.9z"/>
	<path class="st2" d="M-1540.7,413.9c-2.5-2.7-3.7-6.6-3.7-11.6v-32.8c0-5.1,1.2-8.9,3.7-11.6s6.1-4.1,10.9-4.1s8.4,1.4,10.9,4.1
		s3.7,6.6,3.7,11.6v5.4h-9.3v-6c0-4.1-1.7-6.2-5.1-6.2s-5.1,2.1-5.1,6.2V403c0,4,1.7,6.1,5.1,6.1s5.1-2,5.1-6.1v-12.2h-4.9v-8.9
		h14.2v20.4c0,5.1-1.2,8.9-3.7,11.6s-6.1,4.1-10.9,4.1S-1538.2,416.6-1540.7,413.9z"/>
	<path class="st2" d="M-1505.5,413.9c-2.5-2.7-3.7-6.6-3.7-11.6v-47.6h9.8V403c0,2.1,0.4,3.7,1.3,4.6c0.9,1,2.1,1.4,3.7,1.4
		s2.8-0.5,3.7-1.4c0.9-1,1.3-2.5,1.3-4.6v-48.3h9.5v47.6c0,5.1-1.2,8.9-3.7,11.6s-6.1,4.1-10.9,4.1
		C-1499.4,418-1503,416.6-1505.5,413.9z"/>
	<path class="st2" d="M-1473,354.6h14.5c5.1,0,8.7,1.2,11.1,3.5c2.3,2.3,3.5,6,3.5,10.8v3.8c0,6.5-2.1,10.6-6.4,12.3v0.2
		c2.4,0.7,4.1,2.2,5,4.4s1.5,5.1,1.5,8.8v11c0,1.8,0.1,3.2,0.2,4.3c0.1,1.1,0.4,2.2,0.9,3.3h-10c-0.4-1-0.6-2-0.7-2.9
		s-0.2-2.5-0.2-4.8V398c0-2.9-0.5-4.8-1.4-6c-0.9-1.1-2.5-1.7-4.8-1.7h-3.4v26.8h-9.8L-1473,354.6L-1473,354.6z M-1459.6,381.4
		c2,0,3.4-0.5,4.4-1.5s1.5-2.7,1.5-5.1V370c0-2.3-0.4-3.9-1.2-4.9c-0.8-1-2.1-1.5-3.8-1.5h-4.5v17.8H-1459.6z"/>
	<path class="st2" d="M-1429.5,354.6h13.3l10.2,62.4h-9.8l-1.8-12.4v0.2h-11.1l-1.8,12.2h-9.2L-1429.5,354.6z M-1418.8,396.4
		l-4.4-30.9h-0.2l-4.3,30.9H-1418.8z"/>
	<path class="st2" d="M-1401.3,354.6h12.3l9.5,37.4h0.2v-37.4h8.7V417h-10.1l-11.8-45.6h-0.2V417h-8.7L-1401.3,354.6L-1401.3,354.6z
		"/>
	<path class="st2" d="M-1341.3,363.6h-10.3v-8.9h30.3v8.9h-10.3v53.5h-9.8L-1341.3,363.6L-1341.3,363.6z"/>
	<path class="st2" d="M-1316.5,354.6h26.8v8.9h-17V380h13.5v8.9h-13.5v19.2h16.9v8.9h-26.8L-1316.5,354.6L-1316.5,354.6z"/>
	<path class="st2" d="M-1284.2,354.6h14.5c5.1,0,8.7,1.2,11.1,3.5c2.3,2.3,3.5,6,3.5,10.8v3.8c0,6.5-2.1,10.6-6.4,12.3v0.2
		c2.4,0.7,4.1,2.2,5,4.4s1.5,5.1,1.5,8.8v11c0,1.8,0.1,3.2,0.2,4.3c0.1,1.1,0.4,2.2,0.9,3.3h-10c-0.4-1-0.6-2-0.7-2.9
		s-0.2-2.5-0.2-4.8V398c0-2.9-0.5-4.8-1.4-6c-0.9-1.1-2.5-1.7-4.8-1.7h-3.4v26.8h-9.8L-1284.2,354.6L-1284.2,354.6z M-1270.8,381.4
		c2,0,3.4-0.5,4.4-1.5s1.5-2.7,1.5-5.1V370c0-2.3-0.4-3.9-1.2-4.9c-0.8-1-2.1-1.5-3.8-1.5h-4.5v17.8H-1270.8z"/>
	<path class="st2" d="M-1248.2,354.6h15c4.9,0,8.5,1.3,11,3.9c2.4,2.6,3.7,6.5,3.7,11.5v31.6c0,5.1-1.2,8.9-3.7,11.5
		c-2.4,2.6-6.1,3.9-11,3.9h-15V354.6z M-1233.4,408.2c1.6,0,2.8-0.5,3.7-1.4c0.9-1,1.3-2.5,1.3-4.6v-32.5c0-2.1-0.4-3.7-1.3-4.6
		c-0.9-1-2.1-1.4-3.7-1.4h-5v44.6h5V408.2z"/>
	<path class="st2" d="M-1212,354.6h9.8V417h-9.8V354.6z"/>
	<path class="st2" d="M-1194.9,354.6h15c4.9,0,8.5,1.3,11,3.9c2.4,2.6,3.7,6.5,3.7,11.5v31.6c0,5.1-1.2,8.9-3.7,11.5
		c-2.4,2.6-6.1,3.9-11,3.9h-15V354.6z M-1180.1,408.2c1.6,0,2.8-0.5,3.7-1.4c0.9-1,1.3-2.5,1.3-4.6v-32.5c0-2.1-0.4-3.7-1.3-4.6
		c-0.9-1-2.1-1.4-3.7-1.4h-5v44.6h5V408.2z"/>
	<path class="st2" d="M-1158.7,354.6h9.8V417h-9.8V354.6z"/>
	<path class="st2" d="M-1141.6,354.6h9.8V381l12.5-26.3h9.8l-11.7,22.9l11.9,39.5h-10.3l-8.3-27.8l-3.9,7.9v19.9h-9.8V354.6z"/>
	<path class="st2" d="M-1090.4,354.6h15c4.9,0,8.5,1.3,11,3.9c2.4,2.6,3.7,6.5,3.7,11.5v31.6c0,5.1-1.2,8.9-3.7,11.5
		c-2.4,2.6-6.1,3.9-11,3.9h-15V354.6L-1090.4,354.6z M-1075.6,408.2c1.6,0,2.8-0.5,3.7-1.4c0.9-1,1.3-2.5,1.3-4.6v-32.5
		c0-2.1-0.4-3.7-1.3-4.6c-0.9-1-2.1-1.4-3.7-1.4h-5v44.6h5V408.2z"/>
	<path class="st2" d="M-1054.2,354.6h9.8V417h-9.8V354.6z"/>
	<path class="st2" d="M-1022.8,354.6h14.4c4.9,0,8.5,1.3,11,3.9c2.4,2.6,3.7,6.5,3.7,11.5v6.2c0,5.1-1.2,8.9-3.7,11.5
		c-2.4,2.6-6.1,3.9-11,3.9h-4.6V417h-9.8L-1022.8,354.6L-1022.8,354.6z M-1008.4,382.7c1.6,0,2.8-0.4,3.6-1.3s1.2-2.4,1.2-4.5v-7.4
		c0-2.1-0.4-3.7-1.2-4.5c-0.8-0.9-2-1.3-3.6-1.3h-4.6v19.2h4.6V382.7z"/>
	<path class="st2" d="M-988.4,354.6h26.8v8.9h-16.9V380h13.5v8.9h-13.5v19.2h16.9v8.9h-26.8V354.6z"/>
	<path class="st2" d="M-956,354.6h14.5c5.1,0,8.7,1.2,11.1,3.5c2.3,2.3,3.5,6,3.5,10.8v3.8c0,6.5-2.1,10.6-6.4,12.3v0.2
		c2.4,0.7,4.1,2.2,5,4.4c1,2.2,1.5,5.1,1.5,8.8v11c0,1.8,0.1,3.2,0.2,4.3c0.1,1.1,0.4,2.2,0.9,3.3h-10c-0.4-1-0.6-2-0.7-2.9
		s-0.2-2.5-0.2-4.8V398c0-2.9-0.5-4.8-1.4-6c-0.9-1.1-2.5-1.7-4.8-1.7h-3.4v26.8h-9.8L-956,354.6L-956,354.6z M-942.6,381.4
		c2,0,3.4-0.5,4.4-1.5s1.5-2.7,1.5-5.1V370c0-2.3-0.4-3.9-1.2-4.9s-2.1-1.5-3.8-1.5h-4.5v17.8H-942.6z"/>
	<path class="st2" d="M-918.1,413.9c-2.4-2.7-3.7-6.6-3.7-11.6v-3.6h9.3v4.3c0,4,1.7,6.1,5.1,6.1c1.7,0,2.9-0.5,3.8-1.5
		s1.3-2.6,1.3-4.8c0-2.6-0.6-4.9-1.8-6.9s-3.4-4.4-6.6-7.2c-4-3.6-6.9-6.8-8.5-9.7c-1.6-2.9-2.4-6.1-2.4-9.8c0-4.9,1.2-8.8,3.7-11.5
		s6.1-4.1,10.9-4.1c4.7,0,8.2,1.4,10.7,4.1c2.4,2.7,3.6,6.6,3.6,11.6v2.6h-9.3v-3.2c0-2.1-0.4-3.7-1.2-4.7s-2.1-1.5-3.7-1.5
		c-3.3,0-4.9,2-4.9,6c0,2.3,0.6,4.4,1.8,6.3c1.2,2,3.4,4.3,6.6,7.1c4.1,3.6,6.9,6.8,8.5,9.7c1.5,2.9,2.3,6.3,2.3,10.3
		c0,5.1-1.3,9-3.8,11.8c-2.5,2.7-6.2,4.1-11,4.1C-912.1,418-915.7,416.6-918.1,413.9z"/>
	<path class="st2" d="M-886.9,354.6h9.8V417h-9.8V354.6z"/>
	<path class="st2" d="M-869.8,354.6h14l6.2,44.7h0.2l6.2-44.7h14V417h-9.3v-47.3h-0.2l-7.1,47.3h-8.2l-7.1-47.3h-0.2V417h-8.6
		L-869.8,354.6L-869.8,354.6z"/>
	<path class="st2" d="M-821.8,354.6h14.4c4.9,0,8.5,1.3,11,3.9c2.4,2.6,3.7,6.5,3.7,11.5v6.2c0,5.1-1.2,8.9-3.7,11.5
		c-2.4,2.6-6.1,3.9-11,3.9h-4.6V417h-9.8L-821.8,354.6L-821.8,354.6z M-807.4,382.7c1.6,0,2.8-0.4,3.6-1.3s1.2-2.4,1.2-4.5v-7.4
		c0-2.1-0.4-3.7-1.2-4.5c-0.8-0.9-2-1.3-3.6-1.3h-4.6v19.2h4.6V382.7z"/>
	<path class="st2" d="M-782.9,354.6h13.3l10.2,62.4h-9.8l-1.8-12.4v0.2h-11.1l-1.8,12.2h-9.1L-782.9,354.6z M-772.2,396.4l-4.4-30.9
		h-0.2l-4.3,30.9H-772.2z"/>
	<path class="st2" d="M-754.7,354.6h12.3l9.5,37.4h0.2v-37.4h8.7V417h-10.1l-11.8-45.6h-0.2V417h-8.7L-754.7,354.6L-754.7,354.6z"/>
	<path class="st2" d="M-713.6,413.9c-2.5-2.7-3.7-6.6-3.7-11.6v-32.8c0-5.1,1.2-8.9,3.7-11.6s6.1-4.1,10.9-4.1s8.4,1.4,10.9,4.1
		s3.7,6.6,3.7,11.6v5.4h-9.3v-6c0-4.1-1.7-6.2-5.1-6.2s-5.1,2.1-5.1,6.2V403c0,4,1.7,6.1,5.1,6.1s5.1-2,5.1-6.1v-12.2h-4.9v-8.9
		h14.2v20.4c0,5.1-1.2,8.9-3.7,11.6s-6.1,4.1-10.9,4.1S-711.1,416.6-713.6,413.9z"/>
	<path class="st2" d="M-674.2,354.6h13.3l10.2,62.4h-9.8l-1.8-12.4v0.2h-11.1l-1.8,12.2h-9.1L-674.2,354.6z M-663.5,396.4l-4.4-30.9
		h-0.2l-4.3,30.9H-663.5z"/>
	<path class="st2" d="M-646,354.6h12.3l9.5,37.4h0.2v-37.4h8.7V417h-10.1l-11.8-45.6h-0.2V417h-8.7L-646,354.6L-646,354.6z"/>
</g>
<path class="st2" d="M2.6,111.7v123.8c0,61.2,57.3,110.9,127.9,110.9H254L437.8,480l-21.6-133.2l1180.2-0.4
	c70.6,0,127.9-49.6,127.9-110.9V111.7c0-61.2-57.3-110.9-127.9-110.9H130.5C59.9,0.8,2.6,50.5,2.6,111.7z"/>
<g>
	<path class="st1" d="M78.9,124.8V45.6h33.8c3.8,0,7.3,0.8,10.4,2.3c3.2,1.5,5.9,3.6,8.2,6.1c2.3,2.6,4.1,5.4,5.4,8.6
		c1.3,3.2,1.9,6.5,1.9,9.8c0,4.5-1.1,8.9-3.2,12.9c-2.1,4.1-5.1,7.4-8.8,10c-3.8,2.6-8.2,3.8-13.3,3.8H97.2v25.5H78.9V124.8z
		 M97.2,83.3h14.9c1.4,0,2.7-0.4,3.9-1.2c1.2-0.8,2.2-2,2.9-3.7c0.7-1.6,1.1-3.6,1.1-6c0-2.5-0.4-4.5-1.3-6.1s-1.9-2.8-3.2-3.5
		c-1.3-0.7-2.7-1.1-4.1-1.1H97.2V83.3z"/>
	<path class="st1" d="M173.8,125.9c-5,0-9.4-0.8-13.3-2.4c-3.9-1.6-7.2-3.7-9.9-6.5c-2.7-2.7-4.8-5.9-6.2-9.4
		c-1.4-3.6-2.1-7.3-2.1-11.2c0-5.6,1.2-10.6,3.7-15.2s6.1-8.3,10.8-11.1c4.7-2.8,10.3-4.2,17-4.2c6.6,0,12.3,1.4,16.9,4.2
		c4.6,2.8,8.2,6.4,10.7,10.9s3.7,9.4,3.7,14.7c0,1-0.1,2-0.2,3c-0.1,1-0.2,1.8-0.3,2.6h-43.3c0.2,2.5,0.9,4.7,2.2,6.4
		c1.2,1.7,2.8,3.1,4.7,4s4,1.4,6.1,1.4c2.7,0,5.2-0.6,7.5-1.9s4-3,4.9-5.1l15.2,4.2c-1.5,3.1-3.6,5.7-6.3,8.1
		c-2.7,2.3-5.9,4.2-9.6,5.5C182.3,125.2,178.2,125.9,173.8,125.9z M160.8,90.4h25.4c-0.3-2.3-1-4.4-2.1-6.1s-2.6-3.1-4.5-4
		c-1.9-1-3.9-1.4-6.1-1.4c-2.3,0-4.4,0.5-6.2,1.4c-1.8,1-3.3,2.3-4.4,4C161.8,86.1,161.1,88.1,160.8,90.4z"/>
	<path class="st1" d="M269.6,124.8h-17.8V92.6c0-3.8-0.7-6.5-2.2-8.2s-3.4-2.6-5.7-2.6c-1.6,0-3.3,0.4-5,1.3s-3.3,2-4.6,3.5
		c-1.4,1.5-2.4,3.2-3.2,5.2v33.1h-17.9v-58h16.1v9.9c1.5-2.3,3.3-4.2,5.6-5.8c2.2-1.6,4.8-2.8,7.7-3.7c2.9-0.8,6.1-1.3,9.5-1.3
		c3.8,0,6.9,0.7,9.2,2c2.3,1.4,4.1,3.1,5.4,5.3c1.2,2.2,2,4.6,2.5,7.1c0.4,2.5,0.6,5,0.6,7.4v37H269.6z"/>
	<path class="st1" d="M304.2,125.9c-3.9,0-7.4-0.8-10.6-2.3s-5.9-3.6-8.2-6.4c-2.3-2.7-4-5.9-5.3-9.4c-1.3-3.6-1.9-7.4-1.9-11.5
		c0-4.3,0.7-8.3,2-11.9s3.2-6.9,5.6-9.6c2.4-2.8,5.3-4.9,8.6-6.5c3.3-1.5,7-2.3,11-2.3c4.4,0,8.3,0.9,11.6,2.7c3.3,1.8,6,4.4,8,7.8
		v-9.6h15.5V121c0,5.9-1.4,11-4.3,15.3s-6.8,7.6-11.9,9.9c-5.1,2.3-11,3.5-17.7,3.5c-6.2,0-11.6-1-16.1-3.1c-4.5-2-8.4-4.9-11.8-8.6
		l9.6-9.7c2.2,2.5,4.8,4.4,8,5.9s6.6,2.2,10.3,2.2c2.9,0,5.6-0.5,8-1.4c2.5-1,4.4-2.5,5.9-4.6s2.2-5,2.2-8.6V116
		c-1.8,3.2-4.4,5.7-7.8,7.4C311.6,125.1,308,125.9,304.2,125.9z M310.3,111.7c1.4,0,2.7-0.2,4-0.6c1.2-0.4,2.4-1,3.4-1.7
		s2-1.6,2.9-2.6s1.6-2.1,2.1-3.3V91.3c-0.7-2.1-1.8-3.9-3.2-5.4c-1.4-1.5-3-2.7-4.7-3.5s-3.5-1.2-5.4-1.2s-3.6,0.4-5.2,1.2
		c-1.6,0.8-3,2-4.2,3.5s-2,3.2-2.7,5.1c-0.6,1.9-0.9,3.8-0.9,5.8c0,2.2,0.4,4.1,1.1,5.9s1.7,3.4,3,4.7c1.3,1.4,2.8,2.4,4.5,3.2
		C306.6,111.4,308.4,111.7,310.3,111.7z"/>
	<path class="st1" d="M349.1,107.6c0-3.8,1.1-7.1,3.2-10c2.2-2.9,5.1-5.1,8.9-6.8c3.8-1.6,8.1-2.5,13.1-2.5c2.4,0,4.7,0.2,7,0.6
		s4.3,1,6,1.7V88c0-3.1-1-5.5-2.9-7.1c-1.9-1.7-4.9-2.5-8.8-2.5c-3.3,0-6.3,0.6-9.2,1.7c-2.9,1.1-5.9,2.7-9.1,4.8L352,73.6
		c3.9-2.5,7.9-4.4,12.1-5.7c4.2-1.3,8.6-1.9,13.3-1.9c8.8,0,15.6,2.1,20.5,6.2s7.3,10.1,7.3,17.9v15c0,1.8,0.3,3,0.8,3.7
		c0.6,0.7,1.5,1.1,3,1.3v14.8c-1.5,0.3-2.9,0.5-4.2,0.7c-1.3,0.1-2.4,0.2-3.4,0.2c-3.3,0-5.9-0.7-7.6-2s-2.8-3.2-3.3-5.5l-0.3-2.6
		c-2.6,3.3-5.7,5.9-9.3,7.6c-3.6,1.7-7.4,2.6-11.3,2.6s-7.3-0.8-10.4-2.4s-5.5-3.8-7.3-6.6C350,114.1,349.1,111,349.1,107.6z
		 M384.6,109.6c0.8-0.6,1.5-1.4,2-2.1c0.5-0.8,0.8-1.5,0.8-2.3v-5.1c-1.5-0.6-3.1-1-5-1.3c-1.8-0.3-3.5-0.5-5.1-0.5
		c-3.3,0-6,0.7-8.1,2.1c-2.2,1.4-3.2,3.2-3.2,5.5c0,1.3,0.4,2.5,1.1,3.5c0.7,1.1,1.8,1.9,3.1,2.6c1.3,0.6,2.8,1,4.6,1
		c1.8,0,3.6-0.3,5.4-1C381.9,111.5,383.4,110.7,384.6,109.6z"/>
	<path class="st1" d="M474.6,124.8h-17.8V92.6c0-3.8-0.7-6.5-2.2-8.2s-3.4-2.6-5.7-2.6c-1.6,0-3.3,0.4-5,1.3s-3.3,2-4.6,3.5
		c-1.4,1.5-2.4,3.2-3.2,5.2v33.1h-17.9v-58h16.1v9.9c1.5-2.3,3.3-4.2,5.6-5.8c2.2-1.6,4.8-2.8,7.7-3.7c2.9-0.8,6.1-1.3,9.5-1.3
		c3.8,0,6.9,0.7,9.2,2c2.3,1.4,4.1,3.1,5.4,5.3c1.2,2.2,2,4.6,2.5,7.1c0.4,2.5,0.6,5,0.6,7.4v37H474.6z"/>
	<path class="st1" d="M509.2,125.9c-3.9,0-7.4-0.8-10.6-2.3s-5.9-3.6-8.2-6.4c-2.3-2.7-4-5.9-5.3-9.4c-1.3-3.6-1.9-7.4-1.9-11.5
		c0-4.3,0.7-8.3,2-11.9s3.2-6.9,5.6-9.6c2.4-2.8,5.3-4.9,8.6-6.5c3.3-1.5,7-2.3,11-2.3c4.4,0,8.3,0.9,11.6,2.7c3.3,1.8,6,4.4,8,7.8
		v-9.6h15.5V121c0,5.9-1.4,11-4.3,15.3c-2.9,4.3-6.8,7.6-11.9,9.9c-5.1,2.3-11,3.5-17.7,3.5c-6.2,0-11.6-1-16.1-3.1
		c-4.5-2-8.4-4.9-11.8-8.6l9.6-9.7c2.2,2.5,4.8,4.4,8,5.9s6.6,2.2,10.3,2.2c2.9,0,5.6-0.5,8-1.4c2.5-1,4.4-2.5,5.9-4.6
		s2.2-5,2.2-8.6V116c-1.8,3.2-4.4,5.7-7.8,7.4C516.6,125.1,513,125.9,509.2,125.9z M515.4,111.7c1.4,0,2.7-0.2,4-0.6
		c1.2-0.4,2.4-1,3.4-1.7s2-1.6,2.9-2.6s1.6-2.1,2.1-3.3V91.3c-0.7-2.1-1.8-3.9-3.2-5.4s-3-2.7-4.7-3.5s-3.5-1.2-5.4-1.2
		s-3.6,0.4-5.2,1.2c-1.6,0.8-3,2-4.2,3.5s-2,3.2-2.7,5.1c-0.6,1.9-0.9,3.8-0.9,5.8c0,2.2,0.4,4.1,1.1,5.9s1.7,3.4,3,4.7
		c1.3,1.4,2.8,2.4,4.5,3.2C511.6,111.4,513.4,111.7,515.4,111.7z"/>
	<path class="st1" d="M580.6,125.9c-3.9,0-7.4-0.8-10.6-2.3c-3.2-1.5-5.9-3.6-8.2-6.4c-2.3-2.7-4-5.9-5.3-9.4
		c-1.3-3.6-1.9-7.4-1.9-11.5c0-4.3,0.7-8.3,2-11.9s3.2-6.9,5.6-9.6c2.4-2.8,5.3-4.9,8.6-6.5c3.3-1.5,7-2.3,11-2.3
		c4.4,0,8.3,0.9,11.6,2.7c3.3,1.8,6,4.4,8,7.8v-9.6H617V121c0,5.9-1.4,11-4.3,15.3c-2.9,4.3-6.8,7.6-11.9,9.9
		c-5.1,2.3-11,3.5-17.7,3.5c-6.2,0-11.6-1-16.1-3.1c-4.5-2-8.4-4.9-11.8-8.6l9.6-9.7c2.2,2.5,4.8,4.4,8,5.9s6.6,2.2,10.3,2.2
		c2.9,0,5.6-0.5,8-1.4c2.5-1,4.4-2.5,5.9-4.6s2.2-5,2.2-8.6V116c-1.8,3.2-4.4,5.7-7.8,7.4C588,125.1,584.4,125.9,580.6,125.9z
		 M586.8,111.7c1.4,0,2.7-0.2,4-0.6c1.2-0.4,2.4-1,3.4-1.7s2-1.6,2.9-2.6s1.6-2.1,2.1-3.3V91.3c-0.7-2.1-1.8-3.9-3.2-5.4
		s-3-2.7-4.7-3.5s-3.5-1.2-5.4-1.2s-3.6,0.4-5.2,1.2c-1.6,0.8-3,2-4.2,3.5s-2,3.2-2.7,5.1c-0.6,1.9-0.9,3.8-0.9,5.8
		c0,2.2,0.4,4.1,1.1,5.9c0.7,1.8,1.7,3.4,3,4.7c1.3,1.4,2.8,2.4,4.5,3.2C583,111.4,584.8,111.7,586.8,111.7z"/>
	<path class="st1" d="M628.7,104V66.9h17.8V100c0,3.5,0.7,6.2,2.1,8.1c1.4,1.9,3.4,2.8,6,2.8c1.6,0,3.2-0.3,4.7-0.8s2.9-1.4,4.4-2.6
		c1.4-1.2,2.7-2.8,3.8-4.8V66.9h17.9V105c0,1.8,0.3,3,0.8,3.7c0.6,0.7,1.5,1.1,3,1.3v14.8c-1.6,0.3-3.1,0.5-4.3,0.7
		c-1.2,0.1-2.3,0.2-3.3,0.2c-3.1,0-5.6-0.6-7.5-1.9s-3-3.1-3.5-5.5l-0.3-3.5c-2.7,3.8-6,6.6-10,8.4s-8.4,2.7-13.3,2.7
		c-6,0-10.5-1.9-13.6-5.6C630.3,116.5,628.7,111.1,628.7,104z"/>
	<path class="st1" d="M736.4,81.5c-4.3,0-8.2,0.7-11.7,2.1s-6,3.4-7.6,6.1v35.1h-17.9V66.9h16.4v11.2c2-3.9,4.6-7,7.8-9.3
		c3.2-2.2,6.5-3.4,10-3.5c0.8,0,1.4,0,1.8,0c0.4,0,0.8,0,1.1,0.1v16.1H736.4z"/>
	<path class="st1" d="M739.7,107.6c0-3.8,1.1-7.1,3.2-10c2.2-2.9,5.1-5.1,8.9-6.8c3.8-1.6,8.1-2.5,13.1-2.5c2.4,0,4.7,0.2,7,0.6
		s4.3,1,6,1.7V88c0-3.1-1-5.5-2.9-7.1c-1.9-1.7-4.9-2.5-8.8-2.5c-3.3,0-6.3,0.6-9.2,1.7s-5.9,2.7-9.1,4.8l-5.4-11.4
		c3.9-2.5,7.9-4.4,12.1-5.7c4.2-1.3,8.6-1.9,13.3-1.9c8.8,0,15.6,2.1,20.5,6.2s7.3,10.1,7.3,17.9v15c0,1.8,0.3,3,0.8,3.7
		c0.6,0.7,1.5,1.1,3,1.3v14.8c-1.5,0.3-2.9,0.5-4.2,0.7c-1.3,0.1-2.4,0.2-3.4,0.2c-3.3,0-5.9-0.7-7.6-2c-1.7-1.3-2.8-3.2-3.3-5.5
		l-0.3-2.6c-2.6,3.3-5.7,5.9-9.3,7.6s-7.4,2.6-11.3,2.6c-3.9,0-7.3-0.8-10.4-2.4c-3.1-1.6-5.5-3.8-7.3-6.6
		C740.6,114.1,739.7,111,739.7,107.6z M775.2,109.6c0.8-0.6,1.5-1.4,2-2.1c0.5-0.8,0.8-1.5,0.8-2.3v-5.1c-1.5-0.6-3.1-1-5-1.3
		c-1.8-0.3-3.5-0.5-5.1-0.5c-3.3,0-6,0.7-8.1,2.1c-2.2,1.4-3.2,3.2-3.2,5.5c0,1.3,0.4,2.5,1.1,3.5c0.7,1.1,1.8,1.9,3.1,2.6
		c1.3,0.6,2.8,1,4.6,1s3.6-0.3,5.4-1C772.5,111.5,774,110.7,775.2,109.6z"/>
	<path class="st1" d="M865.2,124.8h-17.8V92.6c0-3.8-0.7-6.5-2.2-8.2s-3.4-2.6-5.7-2.6c-1.6,0-3.3,0.4-5,1.3s-3.3,2-4.6,3.5
		c-1.4,1.5-2.4,3.2-3.2,5.2v33.1h-17.9v-58h16.1v9.9c1.5-2.3,3.3-4.2,5.6-5.8c2.2-1.6,4.8-2.8,7.7-3.7c2.9-0.8,6.1-1.3,9.5-1.3
		c3.8,0,6.9,0.7,9.2,2c2.3,1.4,4.1,3.1,5.4,5.3c1.2,2.2,2,4.6,2.5,7.1c0.4,2.5,0.6,5,0.6,7.4v37H865.2z"/>
	<path class="st1" d="M961.6,61.7h-24.1v63.1h-18.3V61.7H895V45.6h66.6V61.7z"/>
	<path class="st1" d="M986.8,125.9c-5,0-9.4-0.8-13.3-2.4c-3.9-1.6-7.2-3.7-9.9-6.5c-2.7-2.7-4.8-5.9-6.2-9.4
		c-1.4-3.6-2.1-7.3-2.1-11.2c0-5.6,1.2-10.6,3.7-15.2s6.1-8.3,10.8-11.1c4.7-2.8,10.3-4.2,17-4.2c6.6,0,12.3,1.4,16.9,4.2
		c4.6,2.8,8.2,6.4,10.7,10.9s3.7,9.4,3.7,14.7c0,1-0.1,2-0.2,3c-0.1,1-0.2,1.8-0.3,2.6h-43.3c0.2,2.5,0.9,4.7,2.2,6.4
		c1.2,1.7,2.8,3.1,4.7,4s4,1.4,6.1,1.4c2.7,0,5.2-0.6,7.5-1.9s4-3,4.9-5.1l15.2,4.2c-1.5,3.1-3.6,5.7-6.3,8.1
		c-2.7,2.3-5.9,4.2-9.6,5.5S991.3,125.9,986.8,125.9z M973.9,90.4h25.4c-0.3-2.3-1-4.4-2.1-6.1s-2.6-3.1-4.5-4
		c-1.9-1-3.9-1.4-6.1-1.4c-2.3,0-4.4,0.5-6.2,1.4c-1.8,1-3.3,2.3-4.4,4C974.9,86.1,974.2,88.1,973.9,90.4z"/>
	<path class="st1" d="M1063.3,81.5c-4.3,0-8.2,0.7-11.7,2.1s-6,3.4-7.6,6.1v35.1h-17.8V66.9h16.4v11.2c2-3.9,4.6-7,7.8-9.3
		c3.2-2.2,6.5-3.4,10-3.5c0.8,0,1.4,0,1.8,0s0.8,0,1.1,0.1L1063.3,81.5L1063.3,81.5z"/>
	<path class="st1" d="M1067.1,95.9c0-5.6,1.1-10.7,3.3-15.2s5.3-8.1,9.1-10.7c3.9-2.6,8.3-4,13.4-4c4.1,0,7.8,1,11.2,3
		c3.3,2,5.9,4.6,7.6,7.8V43.4h17.8V105c0,1.8,0.3,3,0.9,3.7s1.6,1.1,2.9,1.3v14.8c-3.1,0.6-5.7,0.9-7.6,0.9c-3.1,0-5.5-0.7-7.4-2
		s-3.1-3.2-3.5-5.6l-0.3-3c-2.1,3.6-4.9,6.4-8.5,8.1c-3.6,1.8-7.3,2.7-11.3,2.7s-7.7-0.8-11.1-2.3s-6.3-3.6-8.8-6.3
		c-2.5-2.7-4.4-5.9-5.7-9.6S1067.1,100.2,1067.1,95.9z M1111.9,102.9V91c-0.7-1.9-1.8-3.6-3.2-5.1c-1.4-1.4-2.9-2.6-4.7-3.5
		c-1.7-0.9-3.5-1.3-5.3-1.3c-1.9,0-3.7,0.4-5.3,1.2c-1.6,0.8-3,1.9-4.2,3.3s-2.1,3-2.7,4.8s-0.9,3.7-0.9,5.7c0,2.1,0.4,4,1.1,5.8
		s1.7,3.3,3,4.7c1.3,1.3,2.8,2.4,4.5,3.1s3.6,1.1,5.6,1.1c1.3,0,2.5-0.2,3.7-0.6s2.3-0.9,3.4-1.6c1.1-0.6,2.1-1.5,3-2.5
		C1110.5,105.2,1111.3,104.1,1111.9,102.9z"/>
	<path class="st1" d="M1143.4,59.5V43.4h17.8v16.2h-17.8V59.5z M1143.4,124.8V66.2h17.8v58.6
		C1161.2,124.8,1143.4,124.8,1143.4,124.8z"/>
	<path class="st1" d="M1170.2,95.9c0-5.6,1.1-10.7,3.3-15.2s5.3-8.1,9.1-10.7c3.9-2.6,8.3-4,13.4-4c4.1,0,7.8,1,11.2,3
		c3.3,2,5.9,4.6,7.6,7.8V43.4h17.8V105c0,1.8,0.3,3,0.9,3.7s1.6,1.1,2.9,1.3v14.8c-3.1,0.6-5.7,0.9-7.6,0.9c-3.1,0-5.5-0.7-7.4-2
		s-3.1-3.2-3.5-5.6l-0.3-3c-2.1,3.6-4.9,6.4-8.5,8.1c-3.6,1.8-7.3,2.7-11.3,2.7s-7.7-0.8-11.1-2.3s-6.3-3.6-8.8-6.3
		c-2.5-2.7-4.4-5.9-5.7-9.6S1170.2,100.2,1170.2,95.9z M1215,102.9V91c-0.7-1.9-1.8-3.6-3.2-5.1c-1.4-1.4-2.9-2.6-4.7-3.5
		c-1.7-0.9-3.5-1.3-5.3-1.3c-1.9,0-3.7,0.4-5.3,1.2c-1.6,0.8-3,1.9-4.2,3.3s-2.1,3-2.7,4.8s-0.9,3.7-0.9,5.7c0,2.1,0.4,4,1.1,5.8
		s1.7,3.3,3,4.7c1.3,1.3,2.8,2.4,4.5,3.1s3.6,1.1,5.6,1.1c1.3,0,2.5-0.2,3.7-0.6s2.3-0.9,3.4-1.6c1.1-0.6,2.1-1.5,3-2.5
		C1213.6,105.2,1214.4,104.1,1215,102.9z"/>
	<path class="st1" d="M1246.5,59.5V43.4h17.8v16.2h-17.8V59.5z M1246.5,124.8V66.2h17.8v58.6
		C1264.3,124.8,1246.5,124.8,1246.5,124.8z"/>
	<path class="st1" d="M1316,124.8l-15.3-23.2l-6.2,6.3v16.9h-17.8V43.4h17.8v47.5l19.9-23.9h18.9l-21.1,24.9l22.9,33L1316,124.8
		L1316,124.8z"/>
	<g>
		<path class="st1" d="M1361,85.4V67.2h19.7v18.1H1361z M1361,124.9v-18.1h19.7v18.1H1361z"/>
	</g>
</g>
<g>
	<path class="st1" d="M78.6,269.2V190h28.8c8.6,0,15.8,1.8,21.6,5.3s10.2,8.3,13.1,14.3c2.9,6,4.4,12.6,4.4,19.9c0,8-1.6,15-4.8,21
		s-7.7,10.6-13.6,13.8c-5.8,3.3-12.7,4.9-20.7,4.9L78.6,269.2L78.6,269.2z M131,229.5c0-5.1-0.9-9.6-2.8-13.6c-1.9-3.9-4.5-7-8-9.1
		c-3.5-2.2-7.7-3.3-12.7-3.3H94v52.2h13.4c5.1,0,9.3-1.1,12.8-3.4c3.5-2.3,6.2-5.4,8-9.4C130,239,131,234.5,131,229.5z"/>
	<path class="st1" d="M156.8,202.6v-14.8h14.9v14.8H156.8z M156.8,269.2v-58.5h14.9v58.5H156.8z"/>
	<path class="st1" d="M185.2,187.8h14.9v62.9c0,2.7,0.4,4.5,1.3,5.4c0.9,0.9,2.1,1.4,3.7,1.4c1.2,0,2.4-0.1,3.7-0.4s2.4-0.7,3.3-1.1
		l2,11.4c-2,1-4.4,1.7-7,2.2c-2.7,0.5-5.1,0.8-7.3,0.8c-4.7,0-8.3-1.2-10.9-3.7c-2.6-2.5-3.8-6.1-3.8-10.7v-68.2H185.2z"/>
	<path class="st1" d="M247.8,270.4c-4.7,0-8.9-0.8-12.7-2.4s-7-3.8-9.7-6.5c-2.7-2.8-4.7-5.9-6.2-9.5s-2.2-7.3-2.2-11.3
		c0-5.5,1.2-10.6,3.7-15.1c2.5-4.6,6.1-8.2,10.7-11c4.6-2.8,10.1-4.1,16.5-4.1s11.9,1.4,16.4,4.1c4.5,2.8,8,6.4,10.4,10.9
		s3.6,9.4,3.6,14.6c0,0.9,0,1.8-0.1,2.7s-0.1,1.7-0.2,2.3h-45.2c0.3,2.9,1.2,5.5,2.6,7.6c1.5,2.2,3.3,3.8,5.6,5
		c2.3,1.1,4.7,1.7,7.3,1.7c3,0,5.8-0.7,8.4-2.2c2.6-1.5,4.4-3.4,5.4-5.7l12.8,3.6c-1.4,3-3.4,5.6-6.1,7.9c-2.6,2.3-5.7,4.1-9.3,5.4
		C256,269.7,252.1,270.4,247.8,270.4z M232.5,235.7H263c-0.3-2.9-1.1-5.4-2.5-7.6c-1.4-2.1-3.2-3.8-5.4-5c-2.2-1.2-4.7-1.8-7.5-1.8
		c-2.7,0-5.1,0.6-7.3,1.8s-4,2.9-5.4,5C233.6,230.2,232.8,232.8,232.5,235.7z"/>
	<path class="st1" d="M378.3,269.2h-14.9v-32.3c0-4.5-0.8-7.9-2.4-10.1c-1.6-2.2-3.8-3.2-6.6-3.2c-2.9,0-5.7,1.1-8.3,3.4
		c-2.6,2.2-4.5,5.1-5.6,8.7v33.5h-14.9v-32.3c0-4.6-0.8-8-2.4-10.1s-3.8-3.2-6.6-3.2c-2.9,0-5.7,1.1-8.3,3.3c-2.6,2.2-4.5,5-5.6,8.6
		v33.8h-14.9v-57.9H301v10.8c2.2-3.7,5.2-6.6,8.9-8.7c3.7-2,8-3,12.8-3s8.6,1.2,11.3,3.5c2.7,2.4,4.4,5.3,5.2,8.7
		c2.4-4,5.4-7,9.1-9.1s7.8-3.1,12.4-3.1c3.6,0,6.6,0.6,8.9,1.9c2.3,1.3,4,3,5.3,5.2s2.1,4.6,2.6,7.3s0.7,5.5,0.7,8.3v36H378.3z"/>
	<path class="st1" d="M387.3,252.2c0-3.7,1.1-7,3.2-9.9c2.1-2.8,5.1-5,8.9-6.6c3.8-1.5,8.1-2.3,13.1-2.3c2.5,0,4.9,0.2,7.5,0.6
		c2.5,0.4,4.7,1,6.6,1.8v-3.1c0-3.7-1.1-6.5-3.3-8.4c-2.2-2-5.4-3-9.8-3c-3.2,0-6.2,0.6-9.1,1.7c-2.9,1.1-6,2.8-9.1,4.9l-4.8-9.8
		c3.9-2.5,7.8-4.4,11.9-5.7s8.3-1.9,12.8-1.9c8.3,0,14.8,2.1,19.5,6.2c4.6,4.1,7,10,7,17.6v18.4c0,1.5,0.3,2.6,0.8,3.3
		c0.6,0.7,1.5,1.1,2.7,1.2v12.2c-1.3,0.2-2.5,0.4-3.6,0.6c-1.1,0.1-2,0.2-2.7,0.2c-3,0-5.2-0.7-6.7-2s-2.5-3-2.8-4.9l-0.3-3
		c-2.5,3.3-5.7,5.8-9.5,7.6c-3.8,1.8-7.7,2.7-11.6,2.7s-7.3-0.8-10.4-2.4s-5.5-3.7-7.3-6.5C388.2,258.7,387.3,255.6,387.3,252.2z
		 M423.7,255.1c0.8-0.9,1.5-1.7,2-2.6c0.5-0.9,0.8-1.7,0.8-2.4v-5.8c-1.8-0.7-3.7-1.3-5.8-1.7c-2.1-0.4-4.1-0.6-5.9-0.6
		c-3.9,0-7,0.8-9.5,2.4c-2.5,1.6-3.7,3.8-3.7,6.5c0,1.5,0.4,2.8,1.2,4.1c0.8,1.3,2,2.4,3.6,3.2s3.4,1.2,5.6,1.2s4.4-0.4,6.6-1.2
		C420.6,257.3,422.3,256.3,423.7,255.1z"/>
	<path class="st1" d="M530.8,210.8c-0.5-0.5-1.5-1.2-2.8-2.1c-1.4-0.9-3.1-1.7-5-2.6c-2-0.8-4.1-1.5-6.4-2.2c-2.3-0.6-4.6-0.9-7-0.9
		c-4.2,0-7.3,0.8-9.4,2.3c-2.1,1.6-3.2,3.7-3.2,6.5c0,2.1,0.7,3.8,2,5.1s3.3,2.3,6,3.2s6,1.8,10,2.9c5.2,1.3,9.7,2.8,13.6,4.6
		c3.8,1.8,6.8,4.2,8.8,7.1c2,2.9,3.1,6.8,3.1,11.6c0,4.2-0.8,7.8-2.3,10.8c-1.6,3-3.7,5.4-6.5,7.3s-5.9,3.2-9.4,4.1
		c-3.5,0.8-7.2,1.3-11.2,1.3c-3.9,0-7.9-0.4-11.8-1.2c-3.9-0.8-7.7-2-11.4-3.5c-3.6-1.5-7-3.4-10-5.5l6.8-13.3
		c0.7,0.7,1.9,1.5,3.6,2.6s3.8,2.2,6.2,3.2c2.5,1.1,5.1,2,8,2.7s5.8,1.1,8.8,1.1c4.2,0,7.3-0.7,9.5-2.1c2.2-1.4,3.2-3.4,3.2-6
		c0-2.4-0.9-4.2-2.6-5.6c-1.7-1.3-4.1-2.5-7.1-3.5c-3.1-1-6.7-2.1-10.8-3.3c-5-1.4-9.1-3-12.5-4.7c-3.3-1.7-5.8-3.9-7.5-6.6
		c-1.6-2.7-2.5-6-2.5-10c0-5.4,1.3-9.9,3.8-13.6c2.6-3.7,6-6.4,10.4-8.3c4.4-1.9,9.3-2.8,14.6-2.8c3.7,0,7.2,0.4,10.5,1.2
		s6.4,1.9,9.3,3.2c2.9,1.3,5.5,2.8,7.8,4.4L530.8,210.8z"/>
	<path class="st1" d="M549.6,247.6v-36.2h14.9v33c0,4.4,0.8,7.7,2.5,10c1.6,2.2,4.1,3.4,7.3,3.4c1.9,0,3.8-0.4,5.7-1.1
		c1.9-0.8,3.6-1.9,5.2-3.4c1.6-1.5,3-3.5,4.1-5.8v-35.9h14.9v41.2c0,1.5,0.3,2.6,0.8,3.3c0.6,0.7,1.5,1.1,2.7,1.2v12.2
		c-1.5,0.2-2.7,0.4-3.7,0.5s-1.9,0.2-2.7,0.2c-2.7,0-4.9-0.6-6.5-1.8c-1.7-1.2-2.7-2.9-3-5l-0.3-4.6c-2.6,3.9-6,6.9-10,8.9
		c-4.1,2-8.6,3-13.5,3c-6,0-10.6-1.9-13.7-5.8C551.2,260.7,549.6,255,549.6,247.6z"/>
	<path class="st1" d="M673.5,269.2h-14.9v-32.3c0-4.6-0.8-8-2.5-10.1c-1.6-2.1-3.9-3.2-6.8-3.2c-2,0-4,0.5-6.1,1.5
		c-2,1-3.9,2.4-5.5,4.2s-2.8,3.8-3.6,6.2v33.8h-14.9v-57.9h13.5v10.8c1.5-2.5,3.4-4.6,5.7-6.3s5-3.1,8-4s6.2-1.4,9.5-1.4
		c3.6,0,6.6,0.6,9,1.9c2.3,1.3,4.1,3,5.4,5.2c1.2,2.2,2.1,4.6,2.6,7.3s0.7,5.5,0.7,8.3v36H673.5z"/>
	<path class="st1" d="M686.7,280.6c1.3,0.3,2.6,0.6,3.7,0.8c1.2,0.2,2.1,0.3,3,0.3c1.4,0,2.6-0.4,3.5-1.1s1.8-2,2.7-3.7
		c0.9-1.8,1.8-4.3,2.8-7.5l-23.1-58.1h15.5l15.7,42.9l13.8-42.9h14.3l-24.5,69.6c-0.9,2.6-2.3,4.9-4.1,7s-4.1,3.8-6.8,5
		s-5.7,1.8-9.1,1.8c-1.2,0-2.4-0.1-3.6-0.3c-1.2-0.2-2.5-0.5-3.9-0.9L686.7,280.6L686.7,280.6z"/>
	<path class="st1" d="M746.9,202.6v-14.8h14.9v14.8H746.9z M746.9,269.2v-58.5h14.9v58.5H746.9z"/>
	<path class="st1" d="M850.7,210.8c-0.5-0.5-1.5-1.2-2.8-2.1c-1.4-0.9-3.1-1.7-5-2.6c-2-0.8-4.1-1.5-6.4-2.2c-2.3-0.6-4.6-0.9-7-0.9
		c-4.2,0-7.3,0.8-9.4,2.3c-2.1,1.6-3.2,3.7-3.2,6.5c0,2.1,0.7,3.8,2,5.1s3.3,2.3,6,3.2s6,1.8,10,2.9c5.2,1.3,9.7,2.8,13.6,4.6
		c3.8,1.8,6.8,4.2,8.8,7.1c2,2.9,3.1,6.8,3.1,11.6c0,4.2-0.8,7.8-2.3,10.8c-1.6,3-3.7,5.4-6.5,7.3s-5.9,3.2-9.4,4.1
		c-3.5,0.8-7.2,1.3-11.2,1.3c-3.9,0-7.9-0.4-11.8-1.2c-3.9-0.8-7.7-2-11.4-3.5c-3.6-1.5-7-3.4-10-5.5l6.8-13.3
		c0.7,0.7,1.9,1.5,3.6,2.6c1.7,1.1,3.8,2.2,6.2,3.2c2.5,1.1,5.1,2,8,2.7s5.8,1.1,8.8,1.1c4.2,0,7.3-0.7,9.5-2.1
		c2.2-1.4,3.2-3.4,3.2-6c0-2.4-0.9-4.2-2.6-5.6c-1.7-1.3-4.1-2.5-7.1-3.5c-3.1-1-6.7-2.1-10.8-3.3c-5-1.4-9.1-3-12.5-4.7
		c-3.3-1.7-5.8-3.9-7.5-6.6c-1.6-2.7-2.5-6-2.5-10c0-5.4,1.3-9.9,3.8-13.6c2.6-3.7,6-6.4,10.4-8.3c4.4-1.9,9.3-2.8,14.6-2.8
		c3.7,0,7.2,0.4,10.5,1.2s6.4,1.9,9.3,3.2c2.9,1.3,5.5,2.8,7.8,4.4L850.7,210.8z"/>
	<path class="st1" d="M871.9,269.2V190h28.8c8.6,0,15.8,1.8,21.6,5.3s10.2,8.3,13.1,14.3c2.9,6,4.4,12.6,4.4,19.9c0,8-1.6,15-4.8,21
		s-7.7,10.6-13.6,13.8c-5.8,3.3-12.7,4.9-20.7,4.9L871.9,269.2L871.9,269.2z M924.3,229.5c0-5.1-0.9-9.6-2.8-13.6
		c-1.9-3.9-4.5-7-8-9.1c-3.5-2.2-7.7-3.3-12.7-3.3h-13.4v52.2h13.4c5.1,0,9.3-1.1,12.8-3.4c3.5-2.3,6.2-5.4,8-9.4
		C923.3,239,924.3,234.5,924.3,229.5z"/>
	<path class="st1" d="M1016.4,269.2v-52L996.1,256h-8.6l-20.3-38.7v52h-15.4V190h16.5l23.4,45.1l23.7-45.1h16.4v79.2H1016.4z"/>
	<path class="st1" d="M1138.9,248.8c0,4.5-1.2,8.2-3.5,11.2s-5.4,5.3-9.3,6.9s-8.2,2.3-12.8,2.3H1075V190h42.4c3.7,0,6.9,1,9.7,3
		c2.7,2,4.8,4.5,6.2,7.6c1.5,3.1,2.2,6.3,2.2,9.6c0,3.8-1,7.4-2.9,10.8c-1.9,3.4-4.8,6-8.5,7.6c4.5,1.3,8.1,3.8,10.8,7.3
		C1137.6,239.4,1138.9,243.7,1138.9,248.8z M1090.5,203.2v20h20.5c1.7,0,3.3-0.4,4.7-1.2c1.4-0.8,2.5-2,3.4-3.5s1.3-3.3,1.3-5.4
		c0-2-0.4-3.8-1.2-5.2c-0.8-1.5-1.8-2.6-3.1-3.5c-1.3-0.8-2.8-1.2-4.4-1.2L1090.5,203.2L1090.5,203.2z M1123.4,245.9
		c0-2-0.4-3.8-1.2-5.4c-0.8-1.6-1.9-2.9-3.3-3.8c-1.4-0.9-3-1.4-4.7-1.4h-23.7v20.9h22.9c1.9,0,3.6-0.5,5.1-1.4s2.7-2.2,3.6-3.7
		S1123.4,247.8,1123.4,245.9z"/>
	<path class="st1" d="M1176.6,270.4c-4.7,0-8.9-0.8-12.7-2.4c-3.8-1.6-7-3.8-9.7-6.5c-2.7-2.8-4.7-5.9-6.2-9.5s-2.2-7.3-2.2-11.3
		c0-5.5,1.2-10.6,3.7-15.1c2.5-4.6,6.1-8.2,10.7-11s10.1-4.1,16.5-4.1s11.9,1.4,16.4,4.1c4.5,2.8,8,6.4,10.4,10.9s3.6,9.4,3.6,14.6
		c0,0.9,0,1.8-0.1,2.7s-0.2,1.7-0.2,2.3h-45.2c0.3,2.9,1.2,5.5,2.6,7.6c1.5,2.2,3.3,3.8,5.6,5c2.3,1.1,4.7,1.7,7.3,1.7
		c3,0,5.8-0.7,8.4-2.2s4.4-3.4,5.4-5.7l12.8,3.6c-1.4,3-3.4,5.6-6.1,7.9c-2.6,2.3-5.7,4.1-9.3,5.4
		C1184.9,269.7,1180.9,270.4,1176.6,270.4z M1161.3,235.7h30.6c-0.3-2.9-1.1-5.4-2.5-7.6c-1.4-2.1-3.2-3.8-5.4-5
		c-2.2-1.2-4.7-1.8-7.5-1.8c-2.7,0-5.1,0.6-7.3,1.8c-2.2,1.2-4,2.9-5.4,5C1162.5,230.2,1161.6,232.8,1161.3,235.7z"/>
	<path class="st1" d="M1251.1,223.7c-4.5,0-8.6,0.9-12.2,2.6c-3.6,1.7-6.1,4.3-7.7,7.5v35.4h-14.9v-57.9h13.7v11.9
		c2.1-4,4.7-7.2,7.9-9.5c3.2-2.3,6.6-3.6,10.2-3.8c0.8,0,1.5,0,1.9,0s0.8,0,1.1,0.1V223.7z"/>
	<path class="st1" d="M1299.4,269.2l-17.1-25l-7.9,7.7v17.3h-14.9v-81.4h14.9v49.6l23.5-26h15.8l-21.8,24.6l23.3,33.3h-15.8V269.2z"
		/>
	<path class="st1" d="M1321.2,247.6v-36.2h14.9v33c0,4.4,0.8,7.7,2.5,10c1.6,2.2,4.1,3.4,7.3,3.4c1.9,0,3.8-0.4,5.7-1.1
		c1.9-0.8,3.6-1.9,5.2-3.4s3-3.5,4.1-5.8v-35.9h14.9v41.2c0,1.5,0.3,2.6,0.8,3.3c0.6,0.7,1.5,1.1,2.7,1.2v12.2
		c-1.5,0.2-2.7,0.4-3.7,0.5s-1.9,0.2-2.7,0.2c-2.7,0-4.9-0.6-6.5-1.8c-1.7-1.2-2.7-2.9-3-5l-0.3-4.6c-2.6,3.9-6,6.9-10,8.9
		c-4.1,2-8.6,3-13.5,3c-6,0-10.6-1.9-13.7-5.8C1322.7,260.7,1321.2,255,1321.2,247.6z"/>
	<path class="st1" d="M1386.7,252.2c0-3.7,1.1-7,3.2-9.9c2.1-2.8,5.1-5,8.9-6.6c3.8-1.5,8.1-2.3,13.1-2.3c2.5,0,4.9,0.2,7.5,0.6
		c2.5,0.4,4.7,1,6.6,1.8v-3.1c0-3.7-1.1-6.5-3.3-8.4c-2.2-2-5.4-3-9.8-3c-3.2,0-6.2,0.6-9.1,1.7c-2.9,1.1-6,2.8-9.1,4.9l-4.8-9.8
		c3.9-2.5,7.8-4.4,11.9-5.7s8.3-1.9,12.8-1.9c8.3,0,14.8,2.1,19.5,6.2c4.6,4.1,7,10,7,17.6v18.4c0,1.5,0.3,2.6,0.8,3.3
		c0.6,0.7,1.5,1.1,2.7,1.2v12.2c-1.3,0.2-2.5,0.4-3.6,0.6c-1.1,0.1-2,0.2-2.7,0.2c-3,0-5.2-0.7-6.8-2c-1.5-1.3-2.5-3-2.8-4.9l-0.3-3
		c-2.5,3.3-5.7,5.8-9.5,7.6c-3.8,1.8-7.7,2.7-11.6,2.7s-7.3-0.8-10.4-2.4s-5.5-3.7-7.3-6.5C1387.5,258.7,1386.7,255.6,1386.7,252.2z
		 M1423,255.1c0.8-0.9,1.5-1.7,2-2.6c0.5-0.9,0.8-1.7,0.8-2.4v-5.8c-1.8-0.7-3.7-1.3-5.8-1.7c-2.1-0.4-4.1-0.6-5.9-0.6
		c-3.9,0-7,0.8-9.5,2.4c-2.5,1.6-3.7,3.8-3.7,6.5c0,1.5,0.4,2.8,1.2,4.1c0.8,1.3,2,2.4,3.6,3.2c1.6,0.8,3.4,1.2,5.6,1.2
		s4.4-0.4,6.6-1.2C1420,257.3,1421.7,256.3,1423,255.1z"/>
	<path class="st1" d="M1454.6,187.8h14.9v62.9c0,2.7,0.4,4.5,1.3,5.4s2.1,1.4,3.7,1.4c1.2,0,2.4-0.1,3.7-0.4
		c1.3-0.3,2.4-0.7,3.3-1.1l2,11.4c-2,1-4.4,1.7-7,2.2c-2.7,0.5-5.1,0.8-7.3,0.8c-4.7,0-8.3-1.2-10.9-3.7s-3.8-6.1-3.8-10.7v-68.2
		H1454.6z"/>
	<path class="st1" d="M1490.1,202.6v-14.8h14.9v14.8H1490.1z M1490.1,269.2v-58.5h14.9v58.5H1490.1z"/>
	<path class="st1" d="M1553.6,266.3c-1.3,0.5-2.8,1.1-4.6,1.8c-1.8,0.7-3.7,1.2-5.7,1.6s-4.1,0.6-6.2,0.6c-2.8,0-5.3-0.5-7.6-1.4
		c-2.3-1-4.1-2.5-5.5-4.6s-2.1-4.8-2.1-8.2v-33.3h-7.7v-11.5h7.7v-19h14.9v19h12.3v11.5h-12.3V251c0.1,2,0.6,3.4,1.7,4.3
		c1,0.9,2.3,1.3,3.9,1.3s3.1-0.3,4.6-0.8c1.5-0.5,2.7-1,3.6-1.3L1553.6,266.3z"/>
	<path class="st1" d="M1557.4,252.2c0-3.7,1.1-7,3.2-9.9c2.1-2.8,5.1-5,8.9-6.6c3.8-1.5,8.1-2.3,13.1-2.3c2.5,0,4.9,0.2,7.5,0.6
		c2.5,0.4,4.7,1,6.6,1.8v-3.1c0-3.7-1.1-6.5-3.3-8.4c-2.2-2-5.4-3-9.8-3c-3.2,0-6.2,0.6-9.1,1.7c-2.9,1.1-6,2.8-9.1,4.9l-4.8-9.8
		c3.9-2.5,7.8-4.4,11.9-5.7s8.3-1.9,12.8-1.9c8.3,0,14.8,2.1,19.5,6.2c4.6,4.1,7,10,7,17.6v18.4c0,1.5,0.3,2.6,0.8,3.3
		c0.6,0.7,1.5,1.1,2.7,1.2v12.2c-1.3,0.2-2.5,0.4-3.6,0.6c-1.1,0.1-2,0.2-2.7,0.2c-3,0-5.2-0.7-6.8-2c-1.5-1.3-2.5-3-2.8-4.9l-0.3-3
		c-2.5,3.3-5.7,5.8-9.5,7.6c-3.8,1.8-7.7,2.7-11.6,2.7s-7.3-0.8-10.4-2.4s-5.5-3.7-7.3-6.5C1558.2,258.7,1557.4,255.6,1557.4,252.2z
		 M1593.7,255.1c0.8-0.9,1.5-1.7,2-2.6c0.5-0.9,0.8-1.7,0.8-2.4v-5.8c-1.8-0.7-3.7-1.3-5.8-1.7c-2.1-0.4-4.1-0.6-5.9-0.6
		c-3.9,0-7,0.8-9.5,2.4c-2.5,1.6-3.7,3.8-3.7,6.5c0,1.5,0.4,2.8,1.2,4.1c0.8,1.3,2,2.4,3.6,3.2c1.6,0.8,3.4,1.2,5.6,1.2
		s4.4-0.4,6.6-1.2C1590.6,257.3,1592.4,256.3,1593.7,255.1z"/>
	<path class="st1" d="M1646.9,270.4c-5,0-9.7-0.8-14.3-2.5c-4.5-1.6-8.4-4.1-11.7-7.3l5.4-9.7c3.5,2.8,6.9,4.9,10.3,6.2
		c3.4,1.3,6.6,2,9.8,2c2.9,0,5.2-0.5,7-1.5c1.7-1,2.6-2.5,2.6-4.5c0-1.4-0.5-2.5-1.5-3.2c-1-0.8-2.4-1.5-4.2-2c-1.8-0.6-4-1.2-6.6-2
		c-4.3-1.4-7.9-2.8-10.8-4.1s-5.1-3-6.5-5c-1.5-2-2.2-4.6-2.2-7.8c0-3.8,1-7.1,3-9.9c2-2.8,4.7-4.9,8.3-6.4
		c3.5-1.5,7.7-2.3,12.4-2.3c4.2,0,8.1,0.7,11.8,2c3.7,1.3,7.1,3.4,10.2,6.3l-6,9.5c-3-2.3-5.8-4-8.5-5.1s-5.4-1.6-8.1-1.6
		c-1.6,0-3,0.2-4.4,0.5c-1.4,0.4-2.5,1-3.3,1.8c-0.9,0.8-1.3,2-1.3,3.6c0,1.4,0.4,2.5,1.2,3.2c0.8,0.8,2,1.4,3.6,2s3.6,1.2,5.9,2
		c4.7,1.3,8.6,2.7,11.9,4.1c3.2,1.4,5.7,3.1,7.3,5.1c1.6,2,2.5,4.8,2.5,8.3c0,5.7-2.1,10.2-6.4,13.4
		C1659.8,268.8,1654.1,270.4,1646.9,270.4z"/>
</g>
<text transform="matrix(1 0 0 1 71.3452 -305.0063)" class="st1" style="font-family:'Raleway-ExtraBold'; font-size:111.5614px;">Pengangguran Terdidik</text>
<text transform="matrix(1 0 0 1 70.3745 -160.5563)" class="st1" style="font-family:'Raleway-Bold'; font-size:111.5614px;">Dilema Sunyi SDM Berkualitas</text>
</svg>
