<?xml version="1.0" encoding="utf-8"?>
<!-- Generator: Adobe Illustrator 27.6.1, SVG Export Plug-In . SVG Version: 6.00 Build 0)  -->
<svg version="1.1" id="Layer_2_00000050626205810291480810000014162703035280074161_"
	 xmlns="http://www.w3.org/2000/svg" xmlns:xlink="http://www.w3.org/1999/xlink" x="0px" y="0px" viewBox="0 0 484.1 540.2"
	 style="enable-background:new 0 0 484.1 540.2;" xml:space="preserve">
<style type="text/css">
	.st0{fill:#D9A466;}
	.st1{fill:#73A040;}
	.st2{fill:#80C042;}
	.st3{fill:#02723B;}
	.st4{fill:url(#SVGID_1_);}
	.st5{opacity:0.2;}
	.st6{fill:#DEDFE0;}
	.st7{fill:url(#SVGID_00000083780350813739453230000013136824644352453788_);}
	.st8{fill:#EF4136;}
	.st9{fill:#FBB040;}
	.st10{fill:url(#SVGID_00000124877056747469911780000018403163802595246237_);}
	.st11{fill:#E2B171;}
	.st12{fill:#3C2415;}
</style>
<g>
	<g id="Layer_2_00000183957784825958100400000013040266120057271726_">
		<g id="objects_00000171718974532660218630000004577847712319981458_">
			<path class="st0" d="M80.9,181.4c0,0-22-37.2,70.7-86.2c62.9-33.3,95.2-12,95.2-12l5.8,118.5l-27,61
				C225.5,262.7,80.9,181.4,80.9,181.4z"/>
			<path class="st1" d="M96.2,23.8c-13.5-7-35.4-3.5-44.4,9.3c-5.6,8-8.9,20.8-4.2,29.2C38.9,66.1,32,73.6,30.4,83.4
				c-1.9,11.4,6,16.3,15,17.3c-4.6,14.5,2.1,30.4,16.6,32.2c-3.6,7.3-6,15.4-4.8,23.4c1.8,11.7,10.7,19.9,21.5,24
				c12.4,4.7,24.2,4.1,36.3-1.4c13.1-6,21.5-19.1,35.1-24.4c2.8-1.1,3.8-3.8,3.3-6.2c2.5-1.7,3.6-5.1,0.6-7.4
				c-21.6-16-28-39.3-32-64.5C119,57.4,115.1,33.5,96.2,23.8L96.2,23.8z"/>
			<path class="st2" d="M98.1,141.7c-34.2-32.1-54-39.7-54-39.7s8.7,19.3,42.4,51.9s56.1,41.6,56.1,41.6S132.4,173.7,98.1,141.7z"/>
			<path class="st2" d="M111.8,135.2C81.3,99.6,62.5,89.8,62.5,89.8s6.5,20.2,36.4,56.3s51.1,47.6,51.1,47.6
				S142.3,170.9,111.8,135.2L111.8,135.2z"/>
			<path class="st2" d="M122,128.1C96.6,88.7,79.3,76.4,79.3,76.4s3.7,20.8,28.5,60.6s44.2,54,44.2,54S147.4,167.5,122,128.1z"/>
			<path class="st2" d="M134.9,126.9c-23.4-40.6-40.1-53.7-40.1-53.7s2.7,21,25.4,62c22.8,41,41.5,56.2,41.5,56.2
				S158.3,167.5,134.9,126.9z"/>
			<path class="st2" d="M89.6,156c-37.2-28.5-57.7-34.2-57.7-34.2s10.5,18.4,47.4,47.4s59.9,35.9,59.9,35.9S126.8,184.5,89.6,156
				L89.6,156z"/>
			<circle class="st3" cx="156.7" cy="97.7" r="66.2"/>
			
				<radialGradient id="SVGID_1_" cx="-108.6236" cy="71.7859" r="60.7516" gradientTransform="matrix(0.8605 -0.5094 -0.5094 -0.8605 286.7564 104.1552)" gradientUnits="userSpaceOnUse">
				<stop  offset="0" style="stop-color:#DEDFE0"/>
				<stop  offset="0.32" style="stop-color:#DCDEDD"/>
				<stop  offset="0.48" style="stop-color:#D8DDD6"/>
				<stop  offset="0.6" style="stop-color:#D0DAC9"/>
				<stop  offset="0.7" style="stop-color:#C5D6B6"/>
				<stop  offset="0.79" style="stop-color:#B7D29E"/>
				<stop  offset="0.87" style="stop-color:#A5CC81"/>
				<stop  offset="0.95" style="stop-color:#91C55E"/>
				<stop  offset="1" style="stop-color:#80C042"/>
			</radialGradient>
			<circle class="st4" cx="156.7" cy="97.7" r="60.7"/>
			<g class="st5">
				<path class="st2" d="M153,83.5c7.6-6.3,12.7-15.7,14.3-21.9c-8.5-3.9-18.5-4.3-27.4-0.3L153,83.5L153,83.5z"/>
				<path class="st2" d="M133.2,65.4c-7.2,5.5-11.7,13.6-12.7,22.2c6.2,2.6,15.5,4.7,25.6,0.2c0.1,0,0.2-0.1,0.3-0.1L133.2,65.4
					L133.2,65.4z"/>
			</g>
			
				<ellipse transform="matrix(0.8605 -0.5094 0.5094 0.8605 -21.2267 80.9119)" class="st6" cx="137.1" cy="79.2" rx="2.3" ry="9.5"/>
			<path class="st6" d="M133.3,80.3c-1.5-4.4-3.5-7.6-4.6-7.3c-1.1,0.3-0.7,4.2,0.7,8.6s3.5,7.6,4.6,7.3
				C135,88.5,134.7,84.7,133.3,80.3z"/>
			<path class="st6" d="M128.7,81.9c-1.1-3.7-2.8-6.5-3.7-6.2c-0.9,0.3-0.7,3.5,0.4,7.2c1.1,3.7,2.8,6.5,3.7,6.2
				C130,88.8,129.7,85.5,128.7,81.9L128.7,81.9z"/>
			<path class="st6" d="M148,72.3c-2.7-4.5-4-8.7-2.8-9.4c1.1-0.7,4.2,2.5,6.9,7c2.7,4.5,4,8.7,2.8,9.4
				C153.7,80,150.7,76.8,148,72.3z"/>
			<path class="st6" d="M153.1,68.6c-3.2-3.3-5.1-6.7-4.3-7.5c0.8-0.8,4.1,1.3,7.3,4.7c3.2,3.3,5.1,6.7,4.3,7.5
				C159.6,74,156.3,72,153.1,68.6z"/>
			<path class="st6" d="M157.5,64.2c-3.4-1.9-5.7-4-5.2-4.9c0.5-0.8,3.5,0,6.9,1.9s5.7,4,5.2,4.9C163.9,67,160.8,66.1,157.5,64.2z"
				/>
			<g class="st5">
				<path class="st2" d="M148,107.7c-9.7-1.9-20.2,0.2-25.9,2.8c2.4,9,8.5,17,17.2,21.3L148,107.7L148,107.7z"/>
				<path class="st2" d="M146.6,134.6c8.9,2.1,17.9,0.3,25.2-4.3c-1.9-6.5-6.2-14.9-16.1-19.9c-0.1,0-0.2-0.1-0.3-0.1L146.6,134.6
					L146.6,134.6z"/>
			</g>
			<path class="st6" d="M152.7,121.9c-1.8,5-2.3,9.3-1.1,9.7c1.2,0.5,3.7-3.2,5.5-8.2c1.8-5,2.3-9.3,1.1-9.7
				C156.9,113.3,154.5,117,152.7,121.9z"/>
			<path class="st6" d="M158.2,125c-2.5,3.9-3.7,7.6-2.7,8.2c1,0.6,3.7-2.1,6.2-6c2.5-3.9,3.7-7.6,2.7-8.2
				C163.4,118.4,160.6,121.1,158.2,125z"/>
			<path class="st6" d="M162.2,127.6c-2.2,3.2-3.2,6.2-2.4,6.8c0.8,0.5,3.1-1.7,5.3-4.9c2.2-3.2,3.2-6.2,2.4-6.8
				C166.8,122.2,164.4,124.4,162.2,127.6z"/>
			<path class="st6" d="M142.6,118.7c-1.8,5-4.2,8.6-5.5,8.2c-1.2-0.5-0.7-4.8,1.1-9.7c1.8-5,4.2-8.6,5.5-8.2
				C144.9,109.4,144.4,113.8,142.6,118.7z"/>
			<path class="st6" d="M136.6,117.1c-0.6,4.6-1.9,8.2-3,8.1c-1.1-0.1-1.6-4-1-8.5c0.6-4.6,1.9-8.2,3-8.1
				C136.7,108.8,137.1,112.6,136.6,117.1z"/>
			<path class="st6" d="M130.3,116.5c0.7,3.8,0.5,7-0.4,7.2c-0.9,0.2-2.3-2.8-2.9-6.6c-0.7-3.8-0.5-7,0.4-7.2
				C128.3,109.8,129.7,112.7,130.3,116.5z"/>
			<g class="st5">
				<path class="st2" d="M172.1,93.4c3-9.5,9.9-17.6,15-21.4c6.8,6.4,10.8,15.5,10.4,25.3C197.5,97.4,172.1,93.4,172.1,93.4z"/>
				<path class="st2" d="M196.3,105.1c-2.4,8.7-8.3,15.8-15.8,20c-4.8-4.8-10.1-12.7-9.8-23.8c0-0.1,0-0.2,0-0.3L196.3,105.1z"/>
			</g>
			<path class="st6" d="M182.3,104.3c5.2,0.8,9.3,2.5,9.1,3.8s-4.6,1.6-9.8,0.9c-5.2-0.8-9.3-2.5-9.1-3.8
				C172.7,103.9,177.1,103.5,182.3,104.3z"/>
			<path class="st6" d="M182.5,110.6c4.6-0.3,8.4,0.4,8.5,1.5c0,1.1-3.6,2.3-8.2,2.6c-4.6,0.3-8.4-0.4-8.5-1.5
				C174.2,112.1,177.9,110.9,182.5,110.6z"/>
			<path class="st6" d="M182.7,115.5c3.9-0.3,7,0.2,7.1,1.1c0.1,1-3,2-6.8,2.3c-3.9,0.3-7-0.2-7.1-1.1
				C175.8,116.8,178.9,115.7,182.7,115.5z"/>
			<path class="st6" d="M184.4,94c5.2,0.8,9.6,0.4,9.8-0.9c0.2-1.3-3.9-2.9-9.1-3.8s-9.6-0.4-9.8,0.9
				C175.1,91.5,179.2,93.2,184.4,94z"/>
			<path class="st6" d="M186,87.9c4.3,1.7,8.1,2.3,8.5,1.2s-2.7-3.3-7-5s-8.1-2.3-8.5-1.2C178.5,83.9,181.6,86.2,186,87.9L186,87.9z
				"/>
			<path class="st6" d="M188.4,82.1c3,2.4,5.9,3.8,6.5,3.1c0.6-0.7-1.3-3.3-4.3-5.7c-3-2.4-5.9-3.8-6.5-3.1
				C183.5,77.1,185.4,79.7,188.4,82.1z"/>
			
				<radialGradient id="SVGID_00000049912365535227774950000017301111054060521126_" cx="-7680.5005" cy="2378.4058" r="99.223" gradientTransform="matrix(0.6387 -0.7694 -0.7694 -0.6387 6992.854 -4242.5488)" gradientUnits="userSpaceOnUse">
				<stop  offset="0" style="stop-color:#B1BEC5"/>
				<stop  offset="1" style="stop-color:#ED1C24"/>
			</radialGradient>
			<path style="fill:url(#SVGID_00000049912365535227774950000017301111054060521126_);" d="M187.9,80.4c-2.3,2.2-4.4,4.6-6.5,7.1
				c-29.8,36-30,86.7-3.3,122.6l68.1-49.7C246.3,160.4,187.9,80.4,187.9,80.4z"/>
			<path class="st8" d="M196.5,196.7l31.7-23.1c-0.3-0.7-0.7-1.3-1.4-1.7c-1.2-0.7-2.7,0-3.9-0.6c-3.7-1.8-2.9-9-2.9-12.2
				c0.1-2.4,0.5-4.3,1.5-6.4c1-2,2.5-4.2,1.5-6.5c-0.7-1.8-2.1-2.4-2.5-4.4c-0.5-2.2,0.2-3.9-1.9-5.5c-1.7-1.2-4.1-1.2-6.1-1.8
				c-1.9-0.7-4.9-2.1-5.4-4.1c-0.7-2.4,2.2-5.1,0.4-7.2c-1.6-1.8-6.7-1.4-8.9-2.8c-4.1-2.6-5.2-7.1-8.6-10.2
				C190,110.4,163.4,154.3,196.5,196.7z"/>
			<path class="st9" d="M217.7,169.6c0,0-27-14.8-25.4,1.9C194,189.3,217.7,169.6,217.7,169.6z"/>
			<path class="st9" d="M210.5,143.9c0,0-11.8-14.1-14.5-4.3C193.1,150,210.5,143.9,210.5,143.9z"/>
			<path class="st9" d="M212.3,157.4c0,0-10.9-10.5-12.3-2.3C198.6,163.9,212.3,157.4,212.3,157.4z"/>
			
				<radialGradient id="SVGID_00000135684893577683510400000013314393192818901174_" cx="-1086.0208" cy="3866.0974" r="99.223" gradientTransform="matrix(0.3376 0.9413 0.9413 -0.3376 -3180.9141 2538.4509)" gradientUnits="userSpaceOnUse">
				<stop  offset="0" style="stop-color:#B1BEC5"/>
				<stop  offset="1" style="stop-color:#ED1C24"/>
			</radialGradient>
			<path style="fill:url(#SVGID_00000135684893577683510400000013314393192818901174_);" d="M188.2,186.6c-0.8-3.1-1.7-6.2-2.8-9.2
				c-15.8-44-59.4-70-103.9-65.2l8.1,83.9L188.2,186.6L188.2,186.6z"/>
			<path class="st8" d="M83.7,134.9l3.8,39c0.8,0.1,1.5,0,2.2-0.4c1.2-0.7,1.4-2.3,2.5-3.1c3.5-2.3,9.3,2,12,3.7
				c2,1.3,3.5,2.6,4.8,4.5c1.2,1.9,2.3,4.2,4.8,4.6c1.9,0.3,3.1-0.6,5,0.1c2.1,0.7,3.3,2.1,5.7,1.1c1.9-0.8,3.1-3,4.7-4.3
				c1.5-1.3,4.2-3.1,6.3-2.6c2.4,0.6,3.3,4.6,6,4c2.4-0.5,4.6-5,6.9-6.2c4.3-2.3,8.7-0.9,13.1-2.2C161.4,173.2,137.2,128,83.7,134.9
				L83.7,134.9z"/>
			<path class="st9" d="M96.2,166.9c0,0,26.5-15.8,11.3-22.9C91.3,136.3,96.2,166.9,96.2,166.9z"/>
			<path class="st9" d="M122,173.8c0,0,18.1-3,11.1-10.3C125.6,155.7,122,173.8,122,173.8z"/>
			<path class="st9" d="M109.5,168.5c0,0,14.7-4.1,8.2-9.4C110.9,153.3,109.5,168.5,109.5,168.5z"/>
			<path class="st2" d="M196.4,99.5c-24.2-40.2-41.1-53-41.1-53s3,21,26.7,61.5c23.6,40.6,42.5,55.4,42.5,55.4
				S220.7,139.7,196.4,99.5L196.4,99.5z"/>
			<path class="st2" d="M211.3,97.1c-19.6-42.6-35-57.1-35-57.1s0.7,21.2,19.7,64.1s36.2,59.7,36.2,59.7S230.9,139.7,211.3,97.1z"/>
			<path class="st2" d="M223.2,93c-13.7-44.9-27-61.4-27-61.4s-2.1,21.1,10.9,66.2c13,45,27.8,64,27.8,64S236.9,137.9,223.2,93z"/>
			<path class="st2" d="M235.9,95.3C224.5,49.8,212,32.7,212,32.7s-3.2,21,7.6,66.6c10.8,45.7,24.5,65.4,24.5,65.4
				S247.3,140.8,235.9,95.3z"/>
			<path class="st2" d="M184.4,111c-28-37.6-46.1-48.6-46.1-48.6s5.1,20.6,32.6,58.6s47.8,50.9,47.8,50.9S212.4,148.7,184.4,111
				L184.4,111z"/>
			<path class="st0" d="M211,236.2c-49.3-92.7,35.8-153,35.8-153l205.1,346.4L358.3,485C358.3,485,260.4,328.8,211,236.2z"/>
			<path class="st11" d="M232.2,223.6c-57.5-87.8-151.3-42.2-151.3-42.2l205.1,346.4l93.5-55.4C379.5,472.4,289.7,311.4,232.2,223.6
				L232.2,223.6z"/>
			<path class="st11" d="M195.7,174.2c16.6,8.1,32.9,21.6,47,43.2C300.3,305.2,390,466.2,390,466.2l61.8-36.6L246.8,83.2
				C246.8,83.2,198.3,117.5,195.7,174.2z"/>
			<path class="st12" d="M414.5,428c1.3,2.1,0.6,4.8-1.6,6.1l-104.3,61.7c-2.1,1.3-4.8,0.6-6.1-1.6l0,0c-1.3-2.1-0.6-4.8,1.6-6.1
				l104.3-61.7C410.5,425.1,413.2,425.8,414.5,428L414.5,428z"/>
			<path class="st12" d="M389.7,386.2c1.3,2.1,0.6,4.8-1.6,6.1L283.9,454c-2.1,1.3-4.8,0.6-6.1-1.6l0,0c-1.3-2.1-0.6-4.8,1.6-6.1
				l104.3-61.7C385.8,383.4,388.5,384.1,389.7,386.2C389.7,386.2,389.7,386.2,389.7,386.2z"/>
			<path class="st12" d="M365,344.4c1.3,2.1,0.6,4.8-1.6,6.1l-104.3,61.7c-2.1,1.3-4.8,0.6-6.1-1.6l0,0c-1.3-2.1-0.6-4.8,1.6-6.1
				l104.3-61.7C361,341.6,363.7,342.3,365,344.4C365,344.4,365,344.4,365,344.4z"/>
			<path class="st12" d="M340.3,302.6c1.3,2.1,0.6,4.8-1.6,6.1l-104.3,61.7c-2.1,1.3-4.8,0.6-6.1-1.6l0,0c-1.3-2.1-0.6-4.8,1.6-6.1
				l104.3-61.7C336.3,299.8,339,300.5,340.3,302.6L340.3,302.6L340.3,302.6z"/>
			<path class="st12" d="M315.5,260.9c1.3,2.1,0.6,4.8-1.6,6.1l-104.3,61.7c-2.1,1.3-4.8,0.6-6.1-1.6l0,0c-1.3-2.1-0.6-4.8,1.6-6.1
				l104.3-61.7C311.6,258.1,314.3,258.8,315.5,260.9L315.5,260.9z"/>
			<path class="st12" d="M290.8,219.1c1.3,2.1,0.6,4.8-1.6,6.1L185,287c-2.1,1.3-4.8,0.6-6.1-1.6l0,0c-1.3-2.1-0.6-4.8,1.6-6.1
				l104.3-61.7C286.8,216.3,289.5,217,290.8,219.1L290.8,219.1z"/>
			<path class="st12" d="M266.1,177.3c1.3,2.1,0.6,4.8-1.6,6.1l-104.3,61.7c-2.1,1.3-4.8,0.6-6.1-1.6l0,0c-1.3-2.1-0.6-4.8,1.6-6.1
				L260,175.8C262.1,174.5,264.8,175.2,266.1,177.3C266.1,177.3,266.1,177.3,266.1,177.3z"/>
		</g>
	</g>
</g>
</svg>
