<?xml version="1.0" encoding="UTF-8"?><svg xmlns="http://www.w3.org/2000/svg" xmlns:xlink="http://www.w3.org/1999/xlink" viewBox="0 0 77.37 95.06"><defs><style>.cls-1{fill:#d9a466;}.cls-2{fill:#80c042;}.cls-3{fill:#dedfe0;}.cls-4{fill:#73a040;}.cls-5{fill:url(#radial-gradient);}.cls-6{fill:#3c2415;}.cls-7{isolation:isolate;}.cls-7,.cls-8{fill:none;}.cls-9{fill:#fbb040;}.cls-10{fill:#ef4136;mix-blend-mode:multiply;}.cls-11{fill:url(#radial-gradient-2);}.cls-12{fill:url(#radial-gradient-3);}.cls-8{opacity:.2;}.cls-13{fill:#e2b171;}.cls-14{fill:#02723b;}</style><radialGradient id="radial-gradient" cx="39.03" cy="12.19" fx="39.03" fy="12.19" r="11.3" gradientTransform="translate(-17.28 11.8) rotate(-13.35)" gradientUnits="userSpaceOnUse"><stop offset="0" stop-color="#dedfe0"/><stop offset=".32" stop-color="#dcdedd"/><stop offset=".48" stop-color="#d8ddd6"/><stop offset=".6" stop-color="#d0dac9"/><stop offset=".7" stop-color="#c5d6b6"/><stop offset=".79" stop-color="#b7d29e"/><stop offset=".87" stop-color="#a5cc81"/><stop offset=".95" stop-color="#91c55e"/><stop offset="1" stop-color="#80c042"/></radialGradient><radialGradient id="radial-gradient-2" cx="-7275.36" cy="-2532.86" fx="-7275.36" fy="-2532.86" r="18.46" gradientTransform="translate(6703.83 -3844.36) rotate(-49.34)" gradientUnits="userSpaceOnUse"><stop offset="0" stop-color="#b1bec5"/><stop offset="1" stop-color="#ed1c24"/></radialGradient><radialGradient id="radial-gradient-3" cx="-1043.86" cy="-2439.07" fx="-1043.86" fy="-2439.07" r="18.46" gradientTransform="translate(-1962.46 1808.65) rotate(71.23)" xlink:href="#radial-gradient-2"/></defs><g class="cls-7"><g id="Layer_2"><g id="objects"><path class="cls-1" d="m9.14,29.98s-3.98-6.99,13.43-15.82c11.81-5.99,17.74-1.93,17.74-1.93l.7,22.06-5.22,11.26-26.65-15.57Z"/><path class="cls-4" d="m12.49.71C10-.63,5.92-.06,4.2,2.3c-1.07,1.47-1.72,3.85-.87,5.41-1.63.68-2.94,2.06-3.27,3.88-.38,2.11,1.06,3.06,2.74,3.26-.9,2.68.29,5.66,2.99,6.05-.69,1.35-1.17,2.84-.97,4.34.3,2.19,1.92,3.73,3.92,4.53,2.29.91,4.49.84,6.75-.15,2.46-1.08,4.05-3.48,6.6-4.43.53-.2.71-.7.64-1.14.47-.31.69-.94.13-1.37-3.96-3.04-5.09-7.4-5.75-12.1-.5-3.54-1.14-8.01-4.62-9.88Z"/><path class="cls-2" d="m12.46,22.64c-6.27-6.07-9.92-7.55-9.92-7.55,0,0,1.55,3.62,7.73,9.78,6.18,6.16,10.3,7.92,10.3,7.92,0,0-1.83-4.08-8.11-10.15Z"/><path class="cls-2" d="m15.03,21.48c-5.56-6.72-9.03-8.6-9.03-8.6,0,0,1.14,3.77,6.6,10.58,5.46,6.81,9.36,9.01,9.36,9.01,0,0-1.37-4.26-6.93-10.98Z"/><path class="cls-2" d="m16.96,20.19c-4.61-7.41-7.79-9.74-7.79-9.74,0,0,.62,3.89,5.12,11.37,4.5,7.48,8.06,10.19,8.06,10.19,0,0-.79-4.41-5.39-11.82Z"/><path class="cls-2" d="m19.36,20c-4.23-7.63-7.29-10.12-7.29-10.12,0,0,.43,3.92,4.54,11.61,4.12,7.69,7.54,10.58,7.54,10.58,0,0-.56-4.44-4.79-12.07Z"/><path class="cls-2" d="m10.84,25.28C4,19.86.22,18.74.22,18.74c0,0,1.9,3.45,8.66,8.97,6.76,5.52,11.03,6.86,11.03,6.86,0,0-2.23-3.88-9.07-9.3Z"/><circle class="cls-14" cx="23.51" cy="14.65" r="12.32" transform="translate(-3.17 7.19) rotate(-16.31)"/><circle class="cls-5" cx="23.51" cy="14.65" r="11.3" transform="translate(-3.17 7.19) rotate(-16.31)"/><g class="cls-8"><path class="cls-2" d="m22.87,11.99c1.44-1.14,2.41-2.88,2.73-4.02-1.56-.76-3.42-.85-5.09-.14l2.36,4.15Z"/><path class="cls-2" d="m19.24,8.56c-1.36,1-2.21,2.49-2.43,4.09,1.15.51,2.87.92,4.77.12.02,0,.03-.01.05-.02l-2.38-4.19Z"/></g><ellipse class="cls-3" cx="19.93" cy="11.15" rx=".43" ry="1.77" transform="translate(-2.91 11.32) rotate(-29.66)"/><path class="cls-3" d="m19.2,11.33c-.26-.82-.63-1.43-.83-1.37-.2.06-.15.78.1,1.6s.63,1.43.83,1.37.15-.78-.1-1.6Z"/><path class="cls-3" d="m18.34,11.61c-.2-.69-.5-1.21-.67-1.16-.17.05-.14.65.05,1.34.2.69.5,1.21.67,1.16.17-.05.14-.65-.06-1.34Z"/><path class="cls-3" d="m21.96,9.89c-.48-.85-.71-1.64-.5-1.76s.77.48,1.26,1.33.71,1.64.5,1.76-.77-.48-1.26-1.33Z"/><path class="cls-3" d="m22.92,9.22c-.58-.63-.93-1.26-.78-1.4.15-.14.75.25,1.34.89.58.63.93,1.26.78,1.4-.15.14-.75-.25-1.34-.89Z"/><path class="cls-3" d="m23.75,8.42c-.62-.36-1.05-.77-.96-.93.09-.15.66.02,1.28.38.62.36,1.05.77.96.93-.09.15-.66-.02-1.28-.38Z"/><g class="cls-8"><path class="cls-2" d="m21.86,16.48c-1.8-.39-3.75-.03-4.83.44.41,1.69,1.52,3.18,3.13,4.02l1.71-4.46Z"/><path class="cls-2" d="m21.52,21.47c1.64.41,3.33.12,4.7-.72-.33-1.21-1.11-2.8-2.94-3.76-.01,0-.03-.01-.05-.02l-1.72,4.5Z"/></g><path class="cls-3" d="m22.68,19.13c-.35.92-.45,1.73-.23,1.81.22.09.69-.59,1.04-1.5.35-.92.45-1.73.23-1.81-.22-.09-.69.59-1.04,1.5Z"/><path class="cls-3" d="m23.69,19.73c-.47.72-.71,1.4-.53,1.51.18.12.7-.38,1.17-1.1.47-.72.71-1.4.53-1.51-.18-.11-.7.38-1.17,1.1Z"/><path class="cls-3" d="m24.44,20.22c-.41.59-.62,1.15-.47,1.25.14.1.59-.3,1-.89.41-.59.62-1.15.47-1.25-.14-.1-.59.3-1,.89Z"/><path class="cls-3" d="m20.82,18.51c-.35.92-.81,1.59-1.04,1.5-.22-.09-.12-.9.23-1.81.35-.92.81-1.59,1.04-1.5.22.09.12.9-.23,1.81Z"/><path class="cls-3" d="m19.7,18.2c-.12.85-.38,1.52-.59,1.49s-.28-.74-.16-1.59.38-1.52.59-1.49c.21.03.28.74.16,1.59Z"/><path class="cls-3" d="m18.54,18.06c.12.71.07,1.31-.1,1.33-.17.03-.41-.52-.52-1.23-.12-.71-.07-1.31.1-1.33.17-.03.41.52.52,1.23Z"/><g class="cls-8"><path class="cls-2" d="m26.39,13.9c.58-1.75,1.89-3.24,2.85-3.93,1.24,1.21,1.96,2.92,1.86,4.74l-4.71-.81Z"/><path class="cls-2" d="m30.85,16.15c-.48,1.62-1.59,2.92-3.01,3.68-.87-.91-1.84-2.39-1.74-4.45,0-.02,0-.03,0-.05l4.75.82Z"/></g><path class="cls-3" d="m28.25,15.95c.97.17,1.72.49,1.68.73-.04.24-.86.29-1.82.13-.97-.17-1.72-.49-1.68-.73.04-.24.86-.29,1.82-.13Z"/><path class="cls-3" d="m28.26,17.13c.86-.04,1.56.1,1.57.31,0,.21-.68.41-1.54.45-.86.04-1.56-.1-1.57-.31,0-.21.68-.41,1.54-.45Z"/><path class="cls-3" d="m28.29,18.03c.72-.05,1.31.06,1.32.23.01.18-.56.36-1.28.4-.72.05-1.31-.06-1.32-.23-.01-.18.56-.36,1.28-.4Z"/><path class="cls-3" d="m28.67,14.04c.97.17,1.78.11,1.82-.13.04-.24-.71-.56-1.68-.73s-1.78-.11-1.82.13c-.04.24.71.56,1.68.73Z"/><path class="cls-3" d="m28.98,12.91c.79.33,1.5.45,1.58.25s-.49-.62-1.29-.95-1.5-.45-1.58-.25c-.08.19.49.62,1.29.96Z"/><path class="cls-3" d="m29.45,11.85c.55.46,1.09.73,1.2.59.11-.13-.24-.62-.79-1.08-.55-.46-1.09-.73-1.2-.59-.11.13.24.62.79,1.08Z"/><path class="cls-11" d="m29.37,11.52c-.43.41-.84.84-1.23,1.3-5.66,6.6-5.85,16.04-.99,22.8l12.83-9.03-10.61-15.07Z"/><path class="cls-10" d="m30.6,33.19l5.96-4.19c-.06-.13-.13-.24-.26-.32-.22-.13-.5-.01-.72-.12-.69-.34-.52-1.69-.5-2.28.02-.44.1-.8.3-1.18.19-.36.47-.77.3-1.2-.13-.33-.38-.45-.45-.82-.08-.41.05-.73-.34-1.02-.31-.22-.76-.23-1.12-.36-.35-.13-.9-.4-1-.78-.12-.44.43-.95.1-1.33-.3-.34-1.24-.28-1.65-.55-.76-.49-.95-1.33-1.56-1.93,0,0-5.09,8.08.94,16.08Z"/><path class="cls-9" d="m34.63,28.21s-4.98-2.83-4.74.28c.26,3.32,4.74-.28,4.74-.28Z"/><path class="cls-9" d="m33.37,23.41s-2.15-2.66-2.68-.85c-.57,1.93,2.68.85,2.68.85Z"/><path class="cls-9" d="m33.66,25.92s-2-1.99-2.28-.46c-.29,1.64,2.28.46,2.28.46Z"/><path class="cls-12" d="m29.09,31.29c-.14-.58-.3-1.15-.49-1.72-2.8-8.23-10.83-13.2-19.12-12.45l1.25,15.64,18.37-1.47Z"/><path class="cls-10" d="m9.81,21.33l.58,7.26c.14.02.27.01.41-.06.23-.12.26-.42.47-.56.65-.42,1.72.41,2.22.73.37.24.64.49.87.86.22.35.42.79.88.87.35.06.58-.1.93.03.39.14.6.41,1.05.22.35-.15.58-.54.88-.78.29-.24.8-.57,1.18-.46.44.12.6.86,1.1.77.45-.08.87-.92,1.31-1.14.81-.41,1.63-.14,2.45-.36,0,0-4.36-8.49-14.32-7.37Z"/><path class="cls-9" d="m12.04,27.32s4.97-2.85,2.17-4.22c-2.99-1.47-2.17,4.22-2.17,4.22Z"/><path class="cls-9" d="m16.82,28.69s3.38-.5,2.09-1.88c-1.38-1.47-2.09,1.88-2.09,1.88Z"/><path class="cls-9" d="m14.51,27.66s2.74-.71,1.56-1.73c-1.26-1.09-1.56,1.73-1.56,1.73Z"/><path class="cls-2" d="m30.89,15.11c-4.38-7.55-7.48-9.98-7.48-9.98,0,0,.5,3.91,4.77,11.53,4.26,7.62,7.74,10.43,7.74,10.43,0,0-.65-4.43-5.02-11.98Z"/><path class="cls-2" d="m33.67,14.7c-3.51-7.99-6.33-10.74-6.33-10.74,0,0,.07,3.94,3.46,11.98,3.39,8.04,6.54,11.22,6.54,11.22,0,0-.16-4.47-3.67-12.46Z"/><path class="cls-2" d="m35.89,13.98c-2.41-8.39-4.83-11.5-4.83-11.5,0,0-.46,3.92,1.82,12.34,2.28,8.42,4.97,12,4.97,12,0,0,.45-4.45-1.96-12.84Z"/><path class="cls-2" d="m38.24,14.45c-1.98-8.5-4.25-11.73-4.25-11.73,0,0-.66,3.89,1.2,12.41,1.86,8.53,4.36,12.24,4.36,12.24,0,0,.67-4.43-1.31-12.92Z"/><path class="cls-2" d="m28.61,17.21c-5.1-7.08-8.43-9.19-8.43-9.19,0,0,.89,3.84,5.88,11,4.99,7.16,8.73,9.62,8.73,9.62,0,0-1.08-4.34-6.18-11.42Z"/><path class="cls-1" d="m33.18,40.57c-8.89-17.39,7.13-28.34,7.13-28.34l37.06,65.08-17.57,10.01s-17.73-29.36-26.62-46.75Z"/><path class="cls-13" d="m37.15,38.3c-10.42-16.52-28.01-8.33-28.01-8.33l37.06,65.08,17.57-10.01s-16.2-30.23-26.62-46.75Z"/><path class="cls-13" d="m30.53,28.99c3.06,1.56,6.05,4.13,8.61,8.18,10.42,16.52,26.62,46.75,26.62,46.75l11.61-6.61L40.31,12.23s-9.12,6.23-9.78,16.76Z"/><path class="cls-6" d="m70.42,76.89c.23.4.09.9-.31,1.13l-19.59,11.16c-.4.23-.9.09-1.13-.31h0c-.23-.4-.09-.9.31-1.13l19.59-11.16c.4-.23.9-.09,1.13.31h0Z"/><path class="cls-6" d="m65.95,69.04c.23.4.09.9-.31,1.13l-19.59,11.16c-.4.23-.9.09-1.13-.31h0c-.23-.4-.09-.9.31-1.13l19.59-11.16c.4-.23.9-.09,1.13.31h0Z"/><path class="cls-6" d="m61.48,61.19c.23.4.09.9-.31,1.13l-19.59,11.16c-.4.23-.9.09-1.13-.31h0c-.23-.4-.09-.9.31-1.13l19.59-11.16c.4-.23.9-.09,1.13.31h0Z"/><path class="cls-6" d="m57.01,53.34c.23.4.09.9-.31,1.13l-19.59,11.16c-.4.23-.9.09-1.13-.31h0c-.23-.4-.09-.9.31-1.13l19.59-11.16c.4-.23.9-.09,1.13.31h0Z"/><path class="cls-6" d="m52.54,45.5c.23.4.09.9-.31,1.13l-19.59,11.16c-.4.23-.9.09-1.13-.31h0c-.23-.4-.09-.9.31-1.13l19.59-11.16c.4-.23.9-.09,1.13.31h0Z"/><path class="cls-6" d="m48.07,37.65c.23.4.09.9-.31,1.13l-19.59,11.16c-.4.23-.9.09-1.13-.31h0c-.23-.4-.09-.9.31-1.13l19.59-11.16c.4-.23.9-.09,1.13.31h0Z"/><path class="cls-6" d="m43.6,29.8c.23.4.09.9-.31,1.13l-19.59,11.16c-.4.23-.9.09-1.13-.31h0c-.23-.4-.09-.9.31-1.13l19.59-11.16c.4-.23.9-.09,1.13.31h0Z"/></g></g></g></svg>