<?xml version="1.0" encoding="UTF-8"?><svg id="Layer_2" xmlns="http://www.w3.org/2000/svg" viewBox="0 0 84.94 96.61"><defs><style>.cls-1{fill:#ffc510;}.cls-2{fill:#4da9dd;}.cls-3{fill:#f26f24;}.cls-4{fill:#184f7c;}.cls-5{fill:#d53f27;}.cls-6{fill:#f68e1e;}.cls-7{fill:#348eb5;}.cls-8{fill:#e7f4f5;}.cls-9{fill:#4b9443;}.cls-10{fill:#79c043;}.cls-11{fill:#7bcdf1;}</style></defs><g id="_9"><rect class="cls-2" x="14.14" y="44.37" width="60.9" height="19" rx="1.35" ry="1.35"/><path class="cls-1" d="m70.54,81.03c0,.75-.56,1.35-1.24,1.35H15.86c-.68,0-1.24-.6-1.24-1.35v-16.3c0-.75.56-1.35,1.24-1.35h53.44c.68,0,1.24.6,1.24,1.35v16.3Z"/><path class="cls-10" d="m70.54,89.92c0,.75-.56,1.35-1.24,1.35H15.86c-.68,0-1.24-.6-1.24-1.35v-16.3c0-.75.56-1.35,1.24-1.35h53.44c.68,0,1.24.6,1.24,1.35v16.3Z"/><rect class="cls-2" x="48.04" y="3.91" width="17.07" height="7.72" transform="translate(-.33 2.93) rotate(-2.95)"/><polygon class="cls-11" points="31.9 7.97 32.41 17.93 39.35 17.58 39.11 12.8 31.9 7.97"/><polygon class="cls-11" points="81.15 5.43 81.66 15.39 74.72 15.75 74.48 10.97 81.15 5.43"/><rect class="cls-4" x="32.35" y="15.69" width="6.95" height="2.01" transform="translate(-.81 1.86) rotate(-2.95)"/><rect class="cls-4" x="74.67" y="13.57" width="6.95" height="2.01" transform="translate(-.65 4.05) rotate(-2.96)"/><path class="cls-2" d="m56.53,6.75l2.09,40.61-16.96.87c-.4.02-.75-.29-.77-.7l-1.79-34.74-7.21-4.82c-.16-3.16,2.27-5.86,5.43-6.02l13.13-.68c.16,3.18,2.88,5.64,6.07,5.47Z"/><path class="cls-7" d="m81.15,5.44l-6.67,5.54,1.79,34.74c.02.41-.29.75-.7.77l-16.95.88-2.09-40.61c3.18-.16,5.64-2.89,5.48-6.07L75.13,0c3.16-.16,5.86,2.27,6.03,5.43Z"/><path class="cls-4" d="m62.01.69c.16,3.18-2.3,5.9-5.48,6.07-3.19.16-5.91-2.29-6.07-5.47l-2.01.1c.22,4.29,3.89,7.59,8.18,7.37,4.29-.22,7.6-3.89,7.38-8.18l-2.01.1Z"/><path class="cls-5" d="m4.45,35.36l6.7,54.08c.51,4.1,4,7.18,8.13,7.18h46.38c4.13,0,7.62-3.08,8.13-7.18l6.7-54.08H4.45Zm59.8,52.55H20.69l-5.44-43.84h54.43l-5.44,43.84Z"/><path class="cls-10" d="m7.57,8.86h42.63c1.97,0,3.58,1.6,3.58,3.58v1.48c0,1.97-1.6,3.58-3.58,3.58H7.58c-1.97,0-3.58-1.6-3.58-3.58v-1.48c0-1.97,1.6-3.58,3.58-3.58Z"/><polygon class="cls-3" points="84.94 17.5 82.72 35.36 2.22 35.36 0 17.5 84.94 17.5"/><rect class="cls-5" x="38.75" y="35.36" width="7.44" height="55.54"/><rect class="cls-5" x="23.46" y="36.58" width="7.43" height="55.7" transform="translate(-6.45 3.12) rotate(-5.87)"/><rect class="cls-5" x="29.92" y="60.71" width="55.7" height="7.44" transform="translate(-12.24 115.3) rotate(-84.13)"/><rect class="cls-5" x="11.74" y="49.26" width="61.46" height="7.44"/><rect class="cls-5" x="11.74" y="70.08" width="61.46" height="7.43"/><polygon class="cls-6" points="49.64 47.53 24.38 42.06 24.38 16.91 44.23 16.91 49.64 47.53"/><rect class="cls-1" x="17.76" y="14.94" width="26.47" height="29.77"/><path class="cls-8" d="m12.3,17.5v28.06c0,3.75,3.04,6.79,6.79,6.79h1.42c3.75,0,6.79-3.04,6.79-6.79v-28.06h-15Z"/><rect class="cls-9" x="12.3" y="22.36" width="15" height="3.53"/><rect class="cls-9" x="12.3" y="31.18" width="15" height="3.53"/><rect class="cls-9" x="12.3" y="40" width="15" height="3.53"/></g></svg>