<?xml version="1.0" encoding="utf-8"?>
<!-- Generator: Adobe Illustrator 27.6.1, SVG Export Plug-In . SVG Version: 6.00 Build 0)  -->
<svg version="1.1" id="Layer_1" xmlns="http://www.w3.org/2000/svg" xmlns:xlink="http://www.w3.org/1999/xlink" x="0px" y="0px"
	 viewBox="0 0 1920.9 217.5" style="enable-background:new 0 0 1920.9 217.5;" xml:space="preserve">
<style type="text/css">
	.st0{fill:#FFFFFF;}
</style>
<path class="st0" d="M2844.7,64c-10.5-3-20-4.4-30.4,2.4c-17.7,5.4-32.1,11.9-50.6,9.7c-16.9,4.4-33.9,19.4-51.2,4.2
	C2687,60,2662,66.8,2636.4,64c-33.9-12.1-68.1-5.8-102,0.2c-19-0.2-29.2,6-46.2,8.3c-7.1,7.3-11.3,13.9-18.8,2.4
	c-21,3.6-45.6,20.8-66.1,0.2c-9.5,1.6-17.1-22.8-26.6-10.1c-8.7,9.9-17.9-0.2-26.8-1c-13.9,17.5-17.3-0.4-30-8.3
	c-9.3-21.8-19,5-28.6-2.6c-29.6,7.9-59.1-4.6-88.7,0.2c-18.3,7.1-38.1-29.6-56.1-0.6c-20.6-12.3-38.1,13.7-57.9,20.8
	c-9.1,19.2-17.5-19.2-26.6,9.1c-28,20.2-55.2-3-84.7,7.9c-15.3,1.8-30.2,16.5-44.6-5c-9.9,23-17.9-24.6-27.4-16.7
	c-16.7-32.5-34.3-24.2-52.6-10.3c-20.2-3.8-40.1,2.6-59.9,5.2c-19.8,4.2-39.7-6.7-60.1,5.6c-17.3-2.4-29.6-7.5-44.6,5.2
	c-21.6-1.4-43.3,11.9-64.1,1.2c-17.7,13.1-38.5-37.1-56.5-1.2c-23.6,14.3-47-14.7-70.6,0c-23.6-31.7-47,42.9-70.6,0
	c-24.6,8.7-49.2-16.3-73.6,0.2c-20.6-30.9-33.7-18.8-53.4-15.3c-15.7-7.3-32.1-6.2-48-1.6c-9.1-2.8-15.9,10.7-24.2-10.1
	c-9.9-30.6-17.5-18.5-27.6-6c-11.1-27-18.3-9.1-30.2-10.1c-21.6,10.1-50.8,29.6-71.6-0.4c-9.9-6.5-16.7-5.2-27.2-14.7
	c-12.3-9.1-21.2,2-32.5,5c-16.3,5-31.7,25.6-49.4,16.3c-10.3,21.4-19.2-8.3-29.2-4.6C949,9.4,934,14.8,923.4,33
	c-6.2-1-10.5,7.7-17.7,8.5c-12.3-2.2-26,13.3-38.5,1C853.6,26.1,840.7,52.7,828,39c-15.5-14.9-32.9-27-51-19.2
	c-18.1,14.9-36.5-19.4-54.2-2.6c-21.4,3.4-42.5,11.3-64.1,14.3c-21.4,0.4-43.3,0.2-65.5,6c-19,9.9-38.1-2.8-56.3-5
	c-13.9-6.2-21.8-11.5-35.7-15.3c-18.8,9.5-36.3-1.8-53.2,7.1c-11.1,13.3-22,12.7-34.3,17.9c-8.7,0-18.8,0.6-27.8,0.6
	c-24.8-6.5-56.5,6.7-78.2,5.4c-15.9,15.3-31.5,4.4-49.6,5.4c-14.1-4.4-20.8,15.5-32.5-4c-3,0.8-5.4-12.7-8.7-5.8
	c-6.9-13.9-18.5-4.6-25.6-1.4c-11.3-2.6-7.7,3.2-16.9,8.3c-14.7,15.5-31.1-3.2-48.4,7.9c-19.6,9.7-38.5-6.2-57.1,0.6
	c-18.6,2-37.1,17.7-56.1,8.9c-23.4,13.5-45,16.3-69.6,12.1c-17.5,3.4-39.7-3.2-56.9-0.6c-5-2.2-8.1,8.9-13.1,5.8
	c-20.4,10.5-42.7,13.5-63.9,5.4c-16.5-5.8-32.9-3.8-49.4-0.2c-21-11.7-45-9.9-65.5,1c-18.6,25.6-32.3,31.5-52.6,15.3
	c-24.2,2.2-54.6-4.2-78.6,0c-10.1,2.2-9.5,0.6-17.7-10.1c-5.2,7.9-14.9-11.3-20.2-5c-13.7-6.5-25.8,10.1-38.5-15.9
	c-6.9-7.7-12.9,3-20.6-11.1c-11.3,3.6-24.2,19.6-35.7-1c-19.4-14.3-35.7,4.4-54.8,5.6c-29.2,11.3-57.3-1.8-85.9-4.2
	c-14.9-19.6-18.1-14.3-31.1-12.3c-9.3-19.8-8.9-1.4-18.3-4.6c-13.9,2.4-28.2-28.8-42.1-17.9c-26.8-12.3-61.7-34.7-90.3-4
	c-14.5-1.8-41.9-0.8-54-1c-3.8-5.6-5.8-11.1-9.3-11.1c-4-20.4-10.3-13.5-15.1-8.1c-18.1-20.8-35.7-3.4-55-6.5
	c-14.1,3.2-23.6,16.9-36.9-4.2c-18.3-6.3-38.3-0.2-56.9-1.2c-6-6.7-12.5-3.6-18.1,1c-6.3-3-8.3,5.6-15.7,10.1
	c-8.9,9.1-22.2-1.4-32.3,0c-20.2-6.5-40.7-12.9-60.9,0c-25.4,5.6-44,7.7-67.3,17.5c-23,3.2-44,13.5-69,9.1
	c-12.9,2.6-33.3-8.3-45.6-0.6c-8.5,20.4-10.1,16.3-17.1,12.9c-4.8-3-9.5,7.9-14.5,4.8c-24.2-4.4-44.8,18.5-70.8,9.5
	c0,2.8-26.6,77.4-26.6,74.6c9.3,12.9,14.3,6.7,22.6,9.7c7.9-2.6,16.1-4,24,0.8c13.3-12.5,29.4,10.1,42.5-0.4
	c14.3,0.2,25.6,20,39.9,15.3c17.5,4.2,35.1-6.5,50.8-6.5c20.8-8.3,38.9-30.4,61.5-46c4.8,5.8,15.1-8.7,19.4,0.4
	c14.7-2.2,34.3-22.4,48.2,2.4c12.5,0,23.4-5,37.5,6.2c10.3-20.8,4.4-12.5,18.1-14.1c10.9,7.7,24.2-23.6,35.5-6
	c18.3-3,24-11.9,39.1,20.6c22.8,3,64.7-2.4,88.3,1.8c21.4,3.6,46-28.6,67.9-0.2c15.7-3.2,32.5,16.3,46.8,10.9
	c16.1,0,33.1,6.9,50.2,14.7c27-3.4,58.9-16.7,86.3,1.2c18.1,3.4,36.3-1.4,54.4-0.2c18.8-15.7,30.8,19.4,49.8,16.5
	c17.5,2.4,38.7,8.9,55.6-0.6c5.6,10.3,9.7,9.9,15.3,6c7.7-1,18.3-3,26.2-0.2c5.2-10.1,11.9-3,16.9-0.8c6.5-0.2,8.9-4,15.5-14.5
	c8.3,1,26.6,11.7,34.9-0.8c14.1-1.6,28.2,7.3,41.1,5.2c18.8,13.3,32.1,21.6,55.2,21.8c17.1-19.8,34.5-5.4,51.6-0.2
	c14.9,5.2,30.8,1.4,44.2-3.2c4.6-1.2,8.1-11.5,13.1-7.7c9.7,5.8,20.6,0.2,30.8-5.4c16.3-4.2,32.7,9.9,49.2,0.2
	c11.1,6,33.1,19.8,43.3-1c6.9-27.8,9.7-18.3,16.5-19.2c15.9-10.9,44.8,4,63.3-6.5c9.7,6.2,8.1-2.8,19.2,3.2
	c14.7-9.1,25.6,41.9,40.9,24.2c17.5-4,34.9,15.5,52.8,4.8c20.8,2.4,41.5,9.1,62.3,0c5.4,2.6,12.3,7.7,17.5-0.6
	c16.1,9.1,19.6,15.7,33.5,21.2c12.1,19,26.2,6.3,38.7,0.4c17.3-22.2,32.7,7.5,50.6,5.6c17.9-13.1,35.5-0.6,53.4,0
	c11.7-4.6,25-2.4,36.5-0.2c9.9-8.9,18.5,20.2,28.4,5.8c25.6,6,53.2-2.4,76.4-11.9c14.1-1,25.2-16.5,39.7-20
	c7.5,5.6,12.3-21.4,19.4-8.5c10.3-8.1,20.6,4.2,31.9-2.4c16.5,21.6,33.9-7.7,50.2,0.4c23.8,8.7,40.7-8.7,61.9-30.2
	c12.9-1,31.7,8.7,45.6-2.6c18.1,11.5,32.5,0.4,49.6,10.1c5.6-5.2,10.9,27.4,16.5,2c5.4,1.2,10.7,16.1,16.3,8.5
	c29.8-10.3,61.1,37.5,92.7,17.1c20-5.4,40.5,6.5,60.5-0.6c20.2-12.1,40.3-6.5,59.7,4.6c16.9,14.3,33.5,25.6,49.4-5.4
	c16.3-26.8,24.4-13.7,42.5-9.5c31.9-1.6,63.9-4.8,95.8,0c18.5,6.5,36.7,2.6,55.2,0c17.3-3.4,30.2-7.3,46.8,5.4
	c33.7,8.3,65.7-10.3,95.6,10.5c12.9,9.1,26.8,34.7,39.9,15.9c21.2-0.4,41.3,15.3,64.9,20.8c26.8,9.7,46.6-16.7,72.6-9.1
	c34.1,8.7,67.5-23.6,102.6-6.2c21.4-9.1,51.2,8.9,71.4-0.8c16.1-1.6,23.4-9.1,41.9-20.6c16.3-13.7,34.1,22.6,50.2-0.4
	c17.3,4.2,32.7,4.2,50,11.7c11.7,22.2,24.6-10.7,36.5-0.6c20,1.4,39.9-15.5,59.9,0c20-0.2,39.9-1.6,59.9,0
	c21.6-28.4,43.4,11.5,64.3,6.5c18.5,21.4,30.6,19.2,51.4,20.4c23.8,15.1,39.3-6.2,61.5-12.5c19.4,1,38.9-1.6,58.5-5
	c21.6-0.8,40.7-3.6,60.3-14.9c21.6-3,37.7-29,62.5-10.7c31.7,11.5,63.5,16.3,95.4,0c18.5,10.9,31.3-3,49.6-5.4
	c24.8-13.5,47.8,10.1,72.2,4.2c24.6,3.6,51,16.9,76,6.3c18.5,2.2,31.9,4,48.8,18.5c20.2,14.7,46-11.1,67.9,3
	c18.5,9.5,30.9-9.1,48-10.5c15.9,0.6,54.4,2.6,63.1-21.4c0-19.4,26.6-116.3,26.6-101.2C2883.4,77.9,2857.2,62.4,2844.7,64z"/>
</svg>
