<?xml version="1.0" encoding="utf-8"?>
<!-- Generator: Adobe Illustrator 27.6.1, SVG Export Plug-In . SVG Version: 6.00 Build 0)  -->
<svg version="1.1" id="Layer_1" xmlns="http://www.w3.org/2000/svg" xmlns:xlink="http://www.w3.org/1999/xlink" x="0px" y="0px"
	 viewBox="0 0 1920.9 1041.5" style="enable-background:new 0 0 1920.9 1041.5;" xml:space="preserve">
<style type="text/css">
	.st0{fill:#F6E4CF;}
	.st1{clip-path:url(#XMLID_00000158725286309500776700000006630469572863524788_);}
	.st2{fill:#E27E79;}
	.st3{fill:#BA514F;}
	.st4{fill:#D18BCF;}
	.st5{opacity:0.31;fill:#D18BCF;}
	.st6{fill:#B25F90;}
	.st7{fill:#A54C85;}
	.st8{opacity:0.22;fill:#A54C85;}
	.st9{fill:#F4B69D;}
	.st10{opacity:0.3;fill:#D87D68;}
	.st11{fill:#2D2929;}
	.st12{fill:#5B151A;}
	.st13{fill:#823030;}
	.st14{fill:#261238;}
	.st15{fill:#272C44;}
	.st16{opacity:0.35;fill:#232234;}
	.st17{fill:#A59D9D;}
	.st18{opacity:0.5;fill:#A59D9D;}
	.st19{opacity:0.79;fill:#A59D9D;}
	.st20{fill:#353535;}
	.st21{opacity:0.2;fill:#353535;}
	.st22{fill:#EEA786;}
	.st23{fill:#D87D68;}
	.st24{opacity:0.2;fill:#272C44;}
	.st25{fill:#17202F;}
	.st26{fill:#E77350;}
	.st27{fill:#D13A37;}
	.st28{opacity:0.3;fill:#E77350;}
	.st29{fill:#0F1421;}
	.st30{fill:#FFD255;}
	.st31{opacity:0.39;fill:#FFD255;}
	.st32{fill:#97A43B;}
	.st33{fill:#D39250;}
	.st34{opacity:0.22;fill:#EAB071;}
	.st35{opacity:0.4;fill:#EAB071;}
	.st36{fill:#D8D6D6;}
	.st37{fill:#EAEAEA;}
	.st38{fill:#7F7A7A;}
	.st39{opacity:0.47;fill:#D8D6D6;}
	.st40{fill:#B7ABAB;}
	.st41{opacity:0.3;fill:#EEA786;}
	.st42{fill:#4B69A3;}
	.st43{opacity:0.46;fill:#5088D8;}
	.st44{fill:#91D1E8;}
	.st45{fill:#52A1C1;}
	.st46{fill:#3888A0;}
	.st47{fill:#323757;}
	.st48{opacity:0.23;fill:#323757;}
	.st49{fill:#21447C;}
	.st50{fill:#635B5B;}
	.st51{opacity:0.3;}
	.st52{opacity:0.24;}
</style>
<path id="Path_66288" class="st0" d="M0,1041.5h1920.9V290.3c0,0-295.1,206.8-838.9,249.5S0,290.3,0,290.3V1041.5z"/>
<g>
	<g id="XMLID_173_">
		<defs>
			<path id="XMLID_102_" d="M1500.6,1257.3c-166.6,18.2-325.7-47.2-404.6-73.7c-36.8-12.3-70.9-21-108.9-18.4
				c-180.8,12.4-239.8,75-428,90.1C70.7,1294.4-0.9,945.4-28.5,805.9C-58.1,657.2-59.8,486-8.6,332.3
				C67.2,104.8,354.3-128.9,624.9-73.4c213.9,43.8,412.4,117.6,642.7,70.5c184.9-37.8,390.2-155.4,588.3,210.5
				C2054,573.5,2003.3,1202.2,1500.6,1257.3z"/>
		</defs>
		<clipPath id="XMLID_00000000915504560788214960000001059292708638662529_">
			<use xlink:href="#XMLID_102_"  style="overflow:visible;"/>
		</clipPath>
		<g id="XMLID_90_" style="clip-path:url(#XMLID_00000000915504560788214960000001059292708638662529_);">
			<g id="XMLID_45_">
				<g id="XMLID_46_">
					<g id="XMLID_47_">
						<g id="XMLID_48_">
							<g id="XMLID_49_">
								<path id="XMLID_50_" class="st2" d="M1435.4,765.9c0,0,44.3,92.4,41.4,92.4c-2.9,0-23.4,11.9-23.4,29.4
									c0,17.5,0.4,33.7,9.2,34.6c8.8,0.9,16.3,0,16.3,0s12.1,11,20.1,7.6c8-3.4,8.8-7.6,8.8-7.6s6,2.6,11.2-3.7
									c5.2-6.3,2.6-9.2,2.6-9.2s3.7-1.7,6.7-8c3-6.3-13.9-34.6,0-35.5c13.9-0.9,28.9-3,26-9.3c-2.9-6.3-28.1-11.6-28.1-11.6
									l-12.6-26.9l-32.2-85.3c0,0-18.9-10.6-32.3-3.9c-13.4,6.7-19.6,19.3-19.6,19.3L1435.4,765.9z"/>
								<g id="XMLID_51_">
									<path id="XMLID_52_" class="st3" d="M1479.6,922.1c-2-2.3-4.2-4.3-6-6.8c-1.8-2.5-3.3-5.3-4.5-8.2c-1.2-2.7-2.1-5.5-3-8.3
										c-1-3.2-2.5-6.8,0.4-9.4c0.4-0.4,0-1.1-0.5-1c-3.2,0.8-3.3,4.7-2.7,7.3c0.9,3.5,2.1,6.9,3.5,10.2
										c2.6,6.5,6.4,12.6,11.7,17.3C1479.3,924,1480.3,922.9,1479.6,922.1z"/>
									<path id="XMLID_53_" class="st3" d="M1506.8,919.5c-1.5-1.5-3.2-3-4.8-4.4c-3.2-2.9-6.6-5.7-9.6-8.9
										c-2.7-2.9-4.4-6.4-5.5-10.2c-0.5-1.9-0.9-3.8-1.2-5.7c-0.3-1.7-0.4-3.4-1.2-4.9c-0.2-0.3-0.7-0.2-0.8,0.1
										c-0.4,1.9,0,3.8,0.3,5.7c0.3,1.7,0.6,3.3,1.1,4.9c0.9,3.3,2.3,6.6,4.4,9.4c2.3,3,5.4,5.5,8.2,8c1.6,1.5,3.2,2.9,4.9,4.4
										c1.5,1.3,4,2.8,4.3,4.9c0.1,0.6,1.1,0.6,1.2,0C1508.4,921.4,1507.7,920.4,1506.8,919.5z"/>
									<path id="XMLID_54_" class="st3" d="M1521.2,909.4c-2.9-1.6-5-4.4-7-7c-2.1-2.7-4.1-5.6-5.8-8.6c-1.6-2.8-3.1-5.8-4.3-8.8
										c-0.6-1.4-1.2-2.9-1.5-4.4c-0.2-0.8-0.3-1.6-0.1-2.4c0.1-0.9,0.6-1.7,1-2.5c0.2-0.6-0.5-1.2-1-0.9c-2.8,1.6-1.9,5.9-1,8.4
										c1.2,3.7,3,7.3,4.9,10.7c1.8,3.3,3.9,6.5,6.3,9.4c2.1,2.7,4.6,6.3,8,7.5C1521.4,911.2,1521.9,909.8,1521.2,909.4z"/>
								</g>
								<path id="XMLID_55_" class="st3" d="M1481.5,732.8c0,0-18.9-10.6-32.3-3.9c-13.4,6.7-19.6,19.3-19.6,19.3l5.8,17.7
									c0,0,2.5,5.3,6.4,13.4c7.7-4,22.9-11,21.3-12.3c-2.1-1.7-4.2-7.5-4.2-7.5l10.1,5.9l23.8-2.8L1481.5,732.8z"/>
							</g>
							<path id="XMLID_56_" class="st4" d="M1376.3,418.9c0,0-13.4,47.1-7.5,80.5c5.9,33.4,19.2,175.8,27.6,197.6
								c8.4,21.8,5.3,43.6,12.7,46.1c7.4,2.5,9.9,0,9.9,0l10.5,26l21.8-11.7l-4.6-14.2l10.1,9.4l35.2-3.5l-10.4-24.3
								c0,0,8.9-21.2,6.7-39.1c-2.2-17.9-19.3-47.2-19.3-47.2S1479.3,398,1376.3,418.9z"/>
							<path id="XMLID_57_" class="st5" d="M1491.9,749l-10.4-24.3c0,0,8.9-21.2,6.7-39.1c-2.2-17.9-19.3-47.2-19.3-47.2
								s0.7-15.9,0-39.1l-28.5-23l-35.8-9.4l-11,29.9c0.3,1.7-0.8,30.2,7,41.5c7.8,11.3-2,9-2.5,20.6c-0.5,11.6,5-18.1,16.7,5.8
								c11.7,23.9,3.2,50.5,10.1,58c6.8,7.5,12.2,6.2,12.2,6.2s-15.4,6.5-18.2,13.5c-0.1,0.3-0.2,0.6-0.3,1c0.3-0.2,0.4-0.3,0.4-0.3
								l10.5,26l21.8-11.7l-4.6-14.2l10.1,9.4L1491.9,749z"/>
							<path id="XMLID_58_" class="st6" d="M1471.1,723.1c-10-1-20.6,0.9-30.1,3.9c-8.5,2.7-18.8,6.4-23.2,14.8
								c-0.3,0.7,0.7,1.3,1.1,0.7c5-7.6,14.5-11.2,22.8-13.8c9.6-3,19.3-3.9,29.3-4.3C1471.7,724.4,1471.8,723.2,1471.1,723.1z"/>
							<path id="XMLID_59_" class="st6" d="M1411.5,649.3c-1.1,0-2,0.1-3,0.4c-0.9,0.3-1.8,0.6-2.7,1.1c-1.7,0.9-3.3,2.1-4.5,3.5
								c-1.3,1.4-2.4,3-3.1,4.8c-0.7,1.6-1.5,3.8-0.8,5.5c0.1,0.3,0.6,0.4,0.8,0.1c0.4-0.8,0.5-1.8,0.8-2.7c0.2-0.8,0.5-1.6,0.8-2.4
								c0.7-1.5,1.6-2.9,2.7-4.1c2.4-2.6,5.6-4.2,9.1-4.9C1412.2,650.3,1412.1,649.3,1411.5,649.3z"/>
						</g>
						<g id="XMLID_60_">
							<g id="XMLID_61_">
								<g id="XMLID_62_">
									<g id="XMLID_63_">
										<path id="XMLID_64_" class="st7" d="M1499.2,310.4c0,0,141,16.9,184.6,83.7c43.6,66.7,45.2,111.1,68.7,228.4
											c23.5,117.3,57.4,168.7,57.4,168.7s38.1,43.6,15.4,66.2c-22.6,22.6-87.1,102.8-186,102.8S1490,943.7,1490,943.7
											s18.6-158.7,1.9-188c-16.8-29.3-77.1-95.5-95.5-141.6c-18.4-46.1-20.1-195.2-20.1-195.2s19.5-56.2,41.3-75.9
											C1439.3,323.3,1470.3,305.5,1499.2,310.4z"/>
										<path id="XMLID_65_" class="st8" d="M1825.3,857.3c18.4-18.4-3.5-50.8-12.2-62.1c-86.3,60.1-171.6-26.4-268.5-84.6
											c-104.1-62.5-123.9-228.8-123.9-228.8l21.4-157.2c-9,5.4-17.3,11.8-24.6,18.4c-21.8,19.7-41.3,75.9-41.3,75.9
											s1.7,149.1,20.1,195.2c18.4,46.1,78.8,112.3,95.5,141.6c16.8,29.3-1.9,188-1.9,188s50.5,16.4,149.3,16.4
											S1802.7,880,1825.3,857.3z"/>
									</g>
								</g>
								<g id="XMLID_66_">
									<g id="XMLID_67_">
										<path id="XMLID_68_" class="st4" d="M1534.5,750.7c-8.6-19.6-20.5-37.4-35-53.2c-7.5-8.2-15.4-15.9-22.8-24.2
											c-6.5-7.3-12.4-15.2-17.6-23.4c-10.2-16.1-17.9-33.8-23.5-52c-5.7-18.6-9.4-37.9-11.6-57.3c-2.2-19.5-3-39.2-3.2-58.8
											c0-2.4-0.1-4.8-0.1-7.2c0-0.9-1.3-0.7-1.3,0.1c-1.1,19.7-0.5,39.5,1.4,59.2c1.8,19.3,5,38.5,10.1,57.2
											c5.1,18.4,12.1,36.2,21.5,52.8c4.8,8.3,10.1,16.3,16.1,23.8c6.9,8.6,14.6,16.5,22.2,24.4c7.5,7.9,14.9,15.9,21.3,24.8
											c6.4,8.7,11.9,18,16.7,27.7c1.2,2.4,2.3,4.8,3.3,7.2C1532.7,753.3,1535.2,752.2,1534.5,750.7z"/>
										<path id="XMLID_69_" class="st4" d="M1442,503.2c-0.2-0.4-0.3-0.8-0.5-1.2c-0.3-0.6-0.7-1-1.2-1.4c-0.5-0.4-1-0.7-1.6-0.9
											c-0.1,0-0.2-0.1-0.3-0.1c-0.5-0.2-1-0.2-1.5-0.2c-0.4,0.1-0.9,0.1-1.3,0.2c-0.6,0.1-1.2,0.4-1.7,0.9
											c-0.4,0.2-0.7,0.5-0.9,0.9c-0.4,0.5-0.7,1-0.9,1.7c-0.1,0.4-0.1,0.9-0.2,1.3c0.1,0.4,0.1,0.9,0.2,1.3
											c0.1,0.6,0.4,1.2,0.9,1.7c0.3,0.5,0.8,1,1.4,1.3c0.4,0.2,0.9,0.4,1.3,0.6c0,0,0,0,0.1,0c0.4,0.1,0.9,0.1,1.3,0.2
											c0.5,0,1-0.1,1.5-0.2c0.4-0.2,0.8-0.3,1.2-0.5c0.6-0.3,1-0.7,1.4-1.2c0.3-0.3,0.5-0.6,0.7-1c0.3-0.6,0.5-1.2,0.5-1.8
											C1442.1,504.1,1442.1,503.7,1442,503.2z"/>
										<path id="XMLID_70_" class="st4" d="M1446.6,434.6C1446.6,434.5,1446.6,434.5,1446.6,434.6c0-0.3-0.1-1-0.1-1
											c0,0.2,0,0.3,0.1,0.5c0-0.5-0.2-1-0.4-1.5c0,0-0.6-0.8-0.6-0.8c-0.4-0.4-0.8-0.7-1.3-0.9c-0.5-0.3-1-0.4-1.5-0.4
											c-0.5,0-1,0.1-1.5,0.3c-0.5,0.1-0.9,0.4-1.3,0.8c-0.2,0.3-0.4,0.5-0.7,0.8c-0.4,0.6-0.6,1.3-0.6,2c0,0.3,0.1,0.7,0.1,1
											c0.2,0.7,0.5,1.3,1,1.8c0.2,0.2,0.4,0.4,0.6,0.5c0.3,0.3,0.7,0.5,1.1,0.6c0.5,0.2,1,0.2,1.5,0.2c0.5,0,1-0.1,1.4-0.4
											c0.6-0.3,1.1-0.7,1.5-1.3c0,0,0,0,0,0c0,0,0,0,0,0c0,0,0,0,0,0c0,0,0.4-0.9,0.5-1c0,0,0,0,0,0c0,0,0,0,0,0c0,0,0,0,0,0
											c0,0,0,0,0,0c0.1-0.2,0.1-0.4,0.1-0.5C1446.6,435,1446.6,434.8,1446.6,434.6C1446.6,434.6,1446.6,434.6,1446.6,434.6
											C1446.6,434.6,1446.6,434.6,1446.6,434.6C1446.6,434.6,1446.6,434.6,1446.6,434.6C1446.6,434.6,1446.6,434.5,1446.6,434.6
											C1446.6,434.5,1446.6,434.5,1446.6,434.6z"/>
										<path id="XMLID_71_" class="st4" d="M1451.2,591c-0.1-0.8-0.5-1.5-1-2.1c-0.3-0.3-0.6-0.5-0.9-0.8
											c-0.7-0.5-1.4-0.8-2.3-0.9c-0.6-0.1-1.2,0-1.8,0.2c-0.6,0.1-1.1,0.4-1.6,0.8c-0.5,0.4-0.9,0.8-1.1,1.4
											c-0.3,0.5-0.5,1.1-0.6,1.7c0,0.4,0,0.8,0,1.2c0.1,0.8,0.5,1.5,1,2.1c0.3,0.3,0.6,0.5,0.9,0.8c0.7,0.5,1.4,0.8,2.3,0.9
											c0.6,0.1,1.2,0,1.8-0.2c0.6-0.1,1.1-0.4,1.6-0.8c0.5-0.4,0.9-0.8,1.1-1.4c0.3-0.5,0.5-1.1,0.6-1.7
											C1451.2,591.8,1451.2,591.4,1451.2,591z"/>
										<path id="XMLID_72_" class="st4" d="M1485.9,658.8c-0.1-0.4-0.2-0.7-0.3-1.1c-0.3-0.7-0.7-1.3-1.3-1.8
											c-0.3-0.2-0.6-0.4-1-0.6c-0.7-0.3-1.5-0.5-2.3-0.4c-0.6,0-1.1,0.2-1.6,0.5c-0.5,0.2-1,0.6-1.3,1c-0.4,0.5-0.7,1-0.8,1.5
											c-0.2,0.6-0.3,1.1-0.2,1.8c0.1,0.4,0.2,0.7,0.3,1.1c0.3,0.7,0.7,1.3,1.3,1.8c0.3,0.2,0.6,0.4,1,0.6
											c0.7,0.3,1.5,0.5,2.3,0.4c0.6,0,1.1-0.2,1.6-0.5c0.5-0.2,1-0.6,1.3-1c0.4-0.5,0.7-1,0.8-1.5
											C1485.9,660,1486,659.4,1485.9,658.8z"/>
										<path id="XMLID_73_" class="st4" d="M1528.2,711.9c0,0,0-0.1,0-0.1c0,0,0-0.1,0-0.1c-0.1-0.6-0.3-1.2-0.7-1.6
											c-0.3-0.5-0.7-1-1.2-1.3c-0.4-0.2-0.7-0.4-1.1-0.6c-0.6-0.3-1.2-0.3-1.8-0.3c-0.4,0-0.8,0-1.2,0.2
											c-0.6,0.1-1.1,0.4-1.6,0.8c-0.3,0.3-0.5,0.6-0.8,0.9c-0.5,0.7-0.8,1.4-0.9,2.3c0,0.1,0,0.2,0,0.4
											c-0.1,0.8,0.1,1.6,0.4,2.4c0.2,0.3,0.4,0.7,0.6,1c0.5,0.6,1.2,1.1,1.9,1.4c0.6,0.2,1.2,0.3,1.8,0.2c0.6,0,1.2-0.1,1.8-0.4
											c0.6-0.2,1-0.6,1.4-1.1c0.4-0.4,0.8-0.9,1-1.5C1528.3,713.6,1528.4,712.8,1528.2,711.9z"/>
									</g>
									<g id="XMLID_74_">
										<path id="XMLID_75_" class="st4" d="M1424,473.4c0,0,7.5-73.4,25.1-78.4s55.3,43.6,55.3,43.6s43.6-133.6-11.7-140.2
											c-44.3-5.2-114,53.9-96.3,146c0,0,10.3-33.5,12.7-11.7s6.6,49.4,9.1,49.4C1420.7,482.1,1424,473.4,1424,473.4z"/>
										<g id="XMLID_76_">
											<path id="XMLID_77_" class="st9" d="M1400.6,341.9c0,0,22.8,16,16.7,47.3c-5.1,25.9,3.9,64.9,3.9,64.9s5.3-71.7,34.3-100
												c29-28.2,32.1-42,32.1-42s-25.8-16.7-42.1-55.7C1429.3,217.4,1400.6,341.9,1400.6,341.9z"/>
											<path id="XMLID_78_" class="st10" d="M1400.6,341.9c0,0,15.3,10.7,17.5,31.8c50.4-33.9,32.5-106.5,32.5-106.5l0,0
												c-1.7-3.4-3.4-7-5-10.8C1429.3,217.4,1400.6,341.9,1400.6,341.9z"/>
										</g>
									</g>
								</g>
							</g>
							<g id="XMLID_79_">
								<g id="XMLID_80_">
									<path id="XMLID_562_" class="st9" d="M1228.6,253.1c0,0,42.8,149.7,151.9,118.1c77.5-22.4,70.8-127.8,70.8-127.8
										s33.7-42.7,8.6-108.4c-25.1-65.7-128.1-87.7-190.4-29.5C1207.2,163.8,1218.1,234.2,1228.6,253.1z"/>
									<g id="XMLID_81_">
										<path id="XMLID_561_" class="st11" d="M1301.6,313.3c-1.4,0.1-5.3,0.8-6.1-0.6c-0.9-1.5,0.2-4.5,0.6-6
											c0.6-2.7,1-5.4,1.2-8.1c0.7-9.6-0.1-19.4-5.7-27.5c-0.9-1.3-3-0.2-2.2,1.3c5.4,10.2,3.7,21.5,0.9,32.2
											c-1.4,5.4-3,13.2,4.1,15.2c2.6,0.7,5.5,0.4,8.1,0.2c3.1-0.3,6.1-0.8,8.2-3.3c1-1.2,0.5-2.6-0.9-3.1
											C1307.2,312.3,1304.5,313,1301.6,313.3z"/>
										<g id="XMLID_82_">
											<path id="XMLID_560_" class="st11" d="M1365.4,324.3c-6.5,3.1-12.6,6.7-19.1,9.8c-3.1,1.5-6.2,2.8-9.4,4
												c-3.3,1.3-6.9,2.1-10.1,3.6c-1.4,0.7-1,3.1,0.7,3c3.5-0.3,7-1.7,10.3-2.9c3.5-1.2,6.9-2.6,10.3-4.1
												c6.6-3,13.3-6.7,18.6-11.7C1367.5,325.2,1366.5,323.8,1365.4,324.3z"/>
											<path id="XMLID_559_" class="st11" d="M1348.2,255.5c1.9,7.2,1.4,13.6-1.3,14.3c-2.6,0.7-6.3-4.6-8.3-11.8
												c-1.9-7.2-1.4-13.6,1.3-14.3C1342.6,243.1,1346.3,248.3,1348.2,255.5z"/>
											<path id="XMLID_558_" class="st11" d="M1272,283.1c1.8,6.7,1.3,12.7-1.2,13.4c-2.5,0.7-5.9-4.3-7.7-11
												c-1.8-6.7-1.3-12.7,1.2-13.4C1266.7,271.5,1270.2,276.4,1272,283.1z"/>
											<path id="XMLID_557_" class="st12" d="M1359.6,215.2c-7.1-3.9-15.7-3.8-23.4-1.8c-3.4,0.9-6.6,2.3-9.6,4.1
												c-3.5,2.1-7.3,5.3-9,9.1c-0.8,1.8-0.1,4.1,1.5,5.2c1.7,1.3,3.8,1,5.4,0c1.4-0.9,2.5-2,3.8-3c0.1-0.1,0.4-0.3,0.6-0.4
												c0.3-0.2,0.6-0.4,0.9-0.6c0.6-0.4,1.3-0.8,1.9-1.2c0.6-0.4,1.3-0.8,1.9-1.1c0.4-0.2,0.7-0.4,1.1-0.6
												c-0.5,0.2-0.1,0.1,0.1-0.1c1.5-0.6,2.9-1.1,4.4-1.5c0.7-0.2,1.4-0.4,2.2-0.5c0.1,0,0.1,0,0.2,0c0.4-0.1,0.8-0.1,1.2-0.2
												c1.5-0.2,3-0.2,4.4-0.2c0.3,0,0.7,0,1,0c0.2,0,0.4,0,0.6,0c0.7,0.1,1.3,0.2,2,0.3c1.9,0.4,3.9,0.6,5.8,1
												C1361.2,224.7,1363.6,217.4,1359.6,215.2z"/>
											<g id="XMLID_83_">
												<path id="XMLID_556_" class="st11" d="M1251.2,259.3c-0.1,0-0.1,0.1-0.1,0.1C1251.3,259.3,1251.3,259.3,1251.2,259.3z"
													/>
												<path id="XMLID_555_" class="st12" d="M1274,244.7c-2-0.9-3.6-1.2-5.7-1.3c-1,0-1.9,0-2.9,0c-2.1,0.1-4.2,0.5-6.2,1.1
													c-3.7,1-7.2,2.9-10.1,5.4c-1.9,1.6-3.9,3.4-4.6,5.9c-0.6,2-0.3,4.5,2,5.1c1,0.3,1.9,0,2.8-0.5c-0.3,0.2,1.6-1,2-1.2
													c0.3-0.2,0.6-0.5,0.9-0.7c0.4-0.4,0.8-0.8,1.2-1.1c0.1-0.1,0.3-0.2,0.4-0.4c0,0,0,0,0.1-0.1c0.7-0.6,1.5-1.2,2.3-1.7
													c0.6-0.4,1.2-0.8,1.8-1.1c0,0,0.8-0.4,0.9-0.5c0.4-0.2,0.8-0.4,1.3-0.6c0.9-0.4,1.8-0.7,2.8-1c0.5-0.1,1-0.3,1.5-0.4
													c0.2,0,0.3-0.1,0.5-0.1c0,0,0,0,0.2,0c1-0.1,2.1-0.3,3.1-0.3c0.5,0,0.9,0,1.4,0c1.4,0,2.5-0.1,3.9-0.1
													c1.5,0,2.7-1.7,2.9-3C1276.4,246.6,1275.4,245.3,1274,244.7z"/>
											</g>
										</g>
									</g>
								</g>
								<g id="XMLID_84_">
									<path id="XMLID_85_" class="st10" d="M1392.7,96.1c-7.2-0.9-28-1-34.3,0c-6.3,1-37.7,7.3-43.4,7.9
										c-5.7,0.6-58.5,30.8-58.5,30.8l-26.1,23.3c-13.7,32.5-12.3,63-7.5,81.3c-0.2-1,136.1-53.7,136.1-55.5
										c0-1.9-10.7-30.2,3.8-40.8c0,0-4.4,57.4,52,70.5c0,0,5.8-47.5,5.8-52.4C1420.6,156.1,1399.9,97,1392.7,96.1z"/>
									<g id="XMLID_86_">
										<path id="XMLID_549_" class="st12" d="M1472.1,109.7c0,0,24.9-27.1,52.6-1.3c27.7,25.8,63.4,55.8,84.1,129.4
											c9.7,34.2,12.7,56.1-4.4,58.3c-17,2.2-13.9-14.3-19.9-7.4c-6,6.8-14.1,17.4-22.1,9.4c-8-8-1.1-13-13.1-4.1
											c-12.1,8.9-27.3,14-33.7,9.2c-6.4-4.7-13.9-11.7-13.2-17.9c0.7-6.2-19.6,14.5-14.6-9.2c5-23.7,8.7-55.3,9.3-82.2
											c0.6-26.9-9.6-54.5-17.1-55.2C1472.3,137.8,1472.1,109.7,1472.1,109.7z"/>
										<path id="XMLID_87_" class="st13" d="M1601.6,235c4.7,12.4,9.2,21.7,13.4,28.5c-1.4-7.5-3.5-16.1-6.2-25.8
											c-20.7-73.5-56.5-103.6-84.1-129.4c-18.9-17.6-36.4-10.6-45.7-4.3l8.7,7.6C1487.6,111.7,1564.8,138.7,1601.6,235z"/>
									</g>
									<path id="XMLID_546_" class="st14" d="M1461.8,87.4c2,6,26.6,12.7,31.5,34.1c4.8,21.5-25.6,12.5-25.6,12.5L1461.8,87.4z"/>
									<g id="XMLID_88_">
										<path id="XMLID_545_" class="st12" d="M1372.1,126c0,0-28.3,23.3-20.9,46.4c0,0-145.4,64.7-148.2,61.3
											c-2.8-3.5-39.1-86.9,4.5-135c43.7-48.1,140.7-79.4,208-29c0,0,47.5-1.1,63.7,45c34.1,96.8-20.8,165.7-20.8,165.7
											l-42.8-65.8C1415.7,214.6,1358.7,190.6,1372.1,126z"/>
										<path id="XMLID_544_" class="st9" d="M1471.9,232.5c-1.9,16.5-16.8,28.3-33.3,26.4c-16.5-1.9-28.3-16.8-26.4-33.3
											c1.9-16.5,16.8-28.3,33.3-26.4C1462,201.1,1473.8,216,1471.9,232.5z"/>
										<path id="XMLID_89_" class="st13" d="M1472.1,109.7c2.6,5,4.4,4.8,5.8,1.3c-17.4-42.3-62.3-41.3-62.3-41.3
											c-67.2-50.4-164.3-19.1-208,29c-20.9,23-23.4,54.1-20.2,80.6h0.8v-4.2c0,0,45-143.5,205.3-97.7l25.4,11
											C1418.9,88.4,1458.8,84,1472.1,109.7z"/>
									</g>
								</g>
							</g>
						</g>
					</g>
				</g>
				<g id="XMLID_91_">
					<g id="XMLID_92_">
						<path id="XMLID_93_" class="st15" d="M1546.3,987.6c0,0-100.8,166.1-75.6,291.5h365.7c0,0,45.4-355.8-2.8-439.4
							C1833.7,839.6,1692.9,954.7,1546.3,987.6z"/>
						<path id="XMLID_94_" class="st16" d="M1701.8,1067.6c14.3-83,111.3-150.3,147.6-174.8c-1.5-18.1-14.4-54.1-15.7-53.2
							c-75.2,53.2-158.9,115.7-287.4,147.9c0,0-100.8,166.1-75.6,291.5h225.7C1697.6,1273.6,1683.4,1174.3,1701.8,1067.6z"/>
					</g>
					<g id="XMLID_95_">
						<g id="XMLID_96_">
							<path id="XMLID_97_" class="st17" d="M1394.5,869.6l302.1,29.3c0,0-37.7,141.7-36.4,208.7c1.3,67,7.5,166.6,7.5,166.6
								l-342.4-14.7L1394.5,869.6"/>
							<path id="XMLID_98_" class="st18" d="M1401.3,870.3l1.2,13.2l256.9,27.4c0,0-22.4,115.8-24.4,189.8
								c-1.5,56.7,1.9,137.7,3.5,172.3l29.1,1.3c0,0-6.3-99.6-7.5-166.6c-1.3-67,36.4-208.7,36.4-208.7L1401.3,870.3z"/>
							<path id="XMLID_99_" class="st19" d="M1635,1230c0,0-191.7-71.7-172-142.9c19.7-71.2-7.8-199.4-7.8-199.4l9.7-11.3h0
								l-70.4-6.8l-69.2,389.9l309.8,13.3V1230z"/>
						</g>
						<path id="XMLID_100_" class="st20" d="M1673.9,1120.7c0,0,82.9,23.4,82.9,37.2c0,13.8-13.8,21.9-13.8,21.9
							s-183.5,34.4-196,56.5c-12.6,22.1-17.4,42.1-17.4,42.1l-82.9-2c0,0-11.5-73.2,32.5-89c44-15.8,181.8-43.6,181.8-43.6
							l-0.8-30.4L1673.9,1120.7z"/>
						<path id="XMLID_101_" class="st21" d="M1653.8,1128.3l0.5,17.4c0,0-133.5,27-176.1,42.2c-42.6,15.3-31.5,86.2-31.5,86.2
							l80.4,1.9c0,0,1.3-5.3,4.2-13.4l0,0c0,0-80.1,0.1-68.8-39.8c11.4-39.9,228.9-67.3,233.7-75.3
							C1700.6,1140.2,1660.6,1130,1653.8,1128.3z"/>
					</g>
				</g>
			</g>
			<g id="XMLID_122_">
				<g id="XMLID_123_">
					<g id="XMLID_124_">
						<path id="XMLID_125_" class="st22" d="M746.2,718.8c0,0-10.6,17.3-16.5,31.9s-44,71.6-64.5,102.2l-59.9,82.1
							c0,0,18.9,25.6,20.9,38.1c0,0-3.9,7.1-15.9-5.9c-12.1-13-24.7-15.5-47.3-4.6s-45.7,26.8-49,21.4s7.5-15.9,7.5-15.9
							s-0.4-21.4,5.4-31.4c5.9-10.1,41.5-28.9,41.5-28.9s53.2-111.8,68.7-144.5c15.5-32.7,44.8-70,45.2-71.6
							c0.4-1.7,10.9-23.9,10.9-23.9S748.9,690.6,746.2,718.8z"/>
						<path id="XMLID_126_" class="st23" d="M693.3,667.8c0,0-9.7,20.5-10.8,23.6c24.2,10.1,44.2,33.1,53.7,45.4c5-9.8,10-18,10-18
							C748.9,690.6,693.3,667.8,693.3,667.8z"/>
					</g>
					<g id="XMLID_127_">
						<path id="XMLID_128_" class="st22" d="M1329.9,876.2c0,0,19.8,26.2,14.4,29.5c-5.4,3.2-42.3-23.8-42.3-23.8s-18,4.8-33.3-5.7
							c-15.3-10.4-14.9-23.5-14.9-23.5l-130.8-137.7l-28.8-30.6l-31.5-33.5l53.2-66.7l31.3,42l34.3,46.1l119.6,164.9
							c0,0,75.6,17.4,84.5,30.7C1394.6,881,1329.9,876.2,1329.9,876.2z"/>
						<path id="XMLID_129_" class="st23" d="M1147.2,626.1c-15.6,17.3-39.7,44-52.9,58.2l-31.5-33.5l53.2-66.7L1147.2,626.1z"/>
					</g>
					<g id="XMLID_130_">
						<path id="XMLID_131_" class="st15" d="M1092.5,1096.3l-15.9-0.7l-2-0.1l-93.5-4.2l-0.1-0.3c-2.4-6.5-41.3-110.8-53.5-127
							l0,0.1c0.6,3.8,21.7,135.6,18.4,132.3c-1.2-1.2-15-2.5-32.6-3.8c-0.6,0-1.3-0.1-1.9-0.1c-32.7-2.4-76.8-4.4-76.8-4.4
							s-19.4-79.6-32.7-170.8c-0.1-0.7-0.2-1.4-0.3-2.1c-0.8-5.3-1.5-10.7-2.3-16.1c-0.1-0.6-0.1-1.3-0.2-1.9
							c-3.1-23.5-5.7-47.3-7.3-70.5l254.5-16.2c0,0,5.2,31,12,70.9c0.1,0.6,0.2,1.3,0.3,1.9c0.5,2.8,0.9,5.7,1.4,8.6
							c0.1,0.6,0.2,1.2,0.3,1.8c7.4,44,16,95.5,21.3,128.3C1092.5,1088.8,1092.5,1096.3,1092.5,1096.3z"/>
						<g id="XMLID_132_">
							<path id="XMLID_133_" class="st24" d="M894.4,819.9l-102.7,6.6c1.6,23.2,4.2,47.1,7.3,70.5c0.1,0.6,0.2,1.3,0.2,1.9
								c0.7,5.4,1.5,10.8,2.3,16.1c0.1,0.7,0.2,1.4,0.3,2.1c13.3,91.2,32.7,170.8,32.7,170.8s10.3,0.5,24.7,1.2
								c-14.6-58.3-33.2-212.8,28.6-208.5c68.6,4.7,109.9-42.6,112.2-43.7C1000.1,837,949.4,828.8,894.4,819.9z"/>
							<g id="XMLID_134_">
								<path id="XMLID_135_" class="st25" d="M926.6,966.7c-7.6,1.3-15.2-2.1-20.9-7.2c-1.4-1.3-2.7-2.6-3.9-4.1
									c0.6,5.4,0.9,10.9,1.4,16.4c0.5,6.1,0.9,12.2,1.4,18.3c1.6,21.4,3,42.8,4.8,64.2c1.1,12.8,2.4,25.5,3.9,38.2
									c-0.6,0-1.3-0.1-1.9-0.1c-0.4-3.2-0.8-6.4-1.1-9.6c-2.3-21.3-3.9-42.6-5.4-63.9c-0.8-10.7-1.5-21.3-2.3-32
									c-0.4-5.5-0.8-10.9-1.2-16.4c-0.4-5.6-0.9-11.1-1-16.7c-7.8-10.7-10.1-24.9-12.9-37.8c-4-18.7-8.4-37.2-12.6-55.9
									c-0.1-0.6,0.8-0.8,1-0.2c2.7,9.9,5.1,19.8,7.4,29.8c2.1,8.8,4.1,17.7,6,26.6c1.7,7.7,3.2,15.6,5.8,23.1
									c2.6,7.3,6.3,14.1,12.1,19.1c2.9,2.5,6.3,4.4,9.8,5.6c-0.9-3.5-1-7.4-1.4-10.9c-0.4-3.8-0.9-7.7-1.4-11.5
									c-3.5-27.2-8.5-54.1-13.9-80.9c-0.1-0.8,1-1.2,1.2-0.3c1.8,7.5,3.3,15.1,4.8,22.6c2.7,13.5,5,27,7.1,40.7
									c1,6.8,2,13.5,2.9,20.3c0.4,3.4,0.9,6.8,1.3,10.2c0.4,3.3,1.2,6.9,1,10.3c1.3,0.3,2.6,0.5,4,0.6c-3.6-5.1-3.2-12.3-3.5-18.3
									c-1.6-28.5-4.6-56.8-8.5-85.1c-0.1-0.7,1-0.9,1.1-0.2c1.2,7.7,2.3,15.4,3.3,23.2c1.7,13.7,3.2,27.4,4.3,41.2
									c0.5,6.7,1,13.5,1.4,20.3c0.3,6-0.2,13.2,3.5,18.3c0.1,0.2,0.2,0.4,0.2,0.7c0.7,0,1.5,0,2.3-0.1
									C927.6,964.8,927.6,966.5,926.6,966.7z"/>
								<path id="XMLID_136_" class="st25" d="M1058.5,883c-3.9,0.1-7.9,0.2-11.7,0.3c-4.1,0.1-8.2,0.3-12.4,0
									c-6.8-0.6-13.2-3-18.8-6.9c-12.3-8.4-20.1-22.3-26.2-35.6c-0.3-0.7,0.8-1.4,1.2-0.7c4.1,7.2,7.8,14.7,12.7,21.5
									c4,5.4,8.6,10.2,14.2,13.9c6.2,4,13.1,5.9,20.5,6.1c6.7,0.1,13.5-0.2,20.2-0.4C1058.3,881.7,1058.4,882.4,1058.5,883z"/>
								<path id="XMLID_137_" class="st25" d="M1076.6,1095.6l-2-0.1c-1.6-4.1-2.1-8.9-2.9-12.9c-1.6-7.8-3.2-15.6-4.8-23.4
									c-6-28.2-12.5-56.3-19.7-84.3c-3.6-14-7.3-27.9-11.1-41.8c-1.9-7-3.9-13.9-5.9-20.8c-2-6.9-4.1-13.9-5.9-20.8
									c0,0,0-0.1,0-0.1c-6.3-1.9-12.1-5.1-17.4-9.3c-12.5-9.8-22.2-23-27.9-37.9c-0.3-0.8,0.9-1.3,1.3-0.5
									c3.2,7.9,7.5,15.3,12.8,21.9c4.7,6,10.2,11.4,16.3,16c3.6,2.7,7.4,5.1,11.6,6.7c3.9,1.5,8,2.4,12.1,2.9
									c8.8,1.1,17.8,0.8,26.7,0.4h0.2c0.1,0.6,0.2,1.2,0.3,1.8c-1.4,0.1-2.8,0.1-4.2,0.1c-8.8,0.2-17.8,0.5-26.5-1.1
									c-1.4-0.2-2.8-0.6-4.1-0.9c2.6,7.5,4.7,15.1,6.9,22.6c2.3,7.7,4.4,15.4,6.5,23.1c7.6,27.4,14.6,55,21,82.7
									c3.2,13.8,6.3,27.7,9.2,41.6c1.5,6.9,2.9,13.9,4.3,20.8C1074.3,1086.9,1074.9,1091.5,1076.6,1095.6z"/>
								<path id="XMLID_138_" class="st25" d="M821.5,842.5c-1.3,5.6-2.6,11.1-3.7,16.8c-1.9,9.6-3.8,19.5-8.7,28.1
									c-2.4,4.2-5.5,8-9.2,11.1c-0.2,0.1-0.3,0.3-0.5,0.4c-0.1-0.6-0.1-1.3-0.2-1.9c0.5-0.4,1-0.9,1.5-1.3
									c7.2-6.9,10.9-16.1,13.3-25.5c1.2-4.7,2.1-9.5,3.1-14.3c0.9-4.6,1.8-9.3,3.3-13.7C820.5,841.5,821.6,841.7,821.5,842.5z"/>
								<path id="XMLID_139_" class="st25" d="M823,864.9c-1.5,11.9-4.9,23.5-10.1,34.3c-2.5,5.3-5.4,10.7-9,15.5
									c-0.6,0.9-1.3,1.7-2,2.5c-0.1-0.7-0.2-1.4-0.3-2.1c1.3-1.6,2.4-3.3,3.5-5c12.3-19.5,17.9-42.3,17.2-65.2
									c0-0.8,1.1-0.7,1.2,0C824,851.5,823.8,858.3,823,864.9z"/>
							</g>
							<path id="XMLID_140_" class="st24" d="M1027.8,1092.5l-46.7-1.2l-0.1-0.3c-2.4-6.5-41.3-110.8-53.5-127L1027.8,1092.5z"/>
						</g>
					</g>
					<g id="XMLID_141_">
						<g id="XMLID_142_">
							<path id="XMLID_143_" class="st26" d="M1144.9,606l-47.3,57.1l-19.3,23.3l-39.5-41l-8.2-8.5c0,0,0,0,0,0s0.5,2.6,1.2,7.2
								c4.2,24.8,17.1,108,14.5,166.2c0,0-0.9,0.6-2.6,1.7c-11.7,7.8-61.5,39.6-109.9,47.9c-91.9,15.7-147-37.7-147-37.7l-4.6-149.8
								v0l-0.4-13.4l-4.3,10.2c0,0,0,0,0,0l-25,58.7c0,0-8.4-13.6-20.3-27.3c-13.6-15.6-31.7-31.4-47.1-27.4l33.3-99.9
								c0,0,12.6-84.2,60.3-116.9c47.7-32.7,117.7-58.9,117.7-58.9s97.8,23.1,127.4,52.6C1053.1,479.7,1144.9,606,1144.9,606z"/>
							<path id="XMLID_144_" class="st27" d="M836.9,478c0,0-12.7,49.3,24.1,43.8c36.2-5.4,52-44.4,51.4-74.7
								c-0.6-30.3-16.4-52.2-16.4-52.2h-11.2l-18.9,13.2C865.9,408.1,839.8,431.3,836.9,478z"/>
							<path id="XMLID_145_" class="st27" d="M758,714.7c-18.8-39-56-51.4-68.7-54.7l-4.4,13.3c28.9-7.5,67.5,54.7,67.5,54.7
								L758,714.7z"/>
							<path id="XMLID_146_" class="st27" d="M784.3,656.9c-0.6,5.2-1.3,10.3-2.2,15.4c0,0,0,0.1,0,0.1l-0.4-13.4l-4.3,10.2
								c0-0.3,0.1-0.6,0.1-0.8c0.9-5.7,1.7-11.4,2.2-17.2c1.7-20.3-1.6-39.9-5.1-59.8c-3.4-19.2-6.5-38.8-3-58.2
								c0.3-1.8,3-1.4,2.8,0.4c-1.3,11.1-0.9,22.3,0.5,33.4c2.5,19.8,7.6,39.2,9.7,59.1C785.6,636.4,785.5,646.6,784.3,656.9z"/>
							<path id="XMLID_147_" class="st28" d="M688,664.2c0.5-1.4,39.3-95.6,54.3-149.2c15.1-53.6,96.2-50.8,96.2-50.8
								s14.4-44.7,18.5-47.5c0.8-0.5,1-1.6,0.9-3c-23.9,10.7-54.6,26-79.5,42.9c-47.7,32.7-60.3,116.9-60.3,116.9L688,664.2
								L688,664.2z"/>
							<path id="XMLID_148_" class="st27" d="M1038.8,645.4l-8.3-8.6c0,0,0.5,2.6,1.2,7.2c-3.1-2.5-5.8-5.6-8.4-8.7
								c-3.6-4.3-6.8-9-9.6-13.8c-10.2-17.5-15.7-37.5-19.1-57.3c-3.6-21.3-5.7-44.5,4.4-64.5c0.9-1.7,3.9-0.3,3.1,1.4
								c-5.5,12-6.9,25.1-6.1,38.2c1.1,19.5,5.3,39.4,12,57.8c3.3,9.1,7.5,17.9,12.8,26c2.5,3.9,5.3,7.6,8.3,11
								c3.1,3.4,6.6,6.3,9.5,9.9C1038.8,644.5,1038.9,645,1038.8,645.4z"/>
							<path id="XMLID_149_" class="st27" d="M1144.9,606c0,0-2.8-3.8-7.5-10.3c-11,12.2-48.7,59.5-67,82.5l7.9,8.2L1144.9,606z"/>
							<path id="XMLID_150_" class="st28" d="M1097.6,663.1l-19.3,23.3l-39.5-41l-8.2-8.5c0,0,0,0,0,0s-43.6-52.4-34.8-104.8
								c0,0,38.8,113.6,90,127C1090.4,660.3,1094.3,661.6,1097.6,663.1z"/>
						</g>
					</g>
					<path id="XMLID_151_" class="st28" d="M1043.7,812c-11.7,7.8-61.5,39.6-109.9,47.9c-91.9,15.7-147-37.7-147-37.7l-4.6-149.8v0
						l-0.4-13.4l-4.3,10.2c0,0,0,0,0,0l-25,58.7c0,0-8.4-13.6-20.3-27.3c0,0,40.3-95,41.6-157.6c0,0,15.7,213.9,131.2,253.3
						C973.9,820,1019.1,817.5,1043.7,812z"/>
					<path id="XMLID_152_" class="st29" d="M735.2,370.1c0,0,12.6,23,23,25.7c10.5,2.7-20.1-60.7-20.1-58.3
						C738.1,339.8,735.2,370.1,735.2,370.1z"/>
					<g id="XMLID_153_">
						<path id="XMLID_495_" class="st23" d="M901.3,399.9c0,0,15.7,78.7-27.7,101.7c-43.4,22.9-29.3-25.1-32.7-42.5
							C837.4,441.6,901.3,399.9,901.3,399.9z"/>
						<path id="XMLID_494_" class="st22" d="M904.9,429.1c-24.9,65.5-62.8,53.5-62.8,53.5l0,0c0,17.8,0.2,32.3,24.1,27.9
							C893.6,505.5,905.3,454,904.9,429.1z"/>
					</g>
					<path id="XMLID_154_" class="st25" d="M860.9,640.3c-0.8-7.5-2.5-14.9-3.6-22.3c-1-7-1.9-14-2.7-21c-1.6-14.1-3.4-28.3-7.1-42
						c-6.6-24.2-18.8-46.4-27.3-70c-2.3-6.3-4.3-12.8-5.9-19.3c-1.8-7.3-2.5-14.7-3.2-22.2c-0.2-1.9-3.2-1.6-3.3,0.2
						c-0.9,12.2,2.1,25.1,5.7,36.7c3.7,11.9,8.6,23.5,13.5,35c4.9,11.7,9.9,23.3,13.5,35.5c4,13.4,5.8,27.3,7.1,41.2
						c0.8,8,1.5,15.9,2.5,23.9c1.1,8.6,2.1,17.5,4.4,25.9C855.6,645.7,861.4,643.9,860.9,640.3z"/>
					<path id="XMLID_491_" class="st23" d="M782,405.5c-0.9,8.6-8.6,14.9-17.2,14c-8.6-0.9-14.9-8.6-14-17.2
						c0.9-8.6,8.6-14.9,17.2-14C776.6,389.2,782.9,396.9,782,405.5z"/>
					<path id="XMLID_490_" class="st22" d="M904.5,344.2c0,0,27.3,90.6-32.4,112.9c-59.8,22.3-93.4-12.7-103.5-49.8
						c0,0-5.8-11.1-11.8-14.7c-5.9-3.6-17.6-35.7-17.6-35.7s-26.1-61.4,27.7-99.5C820.7,219.4,887.8,254.7,904.5,344.2z"/>
					<path id="XMLID_489_" class="st22" d="M922.5,332.6c-1.2,11.3-11.3,19.5-22.5,18.3c-11.3-1.2-19.5-11.3-18.3-22.5
						c1.2-11.3,11.3-19.5,22.5-18.3S923.7,321.3,922.5,332.6z"/>
					<path id="XMLID_488_" class="st25" d="M826.5,410.9c-1.2-0.3-2.2-0.7-3.5-0.8c-1.1-0.1-2.2-0.1-3.3-0.2
						c-1.6-0.1-3.1-0.2-4.7-0.4c2.4-10.3,4.6-20.9,1.1-31.2c-0.6-1.9-4-1-3.5,1c3,10.3,0.9,20.9-1.6,31.1c-0.3,1.2,0.3,2.2,1.6,2.4
						c2.4,0.4,4.7,0.9,7.1,1.1c1.1,0.1,2.2,0.2,3.4,0.2c1.3,0,2.1-0.3,3.3-0.7C827.9,413.2,827.9,411.3,826.5,410.9z"/>
					<path id="XMLID_155_" class="st25" d="M868,416.9c-5.3,4-11,7.6-17.1,10.3c-3.6,1.6-7.4,3-11.2,4.1c-3.2,0.9-6.6,1.3-9.7,2.5
						c-0.8,0.3-0.7,1.6,0.1,1.8c3.6,1,7.7,0.2,11.4-0.4c3.7-0.6,7.3-1.7,10.8-3.1c7-2.8,13.1-7,18.4-12.4
						C872.2,418.3,869.8,415.6,868,416.9z"/>
					<path id="XMLID_486_" class="st25" d="M856.1,329.8c-1.2-0.7-2.4-1.3-3.7-1.8c-1.4-0.5-2.6-0.7-4.1-0.7
						c-2.4-0.1-4.6,0.2-6.9,0.8c-4.8,1.2-9.1,3.5-13.1,6.4c-1.7,1.2-0.1,3.5,1.7,3c2.4-0.7,4.7-1.5,7-2.3c2.1-0.8,4.3-1.4,6.6-1.7
						c1.8-0.3,3.7-0.5,5.5-0.3c1.8,0.1,3.6,0.1,5.4,0.5C856.8,334.1,858.1,331,856.1,329.8z"/>
					<path id="XMLID_485_" class="st25" d="M786.2,363.9c-0.2-0.9-1-1.3-1.8-1.3c-1.3,0-2.6-0.1-3.8,0.2c-1,0.3-2,0.6-3,1
						c-1.7,0.6-3.4,1.4-4.9,2.3c-1.7,0.9-3.3,2-4.6,3.5c-0.8,0.9-1.4,1.8-1.9,2.9c-0.5,1.1-0.3,2.4,0,3.6c0.5,1.9,3.6,2.1,4,0
						c0.1-0.6,0.5-1.2,0.7-1.8c-0.1,0.2-0.1,0.2,0,0c0.1-0.2,0.2-0.3,0.3-0.5c0.1-0.1,0.1-0.2,0.2-0.2c0.1-0.1,0.2-0.2,0.3-0.4
						c0.3-0.3,0.5-0.5,0.8-0.8c1.2-1,2.6-1.8,4-2.6c1.4-0.8,2.9-1.4,4.4-2c0.8-0.3,1.6-0.6,2.4-1c0.6-0.4,1.2-0.6,1.8-0.9
						C786,365.6,786.4,364.7,786.2,363.9z"/>
					<path id="XMLID_484_" class="st25" d="M853.1,358.8c2,5,1.9,9.7-0.1,10.4c-2,0.8-5.2-2.6-7.2-7.6c-2-5-1.9-9.7,0.1-10.4
						C847.9,350.4,851.1,353.8,853.1,358.8z"/>
					<path id="XMLID_483_" class="st25" d="M792.2,389.2c2.8,4.8,3.5,9.6,1.5,10.8c-1.9,1.1-5.8-1.9-8.6-6.7
						c-2.8-4.8-3.5-9.6-1.5-10.8C785.6,381.4,789.4,384.4,792.2,389.2z"/>
					<path id="XMLID_156_" class="st25" d="M914.5,399c-1.8-1.1-3.7,1.6-2.2,3c9.4,8.6,10.5,21.5,10,33.5c-0.6,16.1-2.7,32.2-5,48.2
						c-4.6,32.3-9.8,64.6-14.8,96.9c-2.8,18.3-5.5,36.6-8.3,54.9c-0.6,4.2,5.9,5.3,6.5,1.1c4.9-33.9,9.8-67.9,14.6-101.8
						c4.6-33,11.1-66.2,12.2-99.6C927.9,422.3,926.5,406.5,914.5,399z"/>
					<g id="XMLID_157_">
						<g id="XMLID_158_">
							<path id="XMLID_159_" class="st30" d="M854.5,641.9c6.4-1.7,46.2-5.4,46.2-5.4s10.5,76.3,7.3,76.3c-3.2,0-53.4,0-53.4,0
								V641.9z"/>
							<polygon id="XMLID_160_" class="st31" points="854.5,641.9 910.6,712.9 854.5,712.9 							"/>
						</g>
						<polygon id="XMLID_161_" class="st32" points="889.6,650.7 894.2,674.7 863.9,677.7 863.9,650.7 						"/>
						<path id="XMLID_162_" class="st32" d="M896.1,688.5c-0.9,0.8-2.2,0-3.2-0.2c-0.9-0.2-1.7-0.2-2.7,0.1c-2.3,0.6-4.7,1.5-7,2.2
							c-0.4,0.1-1,0.4-1.5,0.5c-0.7,0-1-0.4-1.6-0.6c-0.7-0.3-1.5-0.3-2.3-0.2c-1,0.2-5.7,2.5-5.8,0.1c0-0.7-1-1.1-1.4-0.5
							c-0.4,0.7-0.9,1.5-1.6,2c-0.4,0.3-0.8,0.6-1.4,0.4c-0.3-0.1-1-0.8-0.6-1.2c0.7-0.7-0.3-1.8-1.1-1.2c-1.5,1.3-0.4,3.5,1.3,4
							c1.7,0.5,3-0.7,3.9-2.1c0.8,0.8,2.1,1.1,3.3,0.9c1.4-0.2,2.8-1.2,4.2-1.2c1.4,0.1,1.9,1.2,3.4,0.9c1.6-0.4,3.2-1,4.8-1.5
							c1.7-0.5,3.6-1.5,5.4-1.2c1.4,0.3,3.9,1.4,4.5-0.6C897.1,688.6,896.5,688.1,896.1,688.5z"/>
						<path id="XMLID_163_" class="st32" d="M896,699.7c-4-0.4-8.2-0.1-12.2,0c-2,0-4,0.2-6,0.1c-1.5-0.1-3.1-0.3-3.8-1.7
							c-0.2-0.4-0.9-0.5-1.3-0.2c-0.9,0.8-1.8,1.7-2.7,2.5c-0.3,0.3-0.6,0.5-0.8,0.8c-0.5,0.9-0.9,1-1,0.1c-0.4-0.5-0.3-1.1,0.3-1.6
							c0.5-0.7-0.5-1.6-1-0.9c-1,1.3-2,3.9,0.2,4.7c0.9,0.3,1.7-0.2,2.4-0.8c1.1-0.9,2.1-1.9,3.1-2.9c2,2.2,5.8,1.7,8.5,1.7
							c2.3,0,4.6-0.1,6.8-0.1c2.5,0,5.1,0,7.6-0.3C897,701.1,896.8,699.8,896,699.7z"/>
					</g>
					<g id="XMLID_164_">
						<path id="XMLID_165_" class="st23" d="M840.8,271.8l8.1-19.1c-8.6-5-17.6-8.2-26.9-9.6c-4.9,0.8-9.2,1.5-11,1.7
							c-5.2,0.6-62.3,30.5-63.2,30.9c-27.6,36.7-8.7,81.2-8.7,81.2s11.7,32.1,17.6,35.7c1.2,0.7,2.3,1.7,3.4,2.8
							c-20.4-32.3,21.8-60.6,41.8-74.1C823.5,306.9,841.4,273.6,840.8,271.8z"/>
						<path id="XMLID_166_" class="st23" d="M765.9,402.9c1.6,2.5,2.6,4.4,2.6,4.4c0.6,2,1.2,4,1.9,6
							C771.3,410.8,770.1,407.4,765.9,402.9L765.9,402.9z"/>
					</g>
					<path id="XMLID_471_" class="st25" d="M845.4,261.1c0,0-26.3,40.9-60.7,56.3c-34.4,15.4-51.2,37.7-50.1,63.1
						c0,0-33.6-23-26.1-53.2c0,0-10-1-13.3,12.5c0,0,2.4-42.1,15.2-55.9c0,0,32.8-97.7,161.4-58.6l6.2-11.4l-1.5,14.4
						c0,0,14.5-6.1,20.1,1.4c0,0-14.3,3.6-15.3,7.9c0,0,27.9,30,27.4,65.3c-0.5,35.3-4.2,41.3-4.2,41.3s-9.2-26.8-21.9-32.6
						c-12.7-5.7-25.4-29.8-25.4-29.8s-1.4,13.8-9.7,14.8C839.1,297.7,853.2,289.7,845.4,261.1z"/>
					<path id="XMLID_167_" class="st15" d="M900.4,267.1c-8.1-17.6-19.1-29.5-19.1-29.5c1.1-4.3,15.3-7.9,15.3-7.9
						c-5.5-7.5-20.1-1.4-20.1-1.4l1.5-14.4l-6.2,11.4c-128.6-39.1-161.4,58.6-161.4,58.6s56.9-69.3,130.3-50.4l25.1,8.9l5.3-7v7.8
						C871.2,243.1,889.1,250,900.4,267.1z"/>
				</g>
				<g id="XMLID_168_">
					<g id="XMLID_169_">
						<g id="XMLID_170_">
							<g id="XMLID_171_">
								<path id="XMLID_321_" class="st33" d="M1245.2,1197.1c-7.1-1-14.4-1.9-21.8-2.8c-7.4-0.9-15.1-1.8-22.7-2.7
									c-4.9-0.6-9.8-1.1-14.8-1.6c-5.9-0.6-12-1.2-18-1.7c-2.7-0.3-5.4-0.5-8.2-0.7c-8.2-0.7-16.6-1.4-25-1.9
									c-2.5-0.2-5-0.3-7.5-0.5c-5.5-0.4-11.1-0.7-16.7-1c-3.9-0.2-7.7-0.4-11.6-0.5c-1-0.1-1.9-0.1-2.9-0.1
									c-36.8-12.3-70.9-21-108.9-18.4c-180.8,12.4-239.2,84.8-428,90.1c-3.4,0.1-6.8,0.2-10.2,0.3c-184,5.1-331.1,7.7-441.6-123.8
									c-45.5-54.2-88.5-143.5-117.9-250.1c-6.7-24.4-12.7-49.7-17.9-75.7h175.8l0.2,0.1l0.5,0.2l0.9,0.3l0.9,0.3
									c2.5,0.9,6.7,2.3,12.4,4.3c9.2,3.2,22.3,7.8,38.3,13.3c78,27.2,223.6,78.2,311.5,110.7
									C595,965.8,991.2,1106.8,1245.2,1197.1z"/>
							</g>
						</g>
						<path id="XMLID_322_" class="st34" d="M1223.4,1194.2c-7.4-0.9-15.1-1.8-22.7-2.7c-4.9-0.6-9.8-1.1-14.8-1.6
							c-5.9-0.6-12-1.2-18-1.7c-2.7-0.3-5.4-0.5-8.2-0.7c-8.2-0.7-16.6-1.4-25-1.9c-2.5-0.2-5-0.3-7.5-0.5c-5.5-0.4-11.1-0.7-16.7-1
							c-3.9-0.2-7.7-0.4-11.6-0.5c-1-0.1-1.9-0.1-2.9-0.1c-92.3-3.7-190.1,2-274.5,27.9c-75.4,23.1-168.6,42.8-264.5,50.6l-8.1-6.5
							L74,874.7l-84.6,6.8c-6.7-24.4-12.7-49.7-17.9-75.7h175.8l0.2,0.1l0.5,0.2l0.9,0.3l0.9,0.3L1223.4,1194.2z"/>
					</g>
					<g id="XMLID_174_">
						<g id="XMLID_175_">
							<path id="XMLID_176_" class="st35" d="M140.3,876.3c0.4-2.6,17.8-9.4,17.8-9.4s-3.8-20.3,21.1-34.4s51.3,2.8,51.3,2.8
								s3.3-1.8,0,7.4c-3.3,9.2-1,46,17.8,58c0,0-109.2,12-112.5,2.4C132.5,893.5,140.3,876.3,140.3,876.3z"/>
							<g id="XMLID_177_">
								<g id="XMLID_178_">
									<path id="XMLID_462_" class="st36" d="M228.2,604c0,0-4.2,284.8-4,286.2c0.2,1.4-60.5-61.4-60.5-61.4s-5.5-36-0.7-94.8
										c4.8-58.8,8.7-77.2,8.7-77.2L228.2,604z"/>
									<path id="XMLID_2_" class="st37" d="M228.2,604l10.3,1.5c4.7,0.7,8.2,4.8,8.2,9.6L242,880.6c-0.1,5-4.2,9.4-9.5,9.6l-8.3,0
										L228.2,604z"/>
									<polygon id="XMLID_460_" class="st38" points="203.1,637.1 202.2,642.9 178.8,661 179.3,657.6 									"/>
									<path id="XMLID_1_" class="st39" d="M163.1,733.3c-4.8,58.8,0.7,94.8,0.7,94.8s42,43.5,56,57.3c0,0,4.4,5,4.4,4.8
										c0-0.8,0-4.4,0-4.4l-52.3-229.6C171.9,656.2,167.9,674.6,163.1,733.3z"/>
								</g>
								<g id="XMLID_179_">
									<path id="XMLID_121_" class="st36" d="M204.4,886.1c-25,5.4-66.9,13.6-66.3,7.8c0,0-5.9,3.2-4.4,8.4
										c1.5,5.2,2.7,16.1,8.1,14.8c5.5-1.3,75.3-8.4,75.3-9.6c0-0.7,8.6-1.6,16.2-2.2C223.9,898.6,214.1,892.3,204.4,886.1z"/>
									<path id="XMLID_181_" class="st39" d="M138.1,893.9c0,0-5.9,3.2-4.4,8.4c1.5,5.2,2.7,16.1,8.1,14.8c0.6-0.1,2-0.4,4-0.6
										l0-0.6c-1.7,0.1-6.3-15.3,12.3-21.3l0,0C146.4,896.2,137.8,896.5,138.1,893.9z"/>
									<path id="XMLID_172_" class="st37" d="M231,903.8c-25.2,4.4-70.8,11.9-86.9,12.2c-22.7,0.4,22.7-146.2,26.2-152.4
										c3.5-6.1,10.5-8.1,10.5-8.1s-11.8-6.1-21.2,4.8c-9.4,10.9-38.1,125.2-39,138.7c-0.9,13.5,8.3,17.9,17.2,20.1
										c6.8,1.7,68.4-8.2,96.6-12.9C233.3,905.3,232.1,904.6,231,903.8z"/>
								</g>
							</g>
						</g>
						<g id="XMLID_183_">
							<path id="XMLID_184_" class="st36" d="M1062.7,1192.6c-1.2,0.4-304.9-148.9-304.9-148.9s-131.8,20-136.4,28.5
								c-4.5,8.6,224.7,174,228.9,172.3C854.5,1243,1062.7,1192.6,1062.7,1192.6z"/>
							<path id="XMLID_185_" class="st37" d="M1062.7,1192.6c-0.2,0.1-7.5-3.4-19.8-9.3L850.3,1224l-220.5-154.7l-1-0.8
								c-4.1,1.4-6.8,2.7-7.3,3.7c-4.5,8.6,224.7,174,228.9,172.3C854.5,1243,1062.7,1192.6,1062.7,1192.6z"/>
							<path id="XMLID_186_" class="st37" d="M981.6,1171l-63.7-30.5c0.9-0.3,1.7-0.7,2.5-1.1c0.5-0.3,0.5-1.3-0.2-1.3
								c-1.7,0-3.5,0.4-5.3,0.9l-17.6-8.4c-4-1.9-8-3.8-12-5.7c0.1,0,0.3-0.1,0.4-0.1c0.7-0.3,0.3-1.3-0.4-1.2
								c-0.7,0.1-1.5,0.2-2.2,0.3c-10.6-5.1-21.3-10.1-31.9-15.2c0.6-0.1,1.2-0.3,1.7-0.4c4.2-0.9,8.5-1.4,12.6-2.4
								c0.8-0.2,0.7-1.4-0.1-1.4c-3.8,0-7.7,1-11.3,1.8c-1.8,0.4-3.6,0.8-5.4,1.3c-10.8-5.1-21.6-10.3-32.4-15.4
								c3.9-1,7.8-2,11.6-3.3c0.6-0.2,0.4-1.2-0.3-1.1c-4.8,0.6-9.5,1.8-14.2,3c-0.1,0-0.1-0.1-0.2-0.1c-8.1-3.9-16.3-7.8-24.4-11.7
								c0.5-0.2,1-0.3,1.4-0.5c0.5-0.2,0.5-1.1-0.2-1c-1.1,0.1-2.2,0.4-3.2,0.6c-6.9-3.3-13.8-6.7-20.7-10c0.5-0.2,1-0.3,1.5-0.5
								c0.6-0.2,0.4-1.3-0.3-1.1c-6.4,1.5-12.7,3.5-19.1,5.1c-3.1,0.8-6.1,1.5-9.2,2.2c-5-3.1-9.7-6.7-13.6-11.2
								c-0.6-0.7-1.6,0.3-1,1c3.6,4.2,7.8,7.6,12.2,10.7c-2.8,0.6-5.6,1.2-8.4,1.7c-3.9,0.8-7.9,1.4-11.8,2.1
								c-5.6-4-11.2-8.1-16.8-12.2c-0.5-0.4-1.2,0.3-0.7,0.8c4.9,4.1,10,8,15.2,11.7c-8.2,1.3-16.5,2.3-24.8,3.1c0,0,0,0-0.1,0
								c-8.4-5-16.4-10.4-24.4-16c-0.5-0.3-1,0.4-0.6,0.8c6.6,5.4,14,10,21.3,14.4c0.7,0.5,1.5,0.9,2.3,1.3c-0.2,0.4,0,1,0.5,1
								c0.3,0,0.7-0.1,1-0.1c5.7,3.4,11.6,6.7,17.4,10c2.6,1.5,5.2,3,7.8,4.4c-3.1,0.9-6.2,1.7-9.3,2.6c-0.9,0.2-0.6,1.6,0.3,1.4
								c3.6-0.9,7.3-1.9,10.9-2.8c4.3,2.5,8.5,5,12.7,7.5c3.6,2.2,7.1,4.5,10.6,6.8c-4.1,1.5-8.2,2.9-12.3,4.4
								c-0.8,0.3-0.2,1.5,0.6,1.2c4.5-1.5,8.9-3,13.4-4.5c3.2,2.1,6.5,4.3,9.7,6.4c5.3,3.5,10.6,7,16,10.4
								c-5.2,1.1-10.3,2.1-15.5,3.1c-0.8,0.1-0.6,1.4,0.2,1.3c5.8-0.8,11.6-1.9,17.4-3c1.5,0.9,2.9,1.8,4.4,2.6
								c7.9,4.6,15.9,8.9,23.9,13.3c1,0.6,2.1,1.2,3.1,1.7c-3.8,1.5-7.5,3.1-11.3,4.7c-0.8,0.4-0.2,1.6,0.7,1.3
								c4.2-1.7,8.4-3.3,12.6-4.9c9.1,5,18.2,10.1,27.3,15.1c-2.4,0.9-4.9,1.7-7.3,2.6c-1.1,0.4-0.3,2,0.8,1.7c2.9-1,5.8-2,8.7-3
								c4.6,2.5,9.1,5,13.7,7.6l21.8,12c-5.9,1.5-11.8,3.1-17.7,4.6c-1.1,0.3-0.9,2,0.2,1.7c6.6-1.6,13.3-3.3,19.9-4.9l2.7,1.5
								c8.5,4.7,17,9.6,25.8,13.9c0.6,0.3,1.1-0.6,0.5-1c-7.9-5-16.2-9.3-24.3-13.8c-0.7-0.4-1.5-0.8-2.2-1.2
								c7.6-1.9,15.2-3.9,22.7-5.9c4.8,2.7,9.6,5.3,14.5,7.7c0.8,0.4,1.5-0.7,0.7-1.2c-4.2-2.5-8.5-4.9-12.8-7.2
								c11.3-3.1,22.7-6.2,33.9-9.5c5,2.3,10,4.6,15.1,6.8c0.7,0.3,1.3-0.9,0.6-1.3c-4.2-2.2-8.6-4.3-12.9-6.3
								c0.2-0.1,0.4-0.1,0.6-0.2c3.9-1.1,7.9-2.3,11.8-3.5c4-1.2,8.3-2.1,12.1-3.9c0.3-0.2,0.5-0.5,0.5-0.8
								c7.2,3.4,14.4,6.9,21.5,10.3C981.9,1173,982.5,1171.5,981.6,1171z M883,1125.6c9.8,4.7,19.6,9.4,29.5,14.2
								c-0.8,0.2-1.6,0.5-2.3,0.7c-3.2,0.9-6.4,1.8-9.6,2.7c-4.9,1.4-9.8,2.9-14.8,4.4c-9.7-4.7-19.5-9.3-29.2-14
								c-0.3-0.2-0.7-0.3-1-0.5c2.8-0.8,5.6-1.6,8.3-2.4C870.3,1128.9,876.8,1127.6,883,1125.6z M785.4,1100.2
								c6.7,3.4,13.5,6.8,20.2,10.2c4.3,2.1,8.6,4.2,12.8,6.3c-8.3,2.7-16.6,5.3-25,7.6c-10.4-5.6-20.8-11.3-31.1-17.2
								C770,1104.8,777.7,1102.4,785.4,1100.2z M760.2,1105.9c-6.2-3.5-12.3-7.1-18.4-10.8c-1.3-0.8-2.5-1.6-3.7-2.4
								c3.2-0.8,6.4-1.7,9.6-2.5c4-1,7.9-2.1,11.9-3.1c0.4,0.2,0.8,0.4,1.2,0.6c7.4,3.8,14.8,7.6,22.2,11.3
								C775.3,1101.2,767.8,1103.5,760.2,1105.9z M797.5,1125.3c7.8-2.2,15.6-4.8,23.3-7.4c9.8,4.9,19.6,9.7,29.5,14.5
								c-0.9,0.3-1.8,0.5-2.8,0.8c-7.9,2.4-15.7,4.9-23.5,7.7c-9.3-5.1-18.7-10.1-28.1-15.2C796.4,1125.5,796.9,1125.4,797.5,1125.3
								z M853,1133.8c10,4.9,20.1,9.7,30.1,14.6c-0.6,0.2-1.1,0.3-1.7,0.5c-9,2.8-18,5.7-27,8.6c-9.4-5.1-18.8-10.2-28.2-15.4
								C835.1,1139.1,844.1,1136.4,853,1133.8z M849,1109.3c0.1,0.1,0.3,0.1,0.4,0.2c10.3,5,20.6,9.9,31,14.9
								c-4.6,0.9-9.3,2.3-13.8,3.5c-4.6,1.2-9.1,2.5-13.6,3.8c-9.9-4.8-19.7-9.7-29.6-14.6c5.7-1.9,11.4-3.8,17.2-5.5
								C843.3,1110.7,846.1,1110,849,1109.3z M814.2,1092.6c10.8,5.2,21.5,10.3,32.3,15.5c-1.1,0.3-2.1,0.5-3.2,0.8
								c-7.2,2-14.4,4.3-21.5,6.7c-0.3,0.1-0.6,0.2-0.9,0.3c-10.9-5.5-21.8-10.9-32.7-16.5c5.7-1.6,11.4-3.2,17.1-4.7
								C808.2,1094,811.2,1093.3,814.2,1092.6z M787.1,1079.6c8.1,3.9,16.2,7.8,24.3,11.7c-1.5,0.4-2.9,0.8-4.3,1.1
								c-6.5,1.7-13,3.4-19.5,5.3c-0.6,0.2-1.2,0.4-1.8,0.5c-6.2-3.1-12.4-6.2-18.6-9.4c-1.6-0.8-3.2-1.6-4.8-2.4
								c2.2-0.6,4.5-1.2,6.7-1.8C774.9,1082.9,781.2,1081.6,787.1,1079.6z M748.2,1073.2c5.5-1.4,11.2-2.8,16.6-4.7
								c0,0.2,0.1,0.5,0.3,0.6c6.5,3.1,13,6.2,19.5,9.4c-5.4,1.2-10.8,2.9-16.1,4.3c-2.9,0.8-5.8,1.6-8.8,2.4
								c-5.3-2.7-10.6-5.4-15.8-8.3c-1.1-0.6-2.1-1.3-3.2-1.9C743.3,1074.3,745.8,1073.8,748.2,1073.2z M728.9,1077.5
								c3.2-0.6,6.3-1.3,9.5-2c6,3.8,12.4,7.1,18.7,10.3c-3.2,0.9-6.5,1.7-9.7,2.6c-3.8,1-7.5,2-11.3,3c-6.1-3.9-12.1-7.9-18-12
								C721.8,1078.8,725.3,1078.2,728.9,1077.5z M715.9,1096.9c-0.9-0.5-1.8-1.1-2.7-1.6c-7.3-4.2-14.7-8.3-22-12.6
								c8.2-0.7,16.4-1.7,24.6-2.9c6,4.3,12.1,8.3,18.3,12.2C728.1,1093.6,722,1095.2,715.9,1096.9z M740.8,1112.3
								c-7.6-4.9-15.2-9.7-23-14.3c6.1-1.6,12.2-3.2,18.4-4.8c7.4,4.6,14.9,8.9,22.5,13.2c-3.3,1.1-6.6,2.1-9.9,3.2
								C746.1,1110.5,743.5,1111.4,740.8,1112.3z M769.1,1130.3c-4.1-2.4-8.2-4.9-12.3-7.6c-4.7-3.1-9.5-6.2-14.2-9.2
								c6-2,12.1-4,18.2-5.9c5.2,2.9,10.5,5.8,15.7,8.7c5.1,2.8,10.2,5.6,15.4,8.4c-4.6,1.3-9.2,2.5-13.9,3.6
								C775,1129,772.1,1129.7,769.1,1130.3z M771.4,1131.6c7.7-1.6,15.3-3.4,22.9-5.5c9.3,5.1,18.7,10.2,28,15.3
								c-4.1,1.5-8.3,3-12.4,4.6c-2.5,0.9-4.9,1.9-7.4,2.9C792.1,1143.2,781.7,1137.6,771.4,1131.6z M804.5,1150
								c6.7-2.5,13.3-5,20.1-7.3c9.3,5.1,18.7,10.2,28,15.4c-2.9,1-5.8,1.9-8.7,2.9c-4,1.4-8,2.8-12,4.2
								C822.8,1160.1,813.7,1155,804.5,1150z M873.9,1185c-1.3,0.4-2.6,0.7-4,1c-6.3-3.5-12.7-7-19-10.5c-5.6-3.1-11.2-6.1-16.7-9.2
								c6.9-2.4,13.9-4.7,20.8-7c2.4,1.3,4.9,2.7,7.3,4c7.9,4.3,15.7,8.6,23.6,12.9c2.2,1.2,4.5,2.5,6.7,3.7
								C886.3,1181.7,880.1,1183.4,873.9,1185z M915.9,1173.6c-7,2-14,3.9-20.9,5.8c-9-4.9-18.1-9.7-27-14.6l-11.1-6.1
								c9.7-3.1,19.4-6.2,29.1-9.1c3.2,1.5,6.3,3.1,9.5,4.6c8.5,4.1,17,8.1,25.6,12.1c2.5,1.2,5.1,2.4,7.6,3.6
								C924.4,1171.2,920.2,1172.4,915.9,1173.6z M947.5,1164.5c-3.5,1-6.9,2-10.4,3c-1.9,0.6-3.8,1.1-5.7,1.6
								c-2.4-1.1-4.8-2.2-7.1-3.3c-7.4-3.5-14.8-7-22.2-10.5c-4.5-2.1-9-4.3-13.5-6.5c3.7-1.1,7.4-2.2,11.2-3.3
								c3.7-1.1,7.3-2.1,11-3.1c1.5-0.4,3.2-0.8,4.8-1.2c6,2.9,11.9,5.7,17.9,8.6c8.2,3.9,16.3,7.8,24.5,11.7
								C954.4,1162.2,950.9,1163.5,947.5,1164.5z"/>
							<path id="XMLID_206_" class="st40" d="M756.7,1065.7c-1.2-0.6-3.1,0.4-4.3,0.8c-1.4,0.5-2.9,1-4.3,1.5c-2.8,1-5.5,2-8.1,3.2
								c0,0-0.1-0.1-0.1-0.1c-2.3-0.9-4.3-2.5-6.1-4.1c-1-0.9-2-1.7-3-2.6c-0.5-0.4-1-0.8-1.5-1.2c-0.4-0.4-0.8-1-1.4-1.2
								c-0.5-0.2-1.3,0.1-1.1,0.8c0.5,1.4,2,2.5,3.1,3.4c1,0.9,2,1.7,3.1,2.6c1.9,1.6,3.9,3.1,6.2,4c0.5,0.2,0.9-0.1,1.1-0.4
								c2.8-0.9,5.5-1.8,8.2-2.8c1.4-0.5,2.8-1,4.2-1.4c0.7-0.2,1.5-0.5,2.2-0.7c0.7-0.2,1.6-0.5,2-1.2
								C756.9,1066.1,756.9,1065.8,756.7,1065.7z"/>
							<path id="XMLID_207_" class="st40" d="M729,1072.7c-2.3,0.4-4.5,1.3-6.8,2c-1.2,0.4-2.6,0.8-3.8,0.5
								c-0.4-0.1-0.4-0.3-0.7-0.5c-0.4-0.3-0.9-0.5-1.4-0.8c-2.1-1.3-4.2-2.6-6.4-3.9c-2.4-1.4-4.8-3.2-7.4-4.2
								c-0.7-0.3-1.1,0.6-0.6,1.1c1.8,1.7,4.3,2.9,6.5,4.3c2.4,1.5,4.8,3,7.2,4.4c0.9,0.5,1.7,0.7,2.6,1c1.1,0.4,2.2,0.3,3.3,0.1
								c2.7-0.5,5.6-1.6,7.9-2.9C730,1073.5,729.6,1072.6,729,1072.7z"/>
							<path id="XMLID_208_" class="st40" d="M750.2,1084C750.2,1084,750.3,1084,750.2,1084C750.3,1084,750.2,1084,750.2,1084
								c-0.1-0.1-0.2-0.1-0.3-0.1c0,0-0.1,0-0.1,0c-0.1,0-0.3,0-0.4,0.1c-2,0.9-4,1.9-6.1,2.8c-1,0.4-2,0.7-3,1.1
								c-0.9,0.3-1.7,0.7-2.6,1.1c-0.1-0.1-0.1-0.2-0.2-0.3c-0.6-0.3-1.2-0.5-1.8-0.8c-0.7-0.4-1.3-0.8-1.9-1.3
								c-1.1-0.8-2.1-1.6-3.3-2.3c-2.4-1.3-5.1-2.1-7.2-3.8c-0.6-0.4-1.3,0.4-0.7,0.9c2.3,1.9,5.2,2.8,7.6,4.5
								c1.2,0.8,2.2,1.7,3.3,2.6c1.1,0.8,2.4,1.8,3.7,1.8c0,0,0.1,0,0.1,0c0.1,0.1,0.2,0.1,0.3,0.1c1.2-0.2,2.2-0.4,3.4-0.7
								c1-0.3,2.1-0.7,3.1-1.1c2.1-0.8,4.2-1.7,6.1-2.8C750.9,1085.2,750.7,1084.3,750.2,1084z"/>
							<path id="XMLID_209_" class="st40" d="M787.7,1095.2c-0.2-0.5-1-0.6-1.5-0.7c-0.3-0.1-0.6-0.1-0.8-0.3
								c-0.3-0.2-0.6-0.3-0.9-0.4c-1-0.4-2.1-0.7-3.1-1.1c-0.3-0.1-0.6,0-0.7,0.2c-0.1,0.2,0,0.6,0.2,0.7c1.1,0.4,2.1,0.9,3.2,1.2
								c0.3,0.1,0.5,0.2,0.8,0.2c0.3,0,0.5,0.1,0.8,0.2c0.3,0.1,0.5,0.2,0.8,0.3c0.3,0.1,0.6,0.3,1,0.1
								C787.7,1095.7,787.8,1095.4,787.7,1095.2z"/>
							<path id="XMLID_210_" class="st40" d="M801.2,1090.3c-1.2,0-2.1,0.5-3.2,1c-1,0.4-2,0.9-3,1.3c-2.1,0.9-4.2,1.7-6.3,2.6
								c-0.6,0.3-0.4,1.4,0.3,1.2c2.2-0.6,4.4-1.2,6.5-2c1-0.4,2.1-0.8,3.1-1.2c0.5-0.2,1-0.4,1.5-0.7c0.6-0.3,1.1-0.6,1.5-1.1
								C802.1,1090.8,801.7,1090.2,801.2,1090.3z"/>
							<path id="XMLID_211_" class="st40" d="M823.4,1084.6c-1.7-0.6-4,0.7-5.6,1.3c-1.3,0.5-2.6,1.2-3.8,1.6
								c-1.3,0.4-2.2-0.1-3.4-0.6c-4-1.9-7.9-4-11.8-6c-0.7-0.4-1.1,0.7-0.5,1.1c2.3,1.2,4.5,2.4,6.8,3.5c1.1,0.6,2.2,1.2,3.3,1.8
								c1.1,0.6,2.1,1.4,3.3,1.8c0.8,0.3,1.5,0.1,2.3-0.1c1-0.2,2.1-0.5,3.1-0.7c1.3-0.4,2.6-0.7,3.9-1.1c1-0.3,2.1-0.6,2.7-1.5
								C823.9,1085.2,823.8,1084.7,823.4,1084.6z"/>
							<path id="XMLID_212_" class="st40" d="M821,1112.2c-2.3-0.2-4.3-1.7-6.3-2.9c-2.1-1.2-4.1-2.4-6.3-3.6
								c-4.1-2.2-8.3-4.3-12.7-6.1c-0.7-0.3-1.1,0.7-0.5,1c4.6,2.1,9,4.3,13.4,6.7c2.2,1.2,4.3,2.4,6.5,3.7c1.8,1.1,3.6,2.3,5.8,2.1
								C821.7,1113.2,821.7,1112.2,821,1112.2z"/>
							<path id="XMLID_213_" class="st40" d="M834.5,1107.5c-0.8,0.1-1.6,0.6-2.4,0.9c-0.7,0.3-1.4,0.6-2.2,0.9
								c-1.5,0.6-2.9,1.2-4.4,1.8c-0.6,0.2-0.3,1.2,0.3,1c1.5-0.5,3-1.1,4.5-1.6c0.8-0.3,1.7-0.5,2.5-0.8c0.7-0.3,1.5-0.5,2.1-0.9
								C835.5,1108.3,835.4,1107.3,834.5,1107.5z"/>
							<path id="XMLID_214_" class="st40" d="M755.5,1100.2c-0.8-0.6-1.8-1-2.7-1.5c-1-0.5-1.9-1-2.9-1.5c-2-1-4-2-6-2.9
								c-0.7-0.3-1.1,0.7-0.5,1.1c1.9,1.1,3.7,2.1,5.6,3.1c0.9,0.5,1.9,1,2.8,1.5c1,0.5,1.9,1.2,3,1.5
								C755.5,1101.8,756.1,1100.7,755.5,1100.2z"/>
							<path id="XMLID_215_" class="st40" d="M791.9,1119.9c-0.6-0.8-1.7-1.1-2.5-1.6c-0.9-0.5-1.8-1-2.6-1.5
								c-1.9-1.1-3.8-2.3-5.7-3.5c-1.9-1.1-3.7-2.2-5.4-3.5c-1.6-1.3-3.5-2.2-5.4-3c-0.8-0.3-1.2,0.9-0.4,1.3
								c1.9,0.9,3.7,1.9,5.6,2.7c2.1,0.9,4,2.4,5.9,3.7c1.7,1.2,3.3,2.3,5.1,3.3c0.9,0.5,1.8,1.1,2.8,1.5c0.8,0.4,1.7,1,2.6,0.9
								C791.9,1120.4,792,1120.1,791.9,1119.9z"/>
							<path id="XMLID_216_" class="st40" d="M810.3,1115.4c-1.2-0.2-2.6,0.6-3.8,1c-1.3,0.4-2.5,0.9-3.8,1.2
								c-2.6,0.7-5.1,1.4-7.7,1.8c-0.8,0.1-0.6,1.3,0.1,1.2c2.7-0.4,5.4-0.8,8.1-1.5c1.3-0.3,2.6-0.7,3.9-1.1
								c1.1-0.3,2.8-0.6,3.5-1.5C811,1116.2,810.9,1115.5,810.3,1115.4z"/>
							<path id="XMLID_217_" class="st40" d="M824.1,1137.8c-0.7-0.6-1.7-0.8-2.5-1.2c-0.8-0.4-1.6-0.8-2.4-1.3
								c-1.6-0.9-3.1-1.9-4.7-2.9c-3.1-2-6.3-4.1-9.3-6.2c-0.7-0.4-1.4,0.5-0.7,1c3.1,2.4,6.3,4.6,9.7,6.8c1.6,1,3.2,2,4.8,3
								c1.4,0.8,3.3,2.1,5,1.7C824.2,1138.6,824.4,1138.1,824.1,1137.8z"/>
							<path id="XMLID_218_" class="st40" d="M841.4,1131.4L841.4,1131.4C841.4,1131.4,841.4,1131.4,841.4,1131.4c0,0-0.1,0-0.1,0
								c0,0,0,0-0.1,0c0,0-0.1,0-0.1,0c0,0-0.1,0-0.1,0c0,0,0.1,0,0.1,0c-0.1,0-0.1,0-0.2,0c-0.3,0.1-0.6,0.2-0.9,0.4
								c-0.5,0.3-1,0.5-1.5,0.8c-1.1,0.5-2.2,0.8-3.3,1.1c-2.3,0.7-4.6,1.3-6.7,2.6c-0.6,0.3,0,1.4,0.6,1c2.1-1.1,4.5-1.5,6.8-2.1
								c1.1-0.3,2.2-0.6,3.2-1c0.5-0.2,1-0.5,1.5-0.8c0.5-0.3,0.8-0.7,1.1-1.1C841.9,1132,841.7,1131.6,841.4,1131.4z"/>
							<path id="XMLID_219_" class="st40" d="M850,1126.2c-4.9-2.7-10-5.2-15-7.7c-0.5-0.3-1,0.5-0.5,0.8c4.9,2.9,9.9,5.4,15.2,7.4
								C850.1,1126.9,850.3,1126.4,850,1126.2z"/>
							<path id="XMLID_220_" class="st40" d="M874.9,1121.5c-2.4-0.8-5.3,0.7-7.5,1.7c-2.7,1.2-5.5,1.9-8.4,2.6
								c-0.8,0.2-0.7,1.5,0.2,1.4c1.5-0.2,3-0.3,4.4-0.6c1.4-0.3,2.7-0.8,4-1.4c1.2-0.5,2.5-1.1,3.7-1.6c1.2-0.4,2.4-0.6,3.5-1.1
								C875.4,1122.4,875.4,1121.6,874.9,1121.5z"/>
							<path id="XMLID_221_" class="st40" d="M854.9,1152.8c-3.2-1.5-6.4-2.9-9.5-4.4c-1.5-0.7-3-1.5-4.5-2.2
								c-1.6-0.8-3.2-1.8-4.9-2.4c-0.8-0.3-1.2,0.8-0.6,1.3c1.5,1.1,3.2,1.8,4.8,2.7c1.5,0.8,3,1.5,4.5,2.3c3.1,1.5,6.3,3.1,9.5,4.4
								C855.3,1154.8,855.9,1153.2,854.9,1152.8z"/>
							<path id="XMLID_222_" class="st40" d="M877.1,1146.3c-1.3-0.1-2.7,0.7-3.9,1.1c-1.3,0.5-2.5,0.9-3.8,1.4
								c-2.5,1-5,1.9-7.4,3.1c-0.9,0.4-0.1,1.7,0.7,1.4c2.8-0.8,5.5-1.8,8.2-2.8c1.3-0.5,2.5-0.9,3.8-1.4c1.2-0.5,2.5-0.8,2.9-2.1
								C877.7,1146.7,877.4,1146.3,877.1,1146.3z"/>
							<path id="XMLID_223_" class="st40" d="M886.4,1143.1c-0.7-0.6-1.6-0.9-2.4-1.3c-0.8-0.4-1.6-0.8-2.3-1.1
								c-1.7-0.9-3.4-1.8-5.1-2.7c-3.3-1.9-6.7-3.7-10-5.5c-0.7-0.4-1.5,0.6-0.7,1.1c3.4,2,6.8,4.1,10.2,6c1.6,0.9,3.3,1.8,4.9,2.7
								c1.5,0.8,3.3,2,5,2.1C886.7,1144.3,886.9,1143.5,886.4,1143.1z"/>
							<path id="XMLID_224_" class="st40" d="M895.2,1141.5c-0.2-0.3-0.5-0.4-0.8-0.4c-0.3,0.1-0.6,0.1-0.9,0.2
								c-0.2,0.1-0.3,0.1-0.5,0.2c-0.3,0.1-0.6,0.2-0.9,0.3c-0.6,0.2-1.2,0.4-1.9,0.4c-0.4,0.1-0.8,0.4-0.8,0.9
								c0.1,0.5,0.4,0.8,0.9,0.8c0.7,0,1.5-0.1,2.2-0.3c0.4-0.1,0.9-0.2,1.3-0.4c0.2-0.1,0.3-0.1,0.5-0.2c0.3-0.2,0.5-0.4,0.7-0.6
								C895.3,1142.1,895.4,1141.8,895.2,1141.5z"/>
							<path id="XMLID_225_" class="st40" d="M896.2,1176.7c-0.9-1.1-2.3-1.5-3.6-2.2c-1.3-0.7-2.7-1.3-4-2
								c-2.8-1.4-5.5-2.7-8.3-4.1c-5.6-2.8-11.1-5.8-16.9-8.3c-0.6-0.3-1.2,0.7-0.6,1.1c5.4,3.3,11.1,6.1,16.8,8.9
								c2.8,1.4,5.5,2.7,8.3,4.1c1.3,0.7,2.7,1.3,4,2c1.2,0.6,2.4,1.4,3.8,1.4C896.1,1177.5,896.4,1177,896.2,1176.7z"/>
							<path id="XMLID_226_" class="st40" d="M920.9,1169.4c-0.7-0.2-1.3,0.1-1.9,0.4c-0.8,0.3-1.6,0.6-2.5,0.9
								c-1.6,0.6-3.3,1.1-4.9,1.6c-3.2,0.9-6.4,1.8-9.7,2.4c-0.8,0.2-0.6,1.2,0.1,1.2c3.5-0.1,6.8-0.8,10.1-1.8
								c1.6-0.5,3.2-1,4.7-1.5c0.7-0.3,1.5-0.5,2.2-0.8c0.8-0.3,1.7-0.4,2.2-1.2C921.6,1170.1,921.3,1169.5,920.9,1169.4z"/>
							<path id="XMLID_227_" class="st40" d="M928.4,1164.8c-2.5-1.5-5.3-2.5-7.9-3.7c-2.6-1.3-5.2-2.6-7.7-3.9
								c-5.1-2.7-10-5.7-15-8.5c-0.7-0.4-1.5,0.6-0.7,1.1c4.9,3.3,10.1,6.2,15.3,9c2.6,1.4,5.1,2.7,7.8,4c2.5,1.2,5.1,2.7,7.8,3.6
								C928.7,1166.5,929.2,1165.3,928.4,1164.8z"/>
							<path id="XMLID_228_" class="st40" d="M801.3,1144.5c-1.9-1.1-4.1-1.7-6.1-2.7c-2-0.9-4.1-2-6-3c-1.9-1-3.8-2.1-5.7-3.2
								c-1-0.5-1.9-1.1-2.9-1.6c-0.9-0.5-1.9-1.2-2.9-1.3c-0.5-0.1-0.9,0.5-0.6,1c0.6,0.9,1.7,1.3,2.6,1.8c1,0.6,2,1.2,3.1,1.8
								c1.9,1.1,3.8,2.2,5.7,3.2c1.9,1,3.8,2,5.7,2.9c2.1,1,4.4,2.1,6.8,2.5C801.6,1145.9,801.9,1144.8,801.3,1144.5z"/>
							<path id="XMLID_229_" class="st40" d="M816.7,1140.1c-0.4-0.1-0.7-0.2-1.1-0.1c-0.2,0-0.4,0.1-0.6,0.2
								c-0.4,0.2-0.9,0.3-1.3,0.5c-0.8,0.3-1.6,0.7-2.4,1c-1.6,0.7-3.2,1.4-4.8,2.2c-1,0.4-0.4,2,0.6,1.6c1.7-0.7,3.3-1.4,5-2.1
								c0.8-0.3,1.6-0.7,2.5-1.1c0.5-0.2,0.9-0.4,1.4-0.7c0.4-0.2,0.6-0.5,0.9-0.9C817.1,1140.5,817,1140.2,816.7,1140.1z"/>
							<path id="XMLID_230_" class="st40" d="M834,1161.4c-1.5-1.2-3.4-1.8-5.1-2.6c-2-1-4.1-2-6-3.1c-3.5-1.9-6.8-4-10.3-5.9
								c-0.8-0.4-1.5,0.7-0.7,1.2c3.4,2.3,6.9,4.5,10.5,6.5c1.7,1,3.5,1.9,5.3,2.8c1.9,0.9,3.8,2,5.9,2.2
								C834,1162.4,834.5,1161.7,834,1161.4z"/>
							<path id="XMLID_231_" class="st40" d="M845.9,1156.6c-0.6,0.3-1.3,0.5-1.9,0.8c-1.3,0.5-2.6,1-3.8,1.6
								c-1,0.4-0.5,1.8,0.5,1.5c0.8-0.2,1.7-0.4,2.5-0.6c0.6-0.2,1.3-0.4,1.9-0.7c0.6-0.2,1.3-0.5,1.9-0.7c0.7-0.3,2.2-0.8,2-1.8
								C848.7,1155.4,846.7,1156.3,845.9,1156.6z"/>
							<path id="XMLID_232_" class="st40" d="M868,1179.6c-1.1-0.7-2.3-1.3-3.4-1.9c-2.4-1.3-4.9-2.6-7.4-3.9
								c-4.8-2.5-9.7-5.2-14.7-7.3c-0.9-0.4-1.6,0.9-0.7,1.4c4.6,2.7,9.4,5.1,14.1,7.5c2.4,1.2,4.7,2.5,7.1,3.7
								c1.2,0.6,2.4,1.3,3.6,1.9c1.2,0.6,2.4,1.4,3.7,1.3c0.2,0,0.3-0.2,0.3-0.4C870.1,1180.7,869,1180.2,868,1179.6z"/>
							<path id="XMLID_233_" class="st40" d="M884.8,1179.8c-0.7-0.3-1.6-0.1-2.3,0.1c-1.2,0.3-2.3,0.5-3.5,0.7
								c-0.6,0.1-1.3,0.3-1.9,0.4c-0.7,0.2-1.4,0.3-2,0.4c-0.7,0.1-0.6,1.2,0.1,1.2c1.7-0.2,3.3-0.3,5-0.5c0.8-0.1,1.6-0.3,2.4-0.4
								c0.8-0.2,1.9-0.3,2.5-1C885.2,1180.4,885.1,1180,884.8,1179.8z"/>
							<path id="XMLID_234_" class="st40" d="M900.3,1194.9c-0.1-0.5-0.7-0.6-1-0.5c-0.4,0.2-0.7,0.4-1.1,0.4
								c-0.3,0-0.6-0.1-0.9-0.2c-0.7-0.2-1.3-0.4-2-0.6c-1.3-0.4-2.6-0.9-3.9-1.4c-1.3-0.5-2.5-1-3.8-1.6c-1.4-0.7-2.7-1.5-4.2-2
								c-0.7-0.3-1.2,0.8-0.7,1.3c1.3,1.2,3,2,4.6,2.8c1.6,0.8,3.2,1.5,4.8,2.1C893.7,1195.9,900.8,1198.9,900.3,1194.9z"/>
							<path id="XMLID_235_" class="st40" d="M833.1,1097c-1.1-0.1-2-0.6-2.9-1.1c-0.9-0.5-1.7-1-2.6-1.5c-0.9-0.5-1.7-1-2.7-1.4
								c-0.5-0.2-1-0.3-1.5-0.4c-0.3-0.1-0.9,0-1.1-0.2c-0.5-0.8-1.6-0.2-1.4,0.7c-0.1-0.2,0,0.1,0,0.2c0,0.1,0.1,0.2,0.2,0.3
								c0.2,0.2,0.4,0.4,0.7,0.5c0.5,0.2,1.1,0.2,1.6,0.3c1.1,0.3,2.1,0.9,3.1,1.4c2,1.2,4.1,2.4,6.6,2.2
								C833.7,1097.9,833.7,1097.1,833.1,1097z"/>
							<path id="XMLID_236_" class="st40" d="M880.7,1119c-3.4-1.7-7-3.1-10.4-4.7c-3.4-1.6-6.9-3.2-10.3-4.8
								c-0.6-0.3-1.1,0.6-0.5,1c3.3,2,6.6,3.8,10.1,5.4c1.7,0.8,3.3,1.5,5,2.2c1.9,0.8,3.8,1.6,5.7,2.2
								C881.1,1120.3,881.3,1119.2,880.7,1119z"/>
							<path id="XMLID_237_" class="st40" d="M904.4,1128.9c-0.8-1-2.4-1.3-3.5-1.7c-1.2-0.4-2.4-0.8-3.6-1.2
								c-2.4-0.9-4.8-1.7-7.2-2.5c-0.7-0.2-1.3,0.9-0.6,1.2c2.4,1.2,4.8,2.2,7.3,3.1c1.2,0.4,2.4,0.9,3.6,1.3c1.1,0.4,2.5,1,3.7,0.7
								C904.4,1129.7,904.6,1129.2,904.4,1128.9z"/>
							<path id="XMLID_238_" class="st40" d="M689.5,1077.9c-0.5-0.4-1.3-0.5-2-0.8c-0.7-0.3-1.3-0.6-1.9-1
								c-1.2-0.8-2.4-1.8-3.6-2.6c-2.7-2-5.4-3.9-8.1-5.8c-0.7-0.4-1.4,0.5-0.7,1c2.8,2.3,5.7,4.5,8.5,6.7c1.3,0.9,2.5,2,3.8,2.7
								c1,0.6,3,1.5,3.9,0.3C689.6,1078.2,689.6,1078,689.5,1077.9z"/>
							<path id="XMLID_239_" class="st40" d="M707.8,1074.4c-1.1-0.3-2.6,0.1-3.7,0.3c-1.1,0.2-2.1,0.5-3.2,0.7
								c-2.3,0.5-4.4,1.2-6.6,2c-0.7,0.3-0.3,1.2,0.3,1c2.3-0.5,4.5-1.1,6.8-1.6c1.1-0.3,2.2-0.5,3.4-0.7c1-0.2,2.4-0.2,3.2-0.9
								C708.2,1075.1,708.1,1074.5,707.8,1074.4z"/>
							<path id="XMLID_240_" class="st40" d="M718.2,1092.4c-1.5-0.6-3-0.8-4.5-1.4c-1.4-0.5-2.8-1.2-4.2-2c-3-1.7-5.8-3.7-8.7-5.5
								c-0.8-0.5-1.5,0.7-0.7,1.3c2.8,2.1,5.7,4.1,8.8,5.9c1.4,0.8,2.9,1.5,4.4,2.1c1.5,0.5,3.1,1.1,4.7,0.8
								C718.6,1093.5,718.8,1092.7,718.2,1092.4z"/>
							<path id="XMLID_241_" class="st40" d="M728.3,1090.1c-1.1-0.3-2.3,0-3.4,0.3c-1.2,0.3-2.3,0.6-3.4,1.1
								c-0.3,0.1-0.4,0.6-0.3,0.9c0.1,0.3,0.5,0.6,0.9,0.4c1-0.3,2-0.6,3.1-0.8c1.1-0.2,2.3-0.1,3.3-0.6c0.3-0.1,0.4-0.5,0.4-0.8
								C728.9,1090.4,728.6,1090.1,728.3,1090.1z"/>
							<path id="XMLID_242_" class="st40" d="M741,1108c-1.1-0.9-2.8-1.5-4.1-2.2c-1.4-0.7-2.7-1.4-4.1-2.2c-2.7-1.5-5.4-3.2-8-4.9
								c-0.7-0.5-1.5,0.6-0.7,1.2c2.6,1.9,5.3,3.6,8,5.2c1.4,0.8,2.7,1.5,4.1,2.2c1.3,0.7,2.8,1.6,4.4,1.9
								C741.3,1109.3,741.5,1108.4,741,1108z"/>
							<path id="XMLID_243_" class="st40" d="M754.3,1104.5c-1.6,0-3.2,0.7-4.6,1.2c-1.3,0.5-2.7,0.9-3.9,1.7
								c-0.6,0.4-0.3,1.5,0.5,1.3c1.4-0.4,2.8-0.9,4.2-1.4c1.4-0.5,2.9-0.8,4.3-1.4C755.3,1105.6,755,1104.5,754.3,1104.5z"/>
							<path id="XMLID_244_" class="st40" d="M770.5,1125.5c-0.7-0.7-1.6-1-2.4-1.4c-0.8-0.4-1.7-0.9-2.5-1.3
								c-1.7-1-3.4-2.1-5.1-3.2c-3.3-2.1-6.8-4.4-10.6-5.3c-0.8-0.2-1.4,1-0.5,1.4c3.6,1.6,7,3.6,10.3,5.7c1.6,1,3.2,2.1,4.9,3.1
								c0.9,0.5,1.7,1,2.6,1.4c0.8,0.4,1.8,0.9,2.8,0.9C770.6,1126.7,771,1126,770.5,1125.5z"/>
							<path id="XMLID_245_" class="st40" d="M788.2,1122.9c-1-0.1-2,0.3-2.9,0.5c-0.9,0.2-1.7,0.4-2.6,0.6
								c-1.9,0.4-3.8,0.8-5.7,1.3c-0.9,0.2-0.6,1.6,0.3,1.5c2,0,3.9-0.4,5.9-0.8c0.9-0.2,1.7-0.4,2.6-0.6c1-0.2,2.1-0.4,2.9-1
								C789.4,1124,789,1122.9,788.2,1122.9z"/>
							<path id="XMLID_246_" class="st40" d="M919.3,1188.2c-0.6-0.4-1.4-0.5-2.1-0.7c-0.6-0.2-1.3-0.5-1.9-0.8
								c-1.2-0.6-2.3-1.2-3.4-1.9c-2.3-1.4-4.4-3-6.5-4.5c-0.6-0.4-1.4,0.5-0.9,1c2,2.1,4.5,3.8,7,5.3c1.2,0.7,2.5,1.4,3.8,2
								c1.1,0.5,2.9,1.2,4,0.4C919.5,1188.8,919.6,1188.4,919.3,1188.2z"/>
						</g>
						<g id="XMLID_247_">
							<path id="XMLID_248_" class="st35" d="M547.3,1085.3c-6.6-6.6-61.4-42-77-56.5c-55.8-52.1-74.7-79-81-90.3
								c-2.1-3.8-6.5-5.7-10.7-4.7l-3.2,0.8c-11.6,2.9-17.3,16.1-11.4,26.5c11.7,20.7,26.2,49.4,16.6,48.6
								c-2.7-0.2-193.3,3.7-180.1,60c13.2,56.3,64.6,123.9,102.3,122.3C340.4,1190.5,547.3,1085.3,547.3,1085.3"/>
							<g id="XMLID_249_">
								<g id="XMLID_250_">
									<path id="XMLID_252_" class="st37" d="M505.9,281h29.9c13.8,0,25.5,10.3,27.2,24l94.2,759.5c2.7,25.8-46.9,34.6-46.9,34.6
										C581.8,932.5,543.9,608.3,505.9,281z"/>
									<path id="XMLID_251_" class="st36" d="M505.9,281c0,0,103,814.3,104.3,818.1c1.3,3.8-197.3-150.8-197.3-150.8
										s-30.2-100.5-40.2-270.2c-10.1-169.7-6.3-223.7-6.3-223.7L505.9,281z"/>
									<polygon id="XMLID_253_" class="st38" points="447.6,385.7 447.6,402.5 388.2,463.6 388.2,453.6 									"/>
									<path id="XMLID_254_" class="st39" d="M372.7,676.3c10.1,169.7,40.2,270.2,40.2,270.2s137.5,107,182.9,140.8l14.4,11.8
										c-0.1-0.7-1.3-10.9-1.4-11.6c-237.4-387-242.4-634.9-242.4-634.9S362.6,506.7,372.7,676.3z"/>
								</g>
								<g id="XMLID_255_">
									<path id="XMLID_256_" class="st36" d="M621.5,1139.3l-74.1-54c0,0-246,58-243.5,34.3c0,0-17,9.3-12.8,24.3
										c4.2,15.1,7.7,46.5,23.5,42.7c15.8-3.7,217-24.3,217-27.6s78.8-9,78.8-9L621.5,1139.3z"/>
									<path id="XMLID_257_" class="st39" d="M303.8,1119.6c0,0-17,9.3-12.8,24.3s7.7,46.5,23.5,42.7c1.8-0.4,5.8-1,11.6-1.8
										l0.1-1.7c-5,0.2-18.1-44,35.4-61.3h0C327.7,1126.4,303,1127.1,303.8,1119.6z"/>
									<path id="XMLID_258_" class="st37" d="M426.7,720.8c0,0-20.1,5.9-30.2,23.5c-10.1,17.6-140.7,440.3-75.4,439
										c65.3-1.3,300.3-44,300.3-44v8.8c0,0-293.1,50.3-318.7,44c-25.6-6.3-52-18.9-49.5-57.8c2.5-39,85.3-368.2,112.4-399.6
										C392.8,703.2,426.7,720.8,426.7,720.8z"/>
								</g>
							</g>
						</g>
					</g>
				</g>
				<g id="XMLID_259_">
					<g id="XMLID_260_">
						<path id="XMLID_261_" class="st22" d="M967.7,1010.1l-62,13.4c0,0-64.5,10.9-67,10.9s-36.9,0.8-50.3,8.4
							c-13.4,7.5-32.7,38.5-31,42.7c1.7,4.2,1.7,4.2,1.7,4.2s-7.7,14.2-1.8,18c6,3.8,42-37.3,49.5-38.1c7.5-0.8,37.7,4.2,37.7,4.2
							s-13.7,21-10.4,32.7c3.4,11.7,7.5,11.7,18.4-3.4c10.9-15.1,23.8-17.9,36.4-22.8c12.6-4.9,12.6-4.9,12.6-4.9
							s63.1,19.3,85.6,8.4C1009.6,1072.9,987.8,1014.3,967.7,1010.1z"/>
						<g id="XMLID_262_">
							<path id="XMLID_263_" class="st26" d="M800.2,1048.1c-4.8,1.4-9.1,4.2-13.1,7.2c-4,3-7.7,6.4-11.1,10
								c-6.9,7.3-13.3,15.6-18.1,24.4c-0.3,0.6,0.5,1.3,1,0.7c6.1-8,11.5-16.5,18.5-23.8c3.4-3.6,7.1-7,11.1-10
								c3.8-2.9,8-5.2,12-7.8C800.9,1048.6,800.7,1048,800.2,1048.1z"/>
							<path id="XMLID_264_" class="st26" d="M908.7,1055.1c-0.4-0.3-1,0.1-0.8,0.6c0.3,1.2,0.4,2.1,0.2,3.3c-0.2,1-0.4,1.9-0.6,2.9
								c-0.4,1.8-0.9,3.6-1.6,5.3c-0.6,1.6-1.4,3.1-2.4,4.5c-0.6,0.7-1.2,1.4-2,1.9c-0.8,0.6-1.7,1-2.3,1.8c-0.2,0.3,0,0.9,0.5,0.7
								c4-1.7,6.6-5.1,8.1-9.1c0.7-1.9,1.2-3.8,1.7-5.7C909.9,1059.4,910.6,1056.5,908.7,1055.1z"/>
						</g>
						<path id="XMLID_265_" class="st41" d="M981,1085.8c12.1-4.5,12-17.5,13-20.2c0.4-1.2,1.2-4.5,2.1-8.5
							c-2.6-20.3-15.8-44.4-28.5-47l-62,13.4c0,0-64.5,10.9-67,10.9c6.7,5.4,61.2-4.2,88.8-2.3c27.6,1.9,40.2,55.1,40.2,55.1
							C972.6,1087.1,977.1,1086.7,981,1085.8z"/>
					</g>
					<g id="XMLID_266_">
						<path id="XMLID_267_" class="st42" d="M1079.8,1049.4c-15.2,30.1-94.6,44.4-99.7,42.6c6.6-15.3,6.9-30.2,4.5-42.9
							c-4.2-22.9-17-39-17-39s0,0,35.7-14.9c35.6-14.9,43.9-99.9,49.8-135.1c5.9-35.2,23.1-51.1,23.1-51.1
							c-1.7,2.5,3.4,58.8,6.7,116.8C1085.8,979.6,1087.1,1034.9,1079.8,1049.4z"/>
						<path id="XMLID_268_" class="st43" d="M1079.8,1049.4c-15.2,30.1-94.6,44.4-99.7,42.6c6.6-15.3,6.9-30.2,4.5-42.9
							c14.4-4,35.2-10.2,51.5-20.8c27.9-18.3,27.8-122.3,27.8-122.3s9.2-3.2,9,0c-0.1,1.4,4.6,10.2,9.8,19.8
							C1085.8,979.6,1087.1,1034.9,1079.8,1049.4z"/>
						<path id="XMLID_269_" class="st44" d="M936.3,1010.1c3.1,0.6,52.8,36.6,31.4,77.1c0,0,13.9,12.7,28.9-2
							c15.1-14.7,16.3-30.4,9.1-44.9s-27.3-38.3-38-37.1C957,1004.4,936.3,1010.1,936.3,1010.1z"/>
					</g>
					<g id="XMLID_270_">
						<path id="XMLID_271_" class="st45" d="M1136.1,760.5c0,0-50.6,27.8-61.5,47.9s-11.7,151.2-13.8,194.8
							c-2.1,43.6-43.6,151.2-43.6,151.2l38.5,19l10.1,5.1c0,0,38-71,42.6-110.8c4.6-39.8-16.3-163.4,1.7-220.8
							C1128.2,789.5,1136.1,760.5,1136.1,760.5z"/>
						<path id="XMLID_272_" class="st46" d="M1083.5,819.9l10.4-31.7c-8.5,6.7-15.8,13.8-19.3,20.2
							c-10.9,20.1-11.7,151.2-13.8,194.8c-2.1,43.6-43.6,151.2-43.6,151.2l38.5,19l10.1,5.1c0,0,38-71,42.6-110.8
							c0.7-6.2,0.8-14.5,0.5-24.3c-1.3-1.5-2.6-3-4-4.4C1048.1,983.7,1083.5,819.9,1083.5,819.9z"/>
					</g>
					<g id="XMLID_273_">
						<path id="XMLID_274_" class="st47" d="M1123.5,779.9c0,0-33.5,34.1-30.2,114.5s14.6,159.7-0.2,197.6
							c-14.8,37.9-35.8,82-35.8,82s13.4,7,50.3,24.6c36.9,17.6,77.2,20.9,75.9,18.4c-1.3-2.5,13.1-90.5,0-152.5
							c-13.1-62-32.4-112.3-27.3-152.5c5.1-40.2,84.6-158.2,84.6-158.2l-10-7.7c0,0-55.1,23.5-81.8,23.5
							C1145.3,769.6,1123.5,779.9,1123.5,779.9z"/>
						<path id="XMLID_275_" class="st48" d="M1183.4,1217c-1.3-2.4,12.2-85.2,1.1-146.8c-129.2-98.7-64.1-286.7-61.1-290.3
							c0,0-33.5,34.1-30.2,114.5s14.6,159.7-0.2,197.6c-14.8,37.9-35.8,82-35.8,82s13.4,7,50.3,24.6S1184.7,1219.5,1183.4,1217z"/>
					</g>
					<path id="XMLID_276_" class="st42" d="M1121,746.2c-23.6,16.3-41.2,39.9-41.2,39.9s7.2,30.8,1.9,40.8l11.9-9.4
						c0,0-14.1,28.9-11,47.4c3.1,18.5,10.5,24.5,10.5,24.5s6.4-82.9,30.3-109.5s45.2-41,45.2-41S1144.5,729.8,1121,746.2z"/>
					<path id="XMLID_277_" class="st49" d="M1097,808.2c-0.3-1.9-0.8-3.8-1.1-5.7c-0.3-1.9-0.5-3.9-0.9-5.8
						c-0.6-3.3-1.7-6.8-4.4-9.1c-2.1-1.8-5.1-2.6-7.7-1.5c-0.6,0.2-0.2,1.1,0.4,0.9c3-1,6.1,0.6,7.8,3.1c1.8,2.6,2.3,5.8,2.8,8.8
						c0.4,3,1,5.9,1.6,8.8c0.5,3,0.5,6.1-1.6,8.6c-0.6,0.8,0.6,1.6,1.2,0.8C1097.2,814.7,1097.4,811.3,1097,808.2z"/>
					<g id="XMLID_278_">
						<path id="XMLID_279_" class="st22" d="M1209,653.2c0,0,1.6,37.7,21.9,56.3c20.2,18.6,10,44.3,10,44.3s-73.9,40.1-100.2,30.9
							l-17.1-4.7c0,0,15.6-9.3,14.9-26.1c-0.7-16.9-14.9-29.6-14.9-29.6l66.8-78.5C1190.3,645.6,1205.8,633,1209,653.2z"/>
						<path id="XMLID_280_" class="st10" d="M1205.7,659c1.7-3.3,2.4-6.4,2.5-9.3c-4.3-15.2-17.9-4.1-17.9-4.1l-66.8,78.5
							c0,0,14.2,12.8,14.9,29.6c0.2,4.5-0.8,8.5-2.4,11.9c0,0,0,0,0,0C1190.7,753.2,1205.7,659,1205.7,659z"/>
					</g>
					<path id="XMLID_281_" class="st26" d="M1016.7,1091.4c-0.8-0.2-1.6-0.4-2.5-0.5c-0.2,0-0.5,0.1-0.5,0.3c0,0.2,0.1,0.5,0.3,0.5
						c0.9,0.1,1.7,0.2,2.6,0.3c0.2,0,0.3-0.1,0.3-0.3C1017,1091.6,1016.9,1091.4,1016.7,1091.4z"/>
					<path id="XMLID_282_" class="st22" d="M1025.9,534.2c0,0-8.6,47.3-6.1,56.9c2.5,9.5,1,34.7,0,63.3c-1,28.6,38,92.3,100.4,79.5
						c62.4-12.8,79.1-67.4,79.1-67.4l2-6.2c0,0,39.9-20.7,49.6-66.6c9.7-45.9-3.3-127.4-106-132.6
						C1042.2,455.9,1025.9,534.2,1025.9,534.2z"/>
					<g id="XMLID_283_">
						<path id="XMLID_284_" class="st11" d="M1126.6,571.1c-2.6-2-5.9-2.8-9-3.6c-3.2-0.8-6.3-1.6-9.6-1.7c-3-0.1-6,0-8.9,0.3
							c-3.3,0.4-6.4,1.2-9.5,2.4c-1.2,0.4-2,1.4-1.8,2.7c0.1,1.1,1.2,2.3,2.4,2.2c3.6-0.4,7.3-0.7,11-0.8c1.9-0.1,3.8-0.1,5.6,0.1
							c1.8,0.1,3.6,0.4,5.3,0.3c4,0.5,8.7,2.1,13,2.2C1127.3,575.2,1128.5,572.5,1126.6,571.1z"/>
						<path id="XMLID_285_" class="st11" d="M1042.8,571.6c-2.5-2.1-5.3-3.4-8.5-3.9c-1.7-0.3-3.5-0.4-5.3-0.2
							c-0.9,0.1-1.8,0.3-2.6,0.6c-0.3,0.1-0.6,0.2-0.9,0.3c-0.5,0.2-1,0.4-1.4,0.7c-0.5,0.4-0.6,0.8-1,1.4c-0.6,0.9-0.1,2.3,1,2.6
							c0.7,0.4,1.4,0.5,2.1,0.4c0.2,0,0.4-0.1,0.6-0.1c0.4-0.1,0.9-0.1,1.4-0.2c0.6-0.1,1.2-0.2,1.9-0.2c0.6-0.1,1.2-0.1,1.8-0.1
							c0.1,0,0.4,0,0.5,0c0.3,0,0.5,0,0.8,0.1c2.6,0.3,5.3,1.2,7.6,2.5c0.9,0.5,2.3-0.1,2.7-1
							C1043.9,573.5,1043.7,572.3,1042.8,571.6z"/>
						<path id="XMLID_286_" class="st11" d="M1041.4,640.2c-1-0.6-3.8-2.1-3.7-3.4c0.2-1.4,2.4-2.8,3.3-3.6c1.7-1.4,3.3-3,4.7-4.7
							c5.1-5.8,9.4-12.6,9.7-20.6c0.1-1.3-1.8-1.6-2.1-0.3c-1.5,9.3-8.1,15.7-15.1,21.3c-3.5,2.8-8.4,7.1-4.7,11.8
							c1.3,1.7,3.4,3,5.2,4.1c2.2,1.3,4.4,2.5,6.9,1.9c1.2-0.3,1.5-1.5,0.9-2.4C1045.4,642.3,1043.4,641.5,1041.4,640.2z"/>
						<path id="XMLID_287_" class="st11" d="M1121.6,664.3c-6.5,2.6-12.6,5.8-19.3,8c-7.5,2.5-15.4,3.9-23.3,4c-2.3,0-2,3.5,0.3,3.6
							c7.5,0.2,15-0.5,22.2-2.5c7.8-2.1,15.7-5.3,21.6-10.9C1124.1,665.6,1122.9,663.8,1121.6,664.3z"/>
						<path id="XMLID_346_" class="st11" d="M1107.6,599c0,6.3-2.3,11.4-5.1,11.4c-2.8,0-5.1-5.1-5.1-11.4s2.3-11.4,5.1-11.4
							C1105.3,587.6,1107.6,592.7,1107.6,599z"/>
						<path id="XMLID_345_" class="st11" d="M1041.1,597.2c0,5.3-2,9.6-4.4,9.6c-2.4,0-4.4-4.3-4.4-9.6c0-5.3,2-9.6,4.4-9.6
							C1039.2,587.6,1041.1,591.9,1041.1,597.2z"/>
					</g>
					<path id="XMLID_288_" class="st10" d="M1025.9,534.2c0,0-8.6,47.3-6.1,56.9c2.5,9.5,1,34.7,0,63.3c-0.4,12.1,6.4,30.5,19,46.8
						c-5.3-9.6-12.8-22.6-14.8-29c-3.4-10.9-3.3-40.2-1.1-50.7c2.3-10.5,0-33.8,0-33.8s6.6-41.4,13.9-38.7
						c7.3,2.8,36.6,1.4,36.6,1.4l-14.7-22.7c1,1.5,8.2,11.8,26.6,21.3c19.9,10.3,35.8,1.6,35.8,1.6l6.5-22.2l42.5-6
						c0,0,9.4-26.6,13.4-31.5c3.3-4.1-3.9-19.7-6.4-25c-9.6-2.5-20.3-4.1-32.2-4.8C1042.2,455.9,1025.9,534.2,1025.9,534.2z"/>
					<path id="XMLID_289_" class="st11" d="M1019.7,453.3c0,0-32.2,28.6-7.9,65c24.3,36.4,61.5,32.1,61.5,32.1s-26.8-37.3-14.7-31.2
						c12.1,6.1,44.1,34.1,62.4,31.4c18.3-2.8,13.9-13.2,13.9-13.2s10.5,8.7,20,8.7c9.5,0,22.5,23.4,22.5,36.4s0,26.9,0,26.9l4.8,7.8
						c0,0,10.6,53,28.8,50.4c0,0,26.2-15.1,45.3-67.8c8.2-22.6,13-78,13-78s2.6,13.9,13,13c10.4-0.9,1.7-32.1-8.7-45.1
						c-10.4-13-44.3-43.3-126.2-56.3C1065.6,420.3,1019.7,453.3,1019.7,453.3z"/>
					<circle id="XMLID_341_" class="st22" cx="1199.3" cy="621.4" r="27.2"/>
					<g id="XMLID_290_">
						<path id="XMLID_291_" class="st50" d="M1243.4,511.3c0,0,1.4,0,3.5,0C1244.7,511.2,1243.4,511.3,1243.4,511.3z"/>
						<path id="XMLID_292_" class="st50" d="M1147.4,433.3c-49.1-7.8-85.2,0.9-106.3,9.2l0,0c0,0,101.6-15.3,179.5,27.7
							c65.4,36.1,37,40.6,26.2,41.1c7.3,0.2,23.6,2.3,24.9,17.1c1.9,3.4,5.2,6.8,10.5,6.3c10.4-0.9,1.7-32.1-8.7-45.1
							C1263.2,476.7,1229.3,446.3,1147.4,433.3z"/>
					</g>
					<g id="XMLID_293_">
						<path id="XMLID_294_" class="st45" d="M1259.4,728c0,0,68.5,27.4,92,50c23.5,22.6,39.4,135.7,38.5,180.1
							c-0.8,44.4-26,268.1-32.7,283.2c-6.7,15.1-23.5,29.3-23.5,29.3l-169.2-45.8c0,0,23.6-73.2,5.5-150.3
							c-18.1-77.1-38.4-129.9-29.5-162.5c8.9-32.7,68.4-162.5,83.5-174.3C1239.1,726.1,1259.4,728,1259.4,728z"/>
						<path id="XMLID_295_" class="st46" d="M1316.2,1138.5c0,0-88.3-37.8-131.9-110.2c-43.6-72.4-12.2-171.2-12.2-171.2l-20.4,24.2
							c-5.3,13.1-9.3,24-11.1,30.8c-8.9,32.7,11.4,85.5,29.5,162.5c18.1,77.1-5.5,150.3-5.5,150.3l169.2,45.8
							c0,0,16.8-14.2,23.5-29.3c2.3-5.2,6.9-35.6,11.8-74.8C1344.6,1153.1,1316.2,1138.5,1316.2,1138.5z"/>
						<path id="XMLID_296_" class="st42" d="M1251.5,720.1l-14.9-8.7c-5.5-3.2-12.4-2.3-16.8,2.1c-11.2,11.1-33.2,33.2-54.4,56.2
							c-30.2,32.7-27.6,41.9-19.3,47.8c8.4,5.9,11.7,15.1,11.7,15.1s-4.1,19.5-12.6,37.7c-13.4,28.8-7.5,66.6-7.5,66.6
							s1-37.7,23.4-59.1c25.6-24.3,27.6-59.5,27.6-59.5l19.3,23.5c0,0,14.2-13.4,23.5-43.6c5.9-19.2,17.9-42.4,25.8-56.8
							C1261.6,733.8,1259,724.4,1251.5,720.1z"/>
						<path id="XMLID_297_" class="st49" d="M1189.9,818.1c-4.8-3-9.5-6-14.3-8.9c-4.3-2.6-8.5-5.6-13.2-7.4c-3.3-1.3-9.7-3-11.9,1
							c-2.3,4.2,1.8,8.3,4.2,11.3c2,2.4,3.9,4.8,5.9,7.2c1.9,2.3,3.8,4.8,5.9,7c0.7,0.7,1.8-0.3,1.3-1c-1.7-2.5-3.8-4.8-5.7-7.2
							c-1.9-2.4-3.8-4.7-5.7-7.1c-1.7-2.1-4.4-4.5-4.5-7.4c-0.2-3.6,3.7-3.5,6.3-3.1c5.6,1,10.5,4.7,15.3,7.6
							c5.1,3.2,10.2,6.3,15.3,9.4C1189.7,820.1,1190.9,818.7,1189.9,818.1z"/>
					</g>
					<g id="XMLID_298_">
						<g id="XMLID_299_">
							<path id="XMLID_300_" class="st22" d="M1291.8,1098.5c0,0-154.9-14.9-158.3-14.9s-118.1-3.4-118.1-3.4s-90.7,22.5-98.9,30.2
								c-11.7,11,0,13.9,0,13.9s-22.6,9.6-20.1,19.6c2.5,10.1,62-12.6,74.6-9.2c12.6,3.4-64.5,35.2-51.1,52.8c0,0,5.9,3.4,32.7-7.5
								c0,0-14.2,9.2-7.5,13.4c6.7,4.2,72.9-22.6,72.9-22.6s73.7-0.8,94.7-20.9l155.2,35.4c0,0,31.6-19.9,41.6-48.2
								C1319.5,1108.8,1291.8,1098.5,1291.8,1098.5z"/>
							<path id="XMLID_331_" class="st26" d="M1009,1145.9c-8.9,0.3-17,4.8-24.2,9.9c-7.2,5.2-13.6,11.4-20.8,16.6
								c-2,1.5-4.1,2.9-6.2,4.2c-2.3,1.4-4.8,2.3-7,3.7c-0.6,0.4-0.1,1.5,0.6,1.3c4.2-0.9,8.3-3.7,11.8-6.1
								c3.5-2.4,6.9-5.1,10.2-7.9c6.7-5.6,13.3-11.5,21-15.6c4.6-2.4,9.5-4.1,14.6-4.9C1009.9,1147.1,1009.9,1145.8,1009,1145.9z"/>
							<path id="XMLID_301_" class="st26" d="M1003,1117.4c-2.4-1.5-5.4-0.8-7.7,0.6c-2.9,1.7-5.1,4.3-7.6,6.5
								c-5.3,4.6-11.6,8.1-16.7,13c-0.6,0.5,0.2,1.3,0.9,1c3-1.7,5.7-3.8,8.5-5.8c2.4-1.8,4.9-3.5,7.3-5.3c2.2-1.7,4.1-3.6,6.1-5.4
								c2.7-2.3,5.3-3.3,8.8-3.1C1003.3,1118.8,1003.6,1117.8,1003,1117.4z"/>
							<path id="XMLID_302_" class="st26" d="M1004.8,1090.1c-9.6,7.4-20.2,12.9-31.6,16.8c-12.1,4.1-24.6,6.7-37,10
								c-3.5,0.9-7,1.9-10.5,3c-3.5,1.2-7.5,2.2-10.6,4.2c-0.5,0.3-0.3,1.2,0.4,1.1c3.3-0.7,6.4-2.1,9.5-3c3.2-1,6.5-1.9,9.7-2.8
								c6.5-1.8,13.1-3.3,19.6-5c11.9-3,23.8-6.4,34.8-11.9c6-3,11.7-6.7,16.4-11.6C1006,1090.5,1005.4,1089.7,1004.8,1090.1z"/>
							<path id="XMLID_303_" class="st41" d="M1123.5,1083.4L1123.5,1083.4c0,0,44.5,3.4,70.4,20.5c25.9,17.2,16.3,68.2,16.3,68.2
								l30.2,6.9c5.8-1.9,9.4-5,9.4-5l18.6-15.7l10.9-50.7l-10.6-11.4c-43.3-4.1-132.7-12.7-135.2-12.7
								C1132.9,1083.6,1129.2,1083.5,1123.5,1083.4z"/>
						</g>
						<g id="XMLID_304_">
							<g id="XMLID_305_">
								<path id="XMLID_306_" class="st42" d="M1334.6,780.3c-2.5,0.3-52.8,29.3-65.3,83.8c-12.6,54.5,23.2,218.2,10.7,223.3
									c-12.6,5-41.7-3.8-46.7,1.3c-5,5,20.8-2.5,26.7,22.6c5.9,25.1-9.7,50.7-27.4,64.1c-17.7,13.4,100.2,53.6,140.3,25.1
									c40.2-28.5,44.6-116,44.6-116S1425.9,767.7,1334.6,780.3z"/>
								<path id="XMLID_307_" class="st43" d="M1298.9,809c-12.3,13.7-24.3,32.1-29.6,55.1c-12.6,54.5,23.2,218.2,10.7,223.3
									c0,0,22,0.6,31.7-5.3c9.7-6-6.3-57.7-22.2-139.8C1273.6,860.2,1298.8,809.2,1298.9,809z"/>
								<path id="XMLID_308_" class="st43" d="M1267.8,1185.2c0,0-11.4,2.8-20.7,6.6c30.9,14.7,97.6,28.7,125.9,8.6
									c7.8-5.5,14.2-13.2,19.5-22.1C1343.5,1205.9,1272.6,1181.9,1267.8,1185.2z"/>
							</g>
							<path id="XMLID_309_" class="st44" d="M1217.7,1085.5c1.9,2,22.2,22.6,13.1,55.9c-9.1,33.3-20.6,40.3-20.6,40.3
								s3,11.5,23,12.2c20,0.7,32.1,1.1,39.7-12.2c7.7-13.2,28.3-59,7.6-84.2C1259.8,1072.3,1217.7,1085.5,1217.7,1085.5z"/>
						</g>
					</g>
				</g>
			</g>
		</g>
	</g>
	<g id="XMLID_103_">
		<g id="XMLID_104_">
			<g id="XMLID_105_">
				<path id="XMLID_106_" class="st9" d="M1542.9,876.9l-44.2,254.2c0,0-42.7,19.6-55.9,53.1c-11.3,28.7-18.9,54.2-10.1,53.6
					s13.4,3.6,23.5-18.4c10.1-22,24.2-21.3,40.2-15.5c22.5,8.1,37.3,39,37.3,39s-2.1,17.4,1,37.2c3.1,19.8,16.3,15.7,18.9,7.9
					c2.5-7.9,11.3-13.8,16.3-21.4c5-7.5,8.8-16.3,10.7-20.7c1.9-4.4,10-5,10.3-12.6c0.3-7.5,1-11.3,4.1-17.6
					c3.1-6.3-9.9-45.9-17.5-60.9c-0.1-3.1-2.4-8.2,0-20.7c2.4-12.6,67.9-242.5,67.9-242.5l14-61.6l-100.9-15.7L1542.9,876.9z"/>
				<path id="XMLID_107_" class="st10" d="M1558.6,814.2l-15.7,62.7l-5.1,29.6c17.5,4.9,51.8,13.9,53.2,11.3
					c1.8-3.4,10.2-14.2,10.2-14.2s-0.8,20.1,0,19.3c0.4-0.5,18.3,1.9,34.2,4.1c6.1-21.4,10.1-35.5,10.1-35.5l14-61.6L1558.6,814.2z"
					/>
			</g>
			<g id="XMLID_108_" class="st51">
				<path id="XMLID_109_" class="st23" d="M1561.3,1226c-2.3-5.2-5.8-9.8-9.8-13.8c-2.2-2.2-4.6-4.3-7.1-6.2
					c-2.6-1.9-5.2-3.9-8.1-5.4c-0.7-0.3-1.3,0.7-0.7,1.2c2.1,1.8,4.5,3.2,6.7,4.9c2.3,1.7,4.5,3.6,6.6,5.5c4,3.8,7.5,8.2,10,13.1
					c5.8,11.6,4.3,25.1,1.6,37.3c-1.6,7.5-3.8,14.9-6,22.3c-0.4,1.3,1.7,1.8,2,0.5c3.9-13.3,8.3-27.2,8.3-41.2
					C1564.8,1238,1563.8,1231.7,1561.3,1226z"/>
				<path id="XMLID_110_" class="st23" d="M1580.4,1237.6c-0.5-3.7-1.2-7.3-2.2-10.8c-1-3.4-2.1-6.7-3.6-9.8
					c-0.7-1.6-1.5-3.2-2.4-4.8c-0.7-1.4-1.4-2.8-2.6-3.9c-0.4-0.4-1.1-0.1-1,0.5c0.5,1.6,1.5,3.1,2.3,4.6c0.8,1.6,1.6,3.3,2.3,5
					c1.3,3.2,2.5,6.5,3.4,9.8c0.8,3.2,1.5,6.4,1.9,9.6c0.4,3.6,0.4,7.2,0.6,10.8c0.1,1.1,1.8,1,1.8-0.1
					C1581.2,1244.8,1580.8,1241.1,1580.4,1237.6z"/>
				<path id="XMLID_111_" class="st23" d="M1590.2,1215.5c-0.4-1.9-0.8-3.9-1.4-5.8c-0.5-1.9-1.1-3.9-2.1-5.5
					c-0.3-0.5-1.2-0.3-1,0.4c0.4,1.9,1.2,3.8,1.7,5.7c0.5,1.8,0.9,3.6,1.2,5.4c0.7,3.9,1,7.8,0.9,11.7c0,1.1,1.6,1,1.7,0
					C1591.2,1223.4,1590.9,1219.4,1590.2,1215.5z"/>
			</g>
		</g>
		<g id="XMLID_112_">
			<path id="XMLID_113_" class="st4" d="M1660.3,392.5c0,0-52.5-58.6-96.9-10.9c-44.4,47.8-18.4,202.7-25.1,266.4
				c-6.7,63.7-6.7,134.9-6.7,134.9l12.6,11.7l-12.6,77.9c0,0,37.7,16.8,72,13.4l11.5-33.5v34c0,0,41.2,7.9,43.7,5.4
				c2.5-2.5,0-50.3,0-50.3s20.9-18.4,23.5-41.1c2.5-22.6,7.5-113.1,14.2-191C1703.3,531.6,1712.2,437.7,1660.3,392.5z"/>
			<g id="XMLID_114_" class="st52">
				<path id="XMLID_115_" class="st4" d="M1657,806.7c0,0-0.9,0.8-2.3,2.1C1655.5,808.2,1656.3,807.5,1657,806.7z"/>
				<path id="XMLID_116_" class="st4" d="M1643,830.2c-4.6-4.9,6.6-16.6,11.7-21.4c-8.4,6.4-24.2,5.3-24.2,5.3s-2.5-2.3,6.3-8.5
					c8.8-6.2,9.3-26,9.3-26s-1.3,1.1-34.7,18.5c-33.4,17.4-58.6-0.7-58.6-0.7c-14.9-5.4,0.2-79.4,1.4-105.2
					c1.2-25.8-3.7-108.7,0-197.9c3.7-89.2,23.4-118.5,23.4-118.5l6.6-9.3c-7,2.9-13.9,7.7-20.7,15c-44.4,47.8-18.4,202.7-25.1,266.4
					c-6.7,63.7-6.7,134.9-6.7,134.9l12.6,11.7l-12.6,77.9c0,0,37.7,16.8,72,13.4l11.5-33.5v34c0,0,41.2,7.9,43.7,5.4
					c2.5-2.5,0-50.3,0-50.3S1648.9,836.5,1643,830.2z"/>
			</g>
			<g id="XMLID_117_">
				<path id="XMLID_118_" class="st6" d="M1658.1,766.3c-3.7,2.7-7.1,5.9-10.6,8.8c-3.4,2.8-6.9,5.5-10.4,8.1
					c-7,5.1-14.5,9.7-22.4,13.3c-14.7,6.7-31.2,9.6-47.1,6.2c-8.5-1.8-16.4-5.5-23.3-10.8c-1-0.7-2,0.7-1.1,1.5
					c12.2,11,29.9,14.4,45.9,12.8c17.4-1.7,33.5-9.5,47.6-19.6c4-2.9,7.8-5.9,11.6-9.1c3.8-3.2,7.8-6.5,11-10.4
					C1659.9,766.6,1658.8,765.9,1658.1,766.3z"/>
				<path id="XMLID_119_" class="st6" d="M1659.1,803c-1.8,0.7-3.6,2-5.3,2.9c-2.2,1.1-4.4,2.1-6.7,3c-4.3,1.5-8.7,2.5-13.3,2.9
					c-9.4,0.8-19.1-1.2-27.4-5.7c-1.1-0.6-2.2,0.9-1.1,1.6c8.5,5,18.4,7,28.2,6.4c4.9-0.3,9.7-1.3,14.3-2.9c2.1-0.7,4.1-1.6,6.1-2.7
					c2.1-1.1,4.6-2.5,6.1-4.4C1660.7,803.4,1659.8,802.8,1659.1,803z"/>
			</g>
			<path id="XMLID_120_" class="st6" d="M1590.9,853.8c-0.5-2.1-2.7-3.9-5.8-4.2c-1-0.1-1,0.9-0.1,1c4,0.5,5.8,4.7,2.4,6.3
				c-1.6,0.8-3.8,0.8-5.5,0.2c-1.7-0.6-2.6-1.8-2.4-3.2c0.1-0.8,0.6-1.5,1.3-2.1c0.3-0.3,0.8-0.5,1.2-0.7c0.3-0.1,0.7-0.3,1-0.4
				c0.3-0.1,0.7-0.2,1-0.3c0.6-0.2,0.2-0.8-0.3-0.9c-0.7-0.1-1.7,0.1-2.3,0.3c-0.6,0.2-1.1,0.5-1.6,0.8c-0.9,0.7-1.7,1.5-2,2.4
				c-0.7,1.8,0.1,3.8,2.4,4.9c2.1,1,5,1.1,7.3,0.3C1590,857.5,1591.3,855.7,1590.9,853.8z"/>
		</g>
	</g>
</g>
</svg>
