<?xml version="1.0" encoding="utf-8"?>
<!-- Generator: Adobe Illustrator 27.6.1, SVG Export Plug-In . SVG Version: 6.00 Build 0)  -->
<svg version="1.1" id="Layer_1" xmlns="http://www.w3.org/2000/svg" xmlns:xlink="http://www.w3.org/1999/xlink" x="0px" y="0px"
	 viewBox="0 0 1920.9 1041.5" style="enable-background:new 0 0 1920.9 1041.5;" xml:space="preserve">
<style type="text/css">
	.st0{fill:#F6E4CF;}
	.st1{clip-path:url(#Path_66288_00000101796903456817001480000014676242534393091722_);}
	.st2{fill:#E6F3FF;}
	.st3{opacity:0.5;fill:#FFFFFF;}
	.st4{fill:#DDBBA8;}
	.st5{fill:#005254;}
	.st6{fill:#FFA29A;}
	.st7{fill:#523300;}
	.st8{fill:#351E00;}
	.st9{fill:#006666;}
	.st10{fill:#007676;}
	.st11{fill:#704500;}
	.st12{clip-path:url(#Path_66288_00000060713894581095435500000005140579447737966759_);}
	.st13{fill:#562B1C;}
	.st14{fill:#6B3426;}
	.st15{fill:#FCE5D6;}
	.st16{fill:#9B6E5A;}
	.st17{fill:#BC9480;}
	.st18{fill:#5B7F61;}
	.st19{fill:#95B79C;}
</style>
<path id="Path_66288" class="st0" d="M0,1041.5h1920.9V673.8c0,0-295.1-176.7-838.9-134C538.2,582.5,0,290.3,0,290.3V1041.5z"/>
<g>
	<defs>
		<path id="Path_66288_00000160156719306184021910000008984662759074585491_" d="M0,1041.5h1920.9V673.8c0,0-295.1-176.7-838.9-134
			C538.2,582.5,0,290.3,0,290.3V1041.5z"/>
	</defs>
	<clipPath id="Path_66288_00000005238827805718051140000010789779532103754907_">
		<use xlink:href="#Path_66288_00000160156719306184021910000008984662759074585491_"  style="overflow:visible;"/>
	</clipPath>
	<g style="clip-path:url(#Path_66288_00000005238827805718051140000010789779532103754907_);">
		<g>
			<rect x="6.8" y="298.3" class="st2" width="849.1" height="539.5"/>
			<g>
				<polygon class="st3" points="85.9,729.9 314.3,545.8 322,539.6 334.5,529.5 343.7,522.1 579.8,331.8 601.5,314.3 621.4,298.3 
					405.6,298.3 343.7,348.1 322,365.7 118.8,529.5 98.5,545.8 85.9,555.9 64.2,573.5 6.8,619.7 6.8,793.6 64.2,747.4 				"/>
				<polygon class="st3" points="579.8,389 405.5,529.5 385.3,545.8 343.7,579.3 322,596.8 85.9,787.1 64.2,804.6 52.3,814.2 
					23,837.8 318.6,837.8 342.3,818.7 343.7,817.5 347.9,814.2 579.8,627.3 601.5,609.7 680.8,545.8 701.1,529.5 837.9,419.2 
					856,404.6 856,298.3 692.4,298.3 601.5,371.5 				"/>
			</g>
		</g>
		<g>
			<g>
				<polygon class="st4" points="856,311 856,298.3 837.7,298.3 837.9,419.2 838,529.5 838,545.8 838.3,814.2 6.8,814.2 6.8,837.8 
					856.5,837.8 				"/>
			</g>
		</g>
		<g>
			<g>
				<rect x="322" y="298.3" class="st4" width="21.8" height="520.4"/>
			</g>
			<g>
				<rect x="64.2" y="298.3" class="st4" width="21.8" height="520.4"/>
			</g>
			<g>
				<rect x="579.8" y="298.3" class="st4" width="21.8" height="515.9"/>
			</g>
			<g>
				<rect x="6.8" y="529.5" class="st4" width="849.1" height="16.3"/>
			</g>
		</g>
	</g>
</g>
<g>
	<g>
		<polygon class="st5" points="600,1048.9 595.9,1933.4 479.8,1921.9 449.4,1245.6 431.3,1233.6 306.8,1922.9 196.4,1907 
			286.2,1035.1 		"/>
	</g>
	<g>
		<path class="st6" d="M467.5,366.4c30.7-8.1,62.3,8.7,73.6,38.4c1.9,5.1,4.1,9.7,6.4,13.2c11,16.4,25.3,9.6,29.4,14.4
			c4.1,4.8-7.5,23.3-7.5,23.3s14.8,71.9,8.4,90.3c-6.4,18.5-62.5,16.4-62.5,16.4L510,622l-88.3-19.2v-55.4c0,0-42.4-80.8-45.9-115.7
			C373.5,407.8,419.8,379,467.5,366.4z"/>
	</g>
	<g>
		<path class="st7" d="M503.1,373.4c0,0-6.3,16.9-25.5,30.8c-19.2,13.9-25.8,14.4-25.8,14.4s24.6,18,25.7,33.4
			c1,15.4-4.1,27.2-4.1,27.2s-14.9-17.5-29.3-16.4c-14.4,1-17.5,22.6-3.1,44.1c14.4,21.6,34.4,16.9,34.4,16.9s-19.2,29.3-53.7,23.6
			c0,0-54.6-71.9-62.3-91.4c-7.7-19.5,4.6-29.8,4.6-29.8s-13.3,0.5-14.4-5.6c-1-6.2,20-6.7,20-6.7s-6.2-13.3,1.5-22.1
			c7.7-8.7,10.8,6.7,10.8,6.7s25.7-52.9,70.8-66.7c45.2-13.9,44.1,2.6,44.1,2.6s26.7-7.2,37.5,8.2c10.8,15.4,0,27.7,0,27.7
			s5.5,6.2,4.8,12.8c-0.7,6.7-3.4,11-3.4,11S521.1,374.4,503.1,373.4z"/>
	</g>
	<g>
		<path class="st7" d="M504.1,422c2.7,0,6.7-0.5,10.9-2.8c7.7-4.2,7.1-12.9,7.1-13.3c-0.1-1.2-1.1-2.1-2.4-2c-1.2,0.1-2.1,1.1-2,2.3
			c0,0.3,0.4,6.3-4.8,9.1c-5.7,3.1-11,2.1-11.1,2.1c-1.1-0.2-2.3,0.5-2.6,1.7c-0.2,1.2,0.5,2.3,1.7,2.6
			C501.1,421.7,502.3,422,504.1,422z"/>
	</g>
	<g>
		<path class="st7" d="M523.1,435.7c1.7,4.5,4.8,7.5,7,6.7c2.2-0.8,2.6-5.1,1-9.7c-1.7-4.5-4.8-7.5-7-6.7
			C521.9,426.8,521.5,431.1,523.1,435.7z"/>
	</g>
	<g>
		<path class="st7" d="M471.5,509.3c0.1,0,0.2,0,0.3,0c1.2-0.2,2-1.3,1.8-2.5c-3.7-24.4-30.3-34.2-31.4-34.6
			c-1.1-0.4-2.4,0.2-2.8,1.3c-0.4,1.1,0.2,2.4,1.3,2.8c0.3,0.1,25.3,9.4,28.6,31.1C469.5,508.5,470.5,509.3,471.5,509.3z"/>
	</g>
	<g>
		<path class="st7" d="M456.5,506.2c0.1,0,0.3,0,0.4,0c1.2-0.2,2-1.3,1.8-2.5c0-0.1-1.8-10.6,3.8-14.7c1-0.7,1.2-2.1,0.5-3
			c-0.7-1-2.1-1.2-3-0.5c-7.8,5.7-5.6,18.4-5.5,19C454.6,505.4,455.5,506.2,456.5,506.2z"/>
	</g>
	<g>
		<polygon class="st7" points="391,597 284.5,631.6 284.5,1046.7 599.5,1057.7 622.5,643.7 508.7,602 		"/>
	</g>
	<g>
		<path class="st7" d="M622.5,643.7l106.1,136.5l-53.1,87.6l-76.8-52.7C598.7,815.2,603.9,661.5,622.5,643.7z"/>
	</g>
	<g>
		<path class="st6" d="M651.8,546.9c0,0-11.1-28.6-19.3-36c-8.2-7.4-28.6-0.7-33.8,5.9c-5.2,6.7,1.1,10.5,6.7,10.4
			c5.6,0,17.1-1.5,17.1-1.5l6.3,21.1c0,0-14.8-5.2-24.5,0c-9.6,5.2-5.6,16-5.6,16s-8.9,0-13,6.7c-4.1,6.7,0,14.1,0,14.1
			s-9.6,2.2-10,14.1c-0.4,11.9,7.4,27.5,14.8,30.8c7.4,3.3,12.6,6.3,17.4,3.7c4.8-2.6,0.4-13.7-6.7-14.8l-2.6-10l16.7,8.2
			c0,0,2,17.6,19.9,36.5l50.6-38.8C685.9,613.3,669.6,569.2,651.8,546.9z"/>
	</g>
	<g>
		<path class="st6" d="M685.9,613.3c0,0,82.9,150.6,91.3,191.8c8.3,41.2-10.6,69.6-45.6,59c-35.1-10.6-96.3-212.1-96.3-212.1
			S663.7,616.3,685.9,613.3z"/>
	</g>
	<g>
		<path class="st6" d="M508.7,602l36.9,13.5c0,0-5.8,31.2-73.2,33.4c-67.3,2.2-96.9-46.9-96.9-46.9l49.6-18.1L508.7,602z"/>
	</g>
	<g>
		<path class="st6" d="M759.6,863.3c0,0-28.7,24.9-84,4.5l39.3-63.8L759.6,863.3z"/>
	</g>
	<g>
		<path class="st6" d="M71.1,853.8l77.8-74.2l77.8,74.2l-78,49.1c36.4,34.8,97.8,95.9,122.1,122.4l42.8,6.9c0,0,12.4,3.7,21.5,12.2
			c9.1,8.5,11.9,20,6.7,21.7c-5.2,1.7-13.2-7.4-18-13.2l-21.9-5.2l-0.2,0.3c4.4,1.9,15.2,6.8,22.3,13.5c9.1,8.5,11.9,20,6.7,21.7
			c-5.2,1.7-13.2-7.4-18-13.2l-19.8-4.7c4.4,1.9,10.9,5.2,16.3,10.3c9.1,8.5,11.9,20,6.7,21.7c-5.2,1.7-13.2-7.4-18-13.2l-14-3.3
			c2.5,1.6,5,3.4,7.3,5.6c9.1,8.5,11.9,20,6.7,21.7c-5.2,1.7-13.2-7.4-18-13.2l-11.3-2.7l0,0c0,0-35.9-4.4-42-19.9
			c0,0-160.5-108.4-172.7-149.6S71.1,853.8,71.1,853.8z"/>
	</g>
	<g>
		<polygon class="st8" points="484,1919.2 479.8,1985.5 531.1,1997.4 578.9,1985.5 582.4,1924.1 		"/>
	</g>
	<g>
		<path class="st9" d="M604.7,1920.7l1.2,23.9c0.2,4.1-1.7,8-4.6,9c-56.8,20.1-108.9,5.3-124.4-0.1c-2.8-1-4.7-4.4-4.7-8.4v-24
			c0-5.2,3.3-9.2,7-8.5c58,10.3,102.3,3.5,118.3,0.2C601.2,1912.1,604.4,1915.7,604.7,1920.7z"/>
	</g>
	<g>
		<polygon class="st8" points="300.6,1911.3 295.6,1975.2 252,1994.6 196.4,1975.2 203.7,1907 		"/>
	</g>
	<g>
		<path class="st7" d="M284.5,631.6c0,0-100.6,91.6-143.7,151l71.8,85.3l95.9-57.1C308.6,810.7,327.3,676.5,284.5,631.6z"/>
	</g>
	<g>
		<path class="st7" d="M148.8,905.1c0.8,0,1.7-0.5,2-1.3c0.5-1.1,0-2.4-1.2-2.9c-1-0.4-25.2-10.6-44.7-11.4c0,0-0.1,0-0.1,0
			c-1.2,0-2.1,0.9-2.2,2.1c0,1.2,0.9,2.2,2.1,2.3c18.7,0.8,43,11,43.2,11.1C148.2,905,148.5,905.1,148.8,905.1z"/>
	</g>
	<g>
		<path class="st7" d="M625.5,568c0.8,0,1.6-0.4,2-1.2c0.5-1.1,0.1-2.4-1-2.9c-10.1-5.1-27.3-3.3-28-3.2c-1.2,0.1-2.1,1.2-1.9,2.4
			c0.1,1.2,1.1,2,2.4,1.9c0.2,0,16.6-1.7,25.6,2.8C624.9,567.9,625.2,568,625.5,568z"/>
	</g>
	<g>
		<path class="st7" d="M615.1,589.7c0.8,0,1.7-0.5,2-1.3c0.5-1.1,0-2.4-1.2-2.9c-12.4-5.3-29.6-4.1-30.3-4c-1.2,0.1-2.1,1.1-2,2.3
			s1.2,2.1,2.3,2c0.2,0,16.8-1.2,28.3,3.7C614.5,589.6,614.8,589.7,615.1,589.7z"/>
	</g>
	<g>
		<path class="st10" d="M580,1083.5c1.2,0,2.1-0.9,2.2-2.1c0-1.2-0.9-2.2-2.1-2.3l-222.3-7.2c-1.4-0.1-2.2,0.9-2.3,2.1
			c0,1.2,0.9,2.2,2.1,2.3L580,1083.5C580,1083.5,580,1083.5,580,1083.5z"/>
	</g>
	<g>
		<path class="st10" d="M435.9,1215.2c0.5,0,12.9-0.2,19.7-19.2c6.4-17.8,12-102.5,12.3-106.1c0.1-1.2-0.8-2.2-2-2.3
			c-1.1-0.2-2.2,0.8-2.3,2c-0.1,0.9-5.8,87.7-12,104.9c-4.1,11.3-10,14.7-13.3,15.8l6.3-132.5c0.1-1.2-0.9-2.2-2.1-2.3
			c-1.2-0.1-2.2,0.9-2.3,2.1l-6.4,135.3c0,0.6,0.2,1.2,0.6,1.6C434.7,1214.9,435.3,1215.2,435.9,1215.2z"/>
	</g>
	<g>
		<path class="st10" d="M465.7,1232.1c0.5,0,1-0.2,1.4-0.5l55.2-47.1c0.9-0.8,1-2.2,0.2-3.1c-0.8-0.9-2.2-1-3.1-0.2l-55.2,47.1
			c-0.9,0.8-1,2.2-0.2,3.1C464.4,1231.8,465,1232.1,465.7,1232.1z"/>
	</g>
	<g>
		<path class="st10" d="M406.1,1208.5c0.4,0,0.7-0.1,1.1-0.3c1.1-0.6,1.4-1.9,0.8-3l-30.2-53.8c-0.6-1.1-1.9-1.4-3-0.8
			c-1.1,0.6-1.4,1.9-0.8,3l30.2,53.8C404.6,1208.1,405.3,1208.5,406.1,1208.5z"/>
	</g>
	<g>
		<path class="st10" d="M560.7,1882C560.7,1882,560.7,1882,560.7,1882c1.2,0,2.2-1,2.2-2.2l-5.1-265.8v-19.3l-2.1-17.9
			c0.9-2.8,4.3-16.7-0.1-45.2c-4.8-30.9-12-315.8-12.1-318.7c0-1.2-1-2.1-2.2-2.1c0,0,0,0-0.1,0c-1.2,0-2.2,1-2.1,2.2
			c0.3,11.7,7.3,288,12.1,319.2c4.7,30.3,0.2,43.5,0.1,43.6c-0.1,0.3-0.2,0.7-0.1,1l2.1,18.1l0,19.1l5.1,265.8
			C558.5,1881.1,559.5,1882,560.7,1882z"/>
	</g>
	<g>
		<path class="st10" d="M248.5,1869.9c1.1,0,2-0.8,2.2-1.8l36-214.2c0-0.6,0.1-23.1,8-57.9c8-35.1,50.3-375,52.1-389.4
			c0.1-1.2-0.7-2.3-1.9-2.4c-1.3-0.2-2.3,0.7-2.4,1.9c-0.4,3.5-44.1,354.1-52,389c-8,35.3-8.1,58.2-8.1,58.5l-35.9,213.9
			c-0.2,1.2,0.6,2.3,1.8,2.5C248.3,1869.9,248.4,1869.9,248.5,1869.9z"/>
	</g>
	<g>
		<path class="st11" d="M288.9,819.6c1,0,2.1-0.6,2.6-1.5c21.9-41.3,20.8-120.4,20.7-123.7c0-1.6-1.3-2.7-3-2.9
			c-1.6,0-2.9,1.4-2.9,3c0,0.8,1.1,81-20,120.9c-0.8,1.4-0.2,3.2,1.2,3.9C287.9,819.5,288.4,819.6,288.9,819.6z"/>
	</g>
	<g>
		<path class="st11" d="M600.4,806.9c1.5,0,2.8-1.2,2.9-2.7c3.4-48.5,0-118.6,0-119.3c-0.1-1.6-1.5-3-3-2.8c-1.6,0.1-2.8,1.4-2.8,3
			c0,0.7,3.4,70.5,0,118.7c-0.1,1.6,1.1,3,2.7,3.1C600.3,806.9,600.3,806.9,600.4,806.9z"/>
	</g>
	<g>
		<path class="st11" d="M463.9,662.7c62.7,0,77.2-19.8,77.8-20.7c0.9-1.3,0.6-3.1-0.7-4c-1.3-0.9-3.1-0.6-4,0.7
			c-0.3,0.4-15.3,19.7-80.3,18.1c-65.1-1.5-78-31.7-78.2-32c-0.6-1.5-2.3-2.2-3.8-1.6c-1.5,0.6-2.2,2.3-1.6,3.8
			c0.5,1.4,14.1,34,83.5,35.7C459,662.6,461.5,662.7,463.9,662.7z"/>
	</g>
	<g>
		<path class="st11" d="M557.5,1047.6c0.5,0,1-0.1,1.5-0.4l22.6-13.7c1.4-0.8,1.8-2.6,1-4c-0.8-1.4-2.6-1.8-4-1l-22.6,13.7
			c-1.4,0.8-1.8,2.6-1,4C555.5,1047.1,556.5,1047.6,557.5,1047.6z"/>
	</g>
	<g>
		<path class="st11" d="M361,1040.7c0.6,0,1.1-0.2,1.6-0.5c1.3-0.9,1.7-2.7,0.8-4l-12.1-18.1c-0.9-1.3-2.7-1.7-4-0.8
			c-1.3,0.9-1.7,2.7-0.8,4l12.1,18.1C359.1,1040.2,360,1040.7,361,1040.7z"/>
	</g>
	<g>
		<path class="st11" d="M474.5,1043.5c0.7,0,1.5-0.3,2.1-0.9l9.7-9.7c1.1-1.1,1.1-3,0-4.1s-3-1.1-4.1,0l-9.7,9.7
			c-1.1,1.1-1.1,3,0,4.1C473,1043.2,473.8,1043.5,474.5,1043.5z"/>
	</g>
	<g>
		<path class="st11" d="M222.4,855.1c0.8,0,1.6-0.3,2.2-1c1-1.2,0.9-3.1-0.3-4.1c-21.3-18.2-66.9-71.7-67.3-72.3
			c-1-1.2-2.9-1.4-4.1-0.3c-1.2,1-1.4,2.9-0.3,4.1c1.9,2.2,46.3,54.5,68,72.9C221.1,854.8,221.8,855.1,222.4,855.1z"/>
	</g>
	<g>
		<path class="st7" d="M116,2076.8c22.4,3.9,71.7,10,105.3,2.4c39.9-9.1,75.3-12.7,79.3-21.5c0.7-1.5,0.7-9.9,0.3-21
			c-1.1-26.6-4.3-68.7-4.3-68.7c-13.5-1.2-27.6,20.6-39.1,19.1c-11.5-1.5-44.7-18.4-54-19.1c-9.3-0.6-11.3,4.2-22.2,15.7
			c-10.9,11.4-35.6,27.2-53.2,41.7c-7.7,6.4-12.9,16.9-16.2,26.5c-1.7,4.8-2.9,9.5-3.7,13.4C107,2070.6,110.6,2075.8,116,2076.8z"/>
	</g>
	<g>
		<path class="st7" d="M467.8,2044.5c-0.4,5.9,3.9,10.9,9.8,11.4c12.3,1.1,33.7,3.3,53.6,6.1c30.4,4.2,70,9.7,99,8.1
			c29-1.6,46.2-12.4,46.2-12.4c0.2-7.3-1-13.5-3.8-18.9c-5.1-10.1-15.7-17.6-32.9-24.9c-26.3-11.2-46.7-32.1-46.7-32.1
			c-18.8-20.5-42.7,7-62,5.6c-19.3-1.4-49-10.8-49-10.8s-7.6,3.3-9.5,15.4c-1.1,6.5-2.5,24.4-3.6,39.4
			C468.3,2036.2,468,2040.7,467.8,2044.5z"/>
	</g>
	<g>
		<path class="st8" d="M467.8,2044.5c-0.4,5.9,3.9,10.9,9.8,11.4c12.3,1.1,33.7,3.3,53.6,6.1c30.4,4.2,70,9.7,99,8.1
			c29-1.6,46.2-12.4,46.2-12.4c0.2-7.3-1-13.5-3.8-18.9c-7.2,4.3-26.2,11.6-73.1,10.8c-51.7-1-108.2-12.9-130.7-18.2
			C468.3,2036.2,468,2040.7,467.8,2044.5z"/>
	</g>
	<g>
		<path class="st8" d="M116,2076.8c22.4,3.9,71.7,10,105.3,2.4c39.9-9.1,75.3-12.7,79.3-21.5c0.7-1.5,0.7-9.9,0.3-21
			c-8.3,5.3-25.9,14.3-52.3,16.4c-36.3,3-82.3,12.4-136.5-1.2c-1.7,4.8-2.9,9.5-3.7,13.4C107,2070.6,110.6,2075.8,116,2076.8z"/>
	</g>
	<g>
		<path class="st9" d="M190.5,1898.2l-3,23.7c-0.5,4.1,1,8.1,3.7,9.3c52.5,24.1,103.3,13.2,118.5,9c2.7-0.8,4.8-4.1,5.1-8l1.8-23.9
			c0.4-5.2-2.5-9.4-6.1-9c-56.1,6.1-97.7-3.9-112.7-8.4C194.5,1889.9,191.1,1893.3,190.5,1898.2z"/>
	</g>
	<g>
		<path class="st7" d="M536.5,492.8c0.3,0,0.7-0.1,1-0.3c6.2-3.3,21.9-3.5,27.5-3.2c1.1,0.1,2.2-0.9,2.3-2.1c0-1.2-0.9-2.2-2.1-2.3
			c-0.9,0-21.2-0.8-29.7,3.8c-1.1,0.6-1.5,1.9-0.9,3C535,492.4,535.8,492.8,536.5,492.8z"/>
	</g>
	<g>
		<path class="st11" d="M378.7,417.7c0.6,0,1.2-0.2,1.7-0.6c2.9-2.2,11.9-7.9,17.8-8.2c1.6-0.1,2.8-1.5,2.7-3.1
			c-0.1-1.6-1.3-2.9-3.1-2.7c-8.8,0.5-20.4,9-20.9,9.3c-1.3,1-1.6,2.8-0.6,4.1C376.9,417.3,377.8,417.7,378.7,417.7z"/>
	</g>
	<g>
		<path class="st11" d="M451.8,421.5c0.3,0,0.7-0.1,1-0.2c56.7-21.3,56.1-59.3,56-60.9c-0.1-1.6-1.5-2.9-3-2.8c-1.6,0-2.9,1.4-2.8,3
			c0,1.4,0.3,35.1-51.3,54.9c-4.4-1.4-20-6.1-27-5.4c-1.6,0.2-2.8,1.6-2.6,3.2c0.2,1.6,1.6,2.7,3.2,2.6c5.4-0.6,20.3,3.8,25.6,5.5
			C451.2,421.4,451.5,421.5,451.8,421.5z"/>
	</g>
	<g>
		<path class="st11" d="M473.3,482c1,0,2-0.6,2.6-1.5c0.2-0.4,19.3-37.4-22.5-64.4c-1.3-0.9-3.2-0.5-4,0.9c-0.9,1.4-0.5,3.2,0.9,4
			c37.3,24,21.3,55.4,20.6,56.8c-0.8,1.4-0.2,3.2,1.2,3.9C472.4,481.9,472.9,482,473.3,482z"/>
	</g>
	<g>
		<path class="st11" d="M388.3,459.6c1.6,0,2.9-1.3,2.9-2.9V445c0-1.6-1.3-2.9-2.9-2.9s-2.9,1.3-2.9,2.9v11.7
			C385.4,458.3,386.7,459.6,388.3,459.6z"/>
	</g>
	<g>
		<path class="st11" d="M454.4,370.2c1.4,0,2.6-1,2.8-2.3l1.8-9.3c0.3-1.6-0.7-3.1-2.3-3.4c-1.6-0.3-3.1,0.7-3.4,2.3l-1.8,9.3
			c-0.3,1.6,0.7,3.1,2.3,3.4C454,370.2,454.2,370.2,454.4,370.2z"/>
	</g>
	<g>
		<path class="st11" d="M431.4,365.6c1.6,0,2.9-1.3,2.9-2.9v-2.2c0-1.6-1.3-2.9-2.9-2.9c-1.6,0-2.9,1.3-2.9,2.9v2.2
			C428.5,364.3,429.8,365.6,431.4,365.6z"/>
	</g>
	<g>
		<path class="st11" d="M519.9,361c1.3,0,2.5-0.9,2.8-2.3l1.7-7.7c0.4-1.6-0.6-3.1-2.2-3.5c-1.6-0.3-3.1,0.6-3.5,2.2l-1.7,7.7
			c-0.4,1.6,0.6,3.1,2.2,3.5C519.5,360.9,519.7,361,519.9,361z"/>
	</g>
	<g>
		<path class="st11" d="M416.1,503.5c1.6,0,2.9-1.3,2.9-2.9v-11.7c0-1.6-1.3-2.9-2.9-2.9s-2.9,1.3-2.9,2.9v11.7
			C413.2,502.2,414.5,503.5,416.1,503.5z"/>
	</g>
</g>
<g>
	<defs>
		<path id="Path_66288_00000027598812107160510250000003233034095101083834_" d="M0,1041.5h1920.9V673.8c0,0-295.1-176.7-838.9-134
			C538.2,582.5,0,290.3,0,290.3V1041.5z"/>
	</defs>
	<clipPath id="Path_66288_00000179632592871398928720000017942146147100735378_">
		<use xlink:href="#Path_66288_00000027598812107160510250000003233034095101083834_"  style="overflow:visible;"/>
	</clipPath>
	<g style="clip-path:url(#Path_66288_00000179632592871398928720000017942146147100735378_);">
		<g>
			<g>
				<g>
					<polygon class="st13" points="1816.6,1224.9 1576.5,1224.9 1621.4,1062.5 1779.2,1062.5 					"/>
				</g>
			</g>
		</g>
		<g>
			<g>
				<g>
					<polygon class="st13" points="1910.9,1295.1 1489.7,1295.1 1576.5,1224.9 1816.6,1224.9 					"/>
				</g>
			</g>
		</g>
	</g>
	<g style="clip-path:url(#Path_66288_00000179632592871398928720000017942146147100735378_);">
		<g>
			<g>
				<g>
					<path class="st14" d="M2290.3,459.3v603.2h-83.6c-17.9,0-1007.4,0-1007.4,0h-89.1V459.3c0-8.9,8.4-16.1,18.8-16.1h1142.5
						C2281.9,443.3,2290.3,450.4,2290.3,459.3z"/>
				</g>
			</g>
		</g>
	</g>
	<g style="clip-path:url(#Path_66288_00000179632592871398928720000017942146147100735378_);">
		<g>
			<g>
				<g>
					<rect x="1131" y="462.9" class="st15" width="1138.6" height="549.2"/>
				</g>
			</g>
		</g>
	</g>
	<g style="clip-path:url(#Path_66288_00000179632592871398928720000017942146147100735378_);">
		<g>
			<g>
				<path class="st13" d="M1718.1,1037.3c0,8.4-8,15.2-17.8,15.2c-9.8,0-17.8-6.8-17.8-15.2c0-8.4,8-15.3,17.8-15.3
					C1710.1,1022.1,1718.1,1028.9,1718.1,1037.3z"/>
			</g>
		</g>
	</g>
	<g style="clip-path:url(#Path_66288_00000179632592871398928720000017942146147100735378_);">
		<g>
			<g>
				<path class="st4" d="M1151.9,942.4v16.1c0,4.8,3,8.6,6.8,8.6h195.5c3.7,0,6.8-3.9,6.8-8.6v-16.1c0-4.8-3-8.6-6.8-8.6h-195.5
					C1154.9,933.8,1151.9,937.6,1151.9,942.4z"/>
			</g>
			<g>
				<polygon class="st16" points="1231.7,967.1 1249.7,967.1 1263.2,933.8 1245.1,933.8 				"/>
			</g>
			<g>
				<polygon class="st16" points="1204,967.1 1222.1,967.1 1235.5,933.8 1217.4,933.8 				"/>
			</g>
		</g>
		<g>
			<g>
				<path class="st17" d="M1144.4,1005.6l0.9,5.4c0.1,0.9,0.9,1.5,1.8,1.5h256.2c0.8,0,1.6-0.6,1.7-1.4c1.6-7,2.4-14.2,2.4-21.3
					c0-7.2-0.8-14.3-2.4-21.3c-0.2-0.8-0.9-1.4-1.7-1.4h-256.2c-0.9,0-1.6,0.6-1.8,1.5l-1.1,7.1
					C1142.8,985.7,1142.9,995.7,1144.4,1005.6z"/>
			</g>
			<g>
				<rect x="1321.6" y="967.1" class="st4" width="60.3" height="45.4"/>
			</g>
			<g>
				<ellipse class="st4" cx="1166.5" cy="989.8" rx="15.7" ry="15.8"/>
			</g>
		</g>
	</g>
	<g style="clip-path:url(#Path_66288_00000179632592871398928720000017942146147100735378_);">
		<g>
			<g>
				<path class="st4" d="M1829,734.9v104.2c0,1.8-1.5,3.3-3.3,3.3h-25.2c-1.8,0-3.3-1.5-3.3-3.3V734.9c0-1.8,1.4-3.3,3.3-3.3h25.2
					C1827.6,731.6,1829,733.1,1829,734.9z"/>
			</g>
			<g>
				<rect x="1797.4" y="752.9" class="st17" width="31.7" height="17"/>
			</g>
		</g>
		<g>
			<g>
				<path class="st4" d="M1866.1,734.9v104.2c0,1.8-1.5,3.3-3.3,3.3h-25.2c-1.8,0-3.3-1.5-3.3-3.3V734.9c0-1.8,1.4-3.3,3.3-3.3h25.2
					C1864.7,731.6,1866.1,733.1,1866.1,734.9z"/>
			</g>
			<g>
				<rect x="1834.5" y="752.9" class="st17" width="31.7" height="17"/>
			</g>
		</g>
	</g>
	<g style="clip-path:url(#Path_66288_00000179632592871398928720000017942146147100735378_);">
		<g>
			<g>
				<path class="st17" d="M2250.4,602v13.6c0,4-2.6,7.3-5.7,7.3h-165.1c-3.2,0-5.7-3.3-5.7-7.3V602c0-4,2.6-7.3,5.7-7.3h165.1
					C2247.9,594.7,2250.4,598,2250.4,602z"/>
			</g>
			<g>
				<polygon class="st16" points="2183.1,622.8 2167.8,622.8 2156.5,594.7 2171.7,594.7 				"/>
			</g>
			<g>
				<polygon class="st16" points="2206.4,622.8 2191.1,622.8 2179.8,594.7 2195.1,594.7 				"/>
			</g>
		</g>
		<g>
			<g>
				<path class="st4" d="M2071.1,622.8h160.7c2.8,0,5,2.3,5,5.1V667c0,2.8-2.2,5.1-5,5.1h-160.7c-2.8,0-5-2.3-5-5.1v-39.2
					C2066.1,625.1,2068.3,622.8,2071.1,622.8z"/>
			</g>
			<g>
				<rect x="2098.9" y="622.8" class="st17" width="26.2" height="49.3"/>
			</g>
		</g>
	</g>
	<g style="clip-path:url(#Path_66288_00000179632592871398928720000017942146147100735378_);">
		<g>
			<g>
				<path class="st16" d="M1681.2,628.3h-103.7c-1.8,0-3.2-1.5-3.2-3.3v-25.3c0-1.8,1.5-3.3,3.2-3.3h103.7c1.8,0,3.3,1.5,3.3,3.3
					V625C1684.5,626.8,1683,628.3,1681.2,628.3z"/>
			</g>
			<g>
				<rect x="1646.4" y="596.5" class="st17" width="16.9" height="31.8"/>
			</g>
		</g>
		<g>
			<g>
				<path class="st4" d="M1688.3,672.7l-192,0.1c-3,0-5.6-4.6-5.8-10.6l-0.6-22.1c-0.2-6.1,2.2-11,5.2-11l192-0.7
					c3,0,5.6,4.9,5.8,10.9l0.6,22.1C1693.7,667.4,1691.4,672.7,1688.3,672.7z"/>
			</g>
			<g>
				<polygon class="st17" points="1685.3,658.8 1501.5,659.5 1501.1,644.3 1684.9,643.6 				"/>
			</g>
		</g>
	</g>
	<g style="clip-path:url(#Path_66288_00000179632592871398928720000017942146147100735378_);">
		<g>
			<rect x="1131" y="671.7" class="st16" width="1138.6" height="21.9"/>
		</g>
		<g>
			<rect x="1131" y="842.7" class="st16" width="1138.6" height="21.9"/>
		</g>
		<g>
			<g>
				<rect x="1910.7" y="462.9" class="st16" width="21.9" height="549.2"/>
			</g>
			<g>
				<rect x="1468.1" y="462.9" class="st16" width="21.9" height="549.2"/>
			</g>
		</g>
	</g>
	<g style="clip-path:url(#Path_66288_00000179632592871398928720000017942146147100735378_);">
		<g>
			<g>
				<path class="st17" d="M2257.2,964.5v9.2c0,2.7-1.7,4.9-3.9,4.9h-112.4c-2.2,0-3.9-2.2-3.9-4.9v-9.2c0-2.7,1.7-4.9,3.9-4.9h112.4
					C2255.5,959.6,2257.2,961.8,2257.2,964.5z"/>
			</g>
			<g>
				<polygon class="st16" points="2211.3,978.7 2200.9,978.7 2193.2,959.6 2203.6,959.6 				"/>
			</g>
			<g>
				<polygon class="st16" points="2227.2,978.7 2216.8,978.7 2209.1,959.6 2219.5,959.6 				"/>
			</g>
		</g>
		<g>
			<g>
				<path class="st4" d="M2135.1,978.7h109.4c1.9,0,3.4,1.6,3.4,3.4v26.5c0,1.9-1.5,3.4-3.4,3.4h-109.4c-1.9,0-3.4-1.5-3.4-3.4
					v-26.5C2131.7,980.2,2133.2,978.7,2135.1,978.7z"/>
			</g>
			<g>
				<rect x="2154" y="978.7" class="st17" width="17.9" height="33.4"/>
			</g>
		</g>
	</g>
	<g style="clip-path:url(#Path_66288_00000179632592871398928720000017942146147100735378_);">
		<g>
			<g>
				<path class="st4" d="M1373.4,821.2l0.1,13.8c0,4.1-2.6,7.5-5.8,7.5l-169.1,1c-3.2,0-5.9-3.3-5.9-7.4l-0.1-13.8
					c0-4.1,2.6-7.4,5.8-7.5l169.1-1C1370.8,813.8,1373.4,817.1,1373.4,821.2z"/>
			</g>
			<g>
				<polygon class="st16" points="1304.6,842.9 1288.9,843 1277.1,814.3 1292.8,814.2 				"/>
			</g>
			<g>
				<polygon class="st16" points="1328.5,842.7 1312.8,842.8 1301,814.2 1316.7,814.1 				"/>
			</g>
		</g>
		<g>
			<g>
				<g>
					<path class="st17" d="M1208.8,807.5V795c0-3.7,2.4-6.7,5.3-6.7H1367c2.9,0,5.3,3,5.3,6.7v12.5c0,3.7-2.4,6.7-5.3,6.7h-152.8
						C1211.2,814.2,1208.8,811.2,1208.8,807.5z"/>
				</g>
				<g>
					<polygon class="st16" points="1271.2,788.3 1285.4,788.3 1295.8,814.2 1281.7,814.2 					"/>
				</g>
				<g>
					<polygon class="st16" points="1249.6,788.3 1263.8,788.3 1274.2,814.2 1260.1,814.2 					"/>
				</g>
			</g>
			<g>
				<g>
					<path class="st4" d="M1374.9,788.3h-148.8c-2.6,0-4.7-2.1-4.7-4.7v-36.1c0-2.6,2.1-4.7,4.7-4.7h148.8c2.6,0,4.7,2.1,4.7,4.7
						v36.1C1379.5,786.2,1377.4,788.3,1374.9,788.3z"/>
				</g>
				<g>
					<rect x="1324.8" y="742.9" class="st17" width="24.3" height="45.4"/>
				</g>
			</g>
		</g>
	</g>
	<g style="clip-path:url(#Path_66288_00000179632592871398928720000017942146147100735378_);">
		<g>
			<g>
				<g>
					<path class="st17" d="M1225.4,621.3v-10.4c0-3.1,2-5.6,4.4-5.6h127.3c2.4,0,4.4,2.5,4.4,5.6v10.4c0,3.1-2,5.6-4.4,5.6h-127.3
						C1227.4,626.9,1225.4,624.4,1225.4,621.3z"/>
				</g>
				<g>
					<polygon class="st16" points="1277.4,605.3 1289.2,605.3 1297.9,626.9 1286.1,626.9 					"/>
				</g>
				<g>
					<polygon class="st16" points="1259.4,605.3 1271.2,605.3 1279.9,626.9 1268.1,626.9 					"/>
				</g>
			</g>
			<g>
				<g>
					<path class="st4" d="M1363.7,605.3h-123.9c-2.1,0-3.9-1.7-3.9-3.9v-30.1c0-2.2,1.7-3.9,3.9-3.9h123.9c2.2,0,3.9,1.7,3.9,3.9
						v30.1C1367.6,603.6,1365.8,605.3,1363.7,605.3z"/>
				</g>
				<g>
					<rect x="1322" y="567.5" class="st17" width="20.2" height="37.8"/>
				</g>
			</g>
		</g>
		<g>
			<g>
				<path class="st4" d="M1215.7,626.9h146.6c2.5,0,4.6,2.1,4.6,4.6v35.6c0,2.5-2.1,4.6-4.6,4.6h-146.6c-2.5,0-4.6-2.1-4.6-4.6
					v-35.6C1211.1,629,1213.2,626.9,1215.7,626.9z"/>
			</g>
			<g>
				<rect x="1241.1" y="626.9" class="st17" width="23.9" height="44.8"/>
			</g>
		</g>
	</g>
	<g style="clip-path:url(#Path_66288_00000179632592871398928720000017942146147100735378_);">
		<g>
			<g>
				<path class="st17" d="M1239.8,540.5c0,0,1.3,5.5,1.3,10.6c0,5-1.6,13.3-1.6,13.3l136.9,0.7c0,0-0.4-4.5-0.4-11.1
					c0-6.6,0.9-13.5,0.9-13.5L1239.8,540.5z"/>
			</g>
			<g>
				<path class="st4" d="M1379.4,568.4h-141.8c-0.9,0-1.8-1.1-1.9-3c0-1.8,0.7-3.3,1.6-3.3l141.8-0.6c0.9,0,1.8,1.5,1.8,3.3
					C1381,566.6,1380.4,568.4,1379.4,568.4z"/>
			</g>
			<g>
				<path class="st4" d="M1378.7,543.2l-141.8,0.6c-0.9,0-1.8-1.6-1.8-3.6c-0.1-2,0.7-3.6,1.6-3.6l141.8-0.6c0.9,0,1.8,1.6,1.8,3.6
					C1380.3,541.6,1379.6,543.2,1378.7,543.2z"/>
			</g>
		</g>
		<g>
			<g>
				<path class="st4" d="M1371.4,500c0,0-2.6,11-2.2,16.5c0.5,5.5,4.8,15.2,4.8,15.2l-142.9,0.6l-1.1-31.5L1371.4,500z"/>
			</g>
			<g>
				<path class="st17" d="M1375.5,536.1l-146.1,0.7c-1.3,0-2.4-2-2.5-4.5c-0.1-2.5,0.9-4.5,2.2-4.5l146.1-0.7c1.3,0,2.4,2,2.5,4.5
					C1377.8,534.1,1376.8,536.1,1375.5,536.1z"/>
			</g>
			<g>
				<path class="st17" d="M1374.4,505.4l-146.1,0.7c-1.3,0-2.4-2-2.5-4.5c-0.1-2.5,0.9-4.5,2.2-4.5l146.1-0.7c1.3,0,2.4,2,2.5,4.5
					C1376.7,503.4,1375.7,505.4,1374.4,505.4z"/>
			</g>
		</g>
	</g>
	<g style="clip-path:url(#Path_66288_00000179632592871398928720000017942146147100735378_);">
		<g>
			<g>
				<g>
					<path class="st16" d="M2035.1,628.3c0,2.6-11.5,4.7-25.7,4.7c-14.2,0-25.7-2.1-25.7-4.7c0-2.6,11.5-4.7,25.7-4.7
						C2023.6,623.6,2035.1,625.7,2035.1,628.3z"/>
				</g>
			</g>
		</g>
		<g>
			<g>
				<g>
					<path class="st17" d="M2033.1,672.3h-47.4c-1.2,0-2.1-1-2.1-2.1v-32.9h51.7v32.9C2035.2,671.3,2034.3,672.3,2033.1,672.3z"/>
				</g>
			</g>
		</g>
		<g>
			<g>
				<g>
					<g>
						<path class="st18" d="M2005.7,634.1c0,0-6.4-7.7-11.8-20.4c-5-11.8-11.6-42.1-9.2-43.1c2.3-1,14.3,54.2,24.7,64.1
							C2007.6,634.7,2005.7,634.1,2005.7,634.1z"/>
					</g>
				</g>
			</g>
			<g>
				<g>
					<g>
						<path class="st18" d="M2011.3,634.1c0,0-3.1-13.5-3.9-25.2c-0.8-11.7-0.1-30.2,2-39.1c2-8.9,2.4-10,3.4-10.1
							c1-0.1,0.6,17.8,0,25c-0.6,7.2,0.6,49.4,0.6,49.4H2011.3z"/>
					</g>
				</g>
			</g>
			<g>
				<g>
					<g>
						<path class="st18" d="M2010.2,614.9c0,0-10.1-25.6-12-36.2c-2-10.5-2.2-13.3-1.4-14.3c0.8-0.9,13.4,30.6,13.4,30.6V614.9z"/>
					</g>
				</g>
			</g>
			<g>
				<g>
					<g>
						<path class="st18" d="M1994.7,608.3c0,0-0.1-0.2-0.4-0.6c-2.9-4.6-21.9-34.6-23.7-33.4c-1.9,1.3,20.8,36.3,24.8,38.6
							C1994.1,609.6,1994.7,608.3,1994.7,608.3z"/>
					</g>
				</g>
			</g>
			<g>
				<g>
					<g>
						<path class="st18" d="M2010.2,635.4c0,0,5.4-11.3,12.8-26.3c7.3-15,8.3-25.7,8.9-30.6c0.6-4.9-0.4-12.1,1.7-12.8
							c2.1-0.7,9,20-1.7,43.4c-10.7,23.4-15.4,26.3-15.4,26.3H2010.2z"/>
					</g>
				</g>
			</g>
			<g>
				<g>
					<g>
						<path class="st18" d="M2020.7,621.1c0,0-3.7-17.5-3.9-23.1c-0.2-5.6,0.8-14.1,1.9-14.7c1.2-0.5,6.2,27.8,6.2,27.8
							L2020.7,621.1z"/>
					</g>
				</g>
			</g>
			<g>
				<g>
					<g>
						<path class="st18" d="M2035.2,581c0,0,6-15.6,9.3-15.3c3.3,0.3-4.8,23.5-11.5,31.2C2036.1,582.3,2035.2,581,2035.2,581z"/>
					</g>
				</g>
			</g>
		</g>
		<g>
			<g>
				<g>
					<path class="st4" d="M2037.7,637.8c0,2.6-12.8,4.7-28.6,4.7c-15.8,0-28.5-2.1-28.5-4.7c0-0.2,0.1-0.3,0.1-0.5l2.9-9
						c0,2.6,11.5,4.7,25.7,4.7c14.2,0,25.7-2.1,25.7-4.7l2.5,9.1C2037.7,637.6,2037.7,637.7,2037.7,637.8z"/>
				</g>
			</g>
		</g>
	</g>
	<g style="clip-path:url(#Path_66288_00000179632592871398928720000017942146147100735378_);">
		<g>
			<path class="st4" d="M1907.8,571.2v96.6c0,1.7-1.3,3-3,3h-23.4c-1.7,0-3-1.4-3-3v-96.6c0-1.7,1.3-3,3-3h23.4
				C1906.5,568.2,1907.8,569.6,1907.8,571.2z"/>
		</g>
		<g>
			<g>
				<path class="st4" d="M1876.1,571.2v96.6c0,1.7-1.4,3-3,3h-23.4c-1.7,0-3-1.4-3-3v-96.6c0-1.7,1.4-3,3-3h23.4
					C1874.8,568.2,1876.1,569.6,1876.1,571.2z"/>
			</g>
			<g>
				<rect x="1846.7" y="587.9" class="st17" width="29.5" height="15.7"/>
			</g>
		</g>
		<g>
			<g>
				<path class="st4" d="M1844,571.2v96.6c0,1.7-1.4,3-3,3h-23.4c-1.7,0-3-1.4-3-3v-96.6c0-1.7,1.4-3,3-3h23.4
					C1842.7,568.2,1844,569.6,1844,571.2z"/>
			</g>
			<g>
				<rect x="1814.6" y="587.9" class="st17" width="29.5" height="15.7"/>
			</g>
		</g>
		<g>
			<rect x="1878.4" y="587.9" class="st17" width="29.5" height="15.7"/>
		</g>
	</g>
	<g style="clip-path:url(#Path_66288_00000179632592871398928720000017942146147100735378_);">
		<g>
			<g>
				<path class="st4" d="M1745.7,485.4h16c4.7,0,8.6,2.7,8.6,6v174.2c0,3.3-3.9,6-8.6,6h-16c-4.7,0-8.6-2.7-8.6-6V491.5
					C1737.1,488.1,1741,485.4,1745.7,485.4z"/>
			</g>
			<g>
				<polygon class="st16" points="1770.3,556.5 1770.3,572.6 1737.1,584.6 1737.1,568.5 				"/>
			</g>
			<g>
				<polygon class="st16" points="1770.3,531.9 1770.3,548 1737.1,560 1737.1,543.8 				"/>
			</g>
		</g>
		<g>
			<g>
				<path class="st17" d="M1784,485.4h16c4.7,0,8.6,2.7,8.6,6v174.2c0,3.3-3.9,6-8.6,6h-16c-4.7,0-8.6-2.7-8.6-6V491.5
					C1775.4,488.1,1779.3,485.4,1784,485.4z"/>
			</g>
			<g>
				<polygon class="st16" points="1808.6,556.5 1808.6,572.6 1775.4,584.6 1775.4,568.5 				"/>
			</g>
			<g>
				<polygon class="st16" points="1808.6,531.9 1808.6,548 1775.4,560 1775.4,543.8 				"/>
			</g>
		</g>
		<g>
			<g>
				<path class="st17" d="M1707.1,485.4h16c4.8,0,8.6,2.7,8.6,6v174.2c0,3.3-3.8,6-8.6,6h-16c-4.8,0-8.6-2.7-8.6-6V491.5
					C1698.5,488.1,1702.4,485.4,1707.1,485.4z"/>
			</g>
			<g>
				<polygon class="st16" points="1731.7,556.5 1731.7,572.6 1698.5,584.6 1698.5,568.5 				"/>
			</g>
			<g>
				<polygon class="st16" points="1731.7,531.9 1731.7,548 1698.5,560 1698.5,543.8 				"/>
			</g>
		</g>
	</g>
	<g style="clip-path:url(#Path_66288_00000179632592871398928720000017942146147100735378_);">
		<path class="st4" d="M1794.2,719.6V839c0,2.1-1.7,3.7-3.7,3.7h-28.8c-2.1,0-3.7-1.7-3.7-3.7V719.6c0-2.1,1.7-3.7,3.7-3.7h28.8
			C1792.6,715.9,1794.2,717.6,1794.2,719.6z"/>
	</g>
	<g style="clip-path:url(#Path_66288_00000179632592871398928720000017942146147100735378_);">
		<path class="st4" d="M1755.2,719.6V839c0,2.1-1.7,3.7-3.7,3.7h-28.8c-2.1,0-3.7-1.7-3.7-3.7V719.6c0-2.1,1.7-3.7,3.7-3.7h28.8
			C1753.5,715.9,1755.2,717.6,1755.2,719.6z"/>
	</g>
	<g style="clip-path:url(#Path_66288_00000179632592871398928720000017942146147100735378_);">
		<path class="st4" d="M1715.7,719.6V839c0,2.1-1.7,3.7-3.7,3.7h-28.8c-2.1,0-3.7-1.7-3.7-3.7V719.6c0-2.1,1.7-3.7,3.7-3.7h28.8
			C1714,715.9,1715.7,717.6,1715.7,719.6z"/>
	</g>
	<g style="clip-path:url(#Path_66288_00000179632592871398928720000017942146147100735378_);">
		<path class="st4" d="M1673.9,767.4v72.5c0,1.2-1,2.3-2.3,2.3h-17.6c-1.3,0-2.3-1-2.3-2.3v-72.5c0-1.3,1-2.3,2.3-2.3h17.6
			C1672.9,765.1,1673.9,766.1,1673.9,767.4z"/>
	</g>
	<g style="clip-path:url(#Path_66288_00000179632592871398928720000017942146147100735378_);">
		<path class="st4" d="M1650.1,767.4v72.5c0,1.2-1,2.3-2.3,2.3h-17.6c-1.3,0-2.3-1-2.3-2.3v-72.5c0-1.3,1-2.3,2.3-2.3h17.6
			C1649.1,765.1,1650.1,766.1,1650.1,767.4z"/>
	</g>
	<g style="clip-path:url(#Path_66288_00000179632592871398928720000017942146147100735378_);">
		<path class="st4" d="M1626.1,767.4v72.5c0,1.2-1,2.3-2.3,2.3h-17.6c-1.3,0-2.3-1-2.3-2.3v-72.5c0-1.3,1-2.3,2.3-2.3h17.6
			C1625,765.1,1626.1,766.1,1626.1,767.4z"/>
	</g>
	<g style="clip-path:url(#Path_66288_00000179632592871398928720000017942146147100735378_);">
		<g>
			<g>
				<path class="st4" d="M1552.3,703h12c3.6,0,6.5,2,6.5,4.5v130.7c0,2.5-2.9,4.5-6.5,4.5h-12c-3.6,0-6.5-2-6.5-4.5V707.5
					C1545.8,705,1548.7,703,1552.3,703z"/>
			</g>
			<g>
				<polygon class="st16" points="1570.7,756.3 1570.7,768.4 1545.8,777.4 1545.8,765.3 				"/>
			</g>
			<g>
				<polygon class="st16" points="1570.7,737.8 1570.7,749.9 1545.8,758.9 1545.8,746.8 				"/>
			</g>
		</g>
		<g>
			<g>
				<path class="st17" d="M1581,703h12c3.6,0,6.5,2,6.5,4.5v130.7c0,2.5-2.9,4.5-6.5,4.5h-12c-3.6,0-6.5-2-6.5-4.5V707.5
					C1574.6,705,1577.5,703,1581,703z"/>
			</g>
			<g>
				<polygon class="st16" points="1599.5,756.3 1599.5,768.4 1574.6,777.4 1574.6,765.3 				"/>
			</g>
			<g>
				<polygon class="st16" points="1599.5,737.8 1599.5,749.9 1574.6,758.9 1574.6,746.8 				"/>
			</g>
		</g>
		<g>
			<g>
				<path class="st17" d="M1523.3,703h12c3.6,0,6.5,2,6.5,4.5v130.7c0,2.5-2.9,4.5-6.5,4.5h-12c-3.6,0-6.5-2-6.5-4.5V707.5
					C1516.9,705,1519.7,703,1523.3,703z"/>
			</g>
			<g>
				<polygon class="st16" points="1541.8,756.3 1541.8,768.4 1516.9,777.4 1516.9,765.3 				"/>
			</g>
			<g>
				<polygon class="st16" points="1541.8,737.8 1541.8,749.9 1516.9,758.9 1516.9,746.8 				"/>
			</g>
		</g>
	</g>
	<g style="clip-path:url(#Path_66288_00000179632592871398928720000017942146147100735378_);">
		<g>
			<g>
				<g>
					<path class="st16" d="M1708.3,958.9c0,4.8-14.7,8.6-32.8,8.6c-18.1,0-32.8-3.9-32.8-8.6c0-4.8,14.7-8.6,32.8-8.6
						C1693.6,950.3,1708.3,954.1,1708.3,958.9z"/>
				</g>
			</g>
		</g>
		<g>
			<g>
				<g>
					<path class="st17" d="M1705.9,1012.1h-60.8c-1.4,0-2.5-1.1-2.5-2.5v-36h65.8v36C1708.4,1010.9,1707.3,1012.1,1705.9,1012.1z"/>
				</g>
			</g>
		</g>
		<g>
			<g>
				<g>
					<g>
						<path class="st18" d="M1669.2,969.5c0,0-12.1-7.6-9-26.6c3.1-19.1,14.2-23.7,23-19.4c9.2,4.4,19.9,29.1-0.5,46.1
							C1675.9,970.1,1669.2,969.5,1669.2,969.5z"/>
					</g>
				</g>
			</g>
			<g>
				<g>
					<g>
						<path class="st18" d="M1670.8,927.4c-0.4-0.5-17-8.4-15.6-29c1.4-20.6,20.3-22.9,28.5-9c8.2,13.9,1,31.6-3.2,35.2
							C1678,925.9,1670.8,927.4,1670.8,927.4z"/>
					</g>
				</g>
			</g>
			<g>
				<g>
					<g>
						<path class="st18" d="M1685.6,929c0,0,9.5-26.1,26.5-23.8c17,2.4,10.3,24,0,29.4c-10.3,5.3-21.1,5-21.1,5L1685.6,929z"/>
					</g>
				</g>
			</g>
			<g>
				<g>
					<g>
						<path class="st18" d="M1706.1,908c0,0-9.4-11-1-15.1c7.8-3.8,12,8.4,7.9,15.1C1709.6,908.3,1706.1,908,1706.1,908z"/>
					</g>
				</g>
			</g>
		</g>
		<g>
			<g>
				<g>
					<g>
						<path class="st19" d="M1708,926.2c0-0.2,0-0.4-0.1-0.5c-0.1-0.3-0.2-0.5-0.3-0.7c-0.1-0.2-0.3-0.3-0.4-0.5
							c-0.2-0.2-0.4-0.3-0.5-0.4c-0.3-0.2-0.5-0.3-0.7-0.3c-0.3-0.1-0.5-0.1-0.7-0.1c-0.4,0-0.6,0-0.8,0.1c-0.3,0.1-0.5,0.2-0.6,0.2
							c-0.8,0.6-0.9,0.8-1,0.9c-0.2,0.3-0.2,0.5-0.3,0.6c-0.1,0.3-0.1,0.5-0.1,0.8c0,0.2,0,0.5,0.1,0.7c0.1,0.2,0.2,0.4,0.2,0.6
							c0.2,0.3,0.3,0.5,0.4,0.6c0.2,0.2,0.4,0.3,0.6,0.5c0.3,0.1,0.5,0.2,0.6,0.3c0.2,0.1,0.6,0.1,0.7,0.1c0.4,0,0.6,0,0.7-0.1
							c0.3-0.1,0.5-0.2,0.6-0.3c0.3-0.2,0.4-0.3,0.5-0.4c0.3-0.3,0.4-0.5,0.5-0.7c0.1-0.2,0.2-0.4,0.2-0.6c0.1-0.3,0.1-0.5,0.1-0.7
							C1708,926.3,1708,926.3,1708,926.2z"/>
					</g>
				</g>
			</g>
			<g>
				<g>
					<g>
						<path class="st19" d="M1703.4,917.3c-0.1-0.2-0.2-0.4-0.2-0.6c-0.2-0.3-0.4-0.6-0.7-0.7c-0.3-0.2-0.6-0.2-1-0.3
							c-0.3,0-0.5,0-0.7,0c-0.4,0-0.7,0.1-1,0.3c-0.2,0.2-0.6,0.5-0.6,0.5c-0.2,0.2-0.4,0.5-0.5,0.9c-0.1,0.3-0.1,0.4-0.1,0.6
							c0,0.3,0,0.5,0.1,0.6c0,0.2,0.1,0.4,0.2,0.6c0.1,0.2,0.3,0.4,0.4,0.5c0.2,0.2,0.4,0.4,0.6,0.5c0.2,0.1,0.3,0.2,0.5,0.2
							c0.3,0.1,0.5,0.1,0.7,0.1c0.1,0,0.4,0,0.6-0.1c0.2-0.1,0.4-0.1,0.6-0.3c0.1-0.1,0.3-0.2,0.5-0.4c0.1-0.2,0.3-0.3,0.4-0.5
							c0.1-0.2,0.2-0.4,0.2-0.6c0-0.2,0.1-0.6,0.1-0.7C1703.4,917.7,1703.4,917.5,1703.4,917.3z"/>
					</g>
				</g>
			</g>
			<g>
				<g>
					<g>
						<path class="st19" d="M1715.8,913c-0.1-0.3-0.2-0.5-0.3-0.7c-0.1-0.1-0.2-0.2-0.4-0.3c-0.3-0.4-0.6-0.5-0.9-0.6
							c-0.2,0-0.3,0-0.5-0.1c-0.3,0-0.7,0.1-1,0.3c-0.3,0.2-0.6,0.5-0.8,0.8c-0.1,0.2-0.2,0.3-0.2,0.5c-0.1,0.2-0.1,0.6-0.1,0.6
							c0.2,1.1,0.2,1.3,0.3,1.4c0.4,0.5,0.7,0.7,0.7,0.8c0.2,0.1,0.3,0.2,0.5,0.2c0,0,0.5,0.1,0.5,0.1c0.2,0,0.4-0.1,0.5-0.1
							c0.8-0.4,1.1-0.6,1.2-0.9c0.2-0.5,0.3-0.7,0.4-0.9C1715.9,913.7,1715.9,913.3,1715.8,913z"/>
					</g>
				</g>
			</g>
			<g>
				<g>
					<g>
						<path class="st19" d="M1677.7,933.1c-0.1-0.2-0.2-0.4-0.2-0.6c-0.6-0.7-0.7-0.8-0.9-0.9c-0.4-0.3-0.6-0.4-0.9-0.5
							c-0.2,0-0.3,0-0.5-0.1c-0.3,0-0.7,0.1-1,0.3c-0.2,0.2-0.4,0.3-0.5,0.4c-0.2,0.2-0.4,0.4-0.5,0.6c-0.1,0.2-0.2,0.4-0.2,0.6
							c-0.1,0.3-0.1,0.5-0.1,0.7c0,0.3,0,0.5,0.1,0.7c0.1,0.3,0.2,0.4,0.2,0.6c1.1,1,1.3,1.1,1.5,1.2c0.2,0.1,0.4,0.1,0.6,0.1
							c0.3,0,0.5,0,0.7-0.1c0.3-0.1,0.5-0.2,0.6-0.2c0.2-0.1,0.4-0.3,0.5-0.4c0.2-0.2,0.3-0.3,0.4-0.5c0.1-0.2,0.2-0.4,0.2-0.6
							C1677.8,933.5,1677.8,933.3,1677.7,933.1z"/>
					</g>
				</g>
			</g>
			<g>
				<g>
					<g>
						<path class="st19" d="M1672.1,942.3l-0.2-0.5c-0.2-0.3-0.4-0.5-0.7-0.7c-0.2-0.1-0.5-0.2-0.7-0.3c-0.3-0.1-0.6-0.1-0.8-0.1
							c-0.2,0-0.4,0-0.7,0.1c-0.4,0.1-0.7,0.3-1.1,0.6c-0.2,0.2-0.3,0.3-0.4,0.5c-0.1,0.2-0.2,0.4-0.3,0.6c-0.1,0.3-0.1,0.5,0,0.8
							c0,0.3,0.1,0.5,0.2,0.7c0.1,0.1,0.2,0.3,0.3,0.4c0.2,0.2,0.5,0.3,0.7,0.4c0.1,0.1,0.2,0.2,0.3,0.2c0.3,0.2,0.6,0.3,1,0.3
							c0.3,0,0.5,0,0.7-0.2c0.2-0.1,0.5-0.2,0.6-0.4c0.2-0.2,0.4-0.5,0.5-0.8c0.2-0.2,0.4-0.7,0.4-0.7
							C1672.2,943,1672.2,942.6,1672.1,942.3z"/>
					</g>
				</g>
			</g>
			<g>
				<g>
					<g>
						<path class="st19" d="M1687.8,942.1c0-0.3-0.1-0.7-0.3-1l-0.3-0.4c-0.2-0.2-0.5-0.4-0.9-0.5c-0.6-0.2-0.7-0.2-0.9-0.2
							c-0.2,0-0.4,0-0.6,0.1c-0.2,0.1-0.4,0.1-0.5,0.2c-0.2,0.1-0.4,0.2-0.5,0.4c-0.1,0.1-0.3,0.3-0.3,0.5c-0.1,0.2-0.2,0.3-0.2,0.5
							c-0.1,0.5-0.1,0.7,0,1.2c0.1,0.3,0.2,0.5,0.3,0.6c0.1,0.2,0.2,0.3,0.4,0.5c0.1,0.1,0.4,0.3,0.5,0.4c0.2,0.1,0.3,0.2,0.5,0.2
							c0.6,0.1,0.6,0.1,1.2,0c0.2-0.1,0.4-0.1,0.6-0.2c0.2-0.1,0.3-0.2,0.5-0.4c0.1-0.2,0.3-0.3,0.4-0.5c0.2-0.3,0.3-0.7,0.3-1.1
							C1687.7,942.2,1687.8,942.2,1687.8,942.1z"/>
					</g>
				</g>
			</g>
			<g>
				<g>
					<g>
						<path class="st19" d="M1679.2,958.6c-0.2-1-0.3-1.2-0.4-1.3c-0.1-0.1-0.2-0.3-0.3-0.4c-0.2-0.2-0.3-0.3-0.5-0.4
							c-0.8-0.3-1-0.3-1.1-0.3c-0.3,0-0.5,0-0.6,0.1c-0.3,0.1-0.5,0.2-0.7,0.3c-0.4,0.2-0.6,0.5-0.8,0.7c-0.1,0.1-0.2,0.4-0.2,0.5
							c-0.1,0.8-0.1,1.1,0,1.3c0.4,0.8,0.5,0.9,0.6,1c0.2,0.2,0.4,0.3,0.6,0.4c2,0.2,2.2,0.1,2.3,0c0.1-0.1,0.4-0.3,0.5-0.3
							c0.2-0.2,0.3-0.3,0.4-0.5c0.1-0.1,0.2-0.5,0.2-0.5C1679.2,959,1679.2,958.8,1679.2,958.6
							C1679.2,958.6,1679.2,958.6,1679.2,958.6z"/>
					</g>
				</g>
			</g>
			<g>
				<g>
					<g>
						<path class="st19" d="M1679.5,948.3c0-0.1-0.1-0.4-0.1-0.5c-0.1-0.3-0.2-0.5-0.2-0.6c-0.1-0.1-0.2-0.2-0.2-0.3
							c-0.1-0.1-0.2-0.2-0.3-0.3c-0.1-0.1-0.3-0.2-0.4-0.3c-0.3-0.2-0.5-0.2-0.6-0.3c-0.2,0-0.5-0.1-0.6-0.1c-0.3,0-0.4,0.1-0.6,0.1
							c-0.2,0.1-0.4,0.2-0.6,0.2c-0.3,0.2-0.5,0.3-0.6,0.5c-0.3,0.3-0.5,0.6-0.5,0.9c-0.1,0.2-0.1,0.4-0.1,0.6c0,0.2,0,0.5,0.1,0.6
							c0.4,0.8,0.5,0.9,0.6,1.1c0.2,0.2,0.3,0.3,0.5,0.4c0.3,0.1,0.5,0.2,0.6,0.3c0.3,0.1,0.5,0.1,0.7,0.1c0.3,0,0.5,0,0.6-0.1
							c0.2,0,0.4-0.1,0.6-0.2c0.6-0.5,0.7-0.7,0.8-0.8c0.3-0.5,0.3-0.7,0.3-1.2C1679.5,948.4,1679.5,948.3,1679.5,948.3z"/>
					</g>
				</g>
			</g>
			<g>
				<g>
					<g>
						<path class="st19" d="M1669.2,911.6c-0.1-0.2-0.2-0.5-0.4-0.6c-0.2-0.2-0.4-0.3-0.6-0.4c-0.2-0.1-0.5-0.2-0.7-0.2
							c-0.2,0-0.3,0-0.5,0.1c-0.2,0-0.3,0.1-0.5,0.2c-0.2,0.1-0.5,0.2-0.7,0.3c-0.2,0.1-0.4,0.3-0.5,0.5c-0.2,0.2-0.3,0.4-0.3,0.7
							c-0.1,0.3-0.1,0.5,0,0.8c0,0.3,0.1,0.5,0.2,0.7l0.3,0.4c0.2,0.2,0.5,0.3,0.7,0.4c0.2,0.1,0.3,0.2,0.5,0.3
							c0.2,0.1,0.5,0.2,0.7,0.2c0.2,0,0.3-0.1,0.5-0.1c0.3-0.1,0.6-0.3,0.9-0.5c0.1-0.1,0.2-0.3,0.3-0.4c0.2-0.3,0.3-0.6,0.3-1
							c0-0.2,0-0.4,0.1-0.6C1669.3,912.1,1669.3,911.9,1669.2,911.6z"/>
					</g>
				</g>
			</g>
			<g>
				<g>
					<g>
						<path class="st19" d="M1681.4,898.2c-0.1-0.2-0.1-0.3-0.3-0.4c-0.1-0.1-0.2-0.3-0.3-0.3c-0.1-0.1-0.3-0.2-0.4-0.2
							c-0.4-0.2-0.6-0.3-0.8-0.4c-0.2,0-0.3,0-0.5-0.1c-0.3,0-0.7,0.1-1,0.3c-0.1,0.1-0.3,0.2-0.4,0.3c-0.2,0.2-0.4,0.5-0.5,0.9
							c-0.1,0.4-0.1,0.5-0.1,0.7c0,0.2,0,0.3,0.1,0.5c0.1,0.3,0.3,0.6,0.5,0.9l0.4,0.3c0.3,0.2,0.6,0.3,0.7,0.3
							c0.2,0,0.5,0.1,0.6,0.1c0.3,0,0.4,0,0.6-0.1c0.6-0.2,1-0.6,1-0.6c0,0,0.3-0.4,0.3-0.4c0.1-0.2,0.1-0.3,0.2-0.5
							c0-0.2,0-0.3,0.1-0.5C1681.6,898.7,1681.5,898.5,1681.4,898.2z"/>
					</g>
				</g>
			</g>
			<g>
				<g>
					<g>
						<path class="st19" d="M1669.3,899.2c0-0.1-0.1-0.5-0.1-0.5c0-0.1-0.2-0.5-0.2-0.5c-0.4-0.5-0.7-0.8-0.8-0.8
							c-0.1-0.1-0.5-0.2-0.5-0.2c-0.6-0.1-0.5-0.1-0.8,0c-0.3,0.1-0.7,0.2-0.8,0.2c-0.2,0.1-0.3,0.2-0.4,0.3
							c-0.1,0.1-0.3,0.4-0.4,0.4c-0.3,0.7-0.3,1-0.3,1.1c0,0.3,0,0.4,0,0.5c0,0.3,0.1,0.7,0.3,1c0.1,0.1,0.2,0.3,0.3,0.4
							c0.2,0.2,0.5,0.4,0.9,0.5c0.8,0.1,1.1,0,1.2,0c0.1,0,0.5-0.2,0.5-0.2c0.6-0.5,0.8-0.7,0.9-0.8c0.3-0.9,0.3-1.1,0.4-1.2
							C1669.3,899.3,1669.3,899.2,1669.3,899.2z"/>
					</g>
				</g>
			</g>
			<g>
				<g>
					<g>
						<path class="st19" d="M1672.8,888.9c-0.1-0.4-0.1-0.8-0.2-1.1c-0.1-0.2-0.2-0.5-0.3-0.7c-0.1-0.2-0.3-0.4-0.5-0.5
							c-0.2-0.1-0.5-0.2-0.7-0.2c-0.3-0.1-0.5-0.1-0.8,0c-0.2,0.1-0.3,0.1-0.5,0.2c-0.3,0.2-0.5,0.4-0.7,0.7
							c-0.1,0.2-0.1,0.3-0.2,0.5c-0.1,0.3-0.1,0.7,0,1c0.1,0.4,0.1,0.8,0.2,1.1c0.1,0.3,0.2,0.5,0.3,0.7c0.1,0.2,0.3,0.4,0.5,0.5
							c0.2,0.1,0.5,0.2,0.7,0.2c0.3,0.1,0.5,0,0.8,0l0.5-0.2c0.3-0.2,0.5-0.4,0.7-0.7c0.1-0.2,0.1-0.3,0.2-0.5
							C1672.9,889.5,1672.9,889.2,1672.8,888.9z"/>
					</g>
				</g>
			</g>
		</g>
		<g>
			<g>
				<g>
					<path class="st4" d="M1711.6,976.4c0,4.8-16.3,8.6-36.4,8.6s-36.4-3.8-36.4-8.6c0-0.3,0.1-0.6,0.2-0.9l3.7-16.6
						c0,4.8,14.7,8.6,32.8,8.6c18.1,0,32.8-3.9,32.8-8.6l3.2,16.8C1711.5,976,1711.6,976.2,1711.6,976.4z"/>
				</g>
			</g>
		</g>
	</g>
</g>
</svg>
