<?xml version="1.0" encoding="utf-8"?>
<!-- Generator: Adobe Illustrator 27.6.1, SVG Export Plug-In . SVG Version: 6.00 Build 0)  -->
<svg version="1.1" id="Layer_1" xmlns="http://www.w3.org/2000/svg" xmlns:xlink="http://www.w3.org/1999/xlink" x="0px" y="0px"
	 viewBox="0 0 1920.9 1041.5" style="enable-background:new 0 0 1920.9 1041.5;" xml:space="preserve">
<style type="text/css">
	.st0{clip-path:url(#SVGID_00000019672296704822102420000014044593909433537437_);}
	.st1{fill:#EDDB74;}
	.st2{fill:#D8C850;}
	.st3{fill:#9B7D00;}
	.st4{clip-path:url(#SVGID_00000011744925199520780760000008414936648498650763_);}
	.st5{fill:#1C4732;}
	.st6{clip-path:url(#SVGID_00000142893950509622596630000005352857778961251507_);}
	.st7{fill:#B7A018;}
	.st8{fill:none;stroke:#937E02;stroke-miterlimit:10;}
	.st9{fill:none;stroke:#937E02;stroke-linecap:round;stroke-linejoin:round;stroke-miterlimit:10;}
	.st10{fill:#937E02;}
	.st11{fill:none;stroke:#776300;stroke-linecap:round;stroke-linejoin:round;stroke-miterlimit:10;}
	.st12{fill:#99850B;}
	.st13{fill:none;stroke:#B7A018;stroke-linecap:round;stroke-linejoin:round;stroke-miterlimit:10;}
	.st14{fill:#AA9011;}
	.st15{fill:none;stroke:#99850B;stroke-miterlimit:10;}
	.st16{fill:none;stroke:#B7A018;stroke-width:1.5;stroke-linecap:round;stroke-linejoin:round;stroke-miterlimit:10;}
	.st17{fill:#CA5B17;}
	.st18{fill:#EF920F;}
	.st19{fill:#34684E;}
	.st20{clip-path:url(#SVGID_00000058557287703006635230000013056458292760557742_);}
	.st21{fill:#364715;}
	.st22{fill:none;stroke:#364715;stroke-width:3;stroke-miterlimit:10;}
	.st23{fill:none;stroke:#D37300;stroke-linecap:round;stroke-miterlimit:10;}
	.st24{fill:none;stroke:#D37300;stroke-width:1.027;stroke-linecap:round;stroke-miterlimit:10;}
	.st25{clip-path:url(#SVGID_00000177445432171885786610000012995403303675015835_);}
	.st26{fill:#183A29;}
	.st27{fill:none;stroke:#28523E;stroke-linecap:round;stroke-linejoin:round;stroke-miterlimit:10;}
	.st28{fill:none;stroke:#364715;stroke-linecap:round;stroke-linejoin:round;stroke-miterlimit:10;}
</style>
<g>
	<g>
		<defs>
			<rect id="SVGID_1_" y="23.4" width="1914" height="1018.1"/>
		</defs>
		<clipPath id="SVGID_00000034087648957020710410000002640806195763984277_">
			<use xlink:href="#SVGID_1_"  style="overflow:visible;"/>
		</clipPath>
		<g style="clip-path:url(#SVGID_00000034087648957020710410000002640806195763984277_);">
			<path class="st1" d="M500.3,776.7c-7.7,9.8-22,10.7-34.5,10.7c-183.1,0.4-375.3,5.6-558.4,6.1c-7.8-28-13.2-56.7-16.1-85.6
				c-0.7-6.9,2.2-17.8-2.9-22.4c8-4.4,21.7-6.5,30.5-4.1C-32.7,670.2,16,659,65.7,656.8c146.6-6.5,286.6,65.4,433.3,70.7
				C500.7,746.4,500.5,757.7,500.3,776.7z"/>
			<path class="st1" d="M1526.9,803.4h468.8c8.1,0,23.8-1.1,31.9-1.1V699.8c-233.5-68.1-490.5-52.6-714.1,43
				C1387.9,759.8,1452.4,786.3,1526.9,803.4z"/>
			<path class="st1" d="M1194.1,763.6c-35.9-14.9-71.8-29.7-107.7-44.6c-27.2-11.2-54.5-22.5-83-29.6
				c-112.9-28.1-230.4,11.4-339.8,51c120.6,59.2,257.2,89.6,390.8,75C1101.7,810.3,1155.2,790.9,1194.1,763.6z"/>
			<path class="st2" d="M2036.9,1066.1c1.9-10,3.9-145.6,5.8-155.6c5.7-29.7-1.4-64.5-6.2-94.4c-119.5-8.9-237.3-36.6-355.3-54.5
				c-119.7-18.1-225-53.4-346.1-59.3c-115.8-5.6-239.4,50.6-353.8,60.2c-89.7,7.5-173.7-29.8-260.1-46.8
				c-91.2-17.9-147.2-20.7-239-8.5c-78.1,10.4-190.5,57-270.4,54.4c-109.9-3.6-215.3-61.9-322.7-81c-4.8,61.6,4.5,361.3,1,385.5"/>
		</g>
		<g style="clip-path:url(#SVGID_00000034087648957020710410000002640806195763984277_);">
			<path class="st3" d="M573.4,1070.1c131.3-137.4,294.5-207,427.7-242.1c324.5-85.5,659.9-64.3,992.4-63.3c61.1,0.2,87.6-3,87.6-3
				v304.5L573.4,1070.1z"/>
		</g>
	</g>
	<g>
		<defs>
			<rect id="SVGID_00000085245493841590583660000008929806988698353576_" y="23.4" width="1914" height="1018.1"/>
		</defs>
		<clipPath id="SVGID_00000079475998837335248530000013805623242705866426_">
			<use xlink:href="#SVGID_00000085245493841590583660000008929806988698353576_"  style="overflow:visible;"/>
		</clipPath>
		<g style="clip-path:url(#SVGID_00000079475998837335248530000013805623242705866426_);">
			<path class="st5" d="M833.6,887.3c-4.3-9.8-8.8-19.9-17.1-26.6c-8.8-7.1-20.7-9.4-32-8.5c-4.5,0.4-9.8,0.9-15.1,1.7
				c-10.6,1.5-21.3-3.9-25.7-13.7c-6.7-15-23-26.2-39.6-24.3c-6.2,0.7-12.9,2.9-18.5,0c-4.6-2.4-6.8-7.6-9.3-12.1
				c-11.9-20.9-36.9-32-60.9-31.5c-16,0.3-31.5,5-45.9,12.3c-11.2,5.7-24.6,4.8-34.9-2.6c-15.1-10.8-35.6-14.6-54.3-11.5
				c-25.6,4.2-52.7,26.5-72.7,43.1c46.6,4.6,91,8.3,137.4,14.7C645.1,841.8,745.8,862.2,833.6,887.3z"/>
			<path class="st5" d="M297.4,827.8c-1.3-14.1-6.4-27.9-14.6-39.5c-20.2-28.2-57.1-40.6-91.8-39.8c-28.2,0.7-54.4,5.8-77.9,19.7
				c-7.6,4.5-17.2,3.3-23.5-2.9c-2.8-2.7-5.6-5.3-8.7-7.6c-12.6-8.9-29.6-9.7-44.4-5.5c-7.4,2.1-13.7,5-19.6,8.5
				c-10.2,6-23.2,3.6-30.8-5.4c-4.4-5.2-8.5-9.7-9.5-10.6c-37.4-32.2-85-9.4-112.3,24.1c-12.9,15.9-21.5,33.3-25,53.3
				c-0.8,4.8-3.4,45.3-7.9,46.3C-18.9,835.6,144,832.7,297.4,827.8z"/>
		</g>
	</g>
	<g>
		<defs>
			<polygon id="SVGID_00000162332804103381027360000000644738294051092392_" points="1914,1041.5 0,1041.5 0,23.4 1920.9,23.4 			
				"/>
		</defs>
		<clipPath id="SVGID_00000174580137469358797850000009746788432376079010_">
			<use xlink:href="#SVGID_00000162332804103381027360000000644738294051092392_"  style="overflow:visible;"/>
		</clipPath>
		<g style="clip-path:url(#SVGID_00000174580137469358797850000009746788432376079010_);">
			<path class="st7" d="M-102.2,1074.3l641.3-3.8c0,0,56.5-15.8,70-29.1c17.8-17.4,42.4-37.2,74.4-61.8
				c67.5-51.9,154.5-93.9,154.5-93.9c-4-1.2-8-2.4-12.1-3.6c-249.7-72.7-673.7-100.4-930-61.7L-102.2,1074.3z"/>
			<g>
				<path class="st7" d="M454.4,949.7c26.5,2.8,57.5,5.8,84.1,8.7c47.4,5.1,95.1,10.2,140.6,24.2c-9.7,4.8-69.5,56.3-98.8,87.6
					c-0.9,0-222.4,2-222.4,2L337,950C337,950,454.4,950.2,454.4,949.7z"/>
				<g>
					<path class="st8" d="M355.7,943.8c11.7,55.2,21.3,127.7,21.3,129"/>
					<path class="st8" d="M380.1,943.8c0.6,4.2,21.3,127.7,21.3,129"/>
					<path class="st8" d="M406.6,943.8c0.6,4.2,21.3,127.7,21.3,129"/>
					<path class="st9" d="M434.1,943.8c0.6,4.2,21.3,127.7,21.3,129"/>
					<path class="st9" d="M463.6,953.4c0.6,4.2,19.3,118.1,19.3,119.5"/>
					<path class="st9" d="M488.4,958.1c0.6,4.2,19,113.3,19,114.7"/>
					<path class="st9" d="M516.9,962.2c0.6,4.2,17.6,106.6,17.6,107.9"/>
					<path class="st9" d="M548.8,969c0.6,4.2,15.6,99.8,15.6,101.1"/>
					<path class="st9" d="M576.8,969c0.5,3.2,9.5,60.7,13.6,87.5"/>
					<path class="st9" d="M612.4,975.6c0.4,2.3,4.3,30.8,7.7,55.8"/>
					<path class="st9" d="M645.5,981.2c0.1,0.5,1.5,10.3,3.5,23.1"/>
				</g>
			</g>
			<g>
				<path class="st10" d="M265.7,880.8c0,0,5.4-55.5,8.1-76c69.8,2.7,156.9,6.1,234.7,18c-15.6,36.6-38.6,90.4-54.1,127
					C454.3,950.8,337,950,337,950L265.7,880.8z"/>
				<path class="st11" d="M274.9,813.6c-0.5,1,153,10.4,226.4,18.2"/>
				<path class="st11" d="M274.2,833.3c-0.5,1,146.4,11.9,219.7,19.8"/>
				<path class="st11" d="M269.3,857c-0.5,1,142,10,215.5,16.1"/>
				<path class="st11" d="M266.5,880.5c0.5-0.6,129.8,7.7,207.7,13.8"/>
				<path class="st11" d="M296.3,907.9c37.1,2,113.4,5.5,170.6,9.3"/>
				<path class="st11" d="M321.7,933.2c37.8,0.2,91.4,0.4,135.9,1.3"/>
			</g>
			<g>
				<path class="st12" d="M273.9,804.7l-7.5,77l-369.1,37.7c-1.5-1-2-96.7-1.5-98.9c15.3-3,34.8-4.5,53.3-6.6
					C43.1,803.5,151.3,797.9,273.9,804.7z"/>
				<g>
					<path class="st13" d="M77.2,805.1c0.2,5.2,1.2,11.6,1.7,16.8c2.5,26,5,52,7.5,78"/>
					<path class="st13" d="M46.5,806.7c0.2,5.2,6.2,71.5,8.7,97.5"/>
					<path class="st13" d="M15.1,810.2c0.2,5.2,0.7,10.4,1.2,15.7c2.5,26,5,53.7,7.5,79.7"/>
					<path class="st13" d="M-19.9,811c0.2,5.2,0.7,10.4,1.2,15.7c2.5,26,5,55.6,7.5,81.6"/>
					<path class="st13" d="M-52.1,814.6c0.2,5.2,0.7,10.4,1.2,15.7c2.5,26,5,55.7,7.5,81.8"/>
					<path class="st13" d="M-88.7,818.3c0.2,5.2,6.3,71.4,8.8,97.4"/>
					<line class="st13" x1="107.7" y1="803.6" x2="116.6" y2="896.4"/>
					<line class="st13" x1="143.1" y1="803.6" x2="151" y2="892.2"/>
					<line class="st13" x1="169" y1="803" x2="177.1" y2="889.6"/>
					<line class="st13" x1="195.2" y1="803" x2="202.5" y2="885.7"/>
					<line class="st13" x1="223.3" y1="804.5" x2="229.4" y2="883.5"/>
					<line class="st13" x1="249.9" y1="804.5" x2="254.6" y2="880.8"/>
				</g>
			</g>
			<g>
				<path class="st14" d="M101.9,898.6c12.8,63,13.8,175.6,13.8,175.6c0,1.4,241.6-3.4,241.6-3.4s-15-87.1-20.4-120.8
					c0,0-47.1-49.6-71.3-69.2C214.1,884,101.9,898.6,101.9,898.6z"/>
				<g>
					<line class="st9" x1="108.9" y1="921.6" x2="300.9" y2="917.2"/>
					<line class="st9" x1="112.1" y1="898.6" x2="280.2" y2="894.8"/>
					<line class="st9" x1="112.1" y1="947.9" x2="324.3" y2="940.9"/>
					<line class="st9" x1="112.1" y1="976.5" x2="337" y2="970.3"/>
					<line class="st9" x1="117" y1="1005" x2="341.9" y2="998.9"/>
					<line class="st9" x1="117" y1="1034.7" x2="341.9" y2="1028.6"/>
					<line class="st9" x1="117" y1="1060.5" x2="352.2" y2="1054.1"/>
				</g>
			</g>
			<g>
				<path class="st15" d="M74.8,900.1c3.6,58.8,8.2,117.5,13.8,176.1"/>
				<path class="st15" d="M40.9,900.1c3.6,58.8,8.2,117.5,13.8,176.1"/>
				<path class="st15" d="M12.5,900.1c3.6,58.8,8.2,117.5,13.8,176.1"/>
				<path class="st15" d="M-22.5,900.1c3.6,58.8,8.2,117.5,13.8,176.1"/>
				<path class="st15" d="M-61.6,900.1c3.6,58.8,8.2,117.5,13.8,176.1"/>
				<path class="st15" d="M-98.1,900.1c3.6,58.8,8.2,117.5,13.8,176.1"/>
			</g>
			<g>
				<path class="st14" d="M452.4,950.7l56.1-128c0,0,25.1,2.6,56.6,6.9c34.8,4.7,77.2,11.2,97.2,15.1c1.5,0.3,3.2,0.6,5,0.9
					c19.6,3.7,52.6,9.4,83.4,16.5c47,11,90.8,25,90.8,25l-162.4,95.4L452.4,950.7z"/>
				<path class="st16" d="M474.3,954.9c16.3-34.9,36.9-88.2,58.3-128.2"/>
				<path class="st16" d="M499.2,955.4c16.3-34.9,35.3-85.3,56.8-125.3"/>
				<path class="st16" d="M520.3,965.6c16.3-34.9,39-92.4,60.4-132.4"/>
				<path class="st16" d="M550.8,965.6c16.3-34.9,36.6-88.1,58-128.1"/>
				<path class="st16" d="M582.4,970.3c16.3-34.9,35.8-88,57.3-128"/>
				<path class="st16" d="M609.2,975.1c16.2-34.6,36.9-88.2,58.1-128"/>
				<path class="st16" d="M643.8,981.2c16.1-34.5,36.7-87.7,57.8-127.5"/>
				<path class="st16" d="M679.1,981.2c15.4-33,34.9-83.1,55.1-122.2"/>
				<path class="st16" d="M724.4,952.6c11.7-27.1,25-58.8,38.6-86.3"/>
				<path class="st16" d="M773.4,923.9c7-16.2,14.4-32.9,21.9-48.6"/>
			</g>
		</g>
	</g>
	<g>
		<g>
			<path class="st17" d="M309.8,714.4l-4,91.9l15.6,0.7c0.4-3,0.2-92.6,0.2-92.6"/>
			<path class="st5" d="M370.8,730.9c0,0,25.7-17,15.6-39c-7-15.3-22.7-19.9-34.6-18.6c-2.2-8.3-12.2-31.7-39.3-33.8
				c-16.7-1.3-34.2,5.9-44.6,18.8c-9.6,12-6.3,31.2-6.3,31.2c-8.3,12.2-10,36.7-2.2,48.3c11.2,16.7,33.8,24.5,53,18.6
				c0,0,15.2,12.6,37.3,4.2C368,753.7,370.8,730.9,370.8,730.9z"/>
			<g>
				<path class="st18" d="M313.7,662.2c0,1.9-1.5,3.4-3.4,3.4c-1.9,0-3.4-1.5-3.4-3.4c0-1.9,1.5-3.4,3.4-3.4
					C312.2,658.8,313.7,660.3,313.7,662.2z"/>
				<path class="st18" d="M288.9,686.3c-1.7,0.9-3.7,0.2-4.6-1.5c-0.9-1.7-0.2-3.7,1.5-4.6c1.7-0.9,3.7-0.2,4.6,1.5
					C291.2,683.4,290.5,685.5,288.9,686.3z"/>
				<circle class="st18" cx="313.7" cy="694.4" r="3.4"/>
			</g>
		</g>
		<g>
			<path class="st17" d="M397.9,716.1l-4.2,95.3l15.7,0.8c0.4-3,0.2-96.1,0.2-96.1"/>
			<path class="st19" d="M345.6,730.9c0,0-25.7-17-15.6-39c7-15.3,22.7-19.9,34.6-18.6c2.2-8.3,12.2-31.7,39.3-33.8
				c16.7-1.3,34.2,5.9,44.6,18.8c9.6,12,6.3,31.2,6.3,31.2c8.3,12.2,14.3,34.3,4.9,49.8c-13.7,22.7-36.6,23-55.8,17.1
				c0,0-15.2,12.6-37.3,4.2C348.4,753.7,345.6,730.9,345.6,730.9z"/>
			<g>
				<path class="st18" d="M387.1,683.3c0,1.9-1.5,3.4-3.4,3.4c-1.9,0-3.4-1.5-3.4-3.4c0-1.9,1.5-3.4,3.4-3.4
					C385.5,679.9,387.1,681.4,387.1,683.3z"/>
				<path class="st18" d="M362.7,707.7c0,1.9-1.5,3.4-3.4,3.4c-1.9,0-3.4-1.5-3.4-3.4c0-1.9,1.5-3.4,3.4-3.4
					C361.1,704.2,362.7,705.8,362.7,707.7z"/>
				<circle class="st18" cx="427.2" cy="683.3" r="3.4"/>
				<path class="st18" d="M406.1,658.8c0,1.9-1.5,3.4-3.4,3.4c-1.9,0-3.4-1.5-3.4-3.4c0-1.9,1.5-3.4,3.4-3.4
					C404.6,655.4,406.1,656.9,406.1,658.8z"/>
				<path class="st18" d="M406.1,711.3c0,1.9-1.5,3.4-3.4,3.4c-1.9,0-3.4-1.5-3.4-3.4c0-1.9,1.5-3.4,3.4-3.4
					C404.6,707.9,406.1,709.4,406.1,711.3z"/>
			</g>
		</g>
	</g>
	<g>
		<defs>
			<rect id="SVGID_00000118372280662595482520000006370363258594981311_" y="23.4" width="1914" height="1018.1"/>
		</defs>
		<clipPath id="SVGID_00000008130235234644559390000010589988136274850439_">
			<use xlink:href="#SVGID_00000118372280662595482520000006370363258594981311_"  style="overflow:visible;"/>
		</clipPath>
		<g style="clip-path:url(#SVGID_00000008130235234644559390000010589988136274850439_);">
			<g>
				<g>
					<path class="st2" d="M1163.9,1030.8c-1.4-20.1,9.4-57.7,19.5-76.1c2.1-3.9,4.3-7.8,7-11.4c8-11,20.2-19.3,32.2-27.4
						c3.6,24-3.7,50.5-19.7,70.7C1190.7,1001.8,1173.7,1014.4,1163.9,1030.8"/>
					<path class="st9" d="M1167.7,1024.8c9.2-19.1,16.9-39.9,26.7-58.7c8.7-16.7,17.9-33.1,27.5-49.2"/>
				</g>
				<g>
					<path class="st2" d="M1160.5,986.6c-7.5-21.3-14.9-42.6-22.4-63.9c-2.3-6.6-4.6-13.3-6-20.1c-3.1-16-0.9-32.7-4.1-48.8
						c-3.6-18.1-13.8-34.1-23.9-49.6c4.3,13.6,6.3,29.9,9.2,43.8c1.2,5.8,2.3,11.8,1.5,17.7c-1.7,11.9-10.9,22-11,34.1
						c-0.1,8.6,4.5,16.5,9,23.8c16,26.4,32.1,52.9,48.1,79.3"/>
					<path class="st9" d="M1104.3,805.1c8.6,19.1,17.4,38.8,17.6,59.8c0.1,11.6-2.3,23.1-1.7,34.6c0.7,11.9,4.6,23.4,9,34.5
						c8.7,22,19.2,43.3,31.5,63.6"/>
				</g>
				<g>
					<path class="st2" d="M1166.5,1024.4c8.4-9.3,16.9-18.8,27.9-24.9c2.1-1.1,4.5-2.2,6.7-1.4c11.4,4.2,24.3,4.7,34.1,11.8
						c3.6,2.6,7.2,5.9,8.2,10.3c0.5,2.1-0.3,3-1,5.1c-0.7,2.1-2,3.9-3.3,5.7c-1.8,2.4-3.7,4.6-5.5,6.9c-4.4,5.3-4.6,5.6-8.9,10.8
						c0,0-2.1-11.9-2.7-20.5c-0.3-4.6-1-9.4-3.7-13.2c-10.1-1.3-21,0-30.8,3.1c-2.5,0.8-5,1.8-7.1,3.3c-1.9,1.4-4.1,3.1-5.7,4.9
						c-3.2,3.7-6.7,7.3-8.6,11.8"/>
					<path class="st21" d="M1192.6,1000.5c-7.9,4.8-19.1,14.3-26.4,23.9c0,0-0.4,12.3,0,15.2c0.5-0.9,4.6-7.4,5.2-8.2
						c5.1-7.3,12.2-12.4,20.8-14.5c9.8-2.4,18.4-2.3,26-1.8c-5.7-4.6-15-10.5-21.7-13.5C1195.2,1001,1192.8,1000.4,1192.6,1000.5z"
						/>
					<path class="st9" d="M1224.6,1047.6c2.6-5.2,5.3-10.4,6.6-16.1c1.3-5.7,1.1-11.9-1.8-17c-3.7-6.4-10.8-9.8-17.7-12.4
						c-4.5-1.7-9-3.2-13.6-4.6"/>
				</g>
				<g>
					<path class="st2" d="M1163.1,1048.6c-5.8-6.8-11.6-13.7-17.4-20.5c-4.4-5.2-9-10.5-15-13.7c-5.7-3-12.3-3.9-18.8-4.4
						c-3.3-0.2-6.8-0.4-9.8,1.2c-3.4,1.8-5.3,5.5-6.4,9.1c-1.7,5.5-2,11.4-0.9,17.1c-6-7-10.2-17.6-7.9-26.5
						c2.3-8.9,9.1-16.6,17.7-19.9c7.8-3,27.7-2.9,27.7-2.1c5,3.9,11.7,7,14.4,12.8c1.6,3.2,11.8,25,15,30.7
						C1161.7,1032.4,1162.4,1042,1163.1,1048.6z"/>
					<path class="st9" d="M1162.2,1037.3c-4.8-7.4-10.1-14.5-15.8-21.2c-5.1-6-10.6-11.8-17.5-15.3c-7-3.5-15.7-4.5-22.5-0.7
						c-5.1,2.8-10,6-12.8,11.2c-3.5,6.5-2.6,20,1.3,26.2"/>
				</g>
				<path class="st22" d="M1162.5,909.9c1.5,83.2,1.7,169.1,0.7,240.8"/>
				<path class="st21" d="M1163.6,928.9c-0.3-4.7-2.9-8.8-5.2-12.9c-11.2-20.5-14.2-44.6-12.5-67.9c1.7-23.3,7.9-46,14-68.5
					c4.2,11.3,9.5,26.9,13.8,38.2c5,13.3,0.7,28.6,1,42.7C1175,884.5,1175.5,907.4,1163.6,928.9z"/>
			</g>
			<g>
				<path class="st22" d="M907.9,823.6c1.5,83.2,1.7,255.3,0.7,327"/>
				<path class="st21" d="M906.6,828.3c-15.9-9.9-30.7-34.7-36.7-52.4c-4.1-12.2-8.8-24.3-14.1-36.1c-1.8-4.1-3.8-8.4-7.2-11.4
					c-3.7-3.3-8.6-4.7-13.1-6.5c-8.8-3.5-16.9-8.8-23.6-15.5c6.8,28.4,39.2,47.6,45.9,76c1.3,5.5,1.4,11.2,2.5,16.8
					c1.5,7.5,4.6,14.5,8.4,21.1c8.8,15.3,23.1,28.9,37.8,38.6"/>
				<path class="st21" d="M906.7,1063.4c-6-0.7-12.2-1.2-18.1-0.1c-6,1.1-11.8,4-15.2,9.1c-3.8,5.6-4,13.1-7.9,18.6
					c-4.5,6.3-12.7,8.7-18.8,13.6c-8.6,6.9-12.2,18-15.3,28.6c2.7-16.5,6.7-34.5,14.1-49.5c5.3-10.7,11.1-22,21.4-28
					C880.8,1047.4,898.5,1049.4,906.7,1063.4z"/>
				<g>
					<path class="st21" d="M909.2,1044.2c9.1-8.8,21.4-20.6,32.1-27.3c6.4-4.1,16-9.5,23-6.5c2.1,5.8,5.6,15.6,7.7,21.4
						c-3.3-0.1-6.7-0.2-10.1-0.3c-8.8-0.2-17.4,3.3-23.6,9.6c-9.2,9.3-20.6,19.9-26.4,28.2L909.2,1044.2z"/>
					<path class="st2" d="M964.2,1010.3c7,2.5,14.5,7.1,20.4,11.7c2.4,1.9,4.8,4,6.4,6.6c2.6,4.4,2.9,9.7,3.1,14.8
						c0.1,3.1,0.2,6.2-0.9,9.1c-0.9,2.4-2.6,4.4-4.2,6.4c-4.8,6.4-8.1,14-9.6,21.8c-6.1-10.4-7.3-23.5-5.7-35.5
						c0.3-2.2,0.7-4.4,0.4-6.6c-0.3-2.3-1.2-4.4-2.2-6.4C969,1025.3,965.9,1017,964.2,1010.3z"/>
				</g>
				<path class="st10" d="M911.1,857.2c-8.2-26.9-18.6-50.7-26.8-77.6c-6-19.5-12-39.3-12.8-59.7c-0.8-18.9,2.8-37.6,5-56.4
					c3.2-27.3,3.3-54.8,3.5-82.2C914.9,669.8,924.2,763,911.1,857.2z"/>
				<g>
					<path class="st2" d="M941,890.3c6.4-7.1,8-7.4,16.7-11.4c8.6-4,19-5.1,27.6-1.1c6.6,3.1,11.6,8.7,16.1,14.4
						c14.2,17.6,26.3,36.8,36.2,57.1C999.2,943.9,962.9,922.3,941,890.3"/>
					<path class="st9" d="M941.6,891.1c16-8.2,30.7-2.1,41.8,6.5c11.1,8.6,19.8,19.9,29.3,30.3c7.1,7.8,15.1,15.2,24.3,20.1"/>
				</g>
				<g>
					<path class="st21" d="M880,885.7c8.5,16.9,12.5,36.1,11.5,55c-0.4,7-1.4,13.9-1.5,20.9c-0.2,21.1,12,44,20.4,63.4v3.1
						c-26.3-22.2-35.8-58.7-37-93c-0.2-5.8-1.7-13.7-5.6-17.9c1.4-9.5,3.8-19,9-27C877.8,888.7,878.4,887.3,880,885.7z"/>
					<path class="st2" d="M872.8,987.1c-7-33.3-8.7-70.4,7.3-101.4c-10.9-2.8-23.9-3.9-37.2-2c3.9,25.2,4.1,50.2,14.8,73.4
						C862.8,968.2,868.1,979.8,872.8,987.1z"/>
					<path class="st9" d="M861.5,882.8c-5.6,34.7-2.4,74.4,10.9,107"/>
				</g>
				<g>
					<path class="st18" d="M955.5,867.5c5.5-14,6.7-16.8,7-30.3c0.1-3.5,0.1-7.1-1.2-10.4c-1.3-3.3-5.6-7.6-9.1-7.9
						c-3.3-0.3-6.3,1.8-8.3,4.4c-1.9,2.6-15,26.3-17.2,35.7c0.6,2.5,0.6,4.6,1.2,7.1c0.5,2.1,1,4.3,1.8,6.3c0.7,1.9,1.6,3.8,2.5,5.6
						c2.5,4.8,4.6,9.2,9,12.2C943.8,889,954.7,869.6,955.5,867.5z"/>
					<g>
						<line class="st23" x1="932.7" y1="861.6" x2="953.1" y2="820.5"/>
						<line class="st23" x1="935.6" y1="876.7" x2="959.7" y2="827.1"/>
						<path class="st23" d="M942.8,827.3c6.3,4.4,12.3,9.1,18.1,14.2"/>
						<path class="st23" d="M936.8,837.7c5.3,3.3,10.3,6.9,15.1,10.8c2.6,2.2,5.2,4.4,7.8,6.7"/>
						<path class="st23" d="M933,847.9c1.6,1.3,3.2,2.6,4.8,3.9c5.9,4.9,11.8,9.8,17.4,15.1"/>
						<path class="st23" d="M932,861.2c6.4,5.5,11.2,9.6,17.6,15.1"/>
					</g>
				</g>
				<path class="st21" d="M941,890.3c-8.9-14-12.2-31.5-9-47.8c1.4-7.2,3.9-14.1,5.8-21.2c2.5-9.3,3.7-18.9,3.8-28.5
					c-4.5,17.5-10.8,34.3-16.9,51.3c-3,8.5-6.4,16.8-8.8,25.5c-6.3,22.7-9.3,54.2-5.5,74.3"/>
			</g>
			<g>
				<path class="st21" d="M1358.3,761.3c-9.4-13.9-7.7-33.6-7.7-50.8c0-12.4,1.4-24.8,2.7-37.1c5.1-45.9,10.2-91.7,15.2-137.6
					c13,21.5,27.8,44.2,28.9,69.3c1,23.1-8.6,45.3-13.2,68C1377.9,704.4,1379,736.9,1358.3,761.3z"/>
				<path class="st10" d="M1353.5,751.2c-16.7-13-24.5-31.5-29.6-51.9c-3.2-12.9-6.1-25.9-8.5-39c-3.9-20.9-6.7-41.9-9.6-62.9
					c-2.1-15.6-4.2-31.3-6.4-46.9c19,27.8,38.5,54.2,43.4,87.5c1.7,11.3,1.6,22.8,2.3,34.2C1347.1,700.3,1346.5,723.8,1353.5,751.2z
					"/>
				<g>
					<path class="st18" d="M1356.1,838.3c-0.2-15-1-32.9,0.6-49c0.1-0.7-0.3-1.2-0.7-0.6c-6.1-17.2-15.8-33.1-28.2-46.6
						c-1-1.1-2-2.1-3.3-2.8c-0.9-0.5-2.2-0.5-3.6-0.3c-3.5,0.5-6.3,3.1-7.4,6.5c-2.4,7.3-2.6,15.2-1.6,22.9
						c1.2,9.4,4.4,18.4,7.7,27.3c3.5,9.4,13,14.5,20,21.8C1345.6,823.6,1352.1,831.3,1356.1,838.3
						C1356.6,839.2,1356.1,838.3,1356.1,838.3z"/>
					<path class="st23" d="M1312.3,758.6c7.3-1.5,21.1-7.9,21.1-7.9"/>
					<path class="st23" d="M1313.2,772.2c0,0,3.8-1.4,6.1-2.3c7.2-3.1,14.3-6.2,21.5-9.3"/>
					<line class="st23" x1="1316.6" y1="785.7" x2="1347.7" y2="771.3"/>
					<path class="st23" d="M1320.7,797.4c10.4-3.4,22.9-8.4,32.8-13.2"/>
					<path class="st23" d="M1329.7,807c7.1-3.1,23.1-9.1,23.1-9.1"/>
					<line class="st23" x1="1340.4" y1="815.4" x2="1354.3" y2="809.7"/>
					<line class="st23" x1="1322.8" y1="742.8" x2="1353.5" y2="818.7"/>
					<line class="st23" x1="1313.9" y1="749.4" x2="1341.9" y2="818.7"/>
				</g>
				<g>
					<path class="st18" d="M1359.5,855.1c2-28.4,24.8-58.7,32.8-68.5c1.6-2,4.4-2.7,6.8-1.8l4.7,1.9c2.8,1.1,4.3,4,3.6,6.9
						c-2.5,10.1-8.3,32.5-11.8,40.7c-7,0.4-13.4,2.2-19.9,5c-2.8,1.2-5.7,2.7-7.4,5.3c-0.9,1.4-1.4,2.9-2,4.5
						c-0.8,2.3-1.5,4.6-2.3,6.9c-0.1,0.4-0.3,0.9-0.7,1.2c-0.3,0.2-0.6,0.2-0.9,0.2C1361,857.1,1360.3,856.2,1359.5,855.1z"/>
					<line class="st23" x1="1397" y1="786.4" x2="1370.1" y2="834.3"/>
					<line class="st24" x1="1404.2" y1="788.8" x2="1384.6" y2="830.4"/>
					<path class="st24" d="M1390.4,791.1c5.9,2.4,9.2,3.6,15.1,6"/>
					<path class="st24" d="M1384.6,798.6c5.9,2.4,11.8,4.7,17.7,7"/>
					<path class="st24" d="M1378.9,806.7c7,2.9,21.7,8.7,21.7,8.7"/>
					<path class="st24" d="M1374.5,814c7,2.9,23.4,9.7,23.4,9.7"/>
					<path class="st24" d="M1371,822.5c7,2.9,24.4,9.1,24.4,9.1"/>
				</g>
				<g>
					<path class="st21" d="M1363.7,934.1c5.3-21.7,13.4-44.5,23.1-64.7l-19-31.8c-3.3,9.2-5.1,18.2-6.3,27.9"/>
					<g>
						<path class="st2" d="M1370.5,837.6c7.1-1.5,15.1-5.5,22.3-5c7.2,0.6,14.5,3.2,19.4,8.5c10.2,11.1,6.5,28.7,10,43.4
							c1.7,7.1,5.2,13.8,5.3,21.1c0.2,9.3-5.2,17.8-10.3,25.6c1-13.6-8.7-27.8-16.4-39.1c-9.6-14.1-18.5-28.7-26.7-43.8
							c-1.7-3.1-4.3-7.7-6.4-10.5"/>
						<path class="st9" d="M1386.3,834.9c6.1,6.8,11.1,14.6,14.9,22.9c3,6.6,5.1,13.5,7.3,20.5c2.6,8.2,5.1,16.4,7.7,24.6
							c2.6,8.5,3,19.7,1.1,28.4"/>
					</g>
				</g>
				<g>
					<path class="st21" d="M1290.6,801.2c5.1,1.6,9.8,4.3,13.8,7.8c5.2,4.5,9.1,10.2,13.8,15.1c6.3,6.5,14.2,11.4,22.8,14.3
						c4.5,1.5,12.2-0.4,16.2,2.2c-10.6-21-32.8-40-53-52.2L1290.6,801.2z"/>
					<g>
						<path class="st2" d="M1304.4,788.5c-4.3,4.5-8.8,8.7-13.6,12.8c-2.7,2.3-5.6,4.6-8.1,7.2c-5,5.1-8.8,11.2-12.5,17.3
							c-6.5,10.6-13.1,21.5-16.4,33.5c-1.7-11.2-4.5-23.1-4.1-34.4c0.7-17.8,17.6-28.4,30.6-40.6
							C1288.5,784.2,1296.3,787,1304.4,788.5z"/>
						<path class="st9" d="M1253.9,860.7c-0.5,5,1.2-13.7,2.5-23.3c0.8-6,1.6-12.1,3.4-17.9c2.2-6.9,5.7-13.4,10.5-18.9
							c5.4-6.3,12.2-11.2,18.9-16.1"/>
					</g>
				</g>
				<g>
					<path class="st2" d="M1331.7,878c-6.3,1.4-10.8,13.3-16,17.9c-3.1,2.7-6.5,5.1-9.6,7.8c-8,6.9-14.2,16-17.6,26
						c-2.1-2-6.6-9-7.7-14.1c-0.9-4.3-1.3-8.8-0.4-13.1c0.7-3.4,2.1-6.5,3.7-9.5c3.6-6.5,8.5-12.4,14.4-17
						C1309.4,876.2,1320.8,877.6,1331.7,878z"/>
					<path class="st21" d="M1331.7,878c3.5,2.9,6.1,7.9,8.3,11.9c1.8,3.4,3.1,7.1,4.3,10.7c4.5,14.4,7.6,30.1,17.8,41.2
						c-8.6-5.6-15.4-10.3-22.1-18.1c-4.2-4.9-7.7-10.6-13.1-14.2c-10-6.7-16.4-6.7-21-5.7c6.4-4.1,13.1-11.9,18.4-20
						C1326.6,879.9,1328.8,878.7,1331.7,878z"/>
					<path class="st9" d="M1288.5,929.5c-2.5-11.3,0.3-23.7,7.4-32.8c2.3-2.9,4.9-5.5,7.4-8.2c3.5-3.8,6.6-7.9,9.4-12.2"/>
				</g>
				<g>
					<path class="st21" d="M1390.8,957.6c-9.1,6.4-14.7,15.6-19.5,25.7c-4.8,10-7.9,20.9-10.7,31.6c-1.5,5.8,2.5,13,2.4,19
						c4.7-9.7,10.2-20,15.5-29.4c6.8-12.1,29.5-36.3,39.7-45.6l-15.1,1.1L1390.8,957.6z"/>
					<g>
						<path class="st2" d="M1390.8,957.6c7.9,8.6,13.5,19.1,20.4,28.5c7,9.4,23.5,24.7,32,28.7c0.6-17.7-11.7-46.9-24.8-58.8
							C1408.7,957.2,1400.5,959,1390.8,957.6z"/>
						<path class="st9" d="M1406.1,957.6c14.6,18.9,30.7,34.1,37.1,57.2"/>
					</g>
				</g>
				<path class="st22" d="M1356.1,749.4c5.1,120.3,7.1,280.9,5.3,401.2"/>
			</g>
		</g>
	</g>
	<g>
		<defs>
			<rect id="SVGID_00000171681502914064929590000001257924637758824873_" y="23.4" width="1914" height="1018.1"/>
		</defs>
		<clipPath id="SVGID_00000120548812013041198410000001908137090637202830_">
			<use xlink:href="#SVGID_00000171681502914064929590000001257924637758824873_"  style="overflow:visible;"/>
		</clipPath>
		<g style="clip-path:url(#SVGID_00000120548812013041198410000001908137090637202830_);">
			<g>
				<g>
					<path class="st26" d="M1612.5,1069.6c78.2-163,240.6-246.8,385.7-182.7c63.8,28.2,134.4,97.2,147.1,185.4L1612.5,1069.6z"/>
					<path class="st26" d="M1444.1,1066.3c54-112.5,166.1-170.3,266.2-126.1c44,19.4,92.7,67.1,101.5,128L1444.1,1066.3z"/>
				</g>
				<g>
					<line class="st27" x1="1541.7" y1="958" x2="1593.6" y2="1067.1"/>
					<line class="st27" x1="1572.9" y1="940.6" x2="1601.5" y2="1067.2"/>
					<path class="st27" d="M1642.2,929c0,7.6,8.9,141.1,8.9,141.1"/>
					<path class="st27" d="M1477.3,1017c-0.8,0.1,0.4-1,1.1-0.5c20.7,14.8,51.6,35.6,72.3,50.4"/>
					<path class="st27" d="M1710.2,939.9c30,44.7,60,89.4,90,134.1"/>
					<path class="st27" d="M1785.1,894.9c4.9,56.1,14.4,123.8,25,179.1"/>
					<path class="st27" d="M1698,937.7c-6.3,54.3-12.6,108.5-19,162.8"/>
					<path class="st27" d="M1851.2,868.7c20,69.8,40,139.6,59.9,209.4"/>
					<line class="st27" x1="1924" y1="869.1" x2="1916.3" y2="1090.4"/>
					<line class="st27" x1="1832.2" y1="873.8" x2="1891.7" y2="1072.3"/>
					<line class="st27" x1="1956.9" y1="1066.9" x2="2032.4" y2="913.8"/>
					<path class="st27" d="M1983.3,1068c2-6.1,78.7-133.9,78.7-133.9"/>
					<path class="st27" d="M1746.5,914.3c0.6,7.6,1.3,15.2,1.9,22.8c1.1,12.9,2.2,25.7,3.3,38.6c0.7,8.8,1.5,17.6,2.4,26.4"/>
					<path class="st27" d="M1891.1,866.6c6.8,36.6,28,121,28.8,120.1"/>
					<path class="st27" d="M1612.4,930.8c10.2,22.7,21,45.1,32.4,67.3"/>
				</g>
			</g>
			<g>
				<g>
					<path class="st26" d="M-166.7,1121.5c94.9-190.4,292-288.3,468.1-213.5c77.4,32.9,163.1,113.6,178.5,216.6L-166.7,1121.5z"/>
					<g>
						<path class="st27" d="M-96.6,1019.9c25,36,50.1,72,75.1,108.1"/>
						<line class="st27" x1="-58.4" y1="988.3" x2="19" y2="1127.9"/>
						<path class="st27" d="M34.2,918.2c2.5,9.7,54.1,209.7,54.1,209.7"/>
						<path class="st27" d="M108,892.7c3.5,80.5,3.9,157.9,1.3,238.5"/>
						<path class="st27" d="M71.4,903.5c11.2,31,24.3,61.2,39.2,90.6"/>
						<line class="st27" x1="-132.3" y1="1063.5" x2="-46.5" y2="1092.1"/>
						<line class="st27" x1="158.9" y1="885.2" x2="144.3" y2="1123"/>
						<path class="st27" d="M217.1,889.6c-15.8,76.9-29.2,154.4-40.1,232.2"/>
						<line class="st27" x1="198.2" y1="988.3" x2="285.9" y2="903.2"/>
						<path class="st27" d="M321.8,921.4c-16.6,44.6-33.2,89.2-49.7,133.7c-10,26.9-16.4,40.5-23.5,68.3"/>
						<path class="st27" d="M298.7,1127.9c-3.8,7.4,60.4-118.1,84.6-165.4"/>
						<line class="st27" x1="302.5" y1="1131.2" x2="412" y2="988.3"/>
						<line class="st27" x1="384.5" y1="1124.5" x2="446.8" y2="1037.3"/>
					</g>
				</g>
				<g>
					<path class="st26" d="M441.6,1090.8c54-112.5,166.1-170.3,266.2-126.1c44,19.4,92.7,67.1,101.5,128L441.6,1090.8z"/>
					<line class="st27" x1="616.7" y1="952" x2="625.4" y2="1089.8"/>
					<path class="st27" d="M589.1,957.9c15.1,41.9,29.8,94.3,38.8,137.9"/>
					<path class="st27" d="M520.5,996.7c25,37.1,50,74.1,75,111.2"/>
					<path class="st27" d="M545.7,976c16.5,50.8,33.2,102,59.8,148.3"/>
					<line class="st27" x1="495" y1="1015.8" x2="569.4" y2="1099.3"/>
					<path class="st27" d="M663.8,952.1c-4.3,50.3-10.2,100.6-17.6,150.5"/>
					<line class="st27" x1="700.7" y1="961.7" x2="653.7" y2="1146.3"/>
					<path class="st27" d="M676.2,1094.7c41.2-34,52.4-44,91.1-80.8"/>
					<path class="st27" d="M699.8,1095.9c37.6-25.7,47.5-32.2,86-56.5"/>
				</g>
			</g>
		</g>
	</g>
	<g>
		<line class="st28" x1="1545.3" y1="785.4" x2="1545.8" y2="794.2"/>
		<line class="st28" x1="1550.8" y1="793.7" x2="1551.8" y2="788.4"/>
		<path class="st28" d="M1538.1,788.6c0.8,2.2,1.6,4.4,2.4,6.7"/>
		<g>
			<path class="st28" d="M1613.3,860.4c0,1.9,0.2,3.7,0.6,5.6"/>
			<path class="st28" d="M1619,859.4c0,2.5,0,5.1,0,7.6"/>
		</g>
		<g>
			<path class="st28" d="M1469.8,843.1c0,2.7,0,5.4,0,8.1"/>
			<path class="st28" d="M1477.9,845.1c-0.5,2-1,4.1-1.5,6.1"/>
			<path class="st28" d="M1462.6,847.2c0.5,1.7,1,3.4,1.5,5.1"/>
		</g>
		<g>
			<path class="st28" d="M1482.5,926.1c0,2.9,0,5.8,0,8.7"/>
			<path class="st28" d="M1488.1,935.2c0.5-2.2,1-4.4,1.6-6.6"/>
			<path class="st28" d="M1474.8,928.1c0.5,2.2,1,4.4,1.4,6.6"/>
		</g>
		<g>
			<path class="st28" d="M1849.8,783.7c1.4,2.1,2.3,4.4,2.7,6.8"/>
			<path class="st28" d="M1857,778.3c0.3,4.3,0.6,8.6,0.8,12.9"/>
			<path class="st28" d="M1862.6,785.1c0,1.8,0,3.6,0,5.4"/>
		</g>
		<g>
			<path class="st28" d="M1881.5,814.9c0.3,2.3,0.6,4.5,0.9,6.8"/>
			<path class="st28" d="M1886.9,808.8c0.3,3.8,0.6,7.7,0.9,11.5"/>
		</g>
		<g>
			<path class="st28" d="M1825.3,848.2c0.4,2.3,0.9,4.5,1.3,6.8"/>
			<path class="st28" d="M1831.9,841.4c0.2,4.7,0.5,9.5,0.7,14.2"/>
			<path class="st28" d="M1838.9,848.2c0,2.3,0,4.5,0,6.8"/>
		</g>
		<g>
			<path class="st28" d="M1541.6,882.8c0-2,0-4.1,0-6.1"/>
			<path class="st28" d="M1547.7,872.6c-0.1,2.7,0.1,5.5,0.8,8.1"/>
		</g>
		<g>
			<path class="st28" d="M1280.3,988.7c0,2.7,0,5.4,0,8.1"/>
			<path class="st28" d="M1286.4,985.3c0,3.8,0,7.7,0,11.5"/>
		</g>
		<g>
			<path class="st28" d="M1321.7,1026c0.7,1.8,1.4,3.6,2.2,5.4"/>
			<path class="st28" d="M1329.2,1030.8c0-3.8,0-7.7,0-11.5"/>
			<path class="st28" d="M1334.5,1032.1c0.3-2.5,0.6-5,0.9-7.4"/>
		</g>
		<g>
			<path class="st28" d="M1207,882.8c-0.2,2.3,0.3,4.7,1.2,6.8"/>
			<path class="st28" d="M1215.6,878.1c0.3,3.8,0.5,7.7,0.8,11.5"/>
			<path class="st28" d="M1222.6,888.9c-0.3-2.5-0.1-5.1,0.6-7.5"/>
		</g>
		<g>
			<path class="st28" d="M1296.6,840c0.7,2.4,0.9,5,0.6,7.5"/>
			<path class="st28" d="M1302.2,837.3c0.4,3.4,0.9,6.8,1.3,10.2"/>
		</g>
		<path class="st28" d="M1458.2,781.6c0.6,2.7,1.2,5.5,1.8,8.2"/>
		<path class="st28" d="M1465.6,776.2c-0.3,4.1-0.2,8.2,0.3,12.3"/>
		<g>
			<line class="st28" x1="1047.5" y1="866.5" x2="1047.5" y2="858.3"/>
			<line class="st28" x1="1055.6" y1="867.2" x2="1055.6" y2="857.7"/>
		</g>
		<g>
			<line class="st28" x1="1074.6" y1="962.2" x2="1074.6" y2="954.7"/>
			<line class="st28" x1="1081.4" y1="961.5" x2="1081.4" y2="947.9"/>
			<line class="st28" x1="1089.6" y1="962.9" x2="1089.6" y2="956.8"/>
		</g>
		<g>
			<line class="st28" x1="953.8" y1="966.3" x2="953.8" y2="973.7"/>
			<line class="st28" x1="961.3" y1="963.6" x2="961.3" y2="973.8"/>
		</g>
		<g>
			<line class="st28" x1="1016.3" y1="1018.5" x2="1016.3" y2="1026"/>
			<line class="st28" x1="1023.7" y1="1011.7" x2="1023.7" y2="1026.1"/>
			<line class="st28" x1="1032.6" y1="1018.5" x2="1032.6" y2="1024.8"/>
		</g>
		<g>
			<line class="st28" x1="788.2" y1="948.6" x2="788.2" y2="955.4"/>
			<line class="st28" x1="796.4" y1="943.2" x2="796.4" y2="956.8"/>
		</g>
		<g>
			<line class="st28" x1="817.4" y1="1007.7" x2="817.4" y2="999.5"/>
			<line class="st28" x1="825.6" y1="1007" x2="825.6" y2="996.1"/>
			<line class="st28" x1="837.8" y1="1009" x2="837.8" y2="1001.5"/>
		</g>
	</g>
</g>
</svg>
