<?xml version="1.0" encoding="utf-8"?>
<!-- Generator: Adobe Illustrator 27.6.1, SVG Export Plug-In . SVG Version: 6.00 Build 0)  -->
<svg version="1.1" id="Layer_1" xmlns="http://www.w3.org/2000/svg" xmlns:xlink="http://www.w3.org/1999/xlink" x="0px" y="0px"
	 viewBox="0 0 614.5 209" style="enable-background:new 0 0 614.5 209;" xml:space="preserve">
<style type="text/css">
	.st0{clip-path:url(#SVGID_00000034800805853369225850000016589627305405553297_);}
	.st1{fill:#FFFFFF;}
	.st2{clip-path:url(#SVGID_00000171677362630666476830000010469990666209377677_);fill:#FEB11C;}
	.st3{clip-path:url(#SVGID_00000171677362630666476830000010469990666209377677_);}
	.st4{fill:#657F21;}
	.st5{opacity:0.24;fill:#436E39;}
	.st6{fill:#41490A;}
	.st7{fill:#89AB2B;}
	.st8{opacity:0.24;fill:#609A51;}
	.st9{fill:none;}
</style>
<g>
	<g>
		<defs>
			<rect id="SVGID_1_" width="614.5" height="209"/>
		</defs>
		<clipPath id="SVGID_00000165929638906570861470000013797079735043266200_">
			<use xlink:href="#SVGID_1_"  style="overflow:visible;"/>
		</clipPath>
		<g style="clip-path:url(#SVGID_00000165929638906570861470000013797079735043266200_);">
			<path class="st1" d="M171,142c0.7-1,1.1-2.3,1.1-3.6c0-3.6-2.9-6.5-6.5-6.5c-1.1,0-2.1,0.3-2.9,0.7c-1.4-3.6-4.9-6.2-9-6.2
				c-4.5,0-8.3,3.1-9.4,7.4c-1.3-1.6-3.4-2.7-5.7-2.7c-3.5,0-6.4,2.4-7.1,5.7c-0.1,0-0.2,0-0.4,0c-2.5,0-4.5,2-4.5,4.5
				c0,0.2,0,0.5,0.1,0.7c-4.7,0.5-7.5,1.1-7.5,1.8c0,1.5,13,2.6,29.1,2.6c16.1,0,29.1-1.2,29.1-2.6C177.6,143.1,175.1,142.5,171,142
				z"/>
			<path class="st1" d="M465.1,155.1c0.7-1,1.1-2.2,1.1-3.5c0-3.4-2.8-6.2-6.2-6.2c-1,0-2,0.2-2.8,0.7c-1.3-3.4-4.7-5.9-8.6-5.9
				c-4.3,0-7.9,3-8.9,7c-1.3-1.6-3.2-2.6-5.4-2.6c-3.3,0-6.1,2.3-6.8,5.4c-0.1,0-0.2,0-0.3,0c-2.3,0-4.3,1.9-4.3,4.3
				c0,0.2,0,0.5,0.1,0.7c-4.4,0.4-7.1,1-7.1,1.7c0,1.4,12.4,2.5,27.7,2.5c15.3,0,27.7-1.1,27.7-2.5C471.3,156,469,155.5,465.1,155.1
				z"/>
			<path class="st1" d="M257.2,123.7c0.4-0.6,0.6-1.3,0.6-2c0-2-1.6-3.6-3.6-3.6c-0.6,0-1.1,0.1-1.6,0.4c-0.8-2-2.7-3.4-5-3.4
				c-2.5,0-4.7,1.7-5.2,4.1c-0.7-0.9-1.9-1.5-3.2-1.5c-1.9,0-3.6,1.4-4,3.2c-0.1,0-0.1,0-0.2,0c-1.4,0-2.5,1.1-2.5,2.5
				c0,0.1,0,0.3,0,0.4c-2.6,0.3-4.2,0.6-4.2,1c0,0.8,7.3,1.5,16.2,1.5c9,0,16.2-0.7,16.2-1.5C260.9,124.3,259.5,123.9,257.2,123.7z"
				/>
			<path class="st1" d="M68.3,109.9c0.7-1,1.1-2.2,1.1-3.5c0-3.4-2.8-6.2-6.2-6.2c-1,0-1.9,0.2-2.8,0.7c-1.3-3.4-4.6-5.9-8.5-5.9
				c-4.3,0-7.9,3-8.9,7c-1.3-1.6-3.2-2.6-5.4-2.6c-3.3,0-6.1,2.3-6.8,5.4c-0.1,0-0.2,0-0.3,0c-2.3,0-4.2,1.9-4.2,4.2
				c0,0.2,0,0.4,0.1,0.7c-4.4,0.4-7.1,1-7.1,1.7c0,1.4,12.4,2.5,27.6,2.5s27.6-1.1,27.6-2.5C74.6,110.9,72.2,110.3,68.3,109.9z"/>
			<path class="st1" d="M575.6,127c0.4-0.5,0.6-1.2,0.6-1.8c0-1.8-1.5-3.3-3.3-3.3c-0.5,0-1,0.1-1.5,0.4c-0.7-1.8-2.5-3.1-4.5-3.1
				c-2.3,0-4.2,1.6-4.7,3.7c-0.7-0.8-1.7-1.4-2.9-1.4c-1.8,0-3.2,1.2-3.6,2.9c-0.1,0-0.1,0-0.2,0c-1.2,0-2.3,1-2.3,2.3
				c0,0.1,0,0.2,0,0.4c-2.4,0.2-3.8,0.5-3.8,0.9c0,0.7,6.6,1.3,14.7,1.3s14.7-0.6,14.7-1.3C578.9,127.6,577.7,127.3,575.6,127z"/>
			<path class="st1" d="M356.2,97.5c0.5-0.7,0.8-1.6,0.8-2.6c0-2.5-2.1-4.6-4.6-4.6c-0.7,0-1.5,0.2-2.1,0.5c-1-2.6-3.5-4.4-6.4-4.4
				c-3.2,0-5.9,2.2-6.7,5.2c-1-1.2-2.4-1.9-4-1.9c-2.5,0-4.5,1.7-5.1,4c-0.1,0-0.2,0-0.2,0c-1.8,0-3.2,1.4-3.2,3.2
				c0,0.2,0,0.3,0,0.5c-3.3,0.3-5.3,0.8-5.3,1.2c0,1,9.3,1.9,20.7,1.9s20.7-0.8,20.7-1.9C360.8,98.3,359.1,97.8,356.2,97.5z"/>
			<path class="st1" d="M487.4,61c0.5-0.7,0.8-1.6,0.8-2.6c0-2.5-2.1-4.6-4.6-4.6c-0.7,0-1.5,0.2-2.1,0.5c-1-2.6-3.5-4.4-6.4-4.4
				c-3.2,0-5.9,2.2-6.7,5.2c-1-1.2-2.4-1.9-4-1.9c-2.5,0-4.5,1.7-5.1,4c-0.1,0-0.2,0-0.2,0c-1.8,0-3.2,1.4-3.2,3.2
				c0,0.2,0,0.3,0,0.5c-3.3,0.3-5.3,0.8-5.3,1.2c0,1,9.3,1.9,20.7,1.9c11.4,0,20.7-0.8,20.7-1.9C492,61.7,490.3,61.3,487.4,61z"/>
		</g>
	</g>
	<g>
		<defs>
			<rect id="SVGID_00000030485439080809308670000009489196751692196283_" width="614.5" height="209"/>
		</defs>
		<clipPath id="SVGID_00000112622369436073756110000004272912734042172834_">
			<use xlink:href="#SVGID_00000030485439080809308670000009489196751692196283_"  style="overflow:visible;"/>
		</clipPath>
		
			<ellipse style="clip-path:url(#SVGID_00000112622369436073756110000004272912734042172834_);fill:#FEB11C;" cx="312.6" cy="194.9" rx="28.8" ry="26.1"/>
		<g style="clip-path:url(#SVGID_00000112622369436073756110000004272912734042172834_);">
			<g>
				<g>
					<path class="st4" d="M331.7,209.8C272,196,199,184.5,119.9,177.6c-79.1-6.9-153-8.4-214.1-5.2l-3.1,35.3l425.9,37.4
						L331.7,209.8z"/>
					<g>
						<path class="st5" d="M330.2,226.4l0.2-1.9c-103.5-24.2-255.8-33.5-427.1-24.2l-0.5,5.2C74,194.8,226.6,202.9,330.2,226.4z"/>
						<path class="st5" d="M330.5,222.5l0.2-1.9c-101.5-26.3-253.8-38.5-426.4-32.1l-0.5,5.2C76.4,185.9,228.9,196.8,330.5,222.5z"
							/>
						<path class="st5" d="M-94.6,176l-0.5,5.3c171.9-4.2,323.6,9.5,426,36.4l0.2-2C228.8,188.1,77.3,173.2-94.6,176z"/>
						<path class="st5" d="M329.8,231.1l0.2-1.8C233.8,207.7,93.4,200.6-65,210.5l31.8,2.8C112,205,240,211.6,329.8,231.1z"/>
						<path class="st5" d="M329.5,233.9l0.2-1.8c-83.1-16.3-196.2-21.8-324.1-15.4l30.9,2.7C151.5,214.4,253.2,219.5,329.5,233.9z"
							/>
						<path class="st5" d="M328.8,241.9l0.2-1.7c-50.9-8.2-112.6-11.9-181.7-11l31.3,2.7C235,231.9,285.8,235.2,328.8,241.9z"/>
						<path class="st5" d="M328.6,244.6c-30.3-4.6-64.7-7.4-102.2-8.5l102.1,9L328.6,244.6z"/>
						<path class="st5" d="M329.1,238.4l0.1-1.7c-66.7-12.4-153.5-17.2-251.9-13.7l29.2,2.6C192.8,223.3,269.1,227.6,329.1,238.4z"
							/>
					</g>
				</g>
				<g>
					<path class="st4" d="M708.9,173.9c-61.2-3.5-135-2.4-214.2,4.2c-79.2,6.6-152.2,17.7-211.9,31.3l2.9,35.3l426.1-35.5
						L708.9,173.9z"/>
					<g>
						<path class="st5" d="M710.3,190.6l-0.2-1.9c-106.1-6.2-257.8,10.4-425,48.6l0.4,5.2C452.5,202.9,604.2,185,710.3,190.6z"/>
						<path class="st5" d="M710,186.6l-0.2-1.9c-104.5-8.7-256.7,5.2-425.6,40.8l0.4,5.2C453.3,193.7,605.4,178.6,710,186.6z"/>
						<path class="st5" d="M283.1,213l0.4,5.3c168.7-33.3,320.5-45.6,426-36.5l-0.2-2C603.9,170,452,181.1,283.1,213z"/>
						<path class="st5" d="M710.7,195.2l-0.1-1.8c-98.5-4.9-237.9,11.9-392.4,48.5l31.8-2.6C491.6,206.5,618.9,191.2,710.7,195.2z"
							/>
						<path class="st5" d="M710.9,198.1l-0.1-1.8c-84.6-1.9-197.1,11.8-322,39.8l31-2.6C532.2,209.1,633.2,196.8,710.9,198.1z"/>
						<path class="st5" d="M711.6,206l-0.1-1.7c-51.6,0.6-113,7.4-180.9,20l31.3-2.6C617.4,212.1,668,206.8,711.6,206z"/>
						<path class="st5" d="M711.8,208.8c-30.7,0.6-65,3.7-102.1,9l102.2-8.5L711.8,208.8z"/>
						<path class="st5" d="M711.3,202.6l-0.1-1.7C643.3,200,557,210,460.5,230.2l29.2-2.4C574.4,210.8,650.3,202.1,711.3,202.6z"/>
					</g>
				</g>
			</g>
			<path class="st6" d="M55.3,187.5c-2.3-1.4-5.6-2.1-8.3-1.1c-2.7,0.9-4.4,3.7-3.1,5.8c-2.3-6.1-7.4-11.5-14-15
				c-3.2-1.7-7.1-3-10.7-2c-3.1,0.9-5.1,3.3-5.9,5.8c-0.8,2.5-0.5,5.2-0.3,7.7c0.7-2.6-2.5-5.2-5.8-5.3c-3.3-0.1-6.5,1.7-8.2,4
				c-1.7,2.3-2.1,5.1-2.3,7.7c-2.2-2.5-6.6-3.7-10.3-2.7c-3.7,1-6.3,4.1-6.1,7.1c-1-2.1-4.9-2.5-7-1c-2.1,1.5-2.2,4.2-0.8,6.1
				c1.4,1.9,4.1,3,6.8,3.5c2.7,0.5,5.5,0.3,8.3,0.1c21.9-1.2,43.8-2.5,65.7-3.7c4.8-0.3,10.8-1.3,11.7-5.1
				C65.7,196.6,58.1,189.2,55.3,187.5z"/>
			<path class="st6" d="M553.9,184.2c2.7-1.6,6.4-2.3,9.5-1.3c3.1,1.1,5,4.2,3.6,6.6c2.7-6.9,8.4-13.1,15.9-17.1
				c3.6-1.9,8.1-3.4,12.2-2.3c3.5,1,5.8,3.7,6.7,6.6c0.9,2.9,0.6,5.9,0.3,8.8c-0.8-3,2.8-5.9,6.6-6.1c3.8-0.2,7.4,1.9,9.3,4.5
				c1.9,2.6,2.4,5.8,2.6,8.8c2.5-2.9,7.6-4.2,11.7-3.1c4.2,1.1,7.2,4.6,7,8.1c1.2-2.4,5.6-2.9,8-1.2c2.4,1.7,2.5,4.8,0.9,6.9
				c-1.6,2.2-4.7,3.5-7.8,4c-3.1,0.5-6.3,0.3-9.5,0.2c-24.9-1.4-49.9-2.8-74.8-4.2c-5.5-0.3-12.3-1.5-13.3-5.8
				C542,194.5,550.7,186.2,553.9,184.2z"/>
			<g>
				<path class="st7" d="M641.4,204.9c-94.8-8.6-210-13.6-334.2-13.6c-124.2,0-239.4,5-334.2,13.6v35.4h668.3V204.9z"/>
				<g>
					<path class="st8" d="M641.4,221.6v-1.9c-164.4-15-402.9-11-668.3,13.2v5.2C238.2,212.5,476.9,207.3,641.4,221.6z"/>
					<path class="st8" d="M641.4,217.6v-1.9c-161.7-17.4-400.5-16.1-668.3,5.3v5.2C240.6,203.4,479.6,200.9,641.4,217.6z"/>
					<path class="st8" d="M-26.9,208.5v5.3c267-19.2,505.2-18.8,668.3-1v-2C478.3,192.2,240.3,190.7-26.9,208.5z"/>
					<path class="st8" d="M641.4,226.3v-1.8c-152.7-13.1-372.2-7.9-617.5,15.8h49.9C298.7,219.4,499,214.7,641.4,226.3z"/>
					<path class="st8" d="M641.4,229.1v-1.8c-131.6-8.9-308.6-4.6-506.8,13h48.5C361.5,225.2,520.6,221.4,641.4,229.1z"/>
					<path class="st8" d="M641.4,237.1v-1.7c-80.4-3.7-177-2-284.4,5h49.1C493.9,235.4,573.4,234.3,641.4,237.1z"/>
					<path class="st8" d="M641.4,239.8c-47.9-1.9-101.7-1.7-160.3,0.5h160.3V239.8z"/>
					<path class="st8" d="M641.4,233.6v-1.7c-105.5-6.6-241.4-3.7-394.2,8.4H293C427.1,230.4,546.5,228.1,641.4,233.6z"/>
				</g>
			</g>
		</g>
	</g>
	<rect class="st9" width="614.5" height="209"/>
</g>
</svg>
