<?xml version="1.0" encoding="utf-8"?>
<!-- Generator: Adobe Illustrator 27.6.1, SVG Export Plug-In . SVG Version: 6.00 Build 0)  -->
<svg version="1.1" id="Layer_1" xmlns="http://www.w3.org/2000/svg" xmlns:xlink="http://www.w3.org/1999/xlink" x="0px" y="0px"
	 viewBox="0 0 16.6 29.3" style="enable-background:new 0 0 16.6 29.3;" xml:space="preserve">
<style type="text/css">
	.st0{fill:#FFFFFF;}
</style>
<path class="st0" d="M2,0c0.6,0,1.1,0.2,1.5,0.6c0,0,2.7,2.9,5.5,5.8c4.5,4.7,5.9,6,6.4,6.3c1,0.8,1.5,2.1,1,2.7
	c-0.1,0.3-0.5,0.8-0.7,1l0.4-0.4L3.4,28.7c-0.8,0.8-2.1,0.7-2.8,0c-0.8-0.8-0.8-2,0-2.8l11.1-11.1c-0.2-0.2-0.5-0.5-0.8-0.7
	C9.8,13,8.3,11.6,6.5,9.7c-3-3.1-6-6.3-6-6.3c-0.8-0.8-0.7-2.1,0.1-2.8C1,0.2,1.5,0,2,0L2,0z"/>
</svg>
