<svg id="Group_39508" data-name="Group 39508" xmlns="http://www.w3.org/2000/svg" width="36.304" height="33.838" viewBox="0 0 36.304 33.838">
  <path id="Path_64122" data-name="Path 64122" d="M73.261,51.016,57.974,35.661a2.319,2.319,0,0,0-3.292,0L39.395,51.016a4.193,4.193,0,0,0-1.219,2.955V66.3a2.506,2.506,0,0,0,2.5,2.511h9.852a2.506,2.506,0,0,0,2.5-2.511V58.87a3.3,3.3,0,1,1,6.6,0V66.3a2.506,2.506,0,0,0,2.5,2.511H71.98a2.506,2.506,0,0,0,2.5-2.511V53.971A4.189,4.189,0,0,0,73.261,51.016ZM72.829,66.3a.852.852,0,0,1-.85.853H62.129a.852.852,0,0,1-.85-.853V58.87a4.951,4.951,0,1,0-9.9,0V66.3a.851.851,0,0,1-.849.853H40.677a.852.852,0,0,1-.85-.853V53.971a2.511,2.511,0,0,1,.735-1.782L55.849,36.833a.675.675,0,0,1,.959,0L72.094,52.188a2.511,2.511,0,0,1,.735,1.782Z" transform="translate(-38.176 -34.976)" fill="#fff"/>
</svg>
