<?xml version="1.0" encoding="utf-8"?>
<!-- Generator: Adobe Illustrator 27.6.1, SVG Export Plug-In . SVG Version: 6.00 Build 0)  -->
<svg version="1.1" id="Layer_1" xmlns="http://www.w3.org/2000/svg" xmlns:xlink="http://www.w3.org/1999/xlink" x="0px" y="0px"
	 viewBox="0 0 105.7 99.7" style="enable-background:new 0 0 105.7 99.7;" xml:space="preserve">
<style type="text/css">
	.st0{fill:#FFFFFF;}
</style>
<g>
	<path class="st0" d="M15,50.3c0-10.2,0-20.4,0-30.7c0-6.3,5.3-11.8,11.6-11.8c17.5,0,35.1,0,52.6,0c6.2,0,11.5,5.4,11.5,11.6
		c0,14.7,0.1,29.3-0.1,44c-0.1,7.2-2.8,13.5-7.6,19c-5.4,6.1-12.2,9.5-20.3,10.4c-2,0.2-4,0.1-5.9,0.1c-9.9,0-19.8,0-29.7,0
		c-7.2,0-12.3-5.2-12.3-12.4C15,70.4,15,60.4,15,50.3z M20.1,50.4c0,5.6,0,11.2,0,16.8c0,4.7,0,9.4,0,14.1c0,3.2,2.5,6.2,5.4,6.5
		c1.7,0.2,3.4,0.3,5.1,0.2c2.6-0.3,5.3,0.3,7.9-0.1c0.6-0.1,1.2,0,1.8,0.1c1,0.1,1.9,0.1,2.9,0c0.9-0.1,1.8-0.1,2.7,0
		c2.8,0.1,5.6,0.1,8.4,0.1c1.2,0,2.5-0.1,3.7,0c2.7,0.2,5.2-0.2,7.1-2.4c1.4-1.5,1.7-3.3,1.8-5.2c0.2-2.9,1.3-5.5,3.3-7.6
		c2.4-2.5,5.3-3.5,8.7-3.7c2.8-0.1,4.9-1.3,6.1-3.9c0.7-1.5,0.7-3.1,0.7-4.8c0-8.7,0-17.3,0-26c0-4.9,0-9.7,0-14.6
		c0-3.5-2.2-6.1-5.3-6.6c-1.8-0.3-3.6-0.5-5.5-0.2c-0.8,0.1-1.7,0-2.5,0c-2.8,0-5.6-0.2-8.4-0.1c-2.9,0.1-5.8,0-8.7,0
		c-2.7,0-5.5,0-8.2,0c-2.6,0-5.2-0.3-7.8,0.1c-0.6,0.1-1.2,0-1.9,0c-2.8,0-5.6-0.1-8.4,0c-0.9,0-1.8,0.1-2.7,0.1
		c-1,0-1.9,0.3-2.8,0.8c-2.5,1.5-3.3,3.8-3.3,6.5C20.1,30.4,20.1,40.4,20.1,50.4z M82.9,73.5c-1.8,0.4-3.3,0.5-4.9,0.7
		c-3.4,0.4-5.9,3.2-6.1,6.6c0,1.1-0.3,2.1-0.4,3.2c0,0.3-0.4,0.7,0,0.9c0.3,0.2,0.7-0.1,1-0.2c2.7-1.5,5-3.4,6.9-5.7
		C80.8,77.4,82,75.7,82.9,73.5z"/>
	<path class="st0" d="M52.8,50.6c-5.4,0-10.7,0-16.1,0c-1.8,0-2.9-0.9-3-2.5c0-1.4,1.3-2.6,3-2.6c10.7,0,21.4,0,32.2,0
		c2.1,0,3.4,1.7,2.8,3.6c-0.4,1-1.2,1.5-2.5,1.5C63.7,50.6,58.3,50.6,52.8,50.6C52.8,50.6,52.8,50.6,52.8,50.6z"/>
	<path class="st0" d="M52.8,36.4c-5.4,0-10.9,0-16.3,0c-1,0-1.9-0.3-2.4-1.3c-0.5-0.9-0.4-1.8,0.1-2.6c0.6-1,1.6-1.2,2.7-1.2
		c4,0,8.1,0,12.1,0c6.4,0,12.9,0,19.3,0c0.4,0,0.8,0,1.2,0c1.4,0.2,2.4,1.3,2.4,2.6c-0.1,1.3-1.1,2.4-2.5,2.4c-2.8,0.1-5.7,0-8.5,0
		C58.2,36.5,55.5,36.5,52.8,36.4C52.8,36.5,52.8,36.4,52.8,36.4z"/>
	<path class="st0" d="M48.2,64.7c-3.8,0-7.6,0-11.3,0c-1.9,0-2.9-0.8-3-2.3c-0.1-1.5,1-2.7,2.8-2.7c3-0.1,6-0.1,9-0.1
		c4.5,0,9,0,13.5,0c0.9,0,1.8,0.1,2.5,0.9c0.7,0.8,0.9,1.7,0.5,2.8c-0.4,1-1.2,1.5-2.4,1.5C56,64.7,52.1,64.7,48.2,64.7
		C48.2,64.7,48.2,64.7,48.2,64.7z"/>
</g>
</svg>
