<?xml version="1.0" encoding="utf-8"?>
<!-- Generator: Adobe Illustrator 27.6.1, SVG Export Plug-In . SVG Version: 6.00 Build 0)  -->
<svg version="1.1" id="Layer_1" xmlns="http://www.w3.org/2000/svg" xmlns:xlink="http://www.w3.org/1999/xlink" x="0px" y="0px"
	 viewBox="0 0 199.1 41.4" style="enable-background:new 0 0 199.1 41.4;" xml:space="preserve">
<style type="text/css">
	.st0{fill:#FFFFFF;}
</style>
<g>
	<g>
		<path class="st0" d="M35.4,22.6c0-0.1,0-0.3,0.1-0.4c0-0.2,0.1-0.3,0.2-0.5c0,0,0.1,0,0.1-0.1c0,0-0.1-0.1-0.1-0.1
			c0-0.1,0-0.1-0.1-0.2c0.1,0,0.2-0.1,0.3-0.1c0,0-0.1-0.1-0.1-0.1c0.2-0.9,0.5-1.7,0.7-2.6c0.2-0.8,0.4-1.6,0.5-2.4
			c0.1-0.4,0.2-0.8,0.3-1.1c0.1-0.5-0.2-1-0.8-1c-2.5,0-5,0-7.6,0c-0.9,0-0.9-0.5-0.8-1.1c0.1-0.5,0.4-1.1,0.2-1.7
			c0-0.2,0.2-0.4,0.3-0.6c0.2-0.8,0.6-1.6,0.5-2.4c0-0.7,0.4-1.2,0.5-1.9c0-0.4,0.2-0.8,0.3-1.2c0.1-0.3-0.1-0.5-0.4-0.4
			c-0.9,0.2-1.7,0.3-2.6,0.5c0,0,0,0,0,0c-0.5,0.4-1.1,0.2-1.6,0.3c-0.5,0.2-1.1,0.2-1.7,0.4c-0.5,0.2-1,0.3-1.5,0.6
			c-0.3,0.2-0.9,0.2-1.3,0.3c-0.9,0.3-1.7,0.6-2.6,1C18,7.9,17.7,7.9,17.5,8c-0.1,0.1-0.1,0.1-0.2,0.2c-0.3,0.1-0.5,0.2-0.8,0.3
			c-0.1,0-0.1-0.1-0.2-0.1c0.1-0.1,0.2-0.1,0.3-0.2c0.3-0.2,0.7-0.4,1-0.6c0.1,0,0.3-0.1,0.4-0.1c0.1-0.1,0.3-0.1,0.4-0.2
			c0.6-0.2,1.2-0.4,1.8-0.6c1.5-0.5,3-1.1,4.5-1.6c1.8-0.5,3.7-1,5.6-1.4c0.1-0.4,0.2-0.8,0.3-1.2c0.1-0.6,0.3-1.1,0.8-1.4
			c3.5,0,7,0,10.6,0c-0.1,0.1-0.1,0.3-0.2,0.4c-0.4,0.2-0.7,0.2-1.1,0.4C40,2,39.4,2.3,39,2.9c0.1,0,0.2,0.1,0.2,0.1
			c1.1,0.1,2.3,0.2,3.4,0.3c1.2,0.2,2.4,0.5,3.6,0.8c0.9,0.2,1.7,0.6,2.5,1c0.9,0.5,1.7,1,2.5,1.6c1.2,0.9,1.8,2.3,2.2,3.7
			c0.3,1,0.3,2.1,0.1,3.1c-0.1,0.4-0.2,0.8-0.3,1.2c0,0.1-0.1,0.3-0.1,0.4c-0.1,0.3-0.2,0.7-0.3,1c-0.1,0.1-0.2,0.3-0.3,0.4
			c0,0.1-0.1,0.1-0.1,0.2c0,0.1-0.1,0.1-0.1,0.2c-0.2,0.3-0.3,0.6-0.5,0.9c0,0,0,0.1-0.1,0.1c-0.7,0.9-1.3,1.8-2,2.6
			c-1.1,1.3-2.3,2.4-3.6,3.4c-0.1,0.1-0.2,0.2-0.3,0.3c0,0,0,0-0.1,0c-0.1,0-0.1,0.1-0.2,0.1c0-0.1,0-0.1,0-0.2
			c0.1-0.1,0.2-0.2,0.3-0.4c1-1.1,1.9-2.1,2.9-3.2c0.1-0.2,0.2-0.3,0.3-0.5c0.2-0.2,0.3-0.3,0.4-0.5c0.3-0.5,0.5-1,0.8-1.5
			c0-0.1,0.1-0.1,0.1-0.2c0.2-0.4,0.4-0.8,0.6-1.2c0-0.1,0-0.1,0-0.2c0-0.2,0.1-0.4,0.1-0.7c0.1-0.8,0.3-1.5,0.4-2.3
			c0-0.5,0-1-0.1-1.5c0-0.1-0.1-0.1-0.1-0.2c0-0.1,0-0.2,0-0.3c-0.1-0.3-0.2-0.7-0.3-1c0,0,0-0.1-0.1-0.1c-1-2.3-2.8-3.7-5-4.6
			c0,0,0-0.1,0-0.1C46,6,46,6,46,6c-0.1,0-0.1-0.1-0.2-0.1c0,0,0,0,0-0.1c0,0,0,0,0,0.1c-1.2-0.5-2.4-1-3.7-1.2
			c-0.5-0.1-1-0.2-1.5-0.3c-0.7-0.1-1.3-0.2-2-0.2c-0.3,0-0.5,0.1-0.5,0.4c0,0.2-0.1,0.4-0.1,0.6c-0.5,2.4-1.1,4.7-1.6,7.1
			c-0.1,0.4,0,0.7,0.4,0.8c0.2,0.1,0.5,0,0.7,0c2.4,0,4.9,0,7.3,0c0.5,0,0.8,0.2,0.7,0.7c-0.1,0.7-0.2,1.3-0.4,1.9
			c-0.1,0.2,0,0.5,0,0.7c-0.1,0.5-0.4,1-0.5,1.5c-0.1,0.5-0.3,1.1-0.4,1.6c0,0.2,0,0.4,0,0.5c-0.1,0.4-0.3,0.7-0.4,1
			c-0.1,0.4-0.1,0.8-0.2,1.2c0,0.1-0.1,0.1-0.1,0.2c-0.2,0.8-0.4,1.6-0.6,2.4c-0.1,0.5-0.3,1-0.9,1.1c-0.2,0-0.4,0-0.6,0
			c-1.9,0-3.8,0-5.7,0c-0.2,0-0.5-0.1-0.7-0.1c-0.1-0.1-0.2-0.3-0.3-0.4c0-0.2,0-0.4,0-0.7c0.1,0,0.2,0,0.2-0.1c0,0,0,0,0-0.1
			c-0.1,0-0.1,0-0.2,0c0.2-0.7,0.4-1.3,0.6-2c0,0,0.1,0,0.1-0.1C35.5,22.7,35.5,22.7,35.4,22.6z"/>
	</g>
	<g>
		<path class="st0" d="M17.5,8c0.3-0.1,0.5-0.2,0.8-0.3c0,0.2-0.1,0.4-0.1,0.7c0,0.2-0.1,0.4-0.1,0.7c0,0.2-0.1,0.3-0.1,0.5
			c-0.1,0.3-0.1,0.6-0.2,0.8c0,0.2-0.1,0.3-0.1,0.5c0,0.2-0.1,0.3-0.1,0.5c0,0.2-0.1,0.3-0.1,0.4c-0.3,0.5-0.2,1.1,0.3,1.2
			c0.3,0,0.5,0,0.8,0c2.5,0,4.9,0,7.4,0c0.2,0.1,0.3,0.2,0.5,0.3c0.1,0.2,0.1,0.3,0.2,0.5c-0.1,0.3-0.1,0.5-0.2,0.8
			c0,0.2-0.1,0.3-0.1,0.5c0,0.2,0,0.4-0.2,0.6c-0.1,0.1-0.1,0.3-0.2,0.5c-0.1,0.3-0.1,0.5-0.2,0.8c0,0.1,0,0.2,0,0.3
			c-0.3,0.2-0.3,0.5-0.3,0.8c0,0.2,0,0.3-0.1,0.5c0,0.2-0.1,0.5-0.2,0.7c0,0.2-0.1,0.3-0.2,0.5c-0.1,0.3-0.1,0.5-0.2,0.8
			c0,0.2-0.1,0.3-0.1,0.5c0,0.2-0.1,0.4-0.1,0.6c-0.1,0.2-0.1,0.3-0.2,0.5c-0.1,0.2-0.1,0.5-0.2,0.7c0,0,0,0,0,0c0,0,0,0.1,0,0.1
			c0,0.1-0.1,0.2-0.1,0.3c0,0.3-0.1,0.6-0.1,0.8c-0.1,0.2-0.1,0.3-0.2,0.5c-0.1,0.3-0.2,0.6-0.3,0.9c-0.1,0.1-0.1,0.2-0.2,0.2
			c-0.2,0.1-0.5,0.2-0.7,0.2c-3.4,0-6.8,0-10.2,0c-0.1,0-0.1,0-0.2-0.1c0.1-0.1,0.2-0.2,0.3-0.2c0.4-0.2,0.8-0.3,1.2-0.4
			c0.8-0.3,1.5-0.9,2-1.6c0.4-0.6,0.5-1.3,0.6-2c0-0.1,0-0.1-0.1-0.2c0.1,0,0.1-0.1,0.2-0.1c0,0-0.1-0.1-0.1-0.1
			c0.1-0.2,0.2-0.5,0.2-0.7c0-0.1,0.1-0.2,0.1-0.3c0.1-0.3,0.2-0.7,0.2-1c0-0.1,0.1-0.3,0.1-0.4c0.1-0.2,0.1-0.5,0.2-0.7
			c0-0.1,0-0.2,0.1-0.3c0.1-0.2,0.1-0.5,0.2-0.7c0.1-0.2,0.1-0.4,0.2-0.6c0.1-0.2,0.1-0.5,0.2-0.7c0-0.1,0.1-0.3,0.1-0.4
			c0-0.1,0.1-0.3,0.1-0.4c0-0.1,0-0.2,0-0.3c-0.1-0.5-0.6-0.5-0.9-0.5c-1,0-2,0-2.9,0c-0.7,0-1.5,0-2.2,0c-0.5,0-0.8,0.2-1.1,0.7
			c0,0.1-0.2,0.1-0.3,0.2c-0.5,0.4-1,0.8-1.3,1.3c-0.2,0.3-0.5,0.5-0.7,0.8c-0.1,0.1-0.2,0.2-0.3,0.3c-0.2,0.2-0.4,0.5-0.6,0.7
			c-0.1,0.2-0.2,0.3-0.3,0.5c-0.2,0.4-0.5,0.7-0.7,1.1c-0.1,0.2-0.3,0.5-0.4,0.7c-0.2,0.3-0.3,0.6-0.5,0.9c-0.1,0.3-0.2,0.5-0.3,0.8
			c-0.1,0.4-0.2,0.7-0.3,1.1c0,0.1,0,0.3-0.1,0.4c-0.4,1-0.5,1.9-0.1,2.9c0,0-0.1,0.1-0.1,0.1c0.1,0,0.1,0.1,0.2,0.1
			c0,0.1,0,0.1,0,0.2c0,0-0.1,0.1-0.1,0.1c0,0,0.1,0.1,0.1,0.1c-0.1,0.4,0.1,0.7,0.3,1c0.1,0.1,0.1,0.2,0.1,0.3c0,0.1,0,0.1,0.1,0.2
			c0.1,0.5,0.4,1,0.8,1.3c0.1,0.1,0.2,0.2,0.2,0.2c0.3,0.7,0.9,1,1.4,1.4c0.2,0.2,0.4,0.2,0.7,0.4c0,0,0,0,0,0.1c0,0,0,0,0-0.1
			c0.8,0.7,1.7,1,2.7,1.4c0.2,0.1,0.3,0.1,0.5,0.2c0,0,0.1,0,0.1,0c0.2,0.1,0.4,0.1,0.6,0.2c0.1,0,0.2,0.1,0.3,0.1
			c0.3,0.1,0.5,0.1,0.8,0.2c-0.2,0.6-0.3,1.3-0.5,1.9c-0.7-0.1-1.5-0.3-2.2-0.4c-0.3-0.1-0.6-0.1-0.8-0.2c0,0,0,0,0.1,0
			c0,0,0,0-0.1,0c-0.8-0.3-1.6-0.6-2.4-0.9c-1.2-0.5-2.2-1.2-3.1-2c-0.7-0.7-1.3-1.5-1.7-2.5c-0.2-0.6-0.5-1.3-0.5-2
			c0-0.1,0-0.2-0.1-0.3c0-0.5,0-0.9,0-1.4c0,0,0.1-0.1,0.1-0.1c0.1-1,0.4-2,0.8-3c0,0,0-0.1,0.1-0.1c0.2-0.4,0.3-0.7,0.5-1.1
			c0.1-0.1,0.2-0.3,0.2-0.4c0-0.1,0-0.2,0.1-0.2c0.9-1.1,1.7-2.3,2.7-3.3c0.8-0.9,1.8-1.7,2.7-2.5c0.4-0.3,0.8-0.6,1.2-1
			c-0.4,0-0.8,0-1.1,0c-0.5,0-0.9-0.4-0.8-0.9c0.5-2,1-4.1,1.4-6.1c0.4-1.5,0.7-3,1-4.5c0.1-0.6,0.3-1.2,0.9-1.5c2.3,0,4.7,0,7,0
			c0.3,0.3,0.4,0.6,0.3,0.9c-0.3,1.1-0.5,2.2-0.8,3.3c-0.2,0.7-0.3,1.3-0.4,2c-0.1,0.1-0.3,0.1-0.4,0.2c-0.1,0-0.3,0.1-0.4,0.1
			c-0.3,0.2-0.7,0.4-1,0.6c-0.1,0.1-0.2,0.1-0.3,0.2c-0.4,0.2-0.7,0.3-1.1,0.5c0,0,0,0.1,0.1,0.1c0.4-0.2,0.8-0.4,1.2-0.5
			c0.3-0.1,0.5-0.2,0.8-0.3C17.3,8.1,17.4,8.1,17.5,8z"/>
	</g>
	<g>
		<path class="st0" d="M13,37.5c0.1-0.6,0.2-1.1,0.4-1.7c0-0.1,0-0.2,0-0.3c0.2-0.6,0.3-1.3,0.5-1.9c0-0.3,0.1-0.6,0.1-0.9
			c0.1-0.1,0.1-0.1,0.2-0.2c0.1-0.6,0.2-1.1,0.4-1.7c0.2-0.7,0.4-1.5,0.5-2.2c0.1-0.6,0.5-1,1.3-1c2.5,0,5,0,7.5,0
			c0.8,0,1.2-0.3,1.3-1.2c0.1-0.3,0.1-0.5,0.2-0.8c0-0.1,0.1-0.2,0.1-0.2c0.1-0.3,0.1-0.5,0.2-0.8c0-0.1,0.1-0.3,0.1-0.4
			c0.1-0.2,0.1-0.4,0.2-0.7c0-0.2,0-0.5,0.1-0.7c0-0.2,0.1-0.4,0.1-0.6c0.1-0.2,0.2-0.5,0.2-0.7c0.1-0.2,0.1-0.3,0.2-0.5
			c0-0.1,0.1-0.3,0.1-0.4c0.1-0.2,0.2-0.4,0.3-0.6c0-0.1,0.1-0.1,0.1-0.2c0-0.1-0.1-0.1-0.1-0.2c0-0.1,0-0.2,0.1-0.3
			c0-0.1,0.1-0.2,0.1-0.3c0.1-0.5,0.3-1,0.4-1.5c0-0.1,0.1-0.1,0.1-0.2c0-0.3,0-0.5,0.1-0.8c0.1-0.4,0.3-0.8,0.7-1c0,0,0.1,0,0.1,0
			c0.1,0,0.3,0,0.4,0c2,0,4.1,0,6.1,0c0.7,0,0.8,0.1,0.9,0.9c0.1,0.4-0.3,0.7-0.3,1c-0.1,0.7-0.3,1.4-0.5,2.2c0,0.2-0.1,0.4-0.1,0.6
			c0,0.2-0.1,0.4-0.1,0.6c0,0.2-0.1,0.3-0.1,0.5c-0.1,0.5-0.2,0.9-0.3,1.4c-0.1,0.5-0.2,1-0.3,1.5c0,0.1,0,0.3,0,0.4
			c0,0.2-0.1,0.4-0.2,0.6c0,0.2-0.1,0.3-0.2,0.5c0,0.2-0.1,0.4-0.1,0.6c0,0.2-0.1,0.4-0.1,0.6c0,0.2-0.1,0.3-0.1,0.5
			c0,0.1-0.1,0.3-0.1,0.4c-0.2,0.6-0.6,0.8-1.2,0.8c-2.4,0-4.8,0-7.2,0c-0.3,0-0.7,0-1,0.1c-0.4,0.1-0.6,0.4-0.7,0.8
			c-0.4,1.6-0.7,3.1-1.1,4.7c0,0.1,0,0.2-0.1,0.3c-0.1,0.4-0.2,0.9-0.3,1.3c-0.1,0.6-0.3,1.1-0.4,1.7c0,0.2-0.1,0.4-0.1,0.6
			c-0.1,0.5-0.3,1.1-0.4,1.6c0,0.2-0.1,0.3-0.1,0.5c0,0,0,0,0,0.1c-0.4,0.4-0.9,0.5-1.4,0.5c-2,0-4,0-6,0c-0.4,0-0.7-0.6-0.6-1
			c0.2-0.6,0.3-1.3,0.4-2C12.9,37.6,12.9,37.5,13,37.5z"/>
	</g>
	<g>
		<path class="st0" d="M21.6,35.7c0.1-0.4,0.2-0.9,0.3-1.3c0.1,0,0.2,0,0.3,0c0.1,0,0.1,0,0.2,0c0.2,0,0.5,0,0.7,0
			c0.1,0,0.3-0.1,0.4-0.1c0.1,0,0.2-0.1,0.2-0.1c0.7,0.3,1.3-0.1,2,0c0.3,0,0.6-0.1,1-0.2c0.2-0.1,0.4-0.1,0.7-0.2
			c0.6-0.1,1.2-0.2,1.8-0.3c0.1,0,0.2-0.1,0.3-0.2c0.1,0,0.2-0.1,0.2-0.1c0.5-0.1,1.1-0.2,1.6-0.3c0.3-0.1,0.7-0.2,1-0.3
			c0.4-0.2,1-0.1,1.4-0.5c0.1-0.1,0.2-0.1,0.3-0.1c0.6-0.2,1.2-0.4,1.9-0.6c0.5-0.2,1-0.3,1.5-0.5c0.1,0,0.1-0.2,0.2-0.2
			c0,0,0.1,0,0.1-0.1c0,0.1,0.1,0.1,0.1,0.2c0.1-0.1,0.1-0.2,0.2-0.3c0.5,0,0.8-0.1,1.2-0.4c0.2,0,0.4,0,0.4-0.2c0,0,0.1,0,0.1,0
			c0.2,0.2,0.3,0,0.5-0.1c0.1-0.1,0.3-0.1,0.4-0.2c0.3-0.1,0.5-0.2,0.8-0.4c0.3-0.2,0.7-0.4,1-0.6c0.3-0.1,0.6-0.3,0.9-0.4l0,0
			c0.1,0,0.1,0.1,0.2,0.1c-0.6,0.4-1.2,0.7-1.8,1.1c-0.1,0-0.1,0.1-0.2,0.1c-0.3,0.2-0.7,0.3-1,0.5c-0.2,0.1-0.4,0.2-0.6,0.3
			c-0.4,0.2-0.7,0.4-1.1,0.6c-0.1,0-0.2,0.1-0.3,0.1c-0.7,0.3-1.3,0.6-2,0.9c0,0-0.1,0-0.1,0.1c0,0,0,0,0,0c0,0-0.1,0-0.1,0
			c-0.4,0.2-0.8,0.3-1.2,0.5c0,0,0,0,0,0c-0.2,0.1-0.4,0.1-0.6,0.2c0,0-0.1,0.1-0.1,0.1c-0.8,0.3-1.5,0.5-2.3,0.8
			c-0.1,0-0.2,0-0.2,0.1c0,0-0.1-0.1-0.1-0.1c-0.5,0.2-1,0.3-1.5,0.5c-0.1,0-0.1,0.1-0.2,0.1c-0.6,0.2-1.3,0.3-1.9,0.5
			c-0.3,0-0.6,0.4-0.9,0.2c-0.3,0.1-0.6,0.2-0.9,0.2c-0.2,0-0.5,0.1-0.7,0.1c0,0-0.1,0-0.1,0.1c-0.1,0-0.1,0-0.2,0
			c-0.5,0.1-0.9,0.1-1.4,0.2c-0.5,0.1-1.1,0-1.6,0.2C22.1,35.7,21.8,35.7,21.6,35.7z"/>
	</g>
</g>
<g>
	<path class="st0" d="M57.8,15.9l1.5-8.8h3.1c0.6,0,1,0.1,1.4,0.2s0.7,0.3,1,0.7s0.4,0.8,0.4,1.3c0,1-0.6,1.7-1.7,2.1
		c0.9,0.4,1.4,1.1,1.4,2c0,0.6-0.2,1.2-0.6,1.7c-0.4,0.5-1.2,0.8-2.5,0.8H57.8z M59.6,14.7h1.8c0.5,0,0.8,0,1.1-0.1
		c0.2-0.1,0.4-0.2,0.6-0.5c0.2-0.2,0.2-0.5,0.2-0.8c0-0.3-0.1-0.5-0.2-0.8c-0.2-0.2-0.3-0.3-0.5-0.4C62.3,12,62,12,61.7,12h-1.6
		L59.6,14.7z M60.3,10.8h1.6c0.7,0,1.2-0.1,1.4-0.4c0.2-0.3,0.3-0.6,0.3-0.9c0-0.8-0.5-1.2-1.5-1.2h-1.4L60.3,10.8z"/>
	<path class="st0" d="M72.9,15.9h-1.8l-0.4-2.1h-3.2l-1,2.1h-1.5l4.2-8.8h2L72.9,15.9z M70.6,12.6l-0.7-3.9l-1.8,3.9H70.6z"/>
	<path class="st0" d="M73.9,15.9l1.5-8.8h2.6c0.6,0,1.1,0.1,1.4,0.2c0.4,0.1,0.7,0.3,1.1,0.6c0.3,0.3,0.6,0.7,0.8,1.3
		s0.3,1.2,0.3,1.9c0,0.8-0.2,1.6-0.5,2.3c-0.3,0.7-0.7,1.3-1.1,1.7s-0.9,0.6-1.3,0.8s-1,0.2-1.8,0.2H73.9z M75.7,14.6h1.4
		c0.5,0,0.8-0.1,1.1-0.2s0.6-0.3,0.8-0.6c0.3-0.3,0.5-0.7,0.6-1.3c0.2-0.6,0.2-1.1,0.2-1.7c0-0.5-0.1-0.9-0.2-1.3
		c-0.2-0.4-0.4-0.7-0.7-0.8c-0.3-0.2-0.7-0.2-1.3-0.2h-0.9L75.7,14.6z"/>
	<path class="st0" d="M89,15.9h-1.8l-0.4-2.1h-3.2l-1,2.1h-1.5l4.2-8.8h2L89,15.9z M86.8,12.6l-0.7-3.9l-1.8,3.9H86.8z"/>
	<path class="st0" d="M96.6,15.9h-1.3l-3-6.6l-1.1,6.6H90l1.5-8.8h1.6l2.7,6l1-6h1.3L96.6,15.9z"/>
	<path class="st0" d="M103.5,15.9h-1.6l1.5-8.8h2.4c0.8,0,1.3,0,1.7,0c0.4,0,0.7,0.1,1,0.3c0.3,0.2,0.6,0.5,0.8,0.9
		c0.2,0.4,0.3,0.8,0.3,1.2c0,0.6-0.2,1.2-0.5,1.6c-0.3,0.5-0.7,0.8-1.2,0.9c-0.4,0.2-1,0.2-1.6,0.2h-2.1L103.5,15.9z M104.8,8.4
		l-0.4,2.7h1.6c0.6,0,0.9,0,1.2-0.1c0.2-0.1,0.4-0.2,0.6-0.5c0.2-0.2,0.3-0.5,0.3-0.9c0-0.3-0.1-0.6-0.2-0.8
		c-0.2-0.2-0.3-0.3-0.5-0.4c-0.2-0.1-0.6-0.1-1.1-0.1H104.8z"/>
	<path class="st0" d="M117.4,7.1l-1,5.7c-0.1,0.7-0.3,1.3-0.5,1.7c-0.2,0.4-0.5,0.8-1.1,1.1c-0.5,0.3-1.1,0.5-1.8,0.5
		c-0.4,0-0.9-0.1-1.3-0.2s-0.8-0.4-1.1-0.8s-0.5-0.9-0.5-1.6c0-0.3,0-0.8,0.1-1.2l0.9-5.1h1.6l-0.9,5.2c-0.1,0.6-0.1,0.9-0.1,1.1
		c0,0.5,0.2,0.8,0.5,1s0.7,0.3,1.1,0.3c0.3,0,0.7-0.1,0.9-0.2c0.3-0.1,0.5-0.3,0.6-0.6s0.3-0.8,0.4-1.5l0.9-5.3H117.4z"/>
	<path class="st0" d="M124.6,8.8l-1.4,0.5c-0.3-0.7-0.9-1.1-1.7-1.1c-0.5,0-0.9,0.1-1.1,0.3s-0.4,0.5-0.4,0.9c0,0.3,0.1,0.5,0.3,0.6
		c0.2,0.2,0.5,0.3,0.9,0.4l1.2,0.4c0.3,0.1,0.7,0.3,1,0.5s0.5,0.5,0.7,0.8c0.2,0.3,0.2,0.7,0.2,1c0,0.8-0.3,1.5-0.9,2.1
		c-0.6,0.6-1.5,0.9-2.6,0.9c-1.8,0-2.9-0.7-3.4-2.2l1.4-0.5c0.3,0.9,1,1.4,2.1,1.4c0.6,0,1-0.1,1.3-0.4c0.3-0.3,0.4-0.6,0.4-0.9
		c0-0.2-0.1-0.4-0.2-0.5c-0.1-0.1-0.2-0.3-0.4-0.3c-0.2-0.1-0.5-0.2-1-0.3c-0.7-0.2-1.2-0.4-1.6-0.6c-0.3-0.2-0.6-0.4-0.8-0.8
		c-0.2-0.3-0.3-0.8-0.3-1.2c0-0.8,0.3-1.5,0.9-2c0.6-0.5,1.4-0.8,2.4-0.8C123,6.9,124,7.6,124.6,8.8z"/>
	<path class="st0" d="M132,15.9h-1.8l-0.4-2.1h-3.2l-1,2.1h-1.5l4.2-8.8h2L132,15.9z M129.8,12.6l-0.7-3.9l-1.8,3.9H129.8z"/>
	<path class="st0" d="M138.7,8.5h-2.2l-1.2,7.4h-1.6l1.2-7.4h-2.2l0.2-1.4h6.1L138.7,8.5z"/>
	<path class="st0" d="M148.5,8.8l-1.4,0.5c-0.3-0.7-0.9-1.1-1.7-1.1c-0.5,0-0.9,0.1-1.1,0.3s-0.4,0.5-0.4,0.9c0,0.3,0.1,0.5,0.3,0.6
		c0.2,0.2,0.5,0.3,0.9,0.4l1.2,0.4c0.3,0.1,0.7,0.3,1,0.5s0.5,0.5,0.7,0.8c0.2,0.3,0.2,0.7,0.2,1c0,0.8-0.3,1.5-0.9,2.1
		c-0.6,0.6-1.5,0.9-2.6,0.9c-1.8,0-2.9-0.7-3.4-2.2l1.4-0.5c0.3,0.9,1,1.4,2.1,1.4c0.6,0,1-0.1,1.3-0.4c0.3-0.3,0.4-0.6,0.4-0.9
		c0-0.2-0.1-0.4-0.2-0.5c-0.1-0.1-0.2-0.3-0.4-0.3c-0.2-0.1-0.5-0.2-1-0.3c-0.7-0.2-1.2-0.4-1.6-0.6c-0.3-0.2-0.6-0.4-0.8-0.8
		c-0.2-0.3-0.3-0.8-0.3-1.2c0-0.8,0.3-1.5,0.9-2c0.6-0.5,1.4-0.8,2.4-0.8C147,6.9,148,7.6,148.5,8.8z"/>
	<path class="st0" d="M155.5,8.5h-2.2l-1.2,7.4h-1.6l1.2-7.4h-2.2l0.2-1.4h6.1L155.5,8.5z"/>
	<path class="st0" d="M161.5,15.9h-1.8l-0.4-2.1h-3.2l-1,2.1h-1.5l4.2-8.8h2L161.5,15.9z M159.2,12.6l-0.7-3.9l-1.8,3.9H159.2z"/>
	<path class="st0" d="M168.2,8.5h-2.2l-1.2,7.4h-1.6l1.2-7.4h-2.2l0.2-1.4h6.1L168.2,8.5z"/>
	<path class="st0" d="M169.5,15.9h-1.6l1.5-8.8h1.6L169.5,15.9z"/>
	<path class="st0" d="M178.2,8.8l-1.4,0.5c-0.3-0.7-0.9-1.1-1.7-1.1c-0.5,0-0.9,0.1-1.1,0.3s-0.4,0.5-0.4,0.9c0,0.3,0.1,0.5,0.3,0.6
		c0.2,0.2,0.5,0.3,0.9,0.4l1.2,0.4c0.3,0.1,0.7,0.3,1,0.5s0.5,0.5,0.7,0.8c0.2,0.3,0.2,0.7,0.2,1c0,0.8-0.3,1.5-0.9,2.1
		c-0.6,0.6-1.5,0.9-2.6,0.9c-1.8,0-2.9-0.7-3.4-2.2l1.4-0.5c0.3,0.9,1,1.4,2.1,1.4c0.6,0,1-0.1,1.3-0.4c0.3-0.3,0.4-0.6,0.4-0.9
		c0-0.2-0.1-0.4-0.2-0.5c-0.1-0.1-0.2-0.3-0.4-0.3c-0.2-0.1-0.5-0.2-1-0.3c-0.7-0.2-1.2-0.4-1.6-0.6c-0.3-0.2-0.6-0.4-0.8-0.8
		c-0.2-0.3-0.3-0.8-0.3-1.2c0-0.8,0.3-1.5,0.9-2c0.6-0.5,1.4-0.8,2.4-0.8C176.7,6.9,177.7,7.6,178.2,8.8z"/>
	<path class="st0" d="M185.1,8.5h-2.2l-1.2,7.4H180l1.2-7.4H179l0.2-1.4h6.1L185.1,8.5z"/>
	<path class="st0" d="M186.5,15.9h-1.6l1.5-8.8h1.6L186.5,15.9z"/>
	<path class="st0" d="M195.4,15.9h-1.7l-1.3-4.4l-2.1,2.2l-0.4,2.2h-1.6l1.5-8.8h1.6l-0.6,3.8c0,0.1-0.1,0.4-0.2,0.9
		c0.2-0.2,0.3-0.5,0.5-0.7l3.7-4.1h1.7l-2.9,3.1L195.4,15.9z"/>
	<path class="st0" d="M64.8,31.8h-1.7l-1.3-4.4l-2.1,2.2l-0.4,2.2h-1.6l1.5-8.8h1.6l-0.6,3.8c0,0.1-0.1,0.4-0.2,0.9
		c0.2-0.2,0.3-0.5,0.5-0.7l3.7-4.1h1.7l-2.9,3.1L64.8,31.8z"/>
	<path class="st0" d="M73,31.8h-1.8l-0.4-2.1h-3.2l-1,2.1h-1.5l4.2-8.8h2L73,31.8z M70.7,28.5L70,24.5l-1.8,3.9H70.7z"/>
	<path class="st0" d="M74,31.8l1.5-8.8h3.1c0.6,0,1,0.1,1.4,0.2s0.7,0.3,1,0.7c0.3,0.4,0.4,0.8,0.4,1.3c0,1-0.6,1.7-1.7,2.1
		c0.9,0.4,1.4,1.1,1.4,2c0,0.6-0.2,1.2-0.6,1.7c-0.4,0.5-1.2,0.8-2.5,0.8H74z M75.8,30.5h1.8c0.5,0,0.8,0,1.1-0.1
		c0.2-0.1,0.4-0.2,0.6-0.5c0.2-0.2,0.2-0.5,0.2-0.8c0-0.3-0.1-0.5-0.2-0.8C79,28.2,78.8,28,78.6,28c-0.2-0.1-0.5-0.1-0.8-0.1h-1.6
		L75.8,30.5z M76.4,26.7H78c0.7,0,1.2-0.1,1.4-0.4c0.2-0.3,0.3-0.6,0.3-0.9c0-0.8-0.5-1.2-1.5-1.2h-1.4L76.4,26.7z"/>
	<path class="st0" d="M89.7,23l-1,5.7c-0.1,0.7-0.3,1.3-0.5,1.7s-0.5,0.8-1.1,1.1c-0.5,0.3-1.1,0.5-1.8,0.5c-0.4,0-0.9-0.1-1.3-0.2
		c-0.4-0.1-0.8-0.4-1.1-0.8s-0.5-0.9-0.5-1.6c0-0.3,0-0.8,0.1-1.2l0.9-5.1H85l-0.9,5.2c-0.1,0.6-0.1,0.9-0.1,1.1
		c0,0.5,0.2,0.8,0.5,1c0.3,0.2,0.7,0.3,1.1,0.3c0.3,0,0.7-0.1,0.9-0.2s0.5-0.3,0.6-0.6c0.1-0.3,0.3-0.8,0.4-1.5l0.9-5.3H89.7z"/>
	<path class="st0" d="M91.7,31.8H90l1.5-8.8h2.4c0.8,0,1.3,0,1.7,0s0.7,0.1,1,0.3c0.3,0.2,0.6,0.5,0.8,0.9c0.2,0.4,0.3,0.8,0.3,1.2
		c0,0.6-0.2,1.2-0.5,1.6c-0.3,0.5-0.7,0.8-1.2,0.9c-0.4,0.2-1,0.2-1.6,0.2h-2.1L91.7,31.8z M92.9,24.3L92.5,27h1.6
		c0.6,0,0.9,0,1.2-0.1c0.2-0.1,0.4-0.2,0.6-0.5c0.2-0.2,0.3-0.5,0.3-0.9c0-0.3-0.1-0.6-0.2-0.8c-0.2-0.2-0.3-0.3-0.5-0.4
		s-0.6-0.1-1.1-0.1H92.9z"/>
	<path class="st0" d="M104.4,31.8h-1.8l-0.4-2.1h-3.2l-1,2.1h-1.5l4.2-8.8h2L104.4,31.8z M102.1,28.5l-0.7-3.9l-1.8,3.9H102.1z"/>
	<path class="st0" d="M111.1,24.4h-2.2l-1.2,7.4H106l1.2-7.4H105l0.2-1.4h6.1L111.1,24.4z"/>
	<path class="st0" d="M116.5,31.8h-5.7l1.5-8.8h5.6l-0.2,1.4h-4l-0.4,2.3h3.3l-0.2,1.3H113l-0.4,2.5h4.2L116.5,31.8z"/>
	<path class="st0" d="M124.5,31.8h-1.3l-3-6.6l-1.1,6.6h-1.3l1.5-8.8h1.6l2.7,6l1-6h1.3L124.5,31.8z"/>
	<path class="st0" d="M136.6,24.7l-1.4,0.5c-0.3-0.7-0.9-1.1-1.7-1.1c-0.5,0-0.9,0.1-1.1,0.3s-0.4,0.5-0.4,0.9
		c0,0.3,0.1,0.5,0.3,0.6c0.2,0.2,0.5,0.3,0.9,0.4l1.2,0.4c0.3,0.1,0.7,0.3,1,0.5s0.5,0.5,0.7,0.8c0.2,0.3,0.2,0.7,0.2,1
		c0,0.8-0.3,1.5-0.9,2.1c-0.6,0.6-1.5,0.9-2.6,0.9c-1.8,0-2.9-0.7-3.4-2.2l1.4-0.5c0.3,0.9,1,1.4,2.1,1.4c0.6,0,1-0.1,1.3-0.4
		s0.4-0.6,0.4-0.9c0-0.2-0.1-0.4-0.2-0.5c-0.1-0.1-0.2-0.3-0.4-0.3c-0.2-0.1-0.5-0.2-1-0.3c-0.7-0.2-1.2-0.4-1.6-0.6
		c-0.3-0.2-0.6-0.4-0.8-0.8c-0.2-0.3-0.3-0.8-0.3-1.2c0-0.8,0.3-1.5,0.9-2c0.6-0.5,1.4-0.8,2.4-0.8C135,22.8,136,23.4,136.6,24.7z"
		/>
	<path class="st0" d="M144.7,23l-1,5.7c-0.1,0.7-0.3,1.3-0.5,1.7c-0.2,0.4-0.5,0.8-1.1,1.1c-0.5,0.3-1.1,0.5-1.8,0.5
		c-0.4,0-0.9-0.1-1.3-0.2s-0.8-0.4-1.1-0.8s-0.5-0.9-0.5-1.6c0-0.3,0-0.8,0.1-1.2l0.9-5.1h1.6l-0.9,5.2c-0.1,0.6-0.1,0.9-0.1,1.1
		c0,0.5,0.2,0.8,0.5,1s0.7,0.3,1.1,0.3c0.3,0,0.7-0.1,0.9-0.2c0.3-0.1,0.5-0.3,0.6-0.6s0.3-0.8,0.4-1.5l0.9-5.3H144.7z"/>
	<path class="st0" d="M153.7,31.8h-1.6l1.3-8l-3.8,8h-0.9l-1.2-8l-1.3,8h-1.2l1.5-8.8h2.4l0.9,5.9l2.7-5.9h2.6L153.7,31.8z"/>
	<path class="st0" d="M155.6,31.8l1.5-8.8h3.1c0.6,0,1,0.1,1.4,0.2s0.7,0.3,1,0.7c0.3,0.4,0.4,0.8,0.4,1.3c0,1-0.6,1.7-1.7,2.1
		c0.9,0.4,1.4,1.1,1.4,2c0,0.6-0.2,1.2-0.6,1.7s-1.2,0.8-2.5,0.8H155.6z M157.4,30.5h1.8c0.5,0,0.8,0,1.1-0.1
		c0.2-0.1,0.4-0.2,0.6-0.5s0.2-0.5,0.2-0.8c0-0.3-0.1-0.5-0.2-0.8c-0.2-0.2-0.3-0.3-0.5-0.4c-0.2-0.1-0.5-0.1-0.8-0.1h-1.6
		L157.4,30.5z M158.1,26.7h1.6c0.7,0,1.2-0.1,1.4-0.4c0.2-0.3,0.3-0.6,0.3-0.9c0-0.8-0.5-1.2-1.5-1.2h-1.4L158.1,26.7z"/>
	<path class="st0" d="M170.7,31.8H169l-0.4-2.1h-3.2l-1,2.1h-1.5l4.2-8.8h2L170.7,31.8z M168.4,28.5l-0.7-3.9l-1.8,3.9H168.4z"/>
	<path class="st0" d="M179.4,31.9h-1.6l-0.8-6.6l-2.7,6.6h-1.5l-1-8.9h1.7l0.6,6.7l2.7-6.7h1.6l0.7,6.7l2.7-6.7h1.4L179.4,31.9z"/>
	<path class="st0" d="M189.3,31.8h-1.8l-0.4-2.1H184l-1,2.1h-1.5l4.2-8.8h2L189.3,31.8z M187,28.5l-0.7-3.9l-1.8,3.9H187z"/>
</g>
</svg>
